<?xml version="1.0" encoding="utf-8"?>
<!-- Generator: Adobe Illustrator 25.0.1, SVG Export Plug-In . SVG Version: 6.00 Build 0)  -->
<svg version="1.1" id="Layer_1" xmlns="http://www.w3.org/2000/svg" xmlns:xlink="http://www.w3.org/1999/xlink" x="0px" y="0px"
	 viewBox="0 0 542 541" style="enable-background:new 0 0 542 541;" xml:space="preserve">
<style type="text/css">
	.st0{fill-rule:evenodd;clip-rule:evenodd;fill:#FAFAFA;stroke:#E2E2E2;}
	.st1{fill-rule:evenodd;clip-rule:evenodd;fill:#F2F2F2;stroke:#7E5AF6;}
</style>
<path class="st0" d="M80.8,349c0.9-0.9,2.5,0.9,3.8,1c1.4,0.2,2.8-0.8,2.8-0.8s-0.3-0.2-2.5-0.3c-2.2-0.2-2.4-2.8-4.3-1.9
	s-3.3,1.2-5.8,0.9c0,0.7-0.5,1.7-0.6,2.7c0.6-0.2,1.1-0.3,1.3-0.3C76.9,350.4,79.8,349.9,80.8,349z"/>
<path class="st0" d="M81.8,359.6c1-0.7,3-2.5,3.7-2.2s1.6-0.3,1.6-0.7c0-0.4-1.4-1.7-0.3-2.1c0.8-0.3,0.9-1.2,1-1.7
	c-0.4-0.2-0.8-0.3-1.1-0.3c-0.9,0.1-6.6,0.5-6.6,0.5s-1.7,1.1-2.6,1c-0.7-0.1,0-1.2-2.3-0.6c1.2,1.4,1.3,2.2,3.6,2.8
	c2.6,0.7-0.2,2.1,2,3.4c0.2,0.1,0.4,0.3,0.5,0.4C81.5,359.8,81.7,359.7,81.8,359.6z"/>
<path class="st0" d="M313.4,443.8c-0.4-2.1,6.3-11.8,8-11.8c1.4,0,1.9-9.3,1.3-14.1c-5.2-3.6-9.5-4.8-9.5-4.8s-14-0.7-16.3-1.6
	s-4.7,3-6.8,1.4c-2.1-1.6-5.1,0.5-4.7,2.8c0.5,2.3,4.9,3.7,4.9,7.2s8.9,8.6,8.6,10.5c-0.2,1.3,5.3,4.9,8.6,9.7
	c1.7,1.1,3.6,2.5,5.4,4C313.3,445.6,313.5,444.4,313.4,443.8z"/>
<path class="st0" d="M299,433.4c0.2-1.9-8.6-7-8.6-10.5s-4.4-4.9-4.9-7.2c-0.5-2.3,2.6-4.4,4.7-2.8s4.4-2.3,6.8-1.4
	c2.3,0.9,16.3,1.6,16.3,1.6s4.3,1.2,9.5,4.8c-0.1-1-0.3-1.8-0.5-2.3c-1.3-3,0-6.3-3.4-7.6c-1.7-0.6-2.5-3.6-2.8-6.4
	c-1.6,0.5-2.9,0.9-3.7,1.1c-2.8,0.7-8.7,0.3-10.8-2.5c-1.6-2.1-6.4-5.1-8.8-6.6c-1,0.9-4.7,4-6.3,4.2c-1.9,0.2-0.7,5.2-2.6,5.2
	s-3.3,3.3-3.8,4.7c-0.5,1.4-4.7-0.9-6.6-0.2c-1.3,0.5-5.3,1.1-7.5,1.4c0.3,2.1,0.2,4.5,1.9,4.5c2.8,0,8-0.3,8.1,3.4
	c0.1,3.8,6.9,12,9.4,14.9c2.5,2.8,8.1,2.2,8.4,4.5s4.4,4.5,9.1,4.9c1.3,0.1,2.8,0.8,4.4,1.9C304.3,438.3,298.8,434.7,299,433.4z"/>
<path class="st0" d="M333.7,478.5c2.3-0.5,0.9-2.3,2.6-4c1.6-1.6,3.5-4.9,3.8-6.1c0-0.1,0.1-0.2,0.2-0.3c-3.2-2.4-5.4-4.1-6.1-6.6
	s0-7.4,1.1-11c-1.8-1.3-7.4-5.2-9.2-5.2c-1.7,0-4.4,3.9-5.1,7.6c4.1,2.2,5.7,3.8,2.9,6.6c-3,3-3.6,13-0.3,15.6c3.1,2.5,4,7.6,7,9
	C331.5,481.7,332.1,478.8,333.7,478.5z"/>
<path class="st0" d="M313.5,347.5c-1.8-1-6.6-0.3-7-1.7c-0.3-1.4-0.7-3.8-2.8-3.8c-2.1,0-4.9-1.4-5.9,1c-1.1,2.4-5.2-0.7-5.6-2.5
	c-0.3-1.7-2.1-3.1-7-4.9c-1.9-0.7-4.1-2.1-6.1-3.6c-0.2,0.4-0.4,0.8-0.6,1.1c-0.9,1.4-4.2-1.2-5.6,0.2c-1.4,1.4-6.1,1.6-8.7,4
	c-2.6,2.3-8,3.5-11,4.2c-3.1,0.7-0.5,3.5,0.7,5.6s1.2,7.3,3.5,8.9s10.1,6.6,11,8.2c0.2,0.3,0.1,0.5-0.1,0.8c3.3,0.9,8.3,0.9,9.2-0.6
	c1-1.7,1.8-4.9,1.8-4.9s7,0,9.8,3.2c2.8,3.1,8,1,8,1s0.3,0.9,0.8,2.1c0.8-1.7,1.7-3.2,2.9-3.4c3-0.4,7.1-0.8,10.1-5
	c1.5-2.2,4-3.9,6.1-5C315.6,350.8,314.9,348.3,313.5,347.5z"/>
<path class="st0" d="M341.8,354.9c-3.5,0.3-5.2-1.8-8-0.7c-2.8,1-7.3,0-9.1-1c-1.8-1-3.8,2.1-6.3,0.7c-0.5-0.3-1-0.8-1.4-1.2
	c-2.1,1.2-4.6,2.9-6.1,5c-2.9,4.2-7.1,4.6-10.1,5c-1.2,0.2-2.2,1.7-2.9,3.4c1,2.5,2.7,6.5,4.8,8.3c3.2,2.8,14.3,2.4,14.3,0
	s9.1-3.5,11.2-3.5s8.7-6.6,9.8-6.3c1.1,0.3,8,1.4,9.8,3.1c0.9,0.9,3.7,1.7,6.7,2.4c-1.2-1.1-2.2-2.5-2.2-3.7c0-1.9,3.5-6.8,4.7-7.7
	c0.1-0.1,0.1-0.2,0.2-0.3c-2.7-0.4-5.6-1-6.2-1.5C349.9,355.9,345.3,354.5,341.8,354.9z"/>
<path class="st0" d="M45.7,504.9c4.2-0.8-1.1-4.2-2.3-5.3c-1.1-1.1,0.4-5.7,2.7-5.7s0-2.7-3-5.7s0-4.2,2.7-4.2s-0.8-4.6,1.9-7.2
	c2.7-2.7-0.8-7.6-0.8-9.9s3.8-3,6.9-6.1c3-3.1-2.7-1.9-2.7-4.2c0-2.3-3.8-3.1-6.5-1.1c-2.7,1.9-1.9,0-4.2,0s-6.5,0.8-6.5-1.5
	s-1.9-2.7-3.8-0.4c-0.6,0.7-1.5,1-2.8,1.2c-0.3,3-0.6,5.8,0.3,7.2c2,3.3-2.5,20.7-6.6,25.3c-4.1,4.7-0.1,6,4.1,9.2
	c4.2,3.3,1.4,15.2,1.4,18c0,2.8,3.8,2,8.1,2c2.6,0,5.6-1.2,8.4-1.7c-0.9-1.3-1.5-2.6-1.5-3.4C41.5,509.1,41.5,505.7,45.7,504.9z"/>
<path class="st0" d="M168.5,326.7c1.9-1.9,5.3-1,7.2,1c1.9,1.9,4.8,2.4,7.7,5.3c0.7,0.7,1.5,1.4,2.3,2c0.3-2,0.3-6,1.2-8.1
	c0.9-2.2-0.9-5,0.6-5c1.6,0,5.9,0,5.9-2.8s1.3-1.9,2.2-3.4c0.9-1.6-2.8-4.7-3.4-5.6c-0.6-0.9,2.8-1.2,5.3-5c0.9-1.4,0.5-4.2-0.3-7.2
	c-0.4,1.1-1.3,1.9-2.7,1.1c-2.3-1.4-5.9-0.6-10.6,0.3c-4.7,0.9-6.1,5.5-4.4,7.3c1.7,1.9-4.5,2.8-5,0.3s-5.2-0.8-4.9,2.5
	s-5.2,4.5-4.8,8.6c0.3,4.1-5,7.8-8.4,9.9c-0.5,0.3-1.1,0.6-1.7,1c1.7,0.8,3.1,1.3,3.8,1.3C161.4,330.1,166.6,328.7,168.5,326.7z"/>
<path class="st0" d="M186.3,344.9c-2.1,1.2-4,3.7-3.7,9c2-0.1,4.9,0.2,7,0.8c-0.5-5.8-2.8-7.6-3.3-8.8
	C186.1,345.6,186.2,345.3,186.3,344.9z"/>
<path class="st0" d="M149,333.2c0.2,1.6,2.8,5.6,3.8,4c0.9-1.6,3.3,2.1,5.4,3.3c2.1,1.2,6.3,2.6,6.6,4c0.2,1.4,0.9,4.5,3.1,3.5
	c2.1-0.9,4.7-4.2,4.7-2.4c0,1.9,0.7,5.4,3,4.9s3.1,4,5.4,3.5c0.4-0.1,1-0.1,1.7-0.1c-0.3-5.3,1.6-7.8,3.7-9c0.5-0.9,1.9-1.9,2.1-3.1
	c0.3-1.6-3.1-4.7-2.8-6.6v-0.3c-0.8-0.6-1.6-1.3-2.3-2c-2.9-2.9-5.7-3.3-7.7-5.3c-1.9-1.9-5.3-2.9-7.2-1s-7.2,3.3-10,3.3
	c-0.7,0-2-0.5-3.8-1.3c-2.3,1.3-4.7,2.5-7.1,3C148.2,332.4,148.9,332.1,149,333.2z"/>
<path class="st0" d="M424.3,377.2c-1.3-4.1-5.3-5.6-7.5-5.6s-5.9-5-8.4-4.7c-1.4,0.2-4.7,1-7.7,2c2.7,5.1,5.6,10.4,7,11.9
	c2.9,3.3,9.1,12.4,6.7,14.8c-1.9,1.9-1.1,9.6,1.8,11.9c1.4-1.8,6-7.6,6-9.3c0-1.9,0.3-5.6,4.1-4.7c3.8,0.9,7.2,2.5,7.2,1.3
	c0-1.3-0.9-5.3-2.5-6.9C429.3,386.3,425.6,381.3,424.3,377.2z"/>
<path class="st0" d="M404,425.4c-2.5-0.3-10.3,0-12.5,2.2s-5,3.4-7.5,3.1s-9.7-0.6-11.3-0.3c-1.6,0.3-10-1.6-11.3-1.3
	c-1.1,0.3-3.2-3.6-6-4.1c-0.1,0.4-0.4,0.7-0.9,1c-2.1,1.4-2.4,5.2,0,7.3c2.3,2.1,5.4,6.8,3.3,6.8s-3.8,2.8-3.5,4.2
	c0.2,1.4-0.7,4.5,0,5.2s5.6,5.4,5.9,6.8c0.2,1.2,2.2,1.9,2.1,3c3.9-0.3,12.3-0.8,14.2,0.2c2.5,1.3,11.3,1.9,11.3,1.9
	c2.5,0,4.7-0.9,4.1-2.5c-0.5-1.3,2.7-2.2,5.1-2.4c-0.4-1.4-0.7-2.6-0.1-2.9c1.2-0.5,8-1.4,10.8,0c1.4,0.7,3,0,4.3-0.8
	c-0.4-1.3-0.7-2.4-1.5-2.5c-1.7-0.3-4.4-7.5-2.2-8c2.2-0.5,5-8,8.4-9.1c1.4-0.4,2-1.3,2.2-2.3c-3-1-5.9-2.2-6.4-3
	C411.5,426.4,406.5,425.8,404,425.4z"/>
<path class="st0" d="M340.2,468.1c0.1-0.1,0.2-0.1,0.4-0.2h0.1c0.2,0,0.4-0.1,0.6-0.1h0.1c0.9-0.1,2.1,0,3.4-0.1h0.3
	c0.3,0,0.6,0,0.8-0.1h0.3c0.4,0,0.7-0.1,1.1-0.2c2.8-0.7,3.5-3.8,4.9-3c1.4,0.7,8.9-3.1,9.9-4.5c0.1-0.2,0.2-0.3,0.2-0.5
	c0.2-1.1-1.9-1.7-2.1-3c-0.2-1.4-5.2-6.1-5.9-6.8c-0.1-0.1-0.2-0.4-0.2-0.7v-0.1c0-0.3,0-0.7,0-1.1c-7.3,1.1-18.2,3.3-18.2,3.3
	s-0.3-0.2-0.6-0.4c-1.1,3.6-1.9,8.5-1.1,11C334.8,464,337.1,465.7,340.2,468.1z"/>
<path class="st0" d="M537.6,359.2c0-0.9,3.3-2.6,3-4.5c-0.2-1.9-3-2.1-6.1-3.8c-3.1-1.6-6.1-0.9-8.9-2.3c-2.8-1.4-8.7-0.5-8.7-1.4
	s-3.8-4-4.7-5.6c-0.9-1.6-4-0.7-5.9,0.5s-3.5,1.6-5.4,0.5c-1.9-1.2-3.5-3.1-5.2-2.4c-1.6,0.7-4.7,0.2-4-2.1c0.7-2.3-3-7.5-4.7-8.2
	c-1.6-0.7-6.6,0.5-7.7-1.9c-1.2-2.4-3.3-4.2-2.3-5.9c0.9-1.6-0.2-6.1-1.4-8c-1.2-1.9-7-1.6-8.7-0.9c-1.6,0.7-5.4-0.7-7,0.2
	c-1.6,0.9-2.6,2.6-4.9,2.6c-1.3,0-2.2-0.2-2.9-1.2c-2.5,1.1-6.8,1.4-6.8,1.4s-6.3,5-6.3,6.9s-0.3,5-1.9,3.4s-8.1-1.6-9.7-0.6
	c-1.6,0.9-4.1-3.8-6.9-2.2c-2.8,1.6-6.6-2.2-6.9-0.6s-4.4,0.3-7.2-0.9c-2.8-1.3-7.8,0.6-9.7-1.6c-1.9-2.2-14.1-2.2-18.1-2.2
	c-4.1,0-5,2.2-6.9,4.1c-1.7,1.7-3.7,1.4-5.7,1.3c0.2,1.6,0.5,3,0.9,3.6c0.9,1.4,5.4,8.2,4.2,10.3c-1.2,2.1-3.3,2.1-4.7,3.8
	c-1.4,1.6-9.6,8.9-9.9,10.1c-0.2,1.2,1.4,6.3,0.2,7.3c-1.2,0.9-4.7,5.9-4.7,7.7c0,1.9,2.6,4.5,4.7,5.2c0.9,0.3,1.5,0.7,1.7,1.2
	c1.6-0.2,3.1-0.4,4.1-0.4c1.6,0,8.4,1.9,10.6,1.9s5.3,0.9,6.3,1.9c0.9,0.9,3.1,0.3,4.7-1.3c1.6-1.6,3.4-0.6,5.3-0.6s5-1.6,5.9-3.1
	c0.9-1.6,10.3-4.1,12.8-4.4s6.3,4.7,8.4,4.7c2.2,0,6.3,1.6,7.5,5.6c1.3,4.1,5,9.1,6.6,10.6c1.6,1.6,2.5,5.6,2.5,6.9
	s-3.4-0.3-7.2-1.3c-3.7-0.9-4.1,2.8-4.1,4.7s-5.3,8.4-6.3,9.7c-0.9,1.3,1.9,2.2,4.1,2.5c0.9,0.1,4.7-2.5,5.9-2.5
	c0.5,0,2.1,1.2,3.7,2.6c-0.4-4.9,0.7-4.6,5-7.9c4.5-3.4,5-9.9,9.1-10.6c4.1-0.8,5.8-2.7,11.7-1.7c5.9,0.9-3,4.7,1.1,6.9
	c2.7,1.4,9,0.7,13.2,1c5.4-0.9,10.9-0.8,16.5,0.2c2.7-2.5,8-5.8,11.5-6.2c4.9-0.5,8.8-1.9,13.5-4.1c1.9-0.9,5.2-1.8,8.6-2.4
	c-0.5-2.2-1.2-4.8,0.2-5c1.6-0.2,6.6-5.6,8.2-5.6c1.6,0,8.7,1.4,8.7,0.2c0-1.2,2.4-5.2,1.9-6.3c-0.5-1.2-2.8-2.8-2.3-4
	s3.7-1.2,3.7-2.6C540.1,360.9,537.6,360.2,537.6,359.2z"/>
<path class="st0" d="M364.1,253.6c2.9,0,9.6,1.4,13.4,0s3.8,2.9,6.2,2.4c2.4-0.5,7.2,2.9,10,5.3c1.5,1.3,3.3,2.3,5.4,3.5
	c0.5-0.8,1.1-1.6,2.1-2.3c2.5-1.9,5-0.9,7.2-0.9s2.5-2.5,4.1-3.8c0.9-0.7,2.2-1.1,3.3-1.3c-0.8-1.7-0.9-5.1-2.3-6.5
	c-1.6-1.6-4-4.5-3.3-6.1s0.7-4-1.2-5.9c-0.8-0.8-1.4-1.8-1.8-2.7c-3.8-0.5-8.9-1-10.1-0.7c-1.9,0.6-9.4-5.3-10.6-6.3
	c-0.8-0.6-6.4-0.3-11.4,0.2c-2.9,3.2-0.8,5.6-1,10.5c-0.2,5-5.6,4.1-8.6,4.1s-7.8-8.9-9.4-11c-1.6-2-6.6,2.5-10.2,4.7
	s-1.7,6.4-4.2,8.5c-2.5,2-4.1,5.5-1.6,10c0.1,0.2,0.2,0.4,0.3,0.6c3.1-0.2,6.5-0.8,8.4-2.2C352.2,251.2,361.2,253.6,364.1,253.6z"/>
<path class="st0" d="M346.3,270.8c1.2,1.6,4.9,3.1,6.3,2.4s5.9,1.6,5.9,3.5s-1.2,7.5,0,7.5c1.1,0,7.8,2.1,8.3,4.9
	c3,0.1,6.5,0.2,7.8,0.5c2.5,0.6,4.1-0.9,5.3-2.5c1.3-1.6,5.6-2.2,6.9-2.2s1.3-3.4,1.6-5c0.3-1.6,3.4-4.4,5.3-5s1.6-2.8,3.4-2.8
	c1.9,0,1.6-2.5,1.3-4.1c-0.2-0.9,0-2.1,0.8-3.3c-2-1.2-3.8-2.2-5.4-3.5c-2.9-2.4-7.7-5.8-10-5.3c-2.4,0.5-2.4-3.8-6.2-2.4
	c-3.8,1.4-10.5,0-13.4,0s-12-2.4-15.3,0c-1.9,1.4-5.3,1.9-8.4,2.2c2.1,4.4,1.4,8.8-1,11.5c-1.7,1.9-0.7,2.2,0.5,2.9
	C342.5,269.9,345.4,269.4,346.3,270.8z"/>
<path class="st0" d="M229,389.1c-2.1,0.9-5.4-1.9-5.4-2.8c0-0.7-0.4-3,0-4.4c-1.7-0.9-4.2-2.1-6.1-2.7c-3.1-0.9-4.7-0.9-7.2,0.3
	c-1.6,0.8-6,0.6-9,0.3c-0.3,0.9-0.7,1.6-1.4,1.6c-2.1,0-4.9,2.1-5.4,4.5c-0.5,2.3-5.4,4.2-6.8,8.4c-1.4,4.2-0.7,6.1,1.4,3.5
	c2.1-2.6,4.7-1.6,4.7,0.5s2.8,2.3,1.9,5.2v0.2c3.2-0.3,7.7-0.6,9-0.6c2.2,0,4.4-6.9,5.3-7.5c0.9-0.6,3.4,5,6,7.2
	c2.5,2.2,2.8-1.9,2.8-3.8s2.2-2.5,3.8-2.2s5,0.9,5-1.3c0-2.2,1.9-1.2,3.1-1.2c1.3,0,1.6-2.5,1.6-2.5l2-1.9
	C232.6,388.9,230.7,388.3,229,389.1z"/>
<path class="st0" d="M434.3,168.8c2.5-5.6,13.8-10,15.6-15c0.9-2.5,1.2-3.8-2.8-8.5c-4.1-4.7-13.1-7.8-13.5-10.3
	c-0.3-2.5,6.9-2.8,6.6-6c-0.3-3.1-4.1-3.1-5.6-5.6c-1.6-2.5,1.9-4.1,1.6-5.3c-0.3-1.2-5-1.9-5.3-3.4c-0.3-1.6,3.1-1.2,2.5-3.1
	s-3.7-5.3-1.6-8.1c2.2-2.8,6.9,0,3.4-6.3c-3.4-6.3-8.8-14.1-10-16c-1.3-1.9,1.3-5,3.1-6.2c1.9-1.3,6.6-6,6.6-7.8
	c0-1.9-5.9-6.9-7.5-7.8c-1.6-0.9-5-0.6-6.6-3.8c-1.6-3.1-3.1-4.1-1.6-5.9c1.6-1.9,1.6-3.8,1.6-5.6c0-1.9,3.4-0.3,4.1-3.1
	c0.3-1.3,1.2-2.7,2.3-3.9c0-2.1,0.2-4.4,0-5.9c-0.5-3-9-4-11.1-7.5c-2-3.5-7-2-8.5,0S397,23.2,397,26.2s-6.5,3.5-6.5,7s3,9.6-2,9.1
	s-1.5,2-4.5,6s-3-2.5-6-1.5s-6.5-3-8-0.5s-6.5,0.5-11.6-0.5c-5-1-7.5-8-11.6-8.5c-2.7-0.3-5.5,1.8-7,5.2c3.9,2.5,6.4,6.1,11.5,8.4
	c5.5,2.5,15.6,5.5,15.1,9.1c-0.5,3.5-2,8.5,0.5,10.1c2.5,1.5-0.5,8,2.5,9.6c3,1.5,2,9-0.5,9s0.5,4,2,5.5c0.7,0.7,1.2,2.7,1.5,5.2
	c3.1,0.7,5.8,2.3,8.5,3.5c4.2,1.9,3.6,4.8,3.8,8.1c0.2,3.3,0.3,5.2-1.9,3.8c-2.2-1.4-4.5,0-5.8,4.7s-7.2,10.3-10.8,10.6
	c-3.6,0.3-3.3,4.1-6.3,4.8c-3,0.8-5.8,2.5-5.6,5.8c0.2,3.3-4.4,3.6-7.4,3.6s-2.3,5.3-4.7,6.7c-2.3,1.4-1.9,3.3,0.3,6.1
	c2.2,2.8,0.3,5.3,1.1,7.4c0.8,2,4.2,6.7,1.9,11.9c-2.3,5.2-4.8,11.6-2.8,11s6.7,4.2,9.9,3.9c3.1-0.3,3.4,4.4,6.4,3.4
	c3-0.9,3,2.8,11.6,2.5s26-7.5,32.8-7.5c3.9,0,7-0.5,9.5-1.1c1.5-2.2,3.3-4.6,5.1-6.4C422.4,177.6,431.8,174.5,434.3,168.8z"/>
<path class="st0" d="M221.1,440.8c-1.7-0.2-2.2,3-6.6,5.6c-4.4,2.7,0,14.7,4.4,14.1C223.5,459.9,222.9,440.9,221.1,440.8z
	 M204.4,361.1c-1.4,0.2-2.6-1.9-5.6-1.9s-5.4-1.4-6.8-3.3c-1.4-1.9-8.7-2.3-11-1.9c-2.3,0.5-3.1-4-5.4-3.5c-2.3,0.5-3-3.1-3-4.9
	c0-1.9-2.6,1.4-4.7,2.4c-2.1,0.9-2.8-2.1-3.1-3.5c-0.2-1.4-4.5-2.8-6.6-4s-4.5-4.9-5.4-3.3s-3.5-2.3-3.8-4c-0.2-1.1-0.9-0.7-1.4-1.4
	c-0.8,0.2-1.6,0.3-2.4,0.2c-3.8-0.2-7,2.8-6.4,9.1c0.6,6.3-4.5,6.9-11,7.3c-6.4,0.5-4.2,5.5-6.9,7.5c-2.7,2-12-1.1-13.3-4.5
	s-9.7,0-6.1,4.1s3.4,9.7,1.4,11.3c-2,1.6-6.4-2.5-9.2-0.5c-2.8,2-3-1.9-6.4-3.1c-3.4-1.3-4.9,1.6-10.3,1.1c-5.5-0.5-8.6,2.7-6.6,5
	s-0.3,4.5,1.3,6.6c1.6,2,8.8,1.7,14.1,4.5c5.3,2.8,6.6,0.5,9.2,2.5c2.7,2,3.3,0.8,3.4,4.7c0.2,3.9,3.1,7.7,8.3,9.1
	c5.2,1.4,1.2,4.9,2.8,8.3c1.6,3.4-2.3,8.4-1.6,12.7c0.8,4.2-2.5,17.8-5,19.1c-0.2,0.1-0.4,0.1-0.6,0.1c2.3,1.2,4.8,2.2,6,3
	c2.3,1.5,7.2,3,10.3,4.9c3,1.9,8.4,1.5,8.4-0.8s3-0.7,4.9,1.1c1.9,1.9,9.1,2.3,12.6,3c2.9,0.6,7.1,0.2,10.9,0.3
	c-0.1-0.9-0.3-1.7-0.6-2.7c-1.9-6.1,3.6-9.7,8.7-10.5c5.2-0.8,16.4,2.3,19.4,4.2c3,1.9,7,1.4,12.2-4.1c2.6-2.8,4.7-3.8,6.6-4.3
	c0.1-1.2,0.8-2.5,1.2-3.6c0.7-1.9-2.6-1.4-4.9-1.7c-2.3-0.2-4-2.6-2.3-5.2c1.6-2.6-1.4-2.8-3-5.4s0.7-1.9,2.1-2.6
	c1.4-0.7,3.3-3.5,2.1-4.2s-2.1-2.3-1.2-5.2c0.9-2.8-1.9-3.1-1.9-5.2s-2.6-3.1-4.7-0.5c-2.1,2.6-2.8,0.7-1.4-3.5
	c1.4-4.2,6.3-6.1,6.8-8.4c0.5-2.4,3.3-4.5,5.4-4.5c2.1,0,1.6-4.9,2.3-8c0.7-3,1.2-6.1,4.2-8.7C209.6,362.1,205.8,360.9,204.4,361.1z
	"/>
<path class="st0" d="M155.5,448.5c-3.8-0.1-8,0.3-10.9-0.3c-3.4-0.8-10.7-1.1-12.6-3c-1.9-1.9-4.9-3.4-4.9-1.1s-5.3,2.7-8.4,0.8
	c-3.1-1.9-8-3.4-10.3-4.9c-1.2-0.8-3.7-1.8-6-3c-3.2,0.6-12.3-2.7-18.3-2c-6.4,0.8-26.9-0.9-34.9-0.3s-8.4-3.3-12.8-3.3
	s-2.5,5.3-8.8,5.5s-6.9,4.1-2.3,7.7c2.6,2.1,2.3,6.4,1.9,10.3c1.3-0.2,2.3-0.5,2.8-1.2c1.9-2.3,3.8-1.9,3.8,0.4s4.2,1.5,6.5,1.5
	s1.5,1.9,4.2,0s6.5-1.1,6.5,1.1c0,2.3,5.7,1.1,2.7,4.2c-3,3-6.9,3.8-6.9,6.1c0,2.3,3.4,7.2,0.8,9.9c-2.7,2.7,0.8,7.2-1.9,7.2
	s-5.7,1.1-2.7,4.2s5.3,5.7,3,5.7s-3.8,4.6-2.7,5.7s6.5,4.6,2.3,5.3c-4.2,0.8-4.2,4.2-4.2,6.5c0,0.8,0.7,2.1,1.5,3.4
	c1.9-0.3,3.9-0.4,5.6,0.4c4.4,2,6.9,12.9,12.8,12.2c2.5-0.3,1.3-2.2,2.5-3.4c1.3-1.2,3.6-0.3,6.1-0.3s3.8-3.6,9.7-3.8
	c5.9-0.2,9.7-0.6,13.5-0.5c3.8,0.2,6.7-1.1,7.7-3.8c0.9-2.7,4.1-5,8.3-5.6c4.2-0.6,3.6-5,3.9-7.5s7.4-6.3,7.8-8.1
	c0.5-1.9-4.1-9.1,0.2-15.5c4.2-6.4,8.8-6.7,8.8-10.3c0-3.3,4.4-4.5,9.7-5.2c5.3-0.6,7-4.2,11.6-6.1
	C154.9,455.8,156.2,453,155.5,448.5z"/>
<path class="st0" d="M257.6,406.7c2.5-1,5.4-1.4,6.8-0.9c1.2,0.5,1.6,1.8,1.8,3.2c2.2-0.3,6.1-0.9,7.5-1.4c1.9-0.7,6.1,1.6,6.6,0.2
	s1.9-4.7,3.8-4.7s0.7-4.9,2.6-5.2c1.9-0.2,6.6-4.5,6.6-4.5s-1.9-3.8-2.6-4s-3.1,2.3-7.3,2.3c-4.2,0-7.3,3.3-9.1,3.3
	c-1.9,0-7.7-1.9-11.7-2.1c-1.4-0.1-2.9-0.2-4.2-0.3C257.7,396.3,257.3,401.7,257.6,406.7z"/>
<path class="st0" d="M388,535.4c-2.5-1.4-13.8,0.9-16.7-1.9c-3-2.8-9,2.2-6.4,2.7c3.7,0.6,9.4,3.9,15.5,4.1
	c6.1,0.2,14.4-2.8,14.2-4.4C394.4,534.3,390.5,536.9,388,535.4z M396.9,456.5c-2.4,0.2-5.6,1.1-5.1,2.4c0.6,1.6-1.6,2.5-4.1,2.5
	c0,0-8.8-0.6-11.3-1.9c-1.9-0.9-10.3-0.5-14.2-0.2c0,0.2-0.1,0.3-0.2,0.5c-0.9,1.4-8.4,5.2-9.9,4.5c-1.4-0.7-2.1,2.4-4.9,3
	c-2.8,0.7-7-0.2-7.3,0.9c-0.2,1.2-2.1,4.5-3.8,6.1c-1.6,1.6-0.2,3.5-2.6,4c-1.5,0.3-2.2,3.2-3,5.7c0.2,0.1,0.3,0.2,0.5,0.2
	c3.4,1.1,6.1,5.2,5.6,9.1s5,5.3,7.5,2.5s9.5,1.6,9.5,3.4c0,1.9-7.2-2-11.3,0.9c-4.1,3,3.1,5.8,2.2,8.9c-0.9,3.1,1.9,7.5,5.5,7.4
	c3.6-0.2,7.7,5.8,9.9,4.7c2.2-1.1-2.7-9.4-1.9-10.6c0.8-1.3,5.2,2.2,7.3-0.3c2.2-2.5-1.6-4.4-4.8-4.2c-3.3,0.2-0.2-4.4,3.8-2
	c3.9,2.3,5.8-0.6,7.7-0.9c1.9-0.3,2.3-7-3.4-8.6c-5.8-1.6-5,4.2-8.8,0.3c-3.8-3.9,3.4-2.3,3.4-5.6s-5.8-8-8.6-11.9
	c-2.8-3.9,3.9-5.8,5.5-3s5.8,2.3,8.4,1.2c2.7-1.1-2.8-6.1,2-8c4.9-1.9,4.9,1.4,6.4,2c1.6,0.6,3-3.9,8-3.9c2.6,0,4.9,1.7,7.1,3.4
	c1.4-1.5,2.5-2.4,2.5-3.6c0-1.6,3.1-2.3,3.1-4.9C397.7,459.4,397.2,457.8,396.9,456.5z"/>
<path class="st0" d="M52.4,289.2c-1.3-1-2.5-2.1-3.5-3.2c-4-4.7-5.7-0.9-6.1,1.9c-0.5,2.8-4.3-0.9-6.6-1.4c-2.4-0.5,0.7-5,2.4-6.2
	c1.1-0.8,2.2-3,2.9-6c-0.4,0-0.9-0.1-1.3-0.2c-4.4-1.7-10.5-1.7-10.6,2.2c-0.2,3.9,4.8,2.5,5,5c0.2,2.5-5,1.9-8.6,4.4
	s-7.5-1.7-11.3,0.2c-3.8,1.9,4.1,4.1,1.2,8c-2.8,3.9,0.2,3.8,4.8,7.5c4.7,3.8-2.8,4.7-2.8,8.9c0,4.2-5.8,4.1-7,6.9s5,8.4,10.5,8.4
	c3.9,0,13-2.5,18.3-7.5s8.1-0.2,13-2.7s1.9-20.8,0-24.6C52.2,290.2,52.2,289.7,52.4,289.2z"/>
<path class="st0" d="M106.7,198.5c2.7-2.7,5.8-12.8,1.7-11.7C104.3,187.9,105.5,199.7,106.7,198.5z M46.1,232.5
	c4.2-0.2,9.1-7.4,7-9.4C51.1,221.1,43,232.6,46.1,232.5z M140.1,311c0.3-4.7-10-8-11.1-5.5c-1.1,2.5-3.4,2.2-5.2-0.6
	c-1.7-2.8,1.6-5.5-0.1-5.8s-3.9-4.2-3.4-5.8c0.5-1.6-2.7-11.6-8-12.8c-5.3-1.3-6.1-8.8-7-12.8c-0.9-4.1-4.4-1.9-7-5.3
	c-2.7-3.4-7.2-1.7-9.5-1.6c-2.3,0.2,0-4.4,3.8-6.9s8.1-15.8,8.1-18.5s-16.4-2.5-19.6-0.9c-3.1,1.6-6.3-2.3-3.6-3.4
	c2.7-1.1,8.3-6.6,8-8.8s3.9-4.2,1.6-6.3c-2.3-2-2.7,2.7-4.7,4.2c-2,1.6-6.6,1.1-11.4,0.2c-4.8-0.9-6.7,5.9-6.6,8.9
	c0.2,3-5.6,4.7-4.7,7.2c0.9,2.5-1.1,4.4-2.6,3c-1.6-1.4-3.3-4.8-6.4-2.3c-3.1,2.5,3.6,5.8,7.7,6.3s-3.1,3.4-3.9,7.8
	c-0.8,4.4,5.3,2.5,5.6,5.6s-8.8,3.6-8.8,6.6s5.2-1.4,7.5-2.7c2.3-1.3-1.2,7.3,4.4,6.4s4.1-8.6,6.1-8.3c2,0.3-0.9,4.1,0.8,7.3
	c1.7,3.3-4.1,8.3-3.8,10.6c0.3,2.3,11.6,2.3,15.2-1.4c3.6-3.8,5.3,0.3,2.8,3.1c-2.5,2.8-1.4,5.5,1.7,6.6s4.2,1.4,2.8,3.9
	c-1.4,2.5-0.2,7.2-0.9,9.5c-0.8,2.3-10.5,2-10.8,0.5c-0.3-1.6-4.4-0.5-3.3,1.7s-3.4,4.5-3.1,6.6c0.3,2,6.1,1.6,6.3,4.1
	c0.2,2.5-4.2,5.5-10.2,7.2s1.2,6.4,4.1,4.4c2.8-2,2.2,1.4,6.3,1.4c4.1,0,6.6,3.3,11.1,1.6c4.5-1.7,4.4,0,0.9,2.7
	c-3.4,2.7-8.6-0.2-11.7,1.6c-3.1,1.7-15.9,13.7-13.4,16.6c1.4,1.7,3.3-2.5,7.8-4.4s5.3,1.2,7.8,1.6c2.5,0.3,2.7-5.2,4.7-4.7
	s3.9-1.7,7.7-1.1c3.8,0.6,6.4-0.8,8.3-2.3c1.9-1.6,6.9,3.1,8.4,2c1.6-1.1,8.4-2.4,11.9-2.2c3.4,0.2,12.4-3.9,14.7-6.1
	s-1.4-2.7-4.5-2.2c-3.1,0.5-2.5-3.1,0.8-6.3C134.6,318.1,139.8,315.7,140.1,311z M54.6,272.2c-4-3.8-9.1,2.2-13.2,2.1
	c-0.7,3.1-1.8,5.2-2.9,6c-1.7,1.2-4.7,5.7-2.4,6.2c2.4,0.5,6.1,4.3,6.6,1.4c0.5-2.8,2.1-6.6,6.1-1.9c1,1.1,2.2,2.2,3.5,3.2
	c0.6-2.1,5.6-2.5,8.2-5.1C63.6,281,59,276.5,54.6,272.2z"/>
<path class="st0" d="M106.7,198.5c2.7-2.7,5.8-12.8,1.7-11.7C104.3,187.9,105.5,199.7,106.7,198.5z M46.1,232.5
	c4.2-0.2,9.1-7.4,7-9.4C51.1,221.1,43,232.6,46.1,232.5z M140.1,311c0.3-4.7-10-8-11.1-5.5c-1.1,2.5-3.4,2.2-5.2-0.6
	c-1.7-2.8,1.6-5.5-0.1-5.8s-3.9-4.2-3.4-5.8c0.5-1.6-2.7-11.6-8-12.8c-5.3-1.3-6.1-8.8-7-12.8c-0.9-4.1-4.4-1.9-7-5.3
	c-2.7-3.4-7.2-1.7-9.5-1.6c-2.3,0.2,0-4.4,3.8-6.9s8.1-15.8,8.1-18.5s-16.4-2.5-19.6-0.9c-3.1,1.6-6.3-2.3-3.6-3.4
	c2.7-1.1,8.3-6.6,8-8.8s3.9-4.2,1.6-6.3c-2.3-2-2.7,2.7-4.7,4.2c-2,1.6-6.6,1.1-11.4,0.2c-4.8-0.9-6.7,5.9-6.6,8.9
	c0.2,3-5.6,4.7-4.7,7.2c0.9,2.5-1.1,4.4-2.6,3c-1.6-1.4-3.3-4.8-6.4-2.3c-3.1,2.5,3.6,5.8,7.7,6.3s-3.1,3.4-3.9,7.8
	c-0.8,4.4,5.3,2.5,5.6,5.6s-8.8,3.6-8.8,6.6s5.2-1.4,7.5-2.7c2.3-1.3-1.2,7.3,4.4,6.4s4.1-8.6,6.1-8.3c2,0.3-0.9,4.1,0.8,7.3
	c1.7,3.3-4.1,8.3-3.8,10.6c0.3,2.3,11.6,2.3,15.2-1.4c3.6-3.8,5.3,0.3,2.8,3.1c-2.5,2.8-1.4,5.5,1.7,6.6s4.2,1.4,2.8,3.9
	c-1.4,2.5-0.2,7.2-0.9,9.5c-0.8,2.3-10.5,2-10.8,0.5c-0.3-1.6-4.4-0.5-3.3,1.7s-3.4,4.5-3.1,6.6c0.3,2,6.1,1.6,6.3,4.1
	c0.2,2.5-4.2,5.5-10.2,7.2s1.2,6.4,4.1,4.4c2.8-2,2.2,1.4,6.3,1.4c4.1,0,6.6,3.3,11.1,1.6c4.5-1.7,4.4,0,0.9,2.7
	c-3.4,2.7-8.6-0.2-11.7,1.6c-3.1,1.7-15.9,13.7-13.4,16.6c1.4,1.7,3.3-2.5,7.8-4.4s5.3,1.2,7.8,1.6c2.5,0.3,2.7-5.2,4.7-4.7
	s3.9-1.7,7.7-1.1c3.8,0.6,6.4-0.8,8.3-2.3c1.9-1.6,6.9,3.1,8.4,2c1.6-1.1,8.4-2.4,11.9-2.2c3.4,0.2,12.4-3.9,14.7-6.1
	s-1.4-2.7-4.5-2.2c-3.1,0.5-2.5-3.1,0.8-6.3C134.6,318.1,139.8,315.7,140.1,311z M54.6,272.2c-4-3.8-9.1,2.2-13.2,2.1
	c-0.7,3.1-1.8,5.2-2.9,6c-1.7,1.2-4.7,5.7-2.4,6.2c2.4,0.5,6.1,4.3,6.6,1.4c0.5-2.8,2.1-6.6,6.1-1.9c1,1.1,2.2,2.2,3.5,3.2
	c0.6-2.1,5.6-2.5,8.2-5.1C63.6,281,59,276.5,54.6,272.2z"/>
<path class="st0" d="M255.2,260.4c-1.3-0.8-2.2,2.2-3.6,2.5c-1.4,0.3-3-6-3.6-2.5c-0.6,3.4-3.8-1.4-6.9,3c-3.1,4.4,1.9,8.3,4.1,9.7
	c2.2,1.4-0.2,3.4-3,2.8s-1.1,4.1,2.8,4.7c3.9,0.6,8.1-6.9,7.7-8.8C252.3,269.9,256.7,261.3,255.2,260.4z M231.6,250.8
	c-1.6-0.8-2.2-5.8-0.3-7.3c1.9-1.6,2.7-7.5,1.1-9.1c-1.6-1.6-7.2,0-7.7,4.2s-5,2.3-6.3,3.3c-1.3,0.9,2.5,2.8,0.5,4.7
	s-2.8-2.8-6.1-3.1s-3.6,5-5.3,7.7s-0.6,8.3,0,12.1c0.6,3.8,5.2,6.1,4.1,9.2c-0.5,1.5,0.5,3.1,1.6,4.7c4.2,0.1,8,0.4,9.7,0.9
	c0.7,0.2,2.1,0.2,3.9-0.1c-1.4-2.2-4.5-4.1-4.2-5.7c0.3-2.2,3.3-0.8,5.5,1.1s7,2.2,7.5-0.2c0.3-1.4-0.8-8.1-3.8-6.6
	c-3,1.6-3.8,0.9-4.9-0.6c-1.1-1.6,2.2-4.1,3-6.6s5.9-1.6,6.7-3.6C237.4,253.8,233.2,251.6,231.6,250.8z"/>
<path class="st0" d="M318.1,231.6c-5.9,0.2-8.7,11.9-7.2,13.8C312.2,246.9,324.1,231.4,318.1,231.6z M371,93.9
	c-1.5-1.5-4.5-5.5-2-5.5s3.5-7.5,0.5-9s0-8.1-2.5-9.6s-1-6.5-0.5-10.1c0.5-3.5-9.6-6.5-15.1-9.1c-5.5-2.5-8-6.5-12.6-9.1
	c-4.5-2.5-6,4-6,8s-4,4.5-7,2s-6.5,0-11.1-2c-4.5-2-2.5,4.5-2.5,7.5s-5,3-8,3s-8,2.5-8,6s-4.5,5.5-3,7.5s-0.5,4-2.5,5.5
	s-4,6.5-5.5,8s1,4-2,6s-6.5,0.5-8,2s0,5-0.5,9.6c-0.5,4.5-4,9.5-7,13.6c-3,4,1,5,2.5,5.5s1.5,3,0,6c-1.5,3-5,1-7,0.5s-7.5,2-10.6,7
	c-3,5-2,8-1,10.6c1,2.5-2.5,5.5,0,10.6c2.5,5-1,6-0.5,10.1c0.5,4,6.5,3.5,7,7.5s-2,5.5-4,5.5s-1.5,4,0.5,5s1.5,8,0.5,10.1
	c-1,2-7.5,0-7,2.5s-1.5,6.5-1.5,8.6c0,2-0.5,8.5-2.5,7c-0.8-0.6-2.1-0.6-3.3-0.5c0,0.3,0,0.6,0,1c-0.2,3.9,1.3,7.8,4.7,10.6
	s0.8,7,3.8,11c3,3.9,2,6.7,5.3,9.6c3.3,2.8,3.6,4.4,2.2,8s2.8,2.7,3,4.8c0.2,2.2-0.9,6.7,0.2,8.9c1.1,2.2,3.3,0,8.3-0.2
	s3.8-3.3,3.9-6.3c0.2-3,2.7-1.6,3.3-3.4c0.6-1.9,5.2-2.3,8.8-0.8c3.6,1.6,5.5-1.1,6.1-4.8c0.6-3.8,2.7,0.8,3.8,1.6
	c1.1,0.8,4.4-5.8,5.9-10c1.6-4.2-0.2-3.4-3.7,0.6c-3.6,4.1-1.6-4.1-0.2-7.4c1.4-3.3,1.2-12.8,1.7-15s1.4-5.5,5.9-6.4
	s10.5-6.6,9.5-8.9c-0.9-2.4,6.3-6.3,6.3-8.6c0-2.4-7.5-9.6-10-11.1c-2.5-1.6-8-0.3-7.5-2s-0.6-8.5-1.3-11.9c-0.6-3.4,3.9-7,3.9-10.3
	s-0.2-7,2.8-8.1s1.1-3.9,5-4.8c3.9-0.9,3.1-6.6,7.4-8.3c4.2-1.7,4.5-3.1,10-5.8s14.7-8.9,16.3-12.2c1.6-3.3-5.6-6.7-1.1-10.2
	c4.5-3.4,0.8-7.4,4.1-8.6c3.3-1.3,4.5-3,6.9-5.5c2.3-2.5,5.5-0.2,11.1-1.1c2.1-0.3,3.9-0.2,5.7,0.3C372.2,96.6,371.7,94.6,371,93.9z
	"/>
<path class="st0" d="M360.2,214.7c1.3-2.3-9-1.3-6.7,0.8C355.2,217,358.9,217,360.2,214.7z M355.5,219.2c-5.6,1.6-6.5,9.4-4.2,9.2
	c2.8-0.2,9.2-5.5,10.9-7.2C363.9,219.5,361.1,217.6,355.5,219.2z M410.9,211.6c1.3-2.8,4.7-3.3,2.2-6.9c-0.5,0.4-1.2,0.8-2.3,1.1
	c-4.5,1.3-14.4-3.1-20-2s-17,1.1-19.7,3.9c-2.7,2.8-9.4,3.6-6.4,6.1s0,3.8,2.2,6.7c2.2,3,3.3,4.2,6.3,3.6c3-0.6,5.3,0.9,2.2,4.2
	l-0.1,0.2c5-0.5,10.6-0.8,11.4-0.2c1.3,0.9,8.8,6.9,10.6,6.3c1.1-0.4,6.3,0.2,10.1,0.7c-0.4-1.2-0.4-2.3,0.4-2.9
	c1.4-1.2,4.5-1.2,2.8-3.5c-1.6-2.3-2.1-2.8-2.3-5.6c-0.2-2.8-0.9-4.2-0.7-6.1C407.6,215.1,409.5,214.7,410.9,211.6z"/>
<path class="st0" d="M438.4,27c-0.6,2.4-4.8,1.9-4.7-0.5c0.2-2.3-6.6-4.2-6.9-5.3c-0.3-1.1,2.8-0.9,5.3,0.5s4.2,0.5,7-2.2
	s6.7-0.5,7.2-2.8s-4.5-3.9-5.5-5.3c-0.9-1.4-4.5-3.3-8-2.7c-3.4,0.6-3.6-0.8-5.6-2.7s-8.3,1.3-8.3,5.6c0,4.4-3.9,3.3-2.5,0.9
	c1.4-2.3-1.9-5.2,1.3-5.9c3.1-0.8,1.4-5.5-4.4-5.9c-5.8-0.5-8,4.4-6.6,5.9c1.4,1.6-3.9,8.3-6.3,8.3c-2.3,0,0.3-5.8,0.2-8.9
	c-0.2-3.1-2.3-1.4-6.7,3.6c-4.4,5-7.7,9.5-10.2,10s-2.2-4.5,1.9-6.7s4.2-8.1,6.9-8.1c2.7,0,2.7-3.1-1.2-4.1
	c-3.9-0.9-4.5,3.4-5.8,4.7c-1.3,1.2-7.7-2.2-7.5-0.9s-3.4,1.7-1.9,4.1c1.6,2.3-0.8,4.4-2.3,1.6c-1.6-2.8-5.5-0.6-7.3,2.5
	c-1.9,3.1-4.4,3-2.5,4.1s1.7,5.3-1.1,6.1c-2.8,0.8-1.7-7.7-3.9-6.9c-2.2,0.8-0.8-4.1,2.2-4.1s5.9-4.4,5.6-5.5
	C366.2,4.6,363,5,363,7.3s-4.7,1.9-8.6,1.7s-3.8,4.5,0.6,7s-0.8,4.1-3,2.2s-5.6-0.9-8,0.2c-2.3,1.1,5.6,3.9,5.9,5.3s-4.1-1.7-5-0.6
	s-5.3-0.8-5.6-3.4c-0.3-2.7-7.4,1.1-3.4,2c3.9,0.9,2.5,3.5,2.5,6.9s-4.5,0.8-3.6-2.2s-2.8-2.3-5.9-0.5c-3.1,1.9,0.5-3.4-0.8-6.1
	s-4.1,0-7.4,0.6s-5,0.8-3,3s1.7,5.3-0.9,4.8c-2.7-0.5-3.7,0-3.4,2.5c0.3,2.5-3.4,2.7-3.7,0.5c-0.3-2.2-5.6-1.6-7.2,0.9
	s-5.9,4.4-5.5,7.2c0.5,2.8,3.9-1.4,6.7-0.5c2.8,0.9-0.2,2.4,1.4,3.8c1.6,1.4,1.2,4.9-0.9,2.8c-2.2-2-5-2.7-5.5,0.6s-2.8-0.5-4.7-2.8
	c-1.9-2.3-3.8,4.4-5.8,2.8c-2-1.6,4.1-6.4,2.5-8.8c-1.6-2.3-2.7,1.4-6.3,5c-3.6,3.6-8.4,3.4-6.7,5.2c1.7,1.7-3.6,2.7-4.5,5.6
	c-0.9,3-8.3,4.1-13,7.2c-4.7,3.1,0.9,3.3,3.6,0.3s3.6-1.2,7.8-3.9c4.2-2.7,8.8-4.9,10.3-3.8c1.6,1.1,4.2,1.9,6.3-0.9
	c2-2.8,4.5-2.2,6.6-0.5c2,1.7-3.4,3.1-0.9,5.6s-3,3.9-3,1.7s-3.1-4.1-4.2-2c-1.1,2-3,4.2-5,4.4s-4.2,3.9-4.2,7.7
	c0,3.8-3.6,0-3.9,3.3s-5.3,9.1-9.7,13.3c-4.4,4.2-0.3,5.2-1.7,7.8c-1.4,2.7-6.6,0.3-8.3,1.4s0.9,7.7-1.4,9.7c-2.4,2,0,4.8,0,7.2
	c0,2.3-6.1-1.4-6.6,0.9s-5.8,1.7-7.4,2.3c-1.6,0.6,3.1,4.4,6,6.6c2.8,2.2-2.7,3.9-3.3,1.4s-4.5,1.6-9.4,3.8s-2.8,6.6-6.6,6.7
	c-3.8,0.2-2.7,6.1-5.2,8s-1.9-4.4-5.8-4.5c-3.9-0.2-3.6,2.7-1.3,5.9c2.3,3.3-3.6,0.8-5.8,3.6s-8.5,1.4-10.2,3.8
	c-1.7,2.3,4.7,2.3,5.6,4.2c0.9,1.9-5.6,0.9-9.1,0.2c-3.4-0.8-2.5,4.4-5.6,3.8c-3.1-0.6-7,2.7-4.8,4.9s-1.7,2.5-3.9,1.1
	s-4.1,2-4.8,4.7c-0.8,2.7,4.2,4.1,4.1,5.3c-0.2,1.3-4.1,3.3-1.3,3.9c2.8,0.6,0.8,3.1-1.1,3.9c-1.9,0.8-1.9,2.7,0,5
	c1.9,2.4-3.3,2.8-0.8,6.4c2.5,3.6,4.4-0.9,5.5,1.7c1.1,2.7,4.1,0.3,7.5-2.8s4.7,3.4,1.9,3.3c-2.8-0.2-6.1,1.6-5.5,4.4
	c0.6,2.8-4.4,2.3-4.2-1.1c0.1-3.4-5.8,0.6-3.6,3.1s-0.8,3.9-0.8,6.3s4.2,1.9,5.9-0.8s4.5-2,5.6,0.6c1.1,2.7-2.7,0.6-2.7,4.2
	c0,3.6-2.3,0.5-4.4,3.3c-2,2.8,8,8,11.1,8.8s6.1,4.2,12.4,3.3c6.3-0.9,18.1-12.5,19.7-14.6c1.6-2,5,0.3,7.4-1.6
	c2.3-1.9,0.9-6.7,2.7-7.7c1.7-1,2.7,5.2,4.2,5.8c1.4,0.6,2.4,1.7,2.5,4.8c1.2-0.2,2.5-0.1,3.3,0.5c2,1.5,2.5-5,2.5-7s2-6,1.5-8.6
	c-0.5-2.5,6-0.5,7-2.5s1.5-9.1-0.5-10.1s-2.5-5-0.5-5s4.5-1.5,4-5.5s-6.5-3.5-7-7.5s3-5,0.5-10.1c-2.5-5,1-8,0-10.6
	c-1-2.5-2-5.5,1-10.6c3-5,8.5-7.5,10.6-7c2,0.5,5.5,2.5,7-0.5s1.5-5.5,0-6s-5.5-1.5-2.5-5.5s6.5-9.1,7-13.6s-1-8.1,0.5-9.6s5,0,8-2
	s0.5-4.5,2-6s3.5-6.5,5.5-8s4-3.5,2.5-5.5s3-4,3-7.5s5-6,8-6s8,0,8-3s-2-9.6,2.5-7.5c4.5,2,8-0.5,11.1,2c3,2.5,7,2,7-2s1.5-10.6,6-8
	c0.4,0.2,0.7,0.4,1,0.6c1.5-3.4,4.3-5.5,7-5.2c4,0.5,6.5,7.5,11.6,8.5c5,1,10.1,3,11.6,0.5s5,1.5,8,0.5s3,5.5,6,1.5s-0.5-6.5,4.5-6
	s2-5.5,2-9.1c0-3.5,6.5-4,6.5-7s9.1-0.5,10.6-2.5s6.5-3.5,8.5,0s10.5,4.5,11.1,7.5c0.2,1.5,0,3.8,0,5.9c1.4-1.4,3.2-2.4,4.9-2.4
	c3.1,0,5.9-4.7,8.8-4.1c2.3,0.5,4.7,0.1,5.4-3.8C443.8,25.1,439,24.9,438.4,27z"/>
<path class="st0" d="M317.5,436c-2.2,2.9-4.3,6.6-4,7.9c0.1,0.5-0.1,1.7-0.4,3.3c2.8,2.3,5.5,4.5,7.5,5.6c0.2,0.1,0.4,0.2,0.6,0.3
	c0.6-3.5,3-7.1,4.8-7.5C323.3,442.5,319.8,438.3,317.5,436z"/>
<path class="st0" d="M354.6,433.4c-2.4-2.1-2.1-5.9,0-7.3s0.2-3.3,0.2-5.6c0-2.4-10.1-3.1-11.7-3.5c-1.6-0.5,1.2-6.6-1.4-6.6
	s-3.5-1.9-3.5-3.8s-4-4.9-3.8-6.1c0-0.2,0.1-0.3,0.3-0.5c-1.5-0.2-2.6-0.4-3-0.5c-1.7-0.3-4.5-1.4-4.5-1.4s-6.5,2.1-11,3.5
	c0.3,2.8,1,5.8,2.8,6.4c3.4,1.3,2.1,4.6,3.4,7.6c1.3,2.9,0.8,16.4-0.8,16.4c-0.7,0-2.3,1.7-3.9,3.9c2.3,2.3,5.9,6.5,8.3,9.5l0.3-0.1
	c2.1,0,9.8,5.6,9.8,5.6s10.9-2.3,18.2-3.3c0.1-1.1,0.3-2.4,0.2-3.2c-0.2-1.4,1.4-4.2,3.5-4.2C359.9,440.2,356.9,435.5,354.6,433.4z"
	/>
<path class="st0" d="M81.7,165.8c5.2-0.3,5.1-6,7.2-5.7s5.6-4,6.9-6.7s-1.5-7.5-4.7-7.5s-5.6-2.5-4.9-4.4s-1.7-4.3-1.6-5.6
	s-4-0.1-6.1,0.4s-6.7-5.2-8.7-4.1c-2,1.1-0.5,3.9-1.1,5.5c-0.5,1.6-5.3-1.5-5.3,0.4s-2,2.1-3.6,0.1s-5.3-0.8-5.2,0.8
	s-1.6,0.3-4.7-1.6c-3.1-1.9-6.3,2.1-6,4.1s-1.1,2.5-3.6-1.9s-5.5,0.4-4.1,2.8c1.3,2.4,0.8,5.3-1.2,4.1s-4.7,0.8-5.9,2.7
	c-1.2,1.9-5.5-5.5-2.4-7.2s-9.7-9.1-13.7-9.1s-1.3,2.9,1.3,5.1c2.7,2.1-1.9,1.6-3.3-0.3c-1.5-1.9-4.3-0.4-5.9,2.3s-4.3,4.1-4.5,6
	c-0.3,1.9,4.5,3.9,8.7,2.1c4.1-1.7,8.8-2,10.9,0s-3.9,2.8-1.7,4.4c2.1,1.6,0.4,2.9-4.7,2.5s-11.2,1.1-10.3,2.8s12.9-1.5,13.1,0.3
	c0.1,1.7,0,4.7,3.2,3.3c3.2-1.3,1.1,2.4,2.7,3.1c1.6,0.7,1.2,3.9-3.1,4.1c-4.3,0.3-6.3,1.1-4.5,2.9c2.3,2.3,6.9,0.7,11.5-0.4
	c4.5-1.1,11.1,4.4,16.4,6.5s14.5-0.8,15.6-3.6s8.3-1.7,11.2-3.7C72.5,168.4,76.5,166,81.7,165.8z"/>
<path class="st0" d="M232.5,389c0,0,0.1-3.1-3.2-3.7s-3.1-1.7-3.4-2.8c-0.2-0.5-1.1-1.9-1.1-1.9s-1.8,0.2-1.4,3.2
	c0.1,1,0.2,1.6,0.3,2.1c0.1,0.7,0.4,1.4,0.9,1.9c0.8,0.8,2.1,1.6,3.3,1.4C230,388.9,230.8,388.7,232.5,389z"/>
<path class="st0" d="M122.1,446c0,0-1,3.8,4.9,3.6c0,0,3.9-2,7.4-0.7s2.2-1.9,2.2-1.9s-3.5-0.7-4.9-2s-2.4-2.3-3.8-2.1
	c-1.4,0.2-0.9,1.4-0.9,1.4S127.3,446,122.1,446z"/>
<path class="st0" d="M200.3,431.7c0,0-2.6-0.4-5.4,0.8c-1.3,0.6-4.1,0-4.5,2.5c-1.3,7.7,3.8,1.3,3.8,1.3l4.9-4.2L200.3,431.7
	L200.3,431.7z"/>
<path class="st0" d="M455.9,291.4c-1.9-0.5-3.1-4.7-6.1-5.9c-3-1.2-2.3-4.9-4.9-6.6c-2.6-1.6-0.9-4.9-1.2-7.5
	c-0.2-2.6,0.5-6.6-0.9-7.3c-1.4-0.7-7.3-4-9.9-2.8s-4.5,2.1-5.6,0c-1.2-2.1-2.8-3.3-5.4-2.6c-2.6,0.7-4.2-0.5-5.6-1.6
	c-0.2-0.2-0.4-0.5-0.5-0.8c-1,0.2-2.4,0.6-3.3,1.3c-1.6,1.3-1.9,3.8-4.1,3.8s-4.7-0.9-7.2,0.9c-2.5,1.9-3.1,4.1-2.8,5.6
	c0.3,1.6,0.6,4.1-1.2,4.1c-1.9,0-1.6,2.2-3.4,2.8c-1.9,0.6-5,3.4-5.3,5s-0.3,5-1.6,5c-1.3,0-5.6,0.6-6.9,2.2
	c-1.2,1.6-2.8,3.1-5.3,2.5c-1.3-0.3-4.7-0.5-7.8-0.5c0,0.3,0,0.6-0.1,0.9c-1.2,3.3-0.2,6.3,1.6,8c1.9,1.6,2.6,8.2,0.5,9.2
	c-2.1,0.9-6.1,3.8-6.1,5.4s4.2,3.1,3.5,5.4c-0.4,1.3-0.4,3.7-0.2,5.8c2,0.1,4,0.4,5.7-1.3c1.9-1.9,2.8-4.1,6.9-4.1s16.3,0,18.1,2.2
	c1.9,2.2,6.9,0.3,9.7,1.6c2.8,1.3,6.9,2.5,7.2,0.9c0.3-1.6,4.1,2.2,6.9,0.6s5.3,3.1,6.9,2.2s8.1-0.9,9.7,0.6
	c1.6,1.6,1.9-1.6,1.9-3.4c0-1.9,6.3-6.9,6.3-6.9s4.3-0.2,6.8-1.4c-0.6-0.8-1-2.1-1.6-4.4c-1.2-5.2-3-8.2-1.6-9.9
	c1.4-1.6,5.4,2.1,7.5,1.2s5.9-2.8,5.4-4.9C461.3,294.7,457.8,291.9,455.9,291.4z"/>
<path class="st0" d="M272,292.8c0.7,1.9,1.4,8.4-0.2,11s-0.9,3.3,0.7,4.2c1.6,0.9,2.3,3.3,2.3,5.2c0,1.9,1.2,1.7,1.4,5.6
	c0.2,4,1.2,6.8,2.6,8.4c1.1,1.3,0.9,3.3,0.3,4.7c2,1.5,4.2,2.9,6.1,3.6c4.9,1.8,6.6,3.1,7,4.9s4.5,4.9,5.6,2.5c1-2.4,3.8-1,5.9-1
	s2.4,2.4,2.8,3.8s5.2,0.7,7,1.7c1.7,1.1,2.4,4.9,4.9,6.3s4.5-1.7,6.3-0.7c1.7,1,6.3,2.1,9.1,1c2.8-1,4.5,1,8,0.7
	c3.5-0.4,8,1,9.1,2.1c0.6,0.6,3.5,1.1,6.2,1.5c0.7-1.4-0.7-5.9-0.4-6.9c0.2-1.2,8.4-8.4,9.9-10.1c1.4-1.6,3.5-1.6,4.7-3.8
	c1.2-2.1-3.3-8.9-4.2-10.3c-0.9-1.4-1.4-7-0.7-9.4c0.7-2.3-3.5-3.8-3.5-5.4s4-4.5,6.1-5.4s1.4-7.5-0.5-9.2c-1.9-1.6-2.8-4.7-1.6-8
	c1.2-3.3-7-5.9-8.2-5.9c-0.2,0-0.3-0.2-0.4-0.5c-7.3,1.4-26.1-0.6-27.5-1.2c-0.9-0.4-3.3-1.2-5.3-2c-0.9,1.6-2.9,3-5.8,3
	c-4.5,0-4.8-4.5-5-6.6c-0.1-2-18.3,1.7-23.2,6.6c-4.8,4.9-16.1,3-16.4,5.6c-0.2,1.9-1.9,2.9-3,2.4C271.8,292,271.8,292.4,272,292.8z
	"/>
<path class="st0" d="M289.1,362.9c-2.8-3.2-9.8-3.2-9.8-3.2s-0.7,3.2-1.8,4.9c-0.9,1.5-6,1.4-9.2,0.6c-0.9,1.2-5.2,2.2-5.7,3.9
	c-0.7,2.1-5.9,0.9-4.2,6.6c1.6,5.6-2.6,3.8-4.2,3.1c-1.6-0.7-8.9,0.2-10.8,2.1c-1.9,1.9-4.5,1.4-6.1,0.5s-4.9-1.4-6.3,0.9
	c-1.4,2.4-4-1.9-6.1-1.6c-2.1,0.2-1.2,4.7-1.2,5.6s3.3,3.8,5.4,2.8c2.1-0.9,4.7,0.2,6.6,1.4c1.9,1.2,5.4-0.9,6.6-2.1
	c1.2-1.2,7.7-1.2,8.4-1.2s0.9,3.8,2.1,4.5c1.2,0.7,5.6,1.2,9.6,1.4c4,0.2,9.8,2.1,11.7,2.1c1.9,0,4.9-3.3,9.1-3.3s6.6-2.6,7.3-2.3
	l0,0c0.3-1.3,0.8-2.4,1.7-2.5c1.7-0.2,0.5-3.2,1.7-4.6c1.2-1.5-1-4.4,1.2-4.2c2.2,0.3,4.6,0.5,4.6-2.7c0-1.1,0.6-2,1.4-2.8
	c-2.4-3.4-4.2-8.8-4.2-8.8S291.9,366,289.1,362.9z"/>
<path class="st0" d="M356.9,371.7c-0.8-0.3-1.7-0.8-2.5-1.5c-2.9-0.7-5.8-1.5-6.7-2.4c-1.7-1.7-8.7-2.8-9.8-3.1
	c-1-0.4-7.7,6.3-9.8,6.3c-2.1,0-11.2,1-11.2,3.5c0,2.4-11.2,2.8-14.3,0c-0.5-0.4-1-1-1.4-1.7c-0.8,0.8-1.4,1.7-1.4,2.8
	c0,3.2-2.4,2.9-4.6,2.7c-2.2-0.2,0,2.7-1.2,4.2s0,4.4-1.7,4.6c-0.9,0.1-1.4,1.2-1.7,2.5c0.7,0.4,2.5,4,2.5,4s-0.1,0.1-0.2,0.2
	c2.4,1.4,7.2,4.5,8.8,6.6c2.1,2.8,8,3.1,10.8,2.5c2.8-0.7,14.7-4.5,14.7-4.5s2.8,1,4.5,1.4c0.4,0.1,1.5,0.3,3,0.5
	c0.9-0.9,3.5-1.6,6.3-4.4c3.3-3.3,8.2-15,9.6-16c1.4-0.9,5.2-3.1,7-4.5C359.5,373.8,359,372.4,356.9,371.7z"/>
<path class="st0" d="M419.9,410.4c-2.2-0.3-5-1.2-4.1-2.5c0.1-0.1,0.2-0.2,0.3-0.4c-2.9-2.4-3.7-10-1.8-11.9
	c2.4-2.4-3.8-11.5-6.7-14.8c-1.3-1.6-4.3-6.8-7-11.9c-2.5,0.8-4.7,1.7-5.1,2.4c-0.9,1.6-4.1,3.1-5.9,3.1c-1.9,0-3.8-0.9-5.3,0.6
	c-1.6,1.6-3.8,2.2-4.7,1.3c-0.9-0.9-4.1-1.9-6.3-1.9c-2.2,0-9.1-1.9-10.6-1.9c-0.9,0-2.4,0.1-4.1,0.4c0.4,0.7,0.1,1.5-1,2.3
	c-1.9,1.4-5.6,3.5-7,4.5c-1.4,0.9-6.3,12.7-9.6,16c-3.3,3.3-6.3,3.8-6.6,4.9c-0.2,1.2,3.8,4.2,3.8,6.1s0.9,3.8,3.5,3.8
	s-0.2,6.1,1.4,6.6c1.7,0.5,11.7,1.2,11.7,3.5c0,1.8,1.1,3.4,0.6,4.6c2.8,0.5,4.9,4.3,6,4.1c1.3-0.3,9.7,1.6,11.3,1.3
	c1.6-0.3,8.8,0,11.3,0.3s5.3-0.9,7.5-3.1s10-2.5,12.5-2.2s7.5,0.9,8.4,2.5c0.5,0.8,3.4,2,6.4,3c0.4-1.6-0.1-3.6,0-5.6
	c0.2-3.3,2-8.3,5.3-8.6c3.3-0.3,5.9-0.3,5.5-5.8c0-0.2,0-0.3,0-0.5c-1.7-1.4-3.2-2.6-3.7-2.6C424.6,407.9,420.9,410.5,419.9,410.4z"
	/>
<path class="st0" d="M291.8,461.7c-4.1-2.5-1.4-6.6-7.8-6.3c-6.4,0.3-14.1-7.7-16.4-16.9c-2.3-9.2-12.3-9.7-14.9-15.2
	c-2.5-5.5,2.3-6.1,0.2-10.6c-1.2-2.5,1.5-4.8,4.7-6c-0.3-5,0.2-10.5,0.6-14c-2.5-0.3-4.6-0.6-5.4-1.1c-1.2-0.7-1.4-4.5-2.1-4.5
	c-0.7,0-7.3,0-8.4,1.2c-1.2,1.2-4.7,3.3-6.6,2.1c-0.4-0.2-0.9-0.5-1.3-0.7l-2,1.9c0,0-0.3,2.5-1.6,2.5c-1.2,0-3.1-0.9-3.1,1.2
	c0,2.2-3.4,1.6-5,1.3c-1.6-0.3-3.8,0.3-3.8,2.2c0,1.9-0.3,6-2.8,3.8s-5-7.8-6-7.2c-0.9,0.6-3.1,7.5-5.3,7.5c-1.4,0-5.8,0.4-9,0.6
	c-0.8,2.7,0.1,4.3,1.2,5c1.2,0.7-0.7,3.5-2.1,4.2c-1.4,0.7-3.8,0-2.1,2.6c1.6,2.6,4.7,2.8,3,5.4c-1.6,2.6,0,4.9,2.3,5.2
	c2.3,0.2,5.6-0.2,4.9,1.7c-0.4,1.1-1,2.4-1.2,3.6c1.8-0.5,3.5-0.6,5.1-1.5c3.3-1.7,1.9-4.7,7.3-6.3c5.5-1.6,12.7,3,14.9,6.3
	s2.8,3.6,3.3,6.3c0.5,2.7,2.5,8,10,12.8c7.5,4.9,10.5,10.3,14.4,12.4c3.9,2,7.8,1.6,10.2,4.4c2.3,2.8,5.5,4.4,9.2,6.1
	c3.8,1.7,3.9,5.8,7.5,6.3s1.3,3.6,3.4,6.3c2.2,2.7,2.8,8.3,0.5,11.4s-1.1,8.4,0.5,8.4s4.8-5.6,5.3-8.8c0.5-3.1,3.6-3,6.1-6.3
	s-3.7-4.1-4.8-8.3c-1.1-4.2,4.7-8,10.2-4.5c5.5,3.4,7.7,5.8,8,0.5C313.1,471.3,295.9,464.2,291.8,461.7z M215.2,466.8
	c-3.4,3-6.3-0.5-7.7,1.9c-1.7,3,5.3,7.5,3.9,13.6c-1.4,6.1,0.8,13.8,4.4,10.2c3.6-3.6,5.3-1.9,7.4-4.5c2-2.7,0.3-12.5,1.7-17.2
	C226.3,466,218.6,463.8,215.2,466.8z M275.7,502.3c-6.4,1.4-9.1,1.9-12.8,0c-3.8-1.9-9.8,1.7-8.9,4.2c0.6,1.7,3.1,3.9,10.9,6
	c7.8,2,8.8,7.3,12,7.5c3.3,0.2,3.6-3,2.8-7.2c-0.8-4.2,3.9-9.1,4.4-9.9S282.1,500.9,275.7,502.3z"/>
<path class="st0" d="M514.5,418.2l2.1,1.6l1.2-5.3l-0.1-1.7l3.3-3.8l3.6-0.2l0.1,1.8l3.3-0.2l3.6-0.2l3.3-2l-0.1-1.8l-1.8-1.7
	l-0.1-1.6l1.7-0.1l-0.1-1.9l-1.7,0.1l-3.7,0.3l-3.4,2.2l-1.3,1.7l-1.6,1.9l-6.9,0.5l-0.1-1.8l-2.1-1.5l-3.4,1.9l-1.7-1.5l-0.1-1.9
	l-1.8,0.1l-1.7,0.1l-0.2-3.1l-1.9-1.8l-2.1-1.5l-1.3,3.7l-1.5,1.7l-0.1-1.5l-1.8-1.8l-2,0.1l-0.1-1.7l-1.5,0.1l0.4,5.1l-1.7,1.7
	l-3.3,2.2l0.1,1.6l-3.7,0.3l-1.7,1.9l0.1,1.8l-3.2,2l0.1,1.8l3.2-2l1.8-0.1l1.8-0.1l2,1.6l3.5,1.4l1.7-1.8l0.1,1.7l1.8,3.3l-1.4,1.9
	l1.8,3.3l-1.4,2l0.1,1.7l5.2-0.4l1.8,1.7l5.2-2.2l1.3-5.3l1.6-1.9l1.4-1.9l3.4-1.9V418.2z"/>
<path class="st1" d="M197.5,305c-2.5,3.7-5.9,4.1-5.3,5c0.6,0.9,4.4,4.1,3.4,5.6c-0.9,1.6-2.2,0.6-2.2,3.4s-4.4,2.8-5.9,2.8
	c-1.6,0,0.3,2.8-0.6,5c-0.9,2.2-0.9,6.6-1.3,8.5c-0.3,1.9,3.1,5,2.8,6.6s-2.8,2.8-2.2,4.1c0.6,1.2,2.8,3,3.3,8.8
	c1.1,0.3,2,0.7,2.4,1.2c1.4,1.9,3.8,3.3,6.8,3.3c3.1,0,4.2,2.1,5.6,1.9c1.4-0.2,5.2,0.9,2.1,3.5c-3.1,2.6-3.5,5.6-4.2,8.7
	c-0.5,2-0.4,4.7-0.9,6.4c3,0.3,7.4,0.5,9-0.3c2.5-1.2,4.1-1.2,7.2-0.3c1.9,0.6,4.4,1.8,6.1,2.7c0.2-0.6,0.5-1.1,1.2-1.2
	c2.1-0.2,4.7,4,6.1,1.6c1.4-2.3,4.7-1.9,6.3-0.9c1.6,0.9,4.2,1.4,6.1-0.5c1.9-1.9,9.1-2.8,10.8-2.1c1.6,0.7,5.9,2.6,4.2-3.1
	c-1.6-5.6,3.5-4.5,4.2-6.6s6.8-3,5.9-4.7c-0.9-1.6-8.7-6.6-11-8.2c-2.3-1.6-2.3-6.8-3.5-8.9s-3.8-4.9-0.7-5.6c3-0.7,8.4-1.9,11-4.2
	c2.6-2.4,7.3-2.6,8.7-4c1.4-1.4,4.7,1.2,5.6-0.2c0.9-1.4,1.6-4.2,0.2-5.9c-1.4-1.6-2.4-4.5-2.6-8.4c-0.2-4-1.4-3.8-1.4-5.6
	c0-1.9-0.7-4.2-2.3-5.2c-1.6-0.9-2.3-1.6-0.7-4.2c1.6-2.6,0.9-9.2,0.2-11c-0.1-0.4-0.1-0.8,0-1.3c-0.4-0.2-0.8-0.6-0.9-1.3
	c-0.5-2.5-2.2-3.4-6.3-3.4c-4.1,0,2.5-4.1,0.9-6.1s-5.6,3.8-9.4,2.5c-3.8-1.2-8.6,4.4-11.9,6.9c-3.3,2.5-8-0.5-5.5-4.1
	s0-3.3-3.8-1.9s-8.3-0.3-7.8-3.8c0.1-0.9-0.2-1.7-0.6-2.4c-1.8,0.3-3.2,0.3-3.9,0.1c-1.7-0.6-5.5-0.9-9.7-0.9c1.2,1.8,2.6,3.6,1.8,5
	c-1.4,2.7,0.8,5.2,2.8,9.1s-4.4,1.7-4.5,4.2c-0.2,2.5-5.9-0.2-7.8-1.1c-1.9-0.9-8.1-0.3-8,1.3c0.1,0.6,0,1.5-0.3,2.2
	C198.1,300.8,198.4,303.6,197.5,305z"/>
</svg>
