<svg width="542" height="541" viewBox="0 0 542 541" fill="none" xmlns="http://www.w3.org/2000/svg">
<path fill-rule="evenodd" clip-rule="evenodd" d="M80.7624 349.03C81.6971 348.177 83.2315 349.88 84.5915 350.053C85.9527 350.222 87.4006 349.289 87.4006 349.289C87.4006 349.289 87.1446 349.116 84.9315 348.949C82.7221 348.776 82.5477 346.135 80.5892 347.074C78.6395 348.006 77.2782 348.262 74.8292 348.015C74.7941 348.762 74.3688 349.762 74.2383 350.756C74.8669 350.598 75.3461 350.49 75.5694 350.478C76.9332 350.394 79.8251 349.88 80.7624 349.03Z" fill="#FAFAFA" stroke="#E2E2E2"/>
<path fill-rule="evenodd" clip-rule="evenodd" d="M81.8222 359.573C82.8334 358.869 84.8521 357.046 85.5597 357.352C86.2648 357.656 87.1731 357.046 87.1731 356.646C87.1731 356.24 85.7617 354.927 86.8708 354.526C87.6336 354.251 87.8193 353.361 87.867 352.827C87.4667 352.637 87.0489 352.491 86.7177 352.52C85.783 352.605 80.0807 353.031 80.0807 353.031C80.0807 353.031 78.3744 354.14 77.5263 354.056C76.8112 353.981 77.5213 352.84 75.2178 353.425C76.372 354.862 76.5213 355.583 78.865 356.24C81.4897 356.981 78.6642 358.33 80.8159 359.675C81.0167 359.803 81.1735 359.932 81.3354 360.059C81.5348 359.835 81.7105 359.657 81.8222 359.573Z" fill="#FAFAFA" stroke="#E2E2E2"/>
<path fill-rule="evenodd" clip-rule="evenodd" d="M313.42 443.835C313.002 441.727 319.732 432.055 321.411 432.055C322.808 432.055 323.334 422.753 322.741 417.921C317.528 414.317 313.194 413.089 313.194 413.089C313.194 413.089 299.186 412.398 296.85 411.46C294.514 410.525 292.177 414.499 290.078 412.865C287.976 411.234 284.934 413.325 285.404 415.668C285.871 418 290.307 419.409 290.307 422.91C290.307 426.412 299.186 431.557 298.95 433.424C298.789 434.734 304.276 438.299 307.55 443.102C309.292 444.201 311.148 445.636 312.982 447.115C313.346 445.572 313.528 444.368 313.42 443.835Z" fill="#FAFAFA" stroke="#E2E2E2"/>
<path fill-rule="evenodd" clip-rule="evenodd" d="M298.951 433.424C299.187 431.557 290.308 426.412 290.308 422.91C290.308 419.409 285.872 418 285.405 415.668C284.934 413.325 287.977 411.234 290.078 412.865C292.177 414.499 294.515 410.525 296.851 411.46C299.187 412.398 313.195 413.089 313.195 413.089C313.195 413.089 317.528 414.317 322.741 417.921C322.629 416.949 322.467 416.138 322.251 415.653C320.994 412.701 322.251 409.342 318.887 408.081C317.156 407.433 316.434 404.437 316.13 401.678C314.545 402.159 313.205 402.557 312.474 402.743C309.681 403.44 303.741 403.088 301.641 400.292C300.08 398.211 295.226 395.156 292.846 393.731C291.869 394.586 288.144 397.778 286.519 397.97C284.64 398.211 285.818 403.142 283.937 403.142C282.063 403.142 280.654 406.422 280.183 407.835C279.716 409.24 275.5 406.892 273.615 407.594C272.275 408.106 268.321 408.72 266.16 409.034C266.49 411.174 266.361 413.541 268.07 413.541C270.888 413.541 276.05 413.237 276.202 416.988C276.349 420.74 283.083 429.038 285.577 431.857C288.08 434.677 293.714 434.048 294.024 436.395C294.343 438.742 298.407 440.931 303.103 441.246C304.375 441.329 305.907 442.066 307.55 443.102C304.277 438.299 298.789 434.734 298.951 433.424Z" fill="#FAFAFA" stroke="#E2E2E2"/>
<path fill-rule="evenodd" clip-rule="evenodd" d="M333.676 478.476C336.023 478.016 334.614 476.135 336.257 474.49C337.898 472.85 339.773 469.566 340.012 468.391C340.037 468.263 340.125 468.175 340.238 468.097C337.053 465.705 334.826 463.986 334.118 461.526C333.407 459.022 334.143 454.121 335.266 450.546C333.446 449.25 327.855 445.386 326.098 445.386C324.361 445.386 321.686 449.25 321.023 452.963C325.126 455.152 326.741 456.713 323.899 459.553C320.934 462.528 320.306 472.54 323.585 475.198C326.712 477.731 327.61 482.759 330.633 484.193C331.487 481.668 332.129 478.801 333.676 478.476Z" fill="#FAFAFA" stroke="#E2E2E2"/>
<path fill-rule="evenodd" clip-rule="evenodd" d="M313.528 347.505C311.772 346.465 306.883 347.156 306.529 345.758C306.19 344.362 305.842 341.917 303.741 341.917C301.641 341.917 298.848 340.523 297.803 342.963C296.753 345.413 292.561 342.262 292.202 340.513C291.863 338.764 290.112 337.369 285.219 335.617C283.28 334.925 281.071 333.521 279.103 332.067C278.941 332.489 278.749 332.882 278.543 333.187C277.606 334.6 274.322 332.017 272.913 333.427C271.505 334.836 266.813 335.067 264.236 337.42C261.653 339.767 256.256 340.936 253.207 341.642C250.154 342.349 252.742 345.163 253.908 347.279C255.088 349.381 255.088 354.552 257.433 356.196C259.779 357.837 267.519 362.768 268.457 364.412C268.619 364.692 268.521 364.958 268.325 365.203C271.577 366.081 276.654 366.101 277.533 364.638C278.582 362.894 279.284 359.741 279.284 359.741C279.284 359.741 286.268 359.741 289.062 362.894C291.863 366.037 297.105 363.935 297.105 363.935C297.105 363.935 297.396 364.829 297.867 366.071C298.622 364.343 299.608 362.825 300.806 362.65C303.756 362.232 307.953 361.81 310.897 357.601C312.424 355.436 314.937 353.712 317.027 352.554C315.615 350.825 314.883 348.326 313.528 347.505Z" fill="#FAFAFA" stroke="#E2E2E2"/>
<path fill-rule="evenodd" clip-rule="evenodd" d="M341.829 354.852C338.334 355.195 336.583 353.102 333.795 354.149C331.002 355.195 326.453 354.149 324.709 353.102C322.952 352.052 320.867 355.195 318.417 353.8C317.877 353.491 317.426 353.05 317.028 352.554C314.938 353.712 312.425 355.436 310.898 357.601C307.953 361.81 303.756 362.232 300.807 362.65C299.609 362.825 298.622 364.343 297.867 366.071C298.828 368.552 300.59 372.553 302.691 374.42C305.843 377.229 317.013 376.87 317.013 374.42C317.013 371.978 326.099 370.928 328.194 370.928C330.294 370.928 336.94 364.28 337.981 364.638C339.037 364.987 346.02 366.037 347.763 367.786C348.631 368.65 351.474 369.514 354.418 370.172C353.181 369.083 352.204 367.678 352.204 366.519C352.204 364.648 355.734 359.717 356.896 358.78C356.995 358.701 357.044 358.564 357.107 358.446C354.418 358.043 351.464 357.493 350.909 356.943C349.864 355.893 345.314 354.498 341.829 354.852Z" fill="#FAFAFA" stroke="#E2E2E2"/>
<path fill-rule="evenodd" clip-rule="evenodd" d="M45.6576 504.929C49.838 504.169 44.5109 500.74 43.3654 499.602C42.2237 498.457 43.7455 493.887 46.0327 493.887C48.3124 493.887 46.0327 491.224 42.984 488.17C39.9415 485.126 42.984 483.987 45.6576 483.987C48.3124 483.987 44.891 479.415 47.5471 476.749C50.2132 474.077 46.7855 469.137 46.7855 466.848C46.7855 464.571 50.5946 463.805 53.6421 460.76C56.6833 457.71 50.9797 458.855 50.9797 456.576C50.9797 454.289 47.1657 453.521 44.5109 455.433C41.8385 457.342 42.6038 455.433 40.3217 455.433C38.0345 455.433 33.8478 456.194 33.8478 453.905C33.8478 451.612 31.9457 451.244 30.0437 453.521C29.4842 454.199 28.5244 454.558 27.2296 454.72C26.9511 457.705 26.6424 460.49 27.5169 461.899C29.5456 465.185 25.0089 482.553 20.9439 487.247C16.8751 491.942 20.7971 493.199 25.0089 496.484C29.2345 499.769 26.4216 511.662 26.4216 514.476C26.4216 517.294 30.1742 516.513 34.5529 516.513C37.16 516.513 40.1059 515.355 42.999 514.844C42.1421 513.538 41.4621 512.251 41.4621 511.402C41.4621 509.113 41.4621 505.691 45.6576 504.929Z" fill="#FAFAFA" stroke="#E2E2E2"/>
<path fill-rule="evenodd" clip-rule="evenodd" d="M168.548 326.749C170.46 324.839 173.805 325.791 175.722 327.707C177.634 329.621 180.504 330.093 183.374 332.96C184.111 333.707 184.905 334.375 185.681 334.969C185.952 332.951 186.005 328.933 186.893 326.857C187.828 324.672 185.952 321.849 187.521 321.849C189.078 321.849 193.46 321.849 193.46 319.034C193.46 316.22 194.715 317.159 195.655 315.588C196.597 314.025 192.839 310.893 192.207 309.95C191.591 309.017 195.023 308.703 197.531 304.956C198.435 303.586 198.06 300.797 197.223 297.782C196.808 298.892 195.968 299.697 194.556 298.848C192.207 297.438 188.621 298.225 183.924 299.163C179.231 300.101 177.825 304.637 179.536 306.512C181.261 308.399 175.008 309.332 174.542 306.832C174.069 304.318 169.381 306.047 169.685 309.332C170.004 312.617 164.522 313.868 164.838 317.935C165.157 322.011 159.835 325.761 156.391 327.795C155.856 328.12 155.302 328.444 154.737 328.767C156.467 329.562 157.851 330.093 158.509 330.093C161.381 330.093 166.637 328.668 168.548 326.749Z" fill="#FAFAFA" stroke="#E2E2E2"/>
<path fill-rule="evenodd" clip-rule="evenodd" d="M186.339 344.942C184.253 346.111 182.351 348.615 182.641 353.928C184.674 353.871 187.541 354.104 189.618 354.714C189.115 348.929 186.854 347.136 186.273 345.944C186.103 345.619 186.16 345.281 186.339 344.942Z" fill="#FAFAFA" stroke="#E2E2E2"/>
<path fill-rule="evenodd" clip-rule="evenodd" d="M149.044 333.187C149.275 334.836 151.859 338.823 152.794 337.184C153.734 335.538 156.082 339.295 158.19 340.469C160.302 341.642 164.522 343.051 164.757 344.461C164.993 345.866 165.698 348.919 167.811 347.981C169.921 347.038 172.501 343.754 172.501 345.63C172.501 347.505 173.204 351.031 175.548 350.561C177.897 350.089 178.602 354.552 180.949 354.076C181.377 354.001 181.96 353.948 182.64 353.928C182.351 348.615 184.253 346.111 186.339 344.942C186.822 344.008 188.231 343.027 188.457 341.878C188.771 340.317 185.333 337.184 185.639 335.308L185.682 334.969C184.905 334.374 184.111 333.707 183.374 332.96C180.504 330.093 177.635 329.621 175.722 327.707C173.805 325.791 170.461 324.839 168.549 326.749C166.638 328.668 161.381 330.093 158.509 330.093C157.852 330.093 156.468 329.562 154.738 328.767C152.478 330.069 150.073 331.31 147.678 331.792C148.153 332.445 148.89 332.101 149.044 333.187Z" fill="#FAFAFA" stroke="#E2E2E2"/>
<path fill-rule="evenodd" clip-rule="evenodd" d="M424.316 377.244C423.059 373.177 419.004 371.607 416.806 371.607C414.617 371.607 410.861 366.607 408.358 366.911C407 367.083 403.617 367.903 400.647 368.875C403.366 374.003 406.278 379.232 407.622 380.809C410.484 384.153 416.702 393.242 414.317 395.633C412.447 397.508 413.218 405.184 416.148 407.555C417.507 405.783 422.122 399.969 422.122 398.211C422.122 396.336 422.44 392.574 426.185 393.517C429.944 394.454 433.38 396.021 433.38 394.769C433.38 393.517 432.442 389.45 430.882 387.878C429.322 386.323 425.572 381.315 424.316 377.244Z" fill="#FAFAFA" stroke="#E2E2E2"/>
<path fill-rule="evenodd" clip-rule="evenodd" d="M403.986 425.435C401.487 425.124 393.659 425.435 391.465 427.629C389.275 429.819 386.464 431.073 383.966 430.758C381.461 430.447 374.261 430.133 372.7 430.447C371.14 430.758 362.693 428.881 361.441 429.195C360.332 429.47 358.251 425.611 355.414 425.14C355.271 425.493 355.026 425.827 354.555 426.141C352.446 427.556 352.203 431.298 354.555 433.419C356.896 435.53 359.95 440.225 357.838 440.225C355.734 440.225 354.084 443.039 354.32 444.447C354.555 445.862 353.612 448.907 354.32 449.614C355.026 450.316 359.95 455.015 360.18 456.42C360.391 457.657 362.409 458.3 362.257 459.384C366.196 459.091 374.557 458.609 376.451 459.553C378.953 460.809 387.72 461.428 387.72 461.428C390.213 461.428 392.407 460.49 391.783 458.929C391.254 457.607 394.513 456.733 396.865 456.489C396.457 455.044 396.177 453.856 396.786 453.6C397.954 453.135 404.766 452.197 407.573 453.6C409.002 454.322 410.612 453.641 411.847 452.805C411.475 451.489 411.111 450.449 410.391 450.315C408.663 450.005 406.018 442.808 408.201 442.336C410.391 441.869 413.207 434.352 416.648 433.262C418.018 432.83 418.602 432.004 418.847 430.993C415.867 429.991 412.924 428.765 412.432 427.949C411.49 426.377 406.479 425.753 403.986 425.435Z" fill="#FAFAFA" stroke="#E2E2E2"/>
<path fill-rule="evenodd" clip-rule="evenodd" d="M340.238 468.097C340.336 468.023 340.476 467.969 340.641 467.92L340.73 467.891C340.896 467.851 341.103 467.826 341.317 467.807L341.408 467.797C342.32 467.719 343.542 467.773 344.799 467.734L345.054 467.729C345.335 467.714 345.608 467.694 345.893 467.675L346.222 467.644C346.586 467.595 346.943 467.536 347.281 467.448C350.095 466.75 350.801 463.697 352.204 464.399C353.613 465.102 361.124 461.271 362.061 459.866C362.183 459.699 362.237 459.543 362.257 459.384C362.409 458.3 360.392 457.657 360.181 456.42C359.95 455.015 355.027 450.315 354.32 449.614C354.172 449.467 354.115 449.201 354.085 448.887L354.069 448.799C354.051 448.464 354.069 448.076 354.115 447.653C346.776 448.719 335.89 450.988 335.89 450.988C335.89 450.988 335.625 450.791 335.266 450.546C334.143 454.121 333.407 459.022 334.118 461.526C334.826 463.986 337.053 465.704 340.238 468.097Z" fill="#FAFAFA" stroke="#E2E2E2"/>
<path fill-rule="evenodd" clip-rule="evenodd" d="M537.551 359.242C537.551 358.309 540.834 356.663 540.598 354.788C540.362 352.912 537.551 352.672 534.502 351.031C531.45 349.381 528.397 350.089 525.58 348.684C522.771 347.279 516.902 348.213 516.902 347.279C516.902 346.342 513.152 343.288 512.21 341.642C511.273 340.003 508.225 340.936 506.348 342.109C504.465 343.288 502.82 343.753 500.951 342.585C499.076 341.406 497.43 339.531 495.792 340.233C494.143 340.935 491.094 340.469 491.802 338.116C492.503 335.769 488.753 330.614 487.11 329.912C485.465 329.199 480.537 330.373 479.37 328.031C478.191 325.678 476.08 323.803 477.022 322.162C477.956 320.517 476.788 316.055 475.614 314.179C474.437 312.303 468.576 312.537 466.937 313.239C465.293 313.942 461.534 312.537 459.893 313.476C458.249 314.419 457.316 316.054 454.965 316.054C453.66 316.054 452.787 315.883 452.075 314.846C449.537 315.99 445.278 316.22 445.278 316.22C445.278 316.22 439.01 321.225 439.01 323.1C439.01 324.977 438.71 328.108 437.134 326.548C435.573 324.98 429.007 324.977 427.446 325.919C425.875 326.857 423.378 322.162 420.56 323.729C417.748 325.29 413.992 321.54 413.674 323.1C413.364 324.672 409.3 323.415 406.478 322.162C403.672 320.911 398.66 322.791 396.785 320.596C394.909 318.407 382.708 318.407 378.644 318.407C374.581 318.407 373.637 320.596 371.758 322.477C370.064 324.181 368.097 323.827 366.098 323.739C366.275 325.321 366.585 326.725 366.986 327.324C367.925 328.732 372.386 335.538 371.21 337.656C370.04 339.767 367.925 339.767 366.516 341.406C365.107 343.051 356.895 350.328 356.666 351.498C356.43 352.672 358.075 357.837 356.895 358.78C355.734 359.717 352.203 364.648 352.203 366.519C352.203 368.4 354.786 370.982 356.895 371.685C357.784 371.988 358.358 372.406 358.618 372.902C360.259 372.676 361.765 372.548 362.692 372.548C364.259 372.548 371.139 374.434 373.319 374.434C375.513 374.434 378.644 375.367 379.582 376.31C380.524 377.244 382.708 376.615 384.274 375.054C385.84 373.491 387.719 374.434 389.595 374.434C391.464 374.434 394.601 372.858 395.538 371.302C396.475 369.739 405.865 367.225 408.358 366.911C410.861 366.607 414.616 371.607 416.805 371.607C419.003 371.607 423.058 373.177 424.316 377.244C425.571 381.315 429.321 386.323 430.881 387.878C432.442 389.45 433.379 393.517 433.379 394.769C433.379 396.021 429.944 394.454 426.185 393.517C422.44 392.574 422.121 396.336 422.121 398.211C422.121 400.086 416.805 406.656 415.867 407.913C414.925 409.171 417.748 410.103 419.936 410.413C420.869 410.545 424.629 407.913 425.875 407.913C426.386 407.913 427.941 409.117 429.606 410.541C429.246 405.646 430.264 405.92 434.631 402.601C439.172 399.159 439.638 392.74 443.702 391.954C447.776 391.168 449.488 389.288 455.437 390.225C461.381 391.168 452.468 394.921 456.522 397.112C459.199 398.555 465.499 397.842 469.697 398.063C475.054 397.154 480.641 397.256 486.162 398.284C488.904 395.816 494.197 392.442 497.662 392.111C502.517 391.64 506.423 390.225 511.115 388.045C513.005 387.163 516.328 386.268 519.719 385.621C519.208 383.411 518.551 380.809 519.955 380.603C521.594 380.376 526.523 374.97 528.166 374.97C529.81 374.97 536.843 376.378 536.843 375.211C536.843 374.032 539.194 370.044 538.718 368.865C538.252 367.697 535.906 366.057 536.378 364.879C536.843 363.709 540.127 363.709 540.127 362.296C540.127 360.891 537.551 360.184 537.551 359.242Z" fill="#FAFAFA" stroke="#E2E2E2"/>
<path fill-rule="evenodd" clip-rule="evenodd" d="M364.107 253.558C366.973 253.558 373.678 254.992 377.501 253.558C381.32 252.125 381.32 256.437 383.715 255.945C386.101 255.469 390.885 258.823 393.757 261.219C395.283 262.491 397.1 263.507 399.112 264.676C399.569 263.895 400.186 263.124 401.168 262.388C403.673 260.512 406.171 261.445 408.359 261.445C410.553 261.445 410.862 258.946 412.432 257.693C413.311 256.986 414.681 256.583 415.721 256.368C414.881 254.639 414.838 251.261 413.444 249.866C411.8 248.226 409.454 245.403 410.16 243.761C410.862 242.117 410.862 239.77 408.982 237.894C408.163 237.074 407.534 236.112 407.196 235.193C403.381 234.702 398.248 234.153 397.1 234.536C395.219 235.163 387.72 229.212 386.464 228.269C385.644 227.661 380.078 227.98 375.067 228.446C372.181 231.649 374.262 234.001 374.11 238.916C373.953 243.925 368.475 242.987 365.512 242.987C362.532 242.987 357.682 234.064 356.126 232.026C354.555 229.998 349.544 234.536 345.952 236.721C342.355 238.916 344.234 243.139 341.73 245.171C339.232 247.204 337.666 250.651 340.161 255.189C340.264 255.376 340.331 255.567 340.43 255.749C343.557 255.503 346.889 254.924 348.809 253.558C352.156 251.162 361.246 253.558 364.107 253.558Z" fill="#FAFAFA" stroke="#E2E2E2"/>
<path fill-rule="evenodd" clip-rule="evenodd" d="M346.343 270.755C347.517 272.404 351.272 273.809 352.68 273.107C354.084 272.404 358.54 274.747 358.54 276.624C358.54 278.505 357.372 284.141 358.54 284.141C359.607 284.141 366.364 286.238 366.825 289.066C369.855 289.139 373.295 289.292 374.581 289.616C377.089 290.24 378.644 288.678 379.892 287.112C381.146 285.545 385.521 284.921 386.772 284.921C388.029 284.921 388.029 281.479 388.338 279.908C388.653 278.351 391.783 275.532 393.659 274.908C395.538 274.285 395.218 272.09 397.099 272.09C398.978 272.09 398.66 269.581 398.35 268.015C398.164 267.067 398.385 265.878 399.111 264.676C397.099 263.507 395.282 262.491 393.756 261.219C390.885 258.823 386.101 255.469 383.714 255.945C381.319 256.437 381.319 252.125 377.5 253.558C373.677 254.992 366.973 253.558 364.106 253.558C361.245 253.558 352.155 251.162 348.808 253.558C346.889 254.924 343.556 255.503 340.43 255.749C342.565 260.118 341.783 264.539 339.383 267.239C337.681 269.163 338.672 269.418 339.919 270.175C342.491 269.934 345.401 269.438 346.343 270.755Z" fill="#FAFAFA" stroke="#E2E2E2"/>
<path fill-rule="evenodd" clip-rule="evenodd" d="M229.04 389.058C226.934 389.991 223.646 387.172 223.646 386.24C223.646 385.586 223.214 383.249 223.656 381.79C221.908 380.897 219.41 379.679 217.546 379.124C214.415 378.187 212.856 378.187 210.358 379.433C208.759 380.229 204.354 380.008 201.38 379.747C201.117 380.681 200.697 381.308 199.952 381.308C197.839 381.308 195.024 383.421 194.556 385.773C194.089 388.115 189.161 389.991 187.748 394.218C186.344 398.446 187.048 400.321 189.161 397.739C191.271 395.156 193.853 396.099 193.853 398.211C193.853 400.321 196.669 400.552 195.728 403.376L195.701 403.543C198.909 403.258 203.368 402.904 204.725 402.904C206.914 402.904 209.103 396.021 210.038 395.392C210.973 394.769 213.486 400.402 215.989 402.601C218.488 404.791 218.804 400.715 218.804 398.839C218.804 396.958 220.993 396.336 222.555 396.65C224.117 396.958 227.559 397.587 227.559 395.392C227.559 393.212 229.442 394.146 230.684 394.146C231.937 394.146 232.257 391.64 232.257 391.64L234.304 389.736C232.638 388.891 230.697 388.321 229.04 389.058Z" fill="#FAFAFA" stroke="#E2E2E2"/>
<path fill-rule="evenodd" clip-rule="evenodd" d="M197.531 304.956C195.023 308.703 191.59 309.017 192.206 309.95C192.839 310.893 196.596 314.025 195.654 315.588C194.714 317.159 193.46 316.22 193.46 319.034C193.46 321.849 189.077 321.849 187.52 321.849C185.952 321.849 187.828 324.672 186.893 326.857C185.952 329.046 185.952 333.427 185.638 335.308C185.332 337.184 188.77 340.317 188.456 341.878C188.146 343.45 185.638 344.696 186.272 345.944C186.853 347.136 189.114 348.929 189.617 354.714C190.697 355.028 191.58 355.436 191.971 355.962C193.383 357.837 195.727 359.242 198.773 359.242C201.826 359.242 202.999 361.362 204.405 361.122C205.813 360.891 209.571 362.07 206.523 364.648C203.471 367.225 202.999 370.28 202.3 373.33C201.842 375.308 201.867 378.049 201.379 379.747C204.354 380.008 208.759 380.229 210.357 379.433C212.855 378.187 214.415 378.187 217.545 379.124C219.409 379.679 221.907 380.897 223.655 381.79C223.847 381.162 224.181 380.681 224.816 380.603C226.933 380.376 229.513 384.593 230.922 382.241C232.331 379.9 235.61 380.376 237.25 381.308C238.895 382.241 241.476 382.718 243.356 380.838C245.231 378.962 252.504 378.025 254.15 378.725C255.792 379.433 260.01 381.308 258.371 375.672C256.727 370.044 261.885 371.219 262.591 369.101C263.293 366.99 269.394 366.057 268.457 364.412C267.518 362.768 259.778 357.837 257.432 356.196C255.087 354.552 255.087 349.381 253.908 347.279C252.741 345.163 250.154 342.349 253.207 341.642C256.255 340.936 261.653 339.767 264.236 337.42C266.813 335.067 271.504 334.836 272.913 333.427C274.322 332.017 277.605 334.6 278.543 333.187C279.485 331.782 280.182 328.963 278.783 327.324C277.376 325.678 276.432 322.864 276.201 318.878C275.966 314.89 274.792 315.117 274.792 313.24C274.792 311.364 274.09 309.017 272.446 308.074C270.806 307.141 270.101 306.435 271.74 303.856C273.385 301.268 272.677 294.698 271.971 292.823C271.834 292.449 271.848 292.007 271.927 291.535C271.504 291.339 271.17 290.928 271.039 290.24C270.567 287.735 268.854 286.798 264.784 286.798C260.716 286.798 267.283 282.727 265.718 280.694C264.162 278.667 260.088 284.446 256.343 283.193C252.583 281.951 247.739 287.582 244.456 290.082C241.167 292.591 236.475 289.616 238.978 286.011C241.476 282.417 238.978 282.727 235.221 284.141C231.466 285.545 226.933 283.827 227.4 280.38C227.519 279.515 227.243 278.705 226.784 277.944C224.95 278.198 223.542 278.257 222.87 278.033C221.188 277.477 217.374 277.173 213.213 277.09C214.457 278.911 215.805 280.694 215.043 282.103C213.639 284.769 215.834 287.274 217.859 291.177C219.894 295.096 213.485 292.901 213.326 295.405C213.166 297.91 207.386 295.248 205.504 294.307C203.635 293.371 197.372 293.995 197.531 295.562C197.593 296.187 197.495 297.045 197.222 297.782C198.059 300.797 198.434 303.586 197.531 304.956Z" fill="#FAFAFA" stroke="#E2E2E2"/>
<path fill-rule="evenodd" clip-rule="evenodd" d="M434.323 168.818C436.83 163.186 448.075 158.836 449.969 153.798C450.902 151.284 451.217 150.035 447.153 145.342C443.084 140.648 434.018 137.52 433.699 135.02C433.379 132.506 440.585 132.201 440.267 129.068C439.952 125.936 436.207 125.945 434.632 123.441C433.071 120.937 436.516 119.36 436.202 118.119C435.887 116.871 431.196 116.242 430.882 114.671C430.568 113.111 434.018 113.424 433.379 111.548C432.757 109.672 429.636 106.221 431.824 103.406C434.018 100.592 438.71 103.406 435.26 97.1516C431.824 90.8906 426.504 83.0668 425.253 81.1815C423.996 79.3062 426.504 76.1731 428.385 74.9355C430.264 73.679 434.95 68.9845 434.95 67.1042C434.95 65.2276 429.007 60.2143 427.446 59.2816C425.876 58.339 422.44 58.6578 420.878 55.5197C419.304 52.3968 417.748 51.4591 419.304 49.5775C420.878 47.7022 420.878 45.8257 420.878 43.9403C420.878 42.065 424.316 43.6265 424.933 40.8136C425.218 39.532 426.121 38.1274 427.274 36.9576C427.284 34.8224 427.515 32.5241 427.274 31.0655C426.77 28.0405 418.229 27.0388 416.222 23.5179C414.204 20.0083 409.184 21.507 407.672 23.5179C406.17 25.53 397.119 23.0196 397.119 26.0371C397.119 29.0522 390.592 29.558 390.592 33.0739C390.592 36.5948 393.604 42.6249 388.578 42.1291C383.552 41.6232 387.067 44.1374 384.054 48.1591C381.035 52.1809 381.035 45.6399 378.021 46.6466C375.013 47.6533 371.494 43.6265 369.982 46.1407C368.475 48.665 363.449 46.6466 358.423 45.6399C353.392 44.6382 350.889 37.6065 346.864 37.0956C344.194 36.7668 341.342 38.8931 339.851 42.2571C343.742 44.7763 346.296 48.3512 351.386 50.6733C356.911 53.1875 366.964 56.1976 366.473 59.7235C365.962 63.2394 364.451 68.2665 366.964 69.779C369.481 71.2828 366.473 77.8238 369.481 79.335C372.495 80.8476 371.494 88.3802 368.976 88.3802C366.473 88.3802 369.481 92.4019 370.993 93.8994C371.676 94.5973 372.23 96.6395 372.48 99.1248C375.567 99.8717 378.311 101.432 380.99 102.631C385.217 104.506 384.584 107.472 384.746 110.762C384.898 114.042 385.05 115.918 382.872 114.514C380.681 113.111 378.33 114.514 377.079 119.213C375.822 123.903 369.884 129.54 366.287 129.854C362.684 130.164 363.004 133.921 360.028 134.7C357.063 135.481 354.246 137.206 354.403 140.489C354.555 143.776 350.026 144.089 347.047 144.089C344.077 144.089 344.706 149.408 342.355 150.812C340.012 152.227 340.475 154.102 342.668 156.92C344.858 159.739 342.983 162.244 343.759 164.277C344.548 166.309 347.989 171.004 345.638 176.164C343.297 181.33 340.793 187.748 342.825 187.125C344.853 186.502 349.549 191.352 352.68 191.038C355.807 190.715 356.126 195.409 359.09 194.475C362.061 193.544 362.061 197.284 370.669 196.986C379.272 196.671 396.628 189.477 403.514 189.477C407.416 189.477 410.538 189.005 412.997 188.397C414.475 186.173 416.266 183.757 418.057 181.964C422.44 177.574 431.824 174.451 434.323 168.818Z" fill="#FAFAFA" stroke="#E2E2E2"/>
<path fill-rule="evenodd" clip-rule="evenodd" d="M221.147 440.774C219.422 440.618 218.953 443.741 214.579 446.412C210.202 449.073 214.612 461.084 218.953 460.49C223.491 459.866 222.865 440.931 221.147 440.774ZM204.405 361.122C202.999 361.362 201.826 359.242 198.773 359.242C195.727 359.242 193.384 357.837 191.971 355.962C190.562 354.076 183.298 353.615 180.949 354.076C178.602 354.552 177.896 350.089 175.548 350.561C173.204 351.031 172.5 347.505 172.5 345.63C172.5 343.753 169.921 347.038 167.81 347.981C165.698 348.919 164.993 345.866 164.757 344.461C164.522 343.051 160.301 341.642 158.19 340.469C156.082 339.295 153.734 335.538 152.794 337.184C151.859 338.823 149.275 334.836 149.044 333.187C148.889 332.101 148.153 332.445 147.677 331.792C146.874 331.959 146.079 332.057 145.286 332.017C141.532 331.86 138.248 334.836 138.879 341.102C139.5 347.353 134.337 347.981 127.925 348.448C121.512 348.919 123.706 353.928 121.048 355.962C118.388 358.004 109.003 354.871 107.749 351.434C106.495 347.991 98.0581 351.434 101.651 355.49C105.253 359.565 105.089 365.198 103.06 366.759C101.028 368.326 96.6391 364.26 93.8249 366.287C91.0133 368.326 90.8552 364.412 87.4226 363.17C83.9799 361.908 82.5659 364.722 77.0982 364.26C71.6155 363.783 68.4915 366.911 70.5252 369.263C72.5552 371.607 70.2116 373.796 71.7761 375.839C73.3431 377.872 80.5359 377.553 85.8493 380.376C91.1727 383.185 92.416 380.838 95.0796 382.88C97.7394 384.913 98.368 383.656 98.521 387.574C98.6816 391.483 101.651 395.235 106.814 396.65C111.973 398.058 108.064 401.501 109.632 404.943C111.188 408.385 107.283 413.389 108.064 417.617C108.849 421.839 105.561 435.452 103.06 436.704C102.9 436.787 102.642 436.787 102.435 436.826C104.779 437.995 107.246 439.017 108.449 439.812C110.736 441.344 115.673 442.856 118.726 444.762C121.767 446.671 127.098 446.294 127.098 443.995C127.098 441.722 130.138 443.25 132.045 445.144C133.947 447.051 141.181 447.433 144.605 448.189C147.49 448.828 151.705 448.425 155.471 448.503C155.324 447.649 155.132 446.761 154.835 445.788C152.958 439.68 158.426 436.081 163.584 435.294C168.745 434.518 180.009 437.641 182.989 439.518C185.952 441.398 190.024 440.931 195.188 435.452C197.787 432.682 199.924 431.68 201.812 431.136C201.949 429.908 202.588 428.655 202.999 427.556C203.708 425.67 200.42 426.141 198.076 425.905C195.727 425.67 194.089 423.323 195.727 420.74C197.372 418.157 194.325 417.921 192.68 415.342C191.036 412.765 193.384 413.467 194.788 412.765C196.194 412.058 198.076 409.24 196.899 408.542C195.727 407.835 194.787 406.194 195.727 403.376C196.668 400.552 193.853 400.321 193.853 398.211C193.853 396.099 191.271 395.156 189.16 397.739C187.048 400.321 186.344 398.446 187.748 394.218C189.16 389.991 194.089 388.115 194.555 385.773C195.023 383.421 197.839 381.308 199.952 381.308C202.064 381.308 201.591 376.378 202.3 373.33C202.999 370.28 203.471 367.225 206.523 364.648C209.571 362.07 205.813 360.891 204.405 361.122Z" fill="#FAFAFA" stroke="#E2E2E2"/>
<path fill-rule="evenodd" clip-rule="evenodd" d="M155.471 448.503C151.705 448.425 147.49 448.828 144.605 448.189C141.181 447.434 133.947 447.051 132.045 445.144C130.138 443.25 127.098 441.722 127.098 443.995C127.098 446.294 121.767 446.672 118.725 444.762C115.673 442.856 110.736 441.344 108.449 439.812C107.246 439.017 104.779 437.995 102.435 436.826C99.2611 437.446 90.1463 434.092 84.1341 434.829C77.7217 435.609 57.2273 433.886 49.2516 434.519C41.2784 435.137 40.8042 431.234 36.4268 431.234C32.0481 431.234 33.9276 436.542 27.6707 436.704C21.4126 436.866 20.7966 440.775 25.322 444.38C27.9053 446.432 27.5942 450.752 27.2291 454.72C28.5239 454.558 29.4837 454.199 30.0432 453.521C31.9452 451.244 33.8473 451.612 33.8473 453.905C33.8473 456.194 38.034 455.433 40.3211 455.433C42.6033 455.433 41.838 457.342 44.5104 455.433C47.1652 453.521 50.9792 454.29 50.9792 456.577C50.9792 458.855 56.6828 457.71 53.6416 460.76C50.5941 463.805 46.785 464.571 46.785 466.848C46.785 469.138 50.2126 474.077 47.5466 476.749C44.8905 479.415 48.3119 483.987 45.6571 483.987C42.9835 483.987 39.941 485.127 42.9835 488.17C46.0322 491.224 48.3119 493.887 46.0322 493.887C43.745 493.887 42.2232 498.457 43.3649 499.602C44.5104 500.74 49.8375 504.169 45.6571 504.929C41.4616 505.691 41.4616 509.113 41.4616 511.402C41.4616 512.251 42.1416 513.538 42.9985 514.844C44.9419 514.5 46.859 514.441 48.6255 515.267C53.0042 517.294 55.5423 528.199 61.4516 527.464C63.9596 527.15 62.705 525.273 63.9596 524.016C65.213 522.769 67.5516 523.712 70.0596 523.712C72.5551 523.712 73.8147 520.108 79.7504 519.955C85.6948 519.803 89.4512 519.323 93.2013 519.484C96.9589 519.636 99.9286 518.384 100.863 515.728C101.801 513.066 104.935 510.724 109.158 510.097C113.382 509.472 112.756 505.081 113.062 502.587C113.382 500.084 120.422 496.322 120.883 494.447C121.358 492.566 116.815 485.371 121.038 478.953C125.261 472.54 129.804 472.232 129.804 468.627C129.804 465.328 134.177 464.094 139.5 463.455C144.821 462.843 146.541 459.238 151.079 457.362C154.88 455.781 156.236 452.973 155.471 448.503Z" fill="#FAFAFA" stroke="#E2E2E2"/>
<path fill-rule="evenodd" clip-rule="evenodd" d="M257.565 406.746C260.088 405.729 262.93 405.321 264.319 405.881C265.541 406.373 265.939 407.658 266.16 409.034C268.32 408.72 272.275 408.106 273.615 407.594C275.499 406.892 279.716 409.24 280.183 407.835C280.653 406.422 282.062 403.142 283.936 403.142C285.817 403.142 284.639 398.211 286.519 397.97C288.394 397.739 293.085 393.517 293.085 393.517C293.085 393.517 291.211 389.765 290.508 389.524C289.802 389.288 287.456 391.866 283.23 391.866C279.013 391.866 275.966 395.156 274.09 395.156C272.211 395.156 266.347 393.281 262.362 393.046C260.953 392.966 259.485 392.848 258.12 392.706C257.732 396.256 257.304 401.727 257.565 406.746Z" fill="#FAFAFA" stroke="#E2E2E2"/>
<path fill-rule="evenodd" clip-rule="evenodd" d="M388.03 535.448C385.522 534.044 374.261 536.386 371.298 533.573C368.323 530.755 362.257 535.791 364.878 536.229C368.627 536.853 374.261 540.143 380.363 540.295C386.464 540.457 394.748 537.482 394.601 535.915C394.439 534.349 390.533 536.853 388.03 535.448ZM396.865 456.489C394.514 456.733 391.254 457.607 391.783 458.929C392.407 460.49 390.213 461.428 387.72 461.428C387.72 461.428 378.954 460.809 376.451 459.553C374.557 458.609 366.197 459.091 362.257 459.384C362.237 459.543 362.183 459.7 362.061 459.866C361.124 461.271 353.613 465.102 352.204 464.399C350.801 463.697 350.095 466.75 347.281 467.448C344.464 468.155 340.243 467.213 340.012 468.391C339.773 469.566 337.898 472.85 336.257 474.49C334.614 476.135 336.023 478.016 333.677 478.476C332.13 478.801 331.487 481.668 330.633 484.193C330.786 484.272 330.928 484.378 331.095 484.434C334.53 485.523 337.19 489.599 336.724 493.504C336.257 497.421 341.73 498.836 344.234 496.008C346.732 493.199 353.774 497.578 353.774 499.455C353.774 501.33 346.58 497.421 342.507 500.398C338.447 503.362 345.638 506.182 344.706 509.315C343.759 512.449 346.58 516.818 350.177 516.67C353.779 516.518 357.838 522.461 360.028 521.36C362.222 520.27 357.373 511.977 358.153 510.724C358.939 509.472 363.312 512.915 365.501 510.405C367.695 507.905 363.941 506.03 360.656 506.182C357.373 506.338 360.499 501.802 364.411 504.149C368.318 506.49 370.198 503.526 372.068 503.205C373.943 502.892 374.414 496.17 368.627 494.603C362.849 493.042 363.626 498.836 359.867 494.907C356.117 491.01 363.312 492.566 363.312 489.28C363.312 485.994 357.525 481.301 354.708 477.387C351.895 473.483 358.624 471.603 360.181 474.422C361.751 477.235 365.967 476.768 368.627 475.668C371.298 474.579 365.815 469.566 370.659 467.689C375.513 465.807 375.513 469.097 377.079 469.726C378.639 470.346 380.049 465.807 385.05 465.807C387.656 465.807 389.963 467.536 392.196 469.205C393.556 467.709 394.67 466.844 394.67 465.573C394.67 463.932 397.723 463.225 397.723 460.642C397.723 459.405 397.237 457.844 396.865 456.489Z" fill="#FAFAFA" stroke="#E2E2E2"/>
<path fill-rule="evenodd" clip-rule="evenodd" d="M52.3557 289.237C51.0408 288.255 49.8088 287.186 48.8565 286.056C44.8392 281.328 43.1781 285.112 42.7164 287.951C42.2333 290.789 38.4607 287.004 36.0932 286.537C33.7345 286.056 36.8021 281.567 38.4607 280.38C39.566 279.594 40.66 277.404 41.34 274.35C40.8984 274.35 40.4568 274.291 40.029 274.123C35.6516 272.404 29.5453 272.404 29.3935 276.314C29.2341 280.227 34.2376 278.818 34.3969 281.318C34.5525 283.827 29.3935 283.193 25.7902 285.702C22.1982 288.206 18.2837 283.984 14.5311 285.86C10.7735 287.735 18.5949 289.935 15.7807 293.843C12.9641 297.758 15.9351 297.596 20.6299 301.352C25.3222 305.109 17.8145 306.047 17.8145 310.274C17.8145 314.493 12.0281 314.34 10.7735 317.159C9.53267 319.977 15.7807 325.604 21.2584 325.604C25.1679 325.604 34.2376 323.1 39.561 318.097C44.8731 313.087 47.691 317.935 52.5351 315.439C57.3918 312.935 54.4133 294.629 52.5351 290.869C52.2064 290.201 52.2139 289.69 52.3557 289.237Z" fill="#FAFAFA" stroke="#E2E2E2"/>
<path fill-rule="evenodd" clip-rule="evenodd" d="M106.66 198.542C109.317 195.89 112.442 185.716 108.382 186.811C104.311 187.91 105.499 199.706 106.66 198.542ZM46.1274 232.498C50.353 232.345 55.1971 225.146 53.1684 223.104C51.1334 221.076 42.9833 232.61 46.1274 232.498ZM140.123 311.05C140.442 306.355 130.117 303.076 129.018 305.57C127.924 308.074 125.581 307.77 123.853 304.956C122.138 302.133 125.426 299.472 123.706 299.163C121.977 298.848 119.794 294.934 120.267 293.371C120.736 291.811 117.605 281.795 112.287 280.542C106.968 279.289 106.188 271.777 105.253 267.711C104.311 263.645 100.863 265.824 98.2121 262.388C95.5498 258.946 91.013 260.669 88.6656 260.826C86.3232 260.983 88.6656 256.437 92.4157 253.941C96.1733 251.437 100.556 238.13 100.556 235.478C100.556 232.812 84.1339 232.964 81.0049 234.536C77.8733 236.097 74.7493 232.188 77.4016 231.089C80.0626 229.998 85.6947 224.518 85.3823 222.329C85.0736 220.138 89.2967 218.105 86.948 216.067C84.6044 214.039 84.2882 218.734 82.257 220.295C80.227 221.862 75.684 221.396 70.8348 220.453C65.9882 219.509 64.1125 226.394 64.2681 229.37C64.4274 232.345 58.6361 234.064 59.5708 236.568C60.5105 239.073 58.4805 240.948 56.921 239.535C55.3565 238.13 53.6364 234.687 50.5048 237.193C47.372 239.702 54.1031 242.987 58.1618 243.463C62.2331 243.925 55.0428 246.899 54.2574 251.27C53.477 255.66 59.5708 253.784 59.8894 256.909C60.2094 260.04 51.1284 260.512 51.1284 263.477C51.1284 266.463 56.2924 262.074 58.6361 260.826C60.9847 259.57 57.3915 268.172 63.0235 267.239C68.6505 266.296 67.0822 258.637 69.116 258.946C71.1535 259.256 68.1825 263.011 69.9051 266.296C71.6152 269.581 65.8339 274.595 66.1475 276.942C66.4562 279.289 77.7215 279.289 81.316 275.532C84.9193 271.777 86.6294 275.847 84.1339 278.667C81.6347 281.48 82.7249 284.141 85.859 285.241C88.983 286.331 90.0846 286.645 88.6757 289.139C87.268 291.653 88.5113 296.339 87.7284 298.686C86.948 301.033 77.2523 300.723 76.9386 299.163C76.6262 297.597 72.5549 298.686 73.659 300.876C74.7493 303.076 70.2113 305.418 70.5249 307.456C70.8449 309.499 76.6262 309.017 76.7793 311.526C76.9336 314.025 72.5549 316.997 66.6218 318.721C60.6698 320.439 67.8651 325.139 70.6805 323.1C73.4946 321.068 72.8749 324.505 76.9386 324.505C81.0049 324.505 83.5179 327.795 88.0433 326.076C92.5813 324.353 92.4258 326.076 88.983 328.732C85.5391 331.398 80.3813 328.58 77.2523 330.299C74.1232 332.017 61.3988 343.956 63.8039 346.892C65.2128 348.605 67.0822 344.387 71.6152 342.507C76.1582 340.631 76.9336 343.754 79.4466 344.067C81.9446 344.387 82.1001 338.907 84.1339 339.374C86.1677 339.846 88.0433 337.656 91.7947 338.283C95.5498 338.907 98.2121 337.499 100.088 335.937C101.965 334.374 106.963 339.059 108.536 337.969C110.093 336.87 116.979 335.617 120.422 335.769C123.853 335.937 132.776 331.86 135.117 329.67C137.466 327.481 133.711 327.019 130.587 327.481C127.455 327.957 128.079 324.353 131.367 321.225C134.65 318.097 139.813 315.745 140.123 311.05ZM54.5773 272.247C50.619 268.428 45.5214 274.419 41.3397 274.35C40.6597 277.404 39.5657 279.594 38.4604 280.38C36.8017 281.567 33.7342 286.056 36.0929 286.537C38.4604 287.004 42.233 290.789 42.7161 287.951C43.1778 285.112 44.8389 281.328 48.8562 286.056C49.8085 287.186 51.0405 288.255 52.3554 289.237C53.004 287.092 57.946 286.723 60.5105 284.141C63.6395 281.008 58.9547 276.471 54.5773 272.247Z" fill="#FAFAFA" stroke="#E2E2E2"/>
<path fill-rule="evenodd" clip-rule="evenodd" d="M106.66 198.542C109.317 195.89 112.442 185.716 108.382 186.811C104.311 187.91 105.499 199.706 106.66 198.542ZM46.1274 232.498C50.353 232.345 55.1971 225.146 53.1684 223.104C51.1334 221.076 42.9833 232.61 46.1274 232.498ZM140.123 311.05C140.442 306.355 130.117 303.076 129.018 305.57C127.924 308.074 125.581 307.77 123.853 304.956C122.138 302.133 125.426 299.472 123.706 299.163C121.977 298.848 119.794 294.934 120.267 293.371C120.736 291.811 117.605 281.795 112.287 280.542C106.968 279.289 106.188 271.777 105.253 267.711C104.311 263.645 100.863 265.824 98.2121 262.388C95.5498 258.946 91.013 260.669 88.6656 260.826C86.3232 260.983 88.6656 256.437 92.4157 253.941C96.1733 251.437 100.556 238.13 100.556 235.478C100.556 232.812 84.1339 232.964 81.0049 234.536C77.8733 236.097 74.7493 232.188 77.4016 231.089C80.0626 229.998 85.6947 224.518 85.3823 222.329C85.0736 220.138 89.2967 218.105 86.948 216.067C84.6044 214.039 84.2882 218.734 82.257 220.295C80.227 221.862 75.684 221.396 70.8348 220.453C65.9882 219.509 64.1125 226.394 64.2681 229.37C64.4274 232.345 58.6361 234.064 59.5708 236.568C60.5105 239.073 58.4805 240.948 56.921 239.535C55.3565 238.13 53.6364 234.687 50.5048 237.193C47.372 239.702 54.1031 242.987 58.1618 243.463C62.2331 243.925 55.0428 246.899 54.2574 251.27C53.477 255.66 59.5708 253.784 59.8894 256.909C60.2094 260.04 51.1284 260.512 51.1284 263.477C51.1284 266.463 56.2924 262.074 58.6361 260.826C60.9847 259.57 57.3915 268.172 63.0235 267.239C68.6505 266.296 67.0822 258.637 69.116 258.946C71.1535 259.256 68.1825 263.011 69.9051 266.296C71.6152 269.581 65.8339 274.595 66.1475 276.942C66.4562 279.289 77.7215 279.289 81.316 275.532C84.9193 271.777 86.6294 275.847 84.1339 278.667C81.6347 281.48 82.7249 284.141 85.859 285.241C88.983 286.331 90.0846 286.645 88.6757 289.139C87.268 291.653 88.5113 296.339 87.7284 298.686C86.948 301.033 77.2523 300.723 76.9386 299.163C76.6262 297.597 72.5549 298.686 73.659 300.876C74.7493 303.076 70.2113 305.418 70.5249 307.456C70.8449 309.499 76.6262 309.017 76.7793 311.526C76.9336 314.025 72.5549 316.997 66.6218 318.721C60.6698 320.439 67.8651 325.139 70.6805 323.1C73.4946 321.068 72.8749 324.505 76.9386 324.505C81.0049 324.505 83.5179 327.795 88.0433 326.076C92.5813 324.353 92.4258 326.076 88.983 328.732C85.5391 331.398 80.3813 328.58 77.2523 330.299C74.1232 332.017 61.3988 343.956 63.8039 346.892C65.2128 348.605 67.0822 344.387 71.6152 342.507C76.1582 340.631 76.9336 343.754 79.4466 344.067C81.9446 344.387 82.1001 338.907 84.1339 339.374C86.1677 339.846 88.0433 337.656 91.7947 338.283C95.5498 338.907 98.2121 337.499 100.088 335.937C101.965 334.374 106.963 339.059 108.536 337.969C110.093 336.87 116.979 335.617 120.422 335.769C123.853 335.937 132.776 331.86 135.117 329.67C137.466 327.481 133.711 327.019 130.587 327.481C127.455 327.957 128.079 324.353 131.367 321.225C134.65 318.097 139.813 315.745 140.123 311.05ZM54.5773 272.247C50.619 268.428 45.5214 274.419 41.3397 274.35C40.6597 277.404 39.5657 279.594 38.4604 280.38C36.8017 281.567 33.7342 286.056 36.0929 286.537C38.4604 287.004 42.233 290.789 42.7161 287.951C43.1778 285.112 44.8389 281.328 48.8562 286.056C49.8085 287.186 51.0405 288.255 52.3554 289.237C53.004 287.092 57.946 286.723 60.5105 284.141C63.6395 281.008 58.9547 276.471 54.5773 272.247Z" fill="#FAFAFA" stroke="#E2E2E2"/>
<path fill-rule="evenodd" clip-rule="evenodd" d="M255.249 260.355C253.992 259.57 253.055 262.544 251.646 262.86C250.238 263.173 248.678 256.909 248.049 260.355C247.42 263.797 244.294 258.946 241.167 263.32C238.038 267.711 243.042 271.618 245.231 273.033C247.42 274.438 245.074 276.471 242.261 275.847C239.447 275.222 241.167 279.908 245.074 280.542C248.981 281.166 253.207 273.657 252.741 271.777C252.265 269.9 256.727 261.278 255.249 260.355ZM231.626 250.809C230.058 250.034 229.432 245.014 231.307 243.463C233.182 241.896 233.975 235.939 232.406 234.379C230.851 232.812 225.206 234.379 224.739 238.601C224.27 242.824 219.738 240.948 218.487 241.886C217.233 242.824 220.983 244.7 218.953 246.581C216.923 248.457 216.139 243.761 212.855 243.463C209.571 243.139 209.257 248.457 207.541 251.123C205.813 253.784 206.908 259.418 207.541 263.173C208.163 266.924 212.7 269.271 211.601 272.404C211.098 273.858 212.124 275.493 213.213 277.09C217.375 277.173 221.189 277.477 222.87 278.033C223.542 278.257 224.95 278.198 226.784 277.943C225.408 275.704 222.32 273.883 222.555 272.247C222.87 270.067 225.84 271.457 228.033 273.337C230.213 275.215 235.074 275.532 235.535 273.185C235.823 271.738 234.755 265.049 231.785 266.615C228.809 268.182 228.033 267.553 226.934 265.986C225.84 264.421 229.123 261.922 229.908 259.418C230.684 256.909 235.844 257.841 236.629 255.813C237.417 253.784 233.182 251.594 231.626 250.809Z" fill="#FAFAFA" stroke="#E2E2E2"/>
<path fill-rule="evenodd" clip-rule="evenodd" d="M318.112 231.559C312.173 231.723 309.391 243.417 310.918 245.339C312.173 246.899 324.052 231.402 318.112 231.559ZM370.993 93.8993C369.481 92.4019 366.473 88.3801 368.976 88.3801C371.494 88.3801 372.495 80.8476 369.481 79.335C366.473 77.8237 369.481 71.2828 366.964 69.779C364.451 68.2665 365.962 63.2393 366.473 59.7234C366.964 56.1975 356.911 53.1875 351.386 50.6733C345.859 48.1591 343.351 44.1374 338.824 41.6232C334.305 39.109 332.792 45.6399 332.792 49.6716C332.792 53.6934 328.772 54.1942 325.76 51.675C322.741 49.1608 319.222 51.675 314.702 49.6716C310.176 47.6533 312.194 54.1942 312.194 57.2092C312.194 60.2193 307.162 60.2193 304.149 60.2193C301.13 60.2193 296.109 62.7385 296.109 66.2531C296.109 69.7702 291.59 71.7836 293.091 73.802C294.597 75.8091 292.59 77.8237 290.578 79.335C288.57 80.8388 286.564 85.8622 285.052 87.3735C283.545 88.881 286.057 91.3952 283.043 93.4085C280.036 95.4119 276.511 93.8993 275.005 95.4119C273.498 96.9244 275.005 100.45 274.508 104.978C273.998 109.49 270.478 114.524 267.466 118.541C264.457 122.567 268.472 123.579 269.984 124.07C271.485 124.581 271.485 127.095 269.984 130.105C268.472 133.135 264.953 131.112 262.946 130.621C260.938 130.105 255.406 132.624 252.392 137.653C249.374 142.681 250.375 145.696 251.382 148.21C252.383 150.724 248.874 153.744 251.382 158.772C253.895 163.8 250.375 164.807 250.886 168.828C251.382 172.85 257.413 172.344 257.92 176.366C258.42 180.383 255.907 181.895 253.895 181.895C251.887 181.895 252.392 185.917 254.405 186.924C256.408 187.935 255.907 194.967 254.906 196.986C253.895 198.994 247.367 196.986 247.867 199.49C248.368 202.009 246.356 206.024 246.356 208.044C246.356 210.051 245.855 216.587 243.843 215.075C243.053 214.486 241.784 214.442 240.542 214.609C240.547 214.923 240.552 215.236 240.542 215.6C240.387 219.509 241.796 223.428 245.231 226.237C248.673 229.06 246.012 233.278 248.982 237.193C251.956 241.11 251.013 243.925 254.297 246.743C257.586 249.557 257.899 251.123 256.49 254.722C255.088 258.326 259.308 257.379 259.46 259.57C259.627 261.77 258.533 266.296 259.627 268.492C260.716 270.681 262.91 268.492 267.913 268.339C272.914 268.182 271.668 265.049 271.82 262.074C271.971 259.103 274.484 260.512 275.103 258.637C275.73 256.754 280.266 256.288 283.863 257.841C287.456 259.418 289.332 256.754 289.964 252.999C290.583 249.242 292.615 253.784 293.714 254.56C294.808 255.346 298.097 248.776 299.652 244.552C301.218 240.32 299.5 241.11 295.903 245.171C292.306 249.242 294.343 241.11 295.752 237.82C297.149 234.535 297.002 224.979 297.469 222.799C297.945 220.61 298.877 217.319 303.412 216.381C307.948 215.444 313.891 209.811 312.959 207.469C312.017 205.117 319.212 201.213 319.212 198.861C319.212 196.509 311.703 189.31 309.205 187.748C306.697 186.187 301.228 187.433 301.695 185.716C302.16 183.998 301.061 177.265 300.443 173.823C299.815 170.376 304.346 166.781 304.346 163.491C304.346 160.206 304.194 156.449 307.162 155.355C310.132 154.264 308.263 151.45 312.173 150.507C316.075 149.57 315.3 143.937 319.526 142.214C323.747 140.496 324.052 139.077 329.534 136.43C335.006 133.763 344.234 127.508 345.805 124.218C347.361 120.937 340.164 117.485 344.706 114.042C349.24 110.605 345.485 106.688 348.768 105.44C352.053 104.182 353.304 102.469 355.655 99.9646C357.996 97.4604 361.124 99.8127 366.752 98.87C368.814 98.5261 370.698 98.693 372.48 99.1248C372.23 96.6395 371.676 94.5972 370.993 93.8993Z" fill="#FAFAFA" stroke="#E2E2E2"/>
<path fill-rule="evenodd" clip-rule="evenodd" d="M360.18 214.658C361.441 212.311 351.148 213.342 353.46 215.444C355.183 217.015 358.938 217.005 360.18 214.658ZM355.488 219.2C349.863 220.767 349.029 228.554 351.272 228.436C354.084 228.269 360.499 222.951 362.221 221.229C363.94 219.509 361.124 217.633 355.488 219.2ZM410.861 211.604C412.157 208.81 415.548 208.333 413.016 204.656C412.539 205.054 411.852 205.421 410.709 205.741C406.17 206.997 396.313 202.618 390.684 203.707C385.049 204.798 373.637 204.798 370.977 207.616C368.318 210.435 361.594 211.216 364.562 213.72C367.542 216.229 364.562 217.476 366.752 220.453C368.946 223.428 370.04 224.681 373.015 224.047C375.988 223.428 378.33 224.979 375.194 228.269L375.066 228.446C380.077 227.979 385.643 227.661 386.463 228.269C387.719 229.212 395.218 235.163 397.099 234.535C398.247 234.153 403.381 234.702 407.195 235.193C406.754 234.025 406.787 232.925 407.572 232.262C408.981 231.089 412.035 231.089 410.39 228.741C408.751 226.394 408.279 225.927 408.049 223.104C407.808 220.295 407.107 218.885 407.342 217.005C407.572 215.13 409.453 214.658 410.861 211.604Z" fill="#FAFAFA" stroke="#E2E2E2"/>
<path fill-rule="evenodd" clip-rule="evenodd" d="M438.391 27.0438C437.763 29.3961 433.547 28.9254 433.699 26.5769C433.851 24.2334 427.132 22.3518 426.814 21.2497C426.499 20.1614 429.63 20.3146 432.138 21.7179C434.631 23.1325 436.359 22.1924 439.172 19.5338C441.995 16.874 445.895 19.0669 446.367 16.7209C446.838 14.3724 441.828 12.8008 440.894 11.395C439.952 9.98536 436.359 8.10755 432.919 8.73767C429.478 9.36152 429.322 7.95442 427.279 6.07661C425.253 4.19754 419.004 7.32932 419.004 11.7088C419.004 16.0933 415.082 14.9937 416.491 12.6464C417.904 10.2992 414.616 7.48371 417.748 6.70045C420.878 5.92347 419.152 1.22769 413.364 0.758237C407.573 0.29255 405.39 5.13645 406.797 6.70045C408.206 8.26948 402.882 14.9937 400.535 14.9937C398.193 14.9937 400.854 9.20964 400.697 6.07661C400.535 2.95111 398.35 4.6695 393.967 9.67658C389.595 14.6786 386.312 19.2188 383.809 19.6882C381.301 20.1614 381.614 15.1481 385.683 12.9627C389.747 10.7686 389.909 4.82139 392.558 4.82139C395.218 4.82139 395.218 1.69714 391.313 0.758237C387.401 -0.181923 386.772 4.19754 385.521 5.45276C384.264 6.70045 377.864 3.25738 378.016 4.5126C378.173 5.76908 374.581 6.22849 376.137 8.57575C377.696 10.923 375.361 12.9627 373.794 10.1473C372.23 7.32932 368.323 9.51591 366.448 12.6464C364.563 15.782 362.061 15.62 363.94 16.7209C365.815 17.8129 365.663 22.038 362.849 22.8187C360.027 23.607 361.124 15.1481 358.938 15.9339C356.744 16.7209 358.153 11.8632 361.124 11.8632C364.092 11.8632 367.067 7.48371 366.752 6.39041C366.233 4.55904 363.003 4.98331 363.003 7.32932C363.003 9.67658 358.31 9.20964 354.403 9.04771C350.497 8.89458 350.644 13.5891 355.026 16.087C359.399 18.5987 354.246 20.1614 352.053 18.2811C349.863 16.4033 346.428 17.341 344.077 18.4343C341.73 19.5338 349.712 22.3518 350.025 23.7589C350.329 25.1685 345.951 22.038 345.014 23.1325C344.077 24.2334 339.698 22.3518 339.383 19.6882C339.065 17.0271 332.026 20.7828 335.948 21.7179C339.86 22.6593 338.446 25.1685 338.446 28.6103C338.446 32.0471 333.907 29.3961 334.849 26.4187C335.781 23.4476 332.026 24.0689 328.911 25.9442C325.78 27.8258 329.382 22.5049 328.126 19.8426C326.874 17.1878 324.052 19.8426 320.767 20.474C317.484 21.0978 315.771 21.2497 317.803 23.4476C319.835 25.638 319.525 28.7635 316.855 28.2965C314.201 27.8258 313.11 28.2965 313.415 30.8007C313.734 33.3048 309.98 33.453 309.666 31.2726C309.356 29.0823 304.037 29.7011 302.47 32.2153C300.909 34.7094 296.527 36.5948 296.997 39.409C297.459 42.2219 300.909 37.9944 303.726 38.932C306.54 39.8747 303.565 41.2843 305.136 42.6889C306.697 44.1035 306.383 47.5453 304.194 45.5119C302.003 43.4797 299.186 42.8408 298.715 46.1307C298.244 49.4206 295.903 45.665 294.024 43.3127C292.148 40.9655 290.274 47.7022 288.242 46.1307C286.214 44.5692 292.306 39.7228 290.739 37.3705C289.179 35.0283 288.079 38.7851 284.487 42.3788C280.889 45.9738 276.05 45.8257 277.767 47.5453C279.485 49.2637 274.165 50.2064 273.232 53.1725C272.29 56.1524 264.938 57.2482 260.24 60.3812C255.548 63.4992 261.182 63.6624 263.842 60.685C266.508 57.7101 267.446 59.4385 271.667 56.7775C275.892 54.1151 280.422 51.9248 281.988 53.0156C283.545 54.1151 286.214 54.9009 288.242 52.0829C290.274 49.2637 292.782 49.8825 294.808 51.611C296.845 53.3344 291.373 54.744 293.866 57.2482C296.37 59.7574 290.902 61.1469 290.902 58.9666C290.902 56.7775 287.776 54.9009 286.676 56.9294C285.576 58.9666 283.706 61.1469 281.673 61.3138C279.647 61.472 277.454 65.2276 277.454 68.9845C277.454 72.7351 273.85 68.9845 273.547 72.2694C273.232 75.5543 268.222 81.3384 263.842 85.5622C259.47 89.7898 263.529 90.7274 262.12 93.3935C260.716 96.0508 255.548 93.7035 253.84 94.7994C252.113 95.9027 254.773 102.469 252.431 104.506C250.08 106.534 252.431 109.349 252.431 111.7C252.431 114.042 246.33 110.291 245.865 112.639C245.393 114.986 240.068 114.367 238.505 114.986C236.943 115.613 241.642 119.36 244.456 121.556C247.267 123.751 241.796 125.469 241.167 122.965C240.541 120.46 236.629 124.532 231.785 126.721C226.934 128.911 228.969 133.292 225.218 133.449C221.461 133.606 222.555 139.548 220.053 141.423C217.545 143.31 218.177 137.053 214.261 136.891C210.357 136.739 210.666 139.548 213.01 142.838C215.355 146.118 209.416 143.624 207.223 146.442C205.033 149.256 198.773 147.846 197.057 150.193C195.342 152.541 201.744 152.541 202.685 154.416C203.625 156.301 197.057 155.355 193.614 154.574C190.177 153.798 191.119 158.954 187.982 158.33C184.853 157.701 180.949 160.987 183.143 163.186C185.333 165.377 181.416 165.687 179.226 164.277C177.037 162.872 175.162 166.309 174.377 168.97C173.594 171.633 178.601 173.047 178.446 174.284C178.292 175.541 174.377 177.574 177.192 178.213C180.009 178.826 177.977 181.33 176.102 182.111C174.223 182.907 174.223 184.782 176.102 187.125C177.977 189.477 172.814 189.939 175.317 193.544C177.82 197.137 179.69 192.595 180.79 195.257C181.89 197.923 184.853 195.576 188.301 192.443C191.74 189.32 192.993 195.885 190.177 195.733C187.361 195.576 184.078 197.284 184.699 200.112C185.328 202.922 180.327 202.456 180.481 199.014C180.63 195.576 174.695 199.637 176.878 202.146C179.072 204.645 176.102 206.055 176.102 208.402C176.102 210.749 180.327 210.278 182.044 207.616C183.759 204.965 186.576 205.583 187.671 208.25C188.77 210.906 185.013 208.873 185.013 212.467C185.013 216.067 182.67 212.939 180.63 215.757C178.601 218.577 188.611 223.738 191.74 224.518C194.869 225.303 197.839 228.741 204.093 227.808C210.357 226.865 222.236 215.292 223.799 213.253C225.37 211.216 228.809 213.568 231.153 211.687C233.5 209.811 232.093 204.965 233.815 204.032C235.535 203.08 236.47 209.188 238.038 209.811C239.452 210.371 240.477 211.486 240.541 214.609C241.783 214.442 243.053 214.486 243.842 215.075C245.855 216.587 246.355 210.051 246.355 208.044C246.355 206.024 248.368 202.009 247.867 199.49C247.366 196.986 253.894 198.994 254.906 196.986C255.907 194.967 256.407 187.935 254.405 186.924C252.391 185.917 251.887 181.895 253.894 181.895C255.907 181.895 258.42 180.383 257.919 176.366C257.412 172.344 251.381 172.85 250.886 168.828C250.375 164.807 253.894 163.8 251.381 158.772C248.873 153.745 252.382 150.724 251.381 148.21C250.375 145.696 249.374 142.681 252.391 137.653C255.406 132.624 260.938 130.105 262.945 130.621C264.953 131.112 268.472 133.135 269.984 130.105C271.484 127.095 271.484 124.581 269.984 124.07C268.472 123.579 264.457 122.567 267.466 118.541C270.478 114.524 273.997 109.49 274.508 104.978C275.005 100.45 273.498 96.9244 275.005 95.4119C276.51 93.8994 280.036 95.4119 283.043 93.4086C286.057 91.3952 283.545 88.881 285.052 87.3735C286.564 85.8622 288.57 80.8388 290.577 79.335C292.59 77.8238 294.597 75.8091 293.09 73.802C291.59 71.7836 296.109 69.7703 296.109 66.2531C296.109 62.7385 301.13 60.2193 304.148 60.2193C307.162 60.2193 312.193 60.2193 312.193 57.2093C312.193 54.1942 310.176 47.6533 314.701 49.6717C319.222 51.675 322.741 49.1608 325.759 51.675C328.772 54.1942 332.792 53.6934 332.792 49.6717C332.792 45.6399 334.305 39.109 338.824 41.6232C339.178 41.8203 339.506 42.0399 339.85 42.2571C341.342 38.8931 344.194 36.7667 346.864 37.0956C350.888 37.6065 353.391 44.6382 358.422 45.6399C363.449 46.6466 368.475 48.665 369.981 46.1407C371.493 43.6265 375.012 47.6533 378.021 46.6466C381.035 45.6399 381.035 52.1809 384.053 48.1591C387.067 44.1374 383.551 41.6232 388.578 42.129C393.604 42.6249 390.591 36.5948 390.591 33.0739C390.591 29.558 397.119 29.0522 397.119 26.0371C397.119 23.0196 406.17 25.53 407.672 23.5179C409.184 21.507 414.203 20.0083 416.222 23.5179C418.228 27.0388 426.77 28.0405 427.274 31.0655C427.515 32.5241 427.284 34.8224 427.274 36.9575C428.664 35.5831 430.436 34.5525 432.138 34.5525C435.26 34.5525 438.073 29.863 440.894 30.4869C443.235 31.0065 445.551 30.6137 446.274 26.6961C443.751 25.117 438.965 24.9099 438.391 27.0438Z" fill="#FAFAFA" stroke="#E2E2E2"/>
<path fill-rule="evenodd" clip-rule="evenodd" d="M317.47 435.982C315.3 438.909 313.181 442.621 313.42 443.835C313.528 444.368 313.346 445.572 312.982 447.115C315.771 449.368 318.47 451.636 320.457 452.668C320.661 452.777 320.831 452.865 321.023 452.963C321.642 449.486 324.037 445.896 325.775 445.479C323.344 442.498 319.771 438.29 317.47 435.982Z" fill="#FAFAFA" stroke="#E2E2E2"/>
<path fill-rule="evenodd" clip-rule="evenodd" d="M354.554 433.419C352.203 431.298 352.445 427.556 354.554 426.141C356.666 424.728 354.787 422.851 354.787 420.509C354.787 418.157 344.706 417.455 343.055 416.988C341.416 416.517 344.234 410.414 341.652 410.414C339.065 410.414 338.133 408.542 338.133 406.656C338.133 404.781 334.143 401.727 334.378 400.552C334.411 400.39 334.524 400.233 334.669 400.076C333.219 399.861 332.105 399.68 331.693 399.589C329.951 399.247 327.153 398.201 327.153 398.201C327.153 398.201 320.644 400.302 316.129 401.678C316.434 404.437 317.155 407.433 318.887 408.081C322.25 409.343 320.993 412.702 322.25 415.653C323.511 418.599 323.09 432.054 321.411 432.054C320.7 432.054 319.07 433.8 317.47 435.982C319.771 438.29 323.344 442.498 325.774 445.479L326.098 445.386C328.193 445.386 335.889 450.988 335.889 450.988C335.889 450.988 346.776 448.719 354.114 447.653C354.222 446.53 354.452 445.239 354.32 444.447C354.084 443.039 355.734 440.225 357.838 440.225C359.949 440.225 356.896 435.53 354.554 433.419Z" fill="#FAFAFA" stroke="#E2E2E2"/>
<path fill-rule="evenodd" clip-rule="evenodd" d="M81.6652 165.757C86.8594 165.497 86.7314 159.761 88.8605 160.028C91.0022 160.3 94.4612 156.029 95.7948 153.363C97.1273 150.698 94.3294 145.899 91.1326 145.899C87.9283 145.899 85.532 143.364 86.2032 141.497C86.8682 139.631 84.463 137.23 84.5998 135.899C84.7315 134.565 80.6038 135.757 78.4659 136.301C76.338 136.828 71.8063 131.095 69.809 132.158C67.8116 133.229 69.272 136.025 68.7413 137.627C68.2068 139.23 63.4129 136.159 63.4129 138.029C63.4129 139.894 61.4117 140.158 59.8133 138.158C58.2137 136.159 54.4749 137.359 54.6154 138.958C54.7471 140.556 53.0132 139.23 49.9482 137.359C46.8844 135.497 43.6825 139.496 43.951 141.497C44.2208 143.502 42.8821 144.024 40.3503 139.631C37.8197 135.23 34.8863 140.025 36.2225 142.435C37.5587 144.829 37.023 147.757 35.0269 146.56C33.0245 145.363 30.3584 147.359 29.159 149.229C27.9608 151.096 23.695 143.757 26.7601 142.028C29.8264 140.301 17.0305 132.958 13.0345 132.958C9.03595 132.958 11.6983 135.899 14.3681 138.029C17.0305 140.158 12.495 139.631 11.0321 137.757C9.56541 135.899 6.76758 137.359 5.16542 140.025C3.57204 142.694 0.899679 144.162 0.638716 146.029C0.370225 147.895 5.16542 149.9 9.29942 148.162C13.4322 146.43 18.0944 146.159 20.2323 148.162C22.3651 150.158 16.3655 150.962 18.4946 152.56C20.6312 154.159 18.8961 155.498 13.8349 155.095C8.76872 154.698 2.63985 156.158 3.57204 157.895C4.50047 159.623 16.4972 156.434 16.6327 158.163C16.7645 159.899 16.6327 162.827 19.832 161.498C23.0301 160.166 20.8922 163.899 22.4893 164.559C24.0903 165.23 23.695 168.427 19.4306 168.698C15.1648 168.963 13.0859 169.82 14.8951 171.628C17.1622 173.9 21.8294 172.292 26.3561 171.23C30.8841 170.159 37.4219 175.627 42.7504 177.761C48.0825 179.899 57.2777 176.962 58.3454 174.159C59.4143 171.355 66.6071 172.426 69.5367 170.426C72.4713 168.427 76.4648 166.029 81.6652 165.757Z" fill="#FAFAFA" stroke="#E2E2E2"/>
<path fill-rule="evenodd" clip-rule="evenodd" d="M232.494 388.999C232.494 388.999 232.626 385.936 229.332 385.334C226.039 384.734 226.245 383.592 225.935 382.537C225.777 382 224.816 380.603 224.816 380.603C224.816 380.603 223.011 380.78 223.462 383.818C223.607 384.805 223.685 385.467 223.724 385.908C223.787 386.632 224.11 387.297 224.644 387.79C225.462 388.546 226.705 389.426 227.922 389.236C229.986 388.918 230.796 388.682 232.494 388.999Z" fill="#FAFAFA" stroke="#E2E2E2"/>
<path fill-rule="evenodd" clip-rule="evenodd" d="M122.139 445.977C122.139 445.977 121.173 449.808 127.054 449.574C127.054 449.574 130.935 447.612 134.463 448.867C137.993 450.122 136.699 446.945 136.699 446.945C136.699 446.945 133.209 446.279 131.797 444.985C130.386 443.689 129.367 442.709 127.995 442.866C126.622 443.023 127.133 444.278 127.133 444.278C127.133 444.278 127.341 445.951 122.139 445.977Z" fill="#FAFAFA" stroke="#E2E2E2"/>
<path fill-rule="evenodd" clip-rule="evenodd" d="M200.254 431.726C200.254 431.726 197.61 431.303 194.843 432.549C193.561 433.126 190.756 432.585 190.335 435.021C189.001 442.709 194.177 436.355 194.177 436.355L199.117 432.196L200.293 431.726H200.254Z" fill="#FAFAFA" stroke="#E2E2E2"/>
<path fill-rule="evenodd" clip-rule="evenodd" d="M455.909 291.413C454.028 290.941 452.857 286.723 449.803 285.545C446.754 284.371 447.463 280.615 444.88 278.975C442.304 277.325 443.937 274.045 443.703 271.457C443.471 268.88 444.178 264.887 442.771 264.184C441.357 263.477 435.491 260.193 432.919 261.371C430.333 262.544 428.456 263.477 427.28 261.371C426.112 259.256 424.473 258.081 421.891 258.784C419.304 259.491 417.66 258.317 416.256 257.138C416.046 256.958 415.868 256.681 415.721 256.368C414.681 256.583 413.311 256.986 412.432 257.693C410.862 258.946 410.553 261.445 408.359 261.445C406.17 261.445 403.673 260.512 401.168 262.388C398.66 264.263 398.037 266.463 398.35 268.015C398.66 269.581 398.979 272.09 397.1 272.09C395.219 272.09 395.539 274.285 393.659 274.908C391.784 275.532 388.653 278.351 388.338 279.908C388.03 281.479 388.03 284.921 386.773 284.921C385.522 284.921 381.147 285.545 379.892 287.112C378.645 288.678 377.089 290.24 374.581 289.616C373.295 289.292 369.855 289.139 366.825 289.066C366.871 289.376 366.87 289.68 366.753 290.004C365.585 293.294 366.517 296.339 368.396 297.983C370.276 299.624 370.978 306.199 368.868 307.141C366.753 308.074 362.767 310.893 362.767 312.537C362.767 314.179 366.987 315.588 366.287 317.935C365.888 319.28 365.874 321.667 366.099 323.739C368.098 323.827 370.065 324.181 371.759 322.477C373.638 320.596 374.581 318.407 378.645 318.407C382.709 318.407 394.91 318.407 396.786 320.596C398.66 322.791 403.673 320.911 406.479 322.162C409.301 323.415 413.365 324.672 413.674 323.1C413.993 321.54 417.748 325.29 420.561 323.729C423.379 322.162 425.876 326.857 427.447 325.919C429.007 324.977 435.574 324.98 437.135 326.548C438.711 328.108 439.01 324.977 439.01 323.1C439.01 321.225 445.279 316.22 445.279 316.22C445.279 316.22 449.538 315.99 452.076 314.846C451.51 314.035 451.031 312.701 450.505 310.426C449.342 305.256 447.463 302.211 448.871 300.566C450.274 298.921 454.265 302.678 456.371 301.74C458.486 300.801 462.24 298.921 461.768 296.811C461.303 294.698 457.783 291.88 455.909 291.413Z" fill="#FAFAFA" stroke="#E2E2E2"/>
<path fill-rule="evenodd" clip-rule="evenodd" d="M271.972 292.823C272.678 294.698 273.386 301.268 271.741 303.856C270.103 306.434 270.808 307.141 272.447 308.074C274.091 309.016 274.794 311.364 274.794 313.24C274.794 315.117 275.967 314.89 276.203 318.877C276.433 322.864 277.377 325.678 278.785 327.324C279.885 328.61 279.682 330.584 279.103 332.067C281.072 333.521 283.281 334.925 285.22 335.617C290.113 337.369 291.864 338.764 292.203 340.512C292.562 342.262 296.753 345.413 297.804 342.963C298.849 340.522 301.641 341.917 303.742 341.917C305.843 341.917 306.191 344.362 306.529 345.758C306.883 347.156 311.773 346.465 313.529 347.505C315.272 348.556 315.968 352.402 318.417 353.8C320.867 355.195 322.953 352.052 324.709 353.102C326.453 354.149 331.002 355.195 333.795 354.149C336.583 353.102 338.334 355.195 341.83 354.852C345.314 354.498 349.864 355.893 350.91 356.943C351.464 357.493 354.419 358.043 357.107 358.446C357.805 357.012 356.451 352.588 356.667 351.498C356.897 350.328 365.108 343.051 366.517 341.406C367.926 339.767 370.041 339.767 371.211 337.656C372.388 335.538 367.926 328.732 366.988 327.324C366.05 325.919 365.585 320.287 366.287 317.935C366.988 315.588 362.767 314.179 362.767 312.537C362.767 310.893 366.753 308.074 368.868 307.141C370.979 306.198 370.276 299.624 368.397 297.983C366.517 296.339 365.585 293.294 366.753 290.004C367.926 286.722 359.719 284.14 358.541 284.14C358.351 284.14 358.233 283.93 358.154 283.65C350.827 285.009 332.066 283.056 330.648 282.49C329.721 282.118 327.345 281.264 325.304 280.537C324.372 282.088 322.433 283.513 319.516 283.513C314.987 283.513 314.667 278.975 314.515 276.942C314.368 274.908 296.218 278.666 291.365 283.513C286.519 288.363 275.255 286.483 274.95 289.139C274.715 291.074 273.027 292.076 271.928 291.535C271.849 292.007 271.835 292.449 271.972 292.823Z" fill="#FAFAFA" stroke="#E2E2E2"/>
<path fill-rule="evenodd" clip-rule="evenodd" d="M289.062 362.894C286.268 359.741 279.284 359.741 279.284 359.741C279.284 359.741 278.582 362.894 277.533 364.638C276.653 366.101 271.577 366.081 268.325 365.203C267.4 366.41 263.175 367.354 262.591 369.101C261.885 371.219 256.727 370.044 258.371 375.672C260.011 381.308 255.793 379.433 254.15 378.725C252.504 378.025 245.231 378.962 243.357 380.838C241.476 382.718 238.895 382.241 237.25 381.308C235.611 380.376 232.331 379.9 230.922 382.241C229.513 384.593 226.934 380.376 224.816 380.603C222.711 380.838 223.645 385.296 223.645 386.24C223.645 387.172 226.934 389.991 229.04 389.058C231.153 388.115 233.736 389.288 235.611 390.461C237.489 391.64 241.008 389.524 242.179 388.35C243.357 387.172 249.923 387.172 250.625 387.172C251.332 387.172 251.562 390.933 252.741 391.64C253.908 392.343 258.371 392.814 262.362 393.046C266.347 393.281 272.211 395.156 274.09 395.156C275.966 395.156 279.013 391.866 283.23 391.866C287.456 391.866 289.802 389.288 290.508 389.524L290.55 389.558C290.853 388.252 291.343 387.197 292.262 387.064C293.974 386.828 292.746 383.883 293.974 382.414C295.202 380.951 292.992 378.008 295.202 378.249C297.4 378.5 299.845 378.745 299.845 375.563C299.845 374.488 300.424 373.541 301.263 372.75C298.843 369.357 297.105 363.935 297.105 363.935C297.105 363.935 291.863 366.037 289.062 362.894Z" fill="#FAFAFA" stroke="#E2E2E2"/>
<path fill-rule="evenodd" clip-rule="evenodd" d="M356.896 371.685C356.087 371.42 355.198 370.86 354.418 370.172C351.473 369.514 348.63 368.649 347.762 367.786C346.02 366.037 339.036 364.987 337.981 364.638C336.94 364.28 330.294 370.928 328.194 370.928C326.098 370.928 317.012 371.978 317.012 374.42C317.012 376.87 305.842 377.229 302.691 374.42C302.195 373.978 301.72 373.388 301.263 372.75C300.424 373.541 299.845 374.487 299.845 375.563C299.845 378.745 297.4 378.5 295.202 378.249C292.993 378.008 295.202 380.951 293.974 382.414C292.747 383.883 293.974 386.828 292.262 387.063C291.343 387.197 290.853 388.252 290.55 389.558C291.284 389.912 293.085 393.517 293.085 393.517C293.085 393.517 292.993 393.604 292.846 393.731C295.226 395.156 300.08 398.211 301.641 400.292C303.741 403.088 309.68 403.44 312.473 402.742C315.271 402.05 327.154 398.201 327.154 398.201C327.154 398.201 329.951 399.247 331.693 399.589C332.106 399.68 333.22 399.86 334.669 400.076C335.522 399.193 338.148 398.437 340.95 395.627C344.234 392.343 349.161 380.603 350.565 379.668C351.974 378.725 355.734 376.615 357.609 375.21C359.478 373.796 359.017 372.391 356.896 371.685Z" fill="#FAFAFA" stroke="#E2E2E2"/>
<path fill-rule="evenodd" clip-rule="evenodd" d="M419.936 410.414C417.748 410.103 414.925 409.17 415.868 407.913C415.926 407.835 416.054 407.678 416.149 407.555C413.218 405.184 412.447 397.508 414.317 395.633C416.702 393.242 410.484 384.153 407.622 380.809C406.278 379.232 403.366 374.003 400.648 368.875C398.165 369.681 395.967 370.585 395.539 371.302C394.602 372.858 391.465 374.433 389.596 374.433C387.72 374.433 385.84 373.491 384.275 375.054C382.709 376.615 380.525 377.244 379.582 376.31C378.645 375.367 375.514 374.433 373.319 374.433C371.14 374.433 364.26 372.548 362.694 372.548C361.765 372.548 360.259 372.676 358.619 372.902C358.974 373.58 358.698 374.39 357.609 375.211C355.734 376.615 351.974 378.725 350.565 379.668C349.161 380.603 344.234 392.343 340.95 395.627C337.666 398.913 334.614 399.384 334.378 400.552C334.144 401.727 338.133 404.781 338.133 406.656C338.133 408.542 339.065 410.414 341.652 410.414C344.234 410.414 341.417 416.517 343.055 416.988C344.706 417.455 354.787 418.157 354.787 420.509C354.787 422.337 355.9 423.873 355.414 425.139C358.251 425.611 360.333 429.47 361.442 429.195C362.694 428.881 371.14 430.758 372.701 430.446C374.262 430.133 381.462 430.446 383.966 430.758C386.464 431.073 389.276 429.819 391.465 427.629C393.659 425.434 401.487 425.124 403.986 425.434C406.479 425.753 411.49 426.377 412.432 427.949C412.924 428.764 415.868 429.991 418.847 430.992C419.201 429.442 418.744 427.418 418.837 425.434C418.994 422.149 420.87 417.145 424.154 416.831C427.436 416.517 430.098 416.517 429.631 411.046C429.621 410.855 429.621 410.713 429.607 410.541C427.942 409.117 426.386 407.913 425.876 407.913C424.63 407.913 420.87 410.545 419.936 410.414Z" fill="#FAFAFA" stroke="#E2E2E2"/>
<path fill-rule="evenodd" clip-rule="evenodd" d="M291.84 461.742C287.776 459.247 290.431 455.172 284.02 455.477C277.606 455.801 269.945 447.816 267.599 438.579C265.252 429.358 255.25 428.881 252.742 423.401C250.239 417.921 255.088 417.303 252.904 412.765C251.682 410.241 254.38 408.008 257.566 406.745C257.305 401.727 257.733 396.256 258.12 392.706C255.636 392.451 253.502 392.092 252.742 391.64C251.562 390.933 251.333 387.172 250.625 387.172C249.924 387.172 243.357 387.172 242.179 388.35C241.008 389.524 237.489 391.64 235.611 390.461C235.207 390.217 234.76 389.962 234.304 389.736L232.257 391.64C232.257 391.64 231.938 394.146 230.684 394.146C229.442 394.146 227.559 393.212 227.559 395.392C227.559 397.587 224.117 396.958 222.555 396.65C220.993 396.336 218.804 396.958 218.804 398.839C218.804 400.715 218.488 404.791 215.989 402.601C213.486 400.402 210.973 394.769 210.038 395.392C209.103 396.021 206.914 402.904 204.725 402.904C203.368 402.904 198.909 403.258 195.701 403.543C194.859 406.24 195.758 407.845 196.899 408.542C198.076 409.24 196.194 412.057 194.788 412.765C193.384 413.467 191.037 412.765 192.68 415.342C194.325 417.921 197.372 418.157 195.728 420.74C194.089 423.323 195.728 425.67 198.076 425.905C200.42 426.141 203.708 425.67 202.999 427.556C202.588 428.655 201.949 429.908 201.813 431.136C203.657 430.601 205.289 430.51 206.914 429.658C210.202 427.949 208.793 424.967 214.261 423.401C219.739 421.839 226.934 426.377 229.123 429.658C231.313 432.948 231.938 433.262 232.407 435.928C232.88 438.579 234.91 443.907 242.414 448.754C249.924 453.612 252.904 459.081 256.806 461.114C260.716 463.156 264.628 462.686 266.976 465.498C269.322 468.311 272.447 469.879 276.202 471.603C279.952 473.331 280.109 477.387 283.706 477.864C287.299 478.329 284.958 481.462 287.147 484.118C289.332 486.774 289.964 492.413 287.619 495.546C285.272 498.679 286.519 503.991 288.09 503.991C289.65 503.991 292.934 498.359 293.406 495.232C293.866 492.099 297.003 492.265 299.501 488.97C302.004 485.685 295.752 484.899 294.661 480.677C293.562 476.449 299.354 472.692 304.821 476.135C310.289 479.577 312.488 481.928 312.792 476.611C313.111 471.293 295.904 464.246 291.84 461.742ZM215.198 466.75C211.766 469.726 208.929 466.23 207.541 468.626C205.814 471.603 212.856 476.135 211.447 482.238C210.038 488.337 212.227 496.008 215.824 492.413C219.423 488.818 221.148 490.538 223.178 487.872C225.206 485.218 223.491 475.359 224.899 470.665C226.305 465.969 218.64 463.775 215.198 466.75ZM275.73 502.273C269.312 503.677 266.661 504.149 262.911 502.273C259.152 500.397 253.074 503.981 253.993 506.49C254.616 508.219 257.124 510.405 264.938 512.449C272.762 514.476 273.699 519.793 276.982 519.955C280.266 520.108 280.579 516.975 279.799 512.752C279.014 508.53 283.706 503.677 284.174 502.891C284.639 502.116 282.135 500.864 275.73 502.273Z" fill="#7E5AF6" stroke="#E2E2E2"/>
<path fill-rule="evenodd" clip-rule="evenodd" d="M514.469 418.164L516.604 419.796L517.777 414.494L517.657 412.821L520.961 409.014L524.514 408.764L524.64 410.541L527.959 410.306L531.51 410.056L534.831 408.034L534.707 406.257L532.909 404.602L532.792 402.958L534.466 402.84L534.329 400.929L532.657 401.049L529.003 401.307L525.582 403.468L524.264 405.213L522.614 407.113L515.744 407.598L515.618 405.824L513.489 404.322L510.052 406.219L508.395 404.681L508.261 402.774L506.484 402.898L504.812 403.018L504.594 399.934L502.685 398.181L500.554 396.65L499.266 400.31L497.73 401.971L497.624 400.427L495.817 398.668L493.805 398.809L493.688 397.137L492.144 397.245L492.505 402.339L490.839 404.004L487.552 406.157L487.67 407.799L483.986 408.059L482.333 409.96L482.459 411.737L479.269 413.748L479.395 415.525L482.585 413.513L484.364 413.387L486.136 413.263L488.172 414.904L491.71 416.334L493.365 414.536L493.485 416.21L495.268 419.52L493.852 421.404L495.638 424.746L494.23 426.734L494.345 428.406L499.573 428.039L501.344 429.696L506.546 427.545L507.849 422.2L509.499 420.3L510.913 418.416L514.353 416.516L514.469 418.164Z" fill="#FAFAFA" stroke="#E2E2E2"/>
</svg>
