<svg width="695" height="410" viewBox="0 0 695 410" fill="none" xmlns="http://www.w3.org/2000/svg">
<path fill-rule="evenodd" clip-rule="evenodd" d="M49.8973 108.865C46.9455 109.672 46.4136 111.011 44.5272 108.865C42.6394 106.704 39.1557 105.236 39.1557 105.236C39.1557 105.236 34.7691 101.35 31.9152 102.559C33.5269 104.173 29.0914 105.978 28.8988 109.607C28.8341 110.769 27.9958 111.898 26.9146 112.914C26.9146 112.914 27.8679 115.042 26.9146 116.655C25.9801 118.268 24.1743 119.268 22.3512 120.687C20.5281 122.107 17.3032 124.331 20.3354 125.026C23.3677 125.719 28.8024 122.72 30.0116 125.026C30.0116 125.026 35.6562 124.268 38.3492 125.026C41.0277 125.799 44.5272 127.267 47.0749 125.929C49.6385 124.59 51.6556 118.396 54.3327 116.526C57.0257 114.639 60.413 113.397 60.413 113.397C60.091 113.22 59.8164 113.059 59.5748 112.914C56.7525 111.285 52.8648 108.059 49.8973 108.865Z" fill="#FAFAFA" stroke="#E2E2E2"/>
<path fill-rule="evenodd" clip-rule="evenodd" d="M41.3013 224.438C38.7536 225.518 33.963 229.954 31.9156 228.874C29.8826 227.81 33.3663 226.858 28.2709 225.116C23.1582 223.375 15.1427 217.714 11.2881 218.26C7.54559 218.778 4.36814 221.681 4.17548 221.858C4.15966 221.874 4.15966 221.874 4.15966 221.874C3.9325 222.939 3.64351 223.987 3.28838 224.922C1.48112 229.76 0.675969 240.648 1.27264 244.083C1.88513 247.502 13.3685 247.906 17.2059 245.696C21.0289 243.47 29.0919 249.113 32.3182 247.906C35.5446 246.695 52.8811 248.922 52.8811 248.922C52.8811 248.922 58.3331 246.695 61.1554 245.888C61.8815 245.68 62.8333 245.598 63.913 245.598V229.422C59.0433 228.617 43.8505 223.375 41.3013 224.438Z" fill="#FAFAFA" stroke="#E2E2E2"/>
<path fill-rule="evenodd" clip-rule="evenodd" d="M68.8502 192.859C69.1234 195.956 68.4951 197.022 69.4138 197.699C70.334 198.376 72.1887 197.699 72.1887 197.699H72.2045C71.4626 194.828 74.5107 192.731 74.8658 190.651C75.2684 188.231 70.0277 191.456 69.4138 190.457C69.4138 190.457 68.5914 189.764 68.8502 192.859Z" fill="#FAFAFA" stroke="#E2E2E2"/>
<path fill-rule="evenodd" clip-rule="evenodd" d="M138.879 142.864C134.653 139.428 131.59 138.396 130.202 137.008C128.267 135.057 125.847 134.59 125.364 134.59C122.75 134.59 118.106 136.621 116.106 137.008C114.073 137.428 112.929 135.057 112.929 135.057C110.799 136.122 112.768 140.056 112.768 140.056L104.091 138.639C104.091 138.639 98.4462 137.638 95.6239 134.203C92.8016 130.784 94.8173 129.768 91.995 128.767C89.1727 127.752 90.3818 121.301 90.3818 121.301C90.3818 121.301 90.2208 117.736 92.2365 116.382C94.2523 115.042 91.7046 113.703 89.5594 112.914C87.3985 112.123 84.7199 115.493 84.7199 115.493C84.7199 115.493 80.5432 114.51 78.6727 112.914C76.7864 111.317 77.4635 106.979 76.1092 107.382C74.7706 107.786 71.4149 112.349 72.7534 114.769C74.092 117.187 70.8671 119.881 70.8671 119.881L72.2704 129.509C72.5766 131.654 71.8347 133.816 70.2862 135.316L67.8665 137.654C65.7702 139.669 64.932 142.654 65.6581 145.475C65.9471 146.638 66.2548 147.669 66.4316 148.105C66.9808 149.314 69.5285 149.589 70.7377 151.443C71.9483 153.298 68.0606 163.427 68.0606 163.427C69.98 164.717 70.0763 166.862 70.0763 166.862C72.141 166.152 74.2545 165.863 74.2545 165.863C74.2545 165.863 77.7698 170.281 78.6885 177.554C79.5929 184.732 81.2851 186.086 86.7529 189.844C91.2373 192.941 95.0905 194.861 99.3161 195.085C99.8322 195.102 100.348 195.102 100.865 195.085C105.704 194.892 104.091 200.537 104.703 203.762C105.3 206.988 122.638 215.859 122.638 215.859C122.638 215.859 127.396 211.811 129.605 209.392C131.814 206.972 133.637 208.182 137.556 206.972C141.491 205.763 137.073 203.552 137.556 200.117C138.057 196.682 136.267 197.909 134.041 194.264C132.638 191.99 132.379 190.425 132.363 188.828C132.363 187.892 132.444 186.926 132.444 185.813C132.444 182.781 136.863 182.587 136.459 178.345C136.057 174.104 136.653 171.297 137.556 166.862C138.459 162.442 139.491 163.233 141.701 161.41C142.701 160.587 143.605 159.329 144.298 157.928C144.298 157.91 144.298 157.91 144.314 157.91C145.185 156.201 145.733 154.314 145.733 152.798C145.733 150.024 143.105 146.299 138.879 142.864Z" fill="#FAFAFA" stroke="#E2E2E2"/>
<path fill-rule="evenodd" clip-rule="evenodd" d="M139.49 99.9139C137.459 101.737 133.636 112.914 133.636 112.914C133.636 112.914 133.233 118.074 131.62 118.671C131.62 118.671 133.636 120.074 135.249 119.929C136.862 119.784 137.265 118.881 140.491 116.655C141.426 116.01 142.087 115.721 142.619 115.721L146.297 113.236C145.716 112.269 145.2 111.156 144.619 110.253C143.2 108.075 147.231 100.946 147.231 100.946C147.586 100.14 148.167 99.6565 148.86 99.3819C148.86 99.3819 141.49 98.1081 139.49 99.9139Z" fill="#FAFAFA" stroke="#E2E2E2"/>
<path fill-rule="evenodd" clip-rule="evenodd" d="M195.762 129.928C194.632 130.929 193.246 132.138 191.1 132.88C187.262 134.203 185.036 133.976 182.02 132.88C179.005 131.783 176.585 126.478 176.585 126.478C176.585 126.478 177.988 119.267 173.957 118.074C169.924 116.849 166.489 116.751 164.279 115.493C162.069 114.235 157.926 111.22 157.926 111.22C155.296 112.639 152.281 115.059 149.651 115.462C148.119 115.703 147.135 114.608 146.297 113.236L142.619 115.721C143.942 115.721 144.474 117.462 146.329 119.929C148.958 123.413 148.152 124.107 152.748 126.478C157.345 128.831 156.619 133.589 158.844 138.831C161.054 144.073 166.699 145.685 169.119 147.105C171.472 148.46 170.392 153.991 170.52 154.379C172.118 154.96 174.085 155.781 175.376 156.442C175.715 156.055 181.004 149.863 181.004 148.507C181.004 147.105 178.198 144.686 181.004 143.072C183.843 141.459 186.101 141.686 188.294 140.056C190.487 138.429 193.907 137.008 193.907 137.008C195.519 133.783 198.358 132.88 195.762 129.944V129.928Z" fill="#FAFAFA" stroke="#E2E2E2"/>
<path fill-rule="evenodd" clip-rule="evenodd" d="M222.468 318.126C220.194 315.708 218.178 314.224 217.903 315.029C217.629 315.837 218.694 317.272 217.903 318.126C217.903 318.126 217.742 318.288 217.501 318.544C216.79 319.303 215.387 320.883 215.081 321.884C214.678 323.223 215.485 327.254 215.081 329.142C214.678 331.028 216.419 331.028 216.484 333.577C216.565 336.125 215.21 338.012 217.903 338.286C220.596 338.545 226.645 337.334 227.049 334.253C227.451 331.158 226.37 330.883 225.838 326.449C225.29 322.014 224.758 320.546 222.468 318.126Z" fill="#FAFAFA" stroke="#E2E2E2"/>
<path fill-rule="evenodd" clip-rule="evenodd" d="M382.54 281.871C381.7 282.162 380.75 282.354 379.765 282.468C375.604 282.935 370.847 282.097 370.847 282.097C366.411 280.757 363.734 285.595 361.444 288.693C359.153 291.773 361.444 297.4 361.444 297.4C364.186 298.144 366.523 302.66 368.395 305.353C370.105 305.627 373.008 305.223 376.638 305.353C380.265 305.482 381.072 302.128 384.554 298.224C388.055 294.338 390.2 294.595 392.893 289.903C395.266 285.758 393.361 282.87 393.056 278.677C393.056 278.677 386.974 280.354 382.54 281.871Z" fill="#FAFAFA" stroke="#E2E2E2"/>
<path fill-rule="evenodd" clip-rule="evenodd" d="M398.73 244.872C398.489 245.454 396.73 247.696 397.731 250.921C398.73 254.146 399.955 258.808 402.375 257.276C404.795 255.76 407.875 253.937 407.537 249.099C407.213 244.26 410.1 239.841 407.537 240.228C404.988 240.648 399.859 242.228 398.73 244.872Z" fill="#FAFAFA" stroke="#E2E2E2"/>
<path fill-rule="evenodd" clip-rule="evenodd" d="M368.703 234.389C368.703 234.389 371.396 231.164 375.154 230.632C378.912 230.083 380.799 229.422 381.477 232.374C382.137 235.325 384.556 237.212 384.556 237.212L390.153 238.519C392.847 236.503 395.509 235.276 397.428 235.6C401.055 236.197 402.266 240.051 404.072 236.826C405.894 233.599 410.523 231.374 414.151 228.552C417.781 225.73 439.15 210.407 439.15 210.407C439.15 210.407 446.006 191.456 445.812 184.41C445.6 177.345 451.859 171.506 450.65 167.265C449.439 163.039 449.036 163.039 447.617 165.056C446.214 167.072 443.796 165.653 443.295 160.217C442.779 154.766 444.392 157.798 443.295 155.781C442.183 153.767 442.989 153.363 445.812 152.96C448.634 152.556 441.57 149.121 437.747 146.702C433.91 144.282 435.117 142.67 430.893 142.074C426.652 141.46 426.458 136.025 426.652 132.396C426.86 128.767 432.297 122.51 432.908 119.285C433.504 116.059 430.682 119.688 428.666 121.301C426.652 122.914 425.441 122.72 424.232 125.784C423.022 128.849 417.587 130.38 417.587 130.38C417.587 130.38 411.732 126.139 410.523 122.72C409.313 119.285 414.362 118.284 414.362 118.284L418.184 113.042C418.184 113.042 418.99 105.576 420.603 102.964C422.216 100.334 423.828 103.366 425.65 105.784C427.457 108.204 425.65 110.817 424.845 112.832C424.038 114.85 425.247 115.865 428.07 113.446C430.893 111.027 429.683 107.994 431.086 104.575C432.505 101.14 436.732 102.157 439.15 104.365C439.425 104.624 440.071 105.35 440.86 106.173L440.473 103.769C440.473 103.769 438.053 101.335 436.248 100.334C434.424 99.3174 435.232 98.1082 436.844 94.5282C438.457 90.964 439.263 87.8182 440.876 86.0123C442.489 84.2065 443.504 82.5933 443.295 79.9637C443.086 77.3354 445.119 77.9479 445.505 75.1256C445.698 73.8676 446.827 72.7231 448.02 71.8676L448.004 71.8518C448.004 71.8518 449.745 64.8528 448.134 63.2396C446.52 61.6265 443.36 60.0622 443.117 57.2082C442.893 54.3686 442.489 53.1437 444.102 52.143C445.715 51.1437 447.327 49.9993 446.73 47.8542C446.118 45.6932 448.343 44.6925 445.311 39.2405C442.279 33.79 441.472 30.1769 439.859 31.3702C438.247 32.5966 437.861 38.4354 436.248 40.661C434.636 42.8694 434.022 45.4502 431.796 43.4503C429.586 41.4676 426.361 39.8544 421.522 41.4676C416.684 43.0793 413.669 43.4503 413.669 43.4503C413.669 43.4503 401.363 31.1129 398.137 31.1445C394.912 31.1776 395.314 34.8065 392.282 34.4025C389.267 33.9999 388.459 31.79 384.832 35.0149C381.201 38.2413 377.38 39.0479 379.59 41.4676C381.798 43.8859 384.218 46.3057 383.413 48.724C382.606 51.1437 383.413 49.5306 384.218 53.9503C385.026 58.4016 388.459 58.4016 383.621 61.014C383.621 61.014 379.8 63.0297 377.38 64.0462C377.009 64.2072 376.606 64.2719 376.138 64.2878L376.155 64.6429C376.155 64.6429 375.961 73.9164 379.186 76.5289C382.412 79.1571 386.251 73.304 390.282 71.8518C394.315 70.4011 393.895 72.9172 394.912 75.5296C395.928 78.142 391.282 79.367 387.057 83.19C382.816 87.0116 384.832 89.8512 382.218 93.4154C379.59 96.9796 375.767 94.6892 372.736 96.3024C369.702 97.9314 374.348 102.754 375.348 105.898C376.363 109.06 369.914 114.64 365.881 115.494C361.849 116.349 354.187 122.914 350.962 125.929C347.737 128.945 335.899 124.526 335.899 124.526L321.32 125.929C321.32 125.929 315.287 127.945 312.449 128.349C309.643 128.751 308.223 124.107 305.998 120.687C303.788 117.268 291.902 117.058 288.466 117.058C285.031 117.058 283.757 115.494 283.757 115.494C281.209 111.639 283.628 107.914 280.676 104.978C278.37 102.705 271.71 98.738 268.839 97.0759C266.743 97.5762 263.887 97.9314 262.452 98.9148C260.452 100.334 258.629 100.35 258.421 103.769C258.227 107.172 258.421 109.817 256.001 108.607C253.581 107.382 251.968 105.398 248.357 108.607C244.71 111.817 247.34 118.671 244.71 119.478C242.098 120.284 238.679 117.864 236.856 120.687C235.711 122.462 236.243 129.509 236.051 134.59C235.921 137.589 235.55 139.897 234.438 140.056C231.421 140.445 228.389 139.638 225.164 141.848C221.938 144.073 217.504 143.669 213.262 143.879C209.633 144.04 205.424 147.33 204.295 148.266C205.859 149.379 207.31 150.621 209.037 151.443C212.262 152.96 210.246 155.557 211.455 159.394C212.083 161.363 212.44 162.426 212.923 163.427C213.406 164.378 214.003 165.282 215.084 166.862C217.229 170.006 223.213 172.619 223.584 172.764C225.858 171.733 228.245 172.022 230.534 171.49C233.502 170.813 234.712 172.022 234.567 173.507C234.438 174.991 233.906 178.909 231.213 179.57C228.518 180.232 227.584 183.861 227.584 183.861C227.584 183.861 229.6 189.103 227.986 189.232C226.373 189.36 223.955 191.248 223.955 191.248C223.955 191.248 226.777 196.618 229.196 198.102C230.905 199.134 232.083 200.182 232.422 201.925C232.422 201.925 237.535 201.731 241.566 202.812C245.599 203.876 246.259 206.295 250.162 209.118C254.066 211.94 258.227 210.729 259.839 213.698C261.452 216.649 261.324 219.875 264.403 218.666C267.5 217.455 268.129 216.843 270.597 217.987C273.049 219.133 273.049 219.133 273.049 219.133C273.371 218.439 273.677 217.746 274.081 217.053C275.435 214.762 278.516 213.552 279.724 216.778C280.935 220.003 284.966 222.696 284.966 222.696C284.966 222.696 294.514 222.696 295.853 221.084C297.209 219.471 293.708 216.376 296.805 214.633C299.884 212.89 304.595 212.213 307.288 209.263C309.965 206.295 310.514 205.489 314.143 205.634C317.772 205.763 317.772 205.359 320.319 207.65C322.867 209.924 323.754 209.118 326.415 210.327C329.061 211.538 332.947 217.987 333.092 221.488C333.222 224.986 328.384 229.681 329.866 231.438C331.334 233.18 336.98 231.035 337.253 235.47C337.528 239.906 337.253 240.713 340.076 242.858C342.898 245.001 347.608 245.953 347.608 245.953L351.366 244.067C351.366 244.067 352.704 238.552 355.269 237.488C355.445 237.406 355.639 237.341 355.881 237.261C359.219 236.148 368.703 234.389 368.703 234.389Z" fill="#FAFAFA" stroke="#E2E2E2"/>
<path fill-rule="evenodd" clip-rule="evenodd" d="M468.694 278.129L463.661 289.031C463.661 289.031 457.469 294.966 458.437 296.03C459.42 297.096 467.484 291.838 467.694 289.628C467.887 287.418 467.694 287.806 468.694 284.998C469.693 282.162 470.919 282.774 470.919 279.742C470.919 276.727 470.098 275.112 468.694 278.129Z" fill="#FAFAFA" stroke="#E2E2E2"/>
<path fill-rule="evenodd" clip-rule="evenodd" d="M479.806 261.274C478.499 260.194 479.178 259.452 478.032 259.114C477.596 258.985 477 258.952 476.403 258.969C475.468 258.985 474.531 259.081 474.21 259.05C473.661 258.985 473.661 260.066 473.661 260.066C473.661 260.066 473.661 261.001 474.34 261.195C475.016 261.403 476.226 262.276 476.483 262.952C476.758 263.613 476.419 264.84 477.227 265.226C478 265.63 480.613 266.323 480.613 264.985C480.613 264.936 480.595 264.887 480.595 264.84C480.387 263.291 481.097 262.339 479.806 261.274Z" fill="#FAFAFA" stroke="#E2E2E2"/>
<path fill-rule="evenodd" clip-rule="evenodd" d="M492.889 253.549C491.342 253.066 492.759 252.002 493.356 251.195C493.97 250.389 491.55 250.051 490.002 250.647C488.453 251.26 485.825 249.904 484.294 250.243C482.744 250.583 483.615 253.13 482.341 252.808C481.067 252.469 477.906 249.583 477.906 249.583C477.906 249.583 476.551 247.97 476.357 246.889C475.825 243.937 474.343 243.39 476.487 241.518C478.649 239.631 480.696 238.954 479.809 236.002C478.906 233.052 476.891 233.713 476.891 231.164C476.891 228.617 478.649 226.599 475.552 226.858C472.455 227.131 470.713 228.471 469.099 228.874C467.488 229.278 466.31 233.052 467.215 236.148C467.215 236.148 470.31 242.05 468.697 242.582C467.085 243.131 465.197 239.631 466.553 244.599C467.89 249.583 468.165 254.146 469.908 253.066C471.649 252.002 474.875 254.954 475.148 256.565C475.229 257.05 475.713 257.291 476.357 257.291C477.648 257.291 479.535 256.34 479.778 254.695C480.406 254.422 481.325 254.145 482.341 254.422C484.149 254.889 483.89 255.227 485.228 256.357C486.568 257.5 486.309 255.888 485.631 254.357C484.955 252.808 486.035 253.066 487.776 252.808C489.534 252.534 489.599 254.614 491.342 255.888C493.083 257.162 494.841 256.501 496.308 256.163C496.566 256.098 496.68 256 496.68 255.872C496.68 255.243 494.164 253.937 492.889 253.549Z" fill="#FAFAFA" stroke="#E2E2E2"/>
<path fill-rule="evenodd" clip-rule="evenodd" d="M499.611 272.484C499.611 272.484 498.192 271.419 498.128 270.339C498.063 269.258 497.788 268.323 497.386 268.129C496.983 267.921 497.192 270.806 496.677 271.419C496.177 272.015 494.563 271.016 494.563 271.016C494.563 271.016 493.758 269.193 493.162 267.921C492.548 266.645 490.87 266.517 490.87 266.517C490.87 266.517 488.919 266.243 488.854 265.774C488.789 265.291 487.176 264.355 487.176 264.355C486.16 264.033 485.435 264.437 485.015 265.163C484.823 265.484 484.693 265.888 484.629 266.306C484.419 267.646 485.225 266.71 485.968 267.323C486.709 267.921 485.904 269.872 485.692 271.483C485.498 273.097 486.032 272.629 487.176 272.484C488.322 272.355 488.322 272.565 488.789 271.758C489.258 270.952 490.595 271.887 491.403 272.484C492.208 273.097 490.87 275.709 490.87 275.709C490.87 275.709 490.742 277.935 491.806 278.677C492.886 279.42 493.015 280.484 493.386 281.224C493.435 281.339 493.531 281.387 493.629 281.387C494.192 281.387 495.305 279.887 495.305 279.887L494.563 277.742C494.563 277.742 494.773 276.727 495.918 276.451C497.048 276.194 497.256 276.129 497.596 275.112C497.918 274.096 501.692 275.322 501.692 275.322C501.692 275.322 502.498 273.775 502.289 272.484C502.094 271.21 499.611 272.484 499.611 272.484Z" fill="#FAFAFA" stroke="#E2E2E2"/>
<path fill-rule="evenodd" clip-rule="evenodd" d="M505.047 255.888C504.242 255.081 501.485 255.227 501.485 255.227C501.485 255.227 499.275 254.422 498.661 255.211C498.468 255.485 498.419 255.678 498.484 255.872C498.613 256.275 499.177 256.712 499.807 257.776C500.759 259.388 500.274 258.92 501.485 259.05C502.692 259.195 503.032 259.856 503.242 260.807C503.436 261.743 501.42 261.807 500.823 262.017C500.209 262.227 499.807 263.291 500.419 264.566C501.016 265.839 501.693 265.645 503.306 266.92C504.918 268.194 503.564 268.661 505.322 268.791C505.467 268.808 505.612 268.808 505.709 268.808C506.87 268.808 505.838 268.113 505.047 266.645C504.178 265.034 503.838 264.63 504.242 263.613C504.645 262.614 506.403 262.952 507.338 262.679C508.274 262.42 507.338 260.533 506.466 258.92C505.597 257.309 505.855 256.695 505.047 255.888Z" fill="#FAFAFA" stroke="#E2E2E2"/>
<path fill-rule="evenodd" clip-rule="evenodd" d="M518.419 280.017C518.419 280.017 516.806 278.612 516.274 277.597C515.742 276.598 515.742 275.646 515.742 275.646C515.742 275.646 514.467 273.499 513.725 272.097C512.984 270.677 511.242 270.742 511.242 270.742C511.242 270.742 507.966 270.386 507.049 271.161C506.967 271.226 506.92 271.291 506.871 271.355C506.258 272.355 509.081 272.823 509.081 272.823C509.081 272.823 509.21 274.435 508.613 275.452C508.017 276.451 505.662 276.129 505.662 276.129C505.662 276.129 505.856 278.467 505.386 279.483C504.918 280.484 502.839 279.952 501.888 280.628C500.952 281.289 501.564 281.968 501.144 282.774C500.759 283.579 500.274 282.5 499.742 281.773C499.21 281.032 497.05 281.903 497.05 281.903C497.05 281.903 495.952 282.451 495.001 283.096C494.436 283.483 493.919 283.903 493.76 284.258C493.29 285.192 493.419 286.064 493.452 286.806C493.501 287.548 490.597 287.273 490.065 287.418C489.533 287.548 489.662 293.257 489.662 293.257C489.662 293.257 490.275 295.273 490.662 294.998C491.081 294.741 491.678 290.837 491.807 289.966C491.953 289.096 492.42 289.42 493.452 289.355C494.5 289.29 494.306 290.225 495.032 290.564C495.774 290.902 498.404 289.096 498.451 288.611C498.516 288.144 498.533 286.064 499.403 286.064C500.274 286.064 503.177 286.612 503.774 287.612C504.371 288.611 503.984 292.58 503.984 292.58C503.984 292.58 505.259 293.869 507.064 294.401C508.887 294.935 508.741 294.998 509.758 295.611C510.757 296.207 513.175 295.208 513.175 295.208C513.175 295.208 514.725 295.74 515.403 296.016C516.08 296.289 515.128 292.177 515.063 290.967C514.999 289.757 512.773 289.757 512.773 289.757C512.773 289.757 511.564 288.823 512.306 288.015C513.049 287.21 513.114 287.806 513.114 286.128C513.114 284.452 513.581 285.467 515.063 285.595C516.547 285.724 516.547 286.274 517.952 286.935C519.369 287.612 518.692 288.611 519.499 288.693C520.305 288.758 519.628 285.806 519.563 283.241C519.499 280.692 518.419 280.017 518.419 280.017Z" fill="#FAFAFA" stroke="#E2E2E2"/>
<path fill-rule="evenodd" clip-rule="evenodd" d="M690.649 350.737C688.037 352.769 684.809 350.511 681.182 348.286C677.553 346.076 675.327 347.689 672.102 347.898C668.876 348.092 665.264 340.834 663.844 338.012C662.425 335.191 659.408 333.77 659.408 333.77C659.408 333.77 653.168 329.351 649.522 330.351C645.91 331.352 641.877 342.447 641.877 342.447C641.877 342.447 636.023 345.059 632.201 345.221C631.782 345.238 631.395 345.205 631.022 345.124C626.749 333.786 626.508 298.434 626.508 298.434C633.911 299.773 653.022 309.949 656.183 311.804C659.618 313.82 657.392 314.626 660.425 317.562C663.441 320.497 667.472 317.643 670.295 319.498C673.119 321.336 667.473 323.9 667.473 327.125C667.473 330.351 673.715 330.545 675.939 332.787C678.165 335.028 675.327 336.608 678.972 339.028C682.585 341.446 683.197 340.641 684.618 344.286C686.02 347.948 688.229 346.673 692.067 346.786C695.906 346.898 693.277 348.704 690.649 350.737Z" fill="#FAFAFA" stroke="#E2E2E2"/>
<path fill-rule="evenodd" clip-rule="evenodd" d="M20.336 125.026C17.3038 124.332 20.5287 122.107 22.3517 120.687C24.1748 119.268 25.9807 118.268 26.9152 116.655C27.8684 115.042 26.9152 112.914 26.9152 112.914C24.5774 115.075 21.029 116.671 21.029 116.671C21.029 116.671 15.3844 123.122 11.7554 124.526C11.3356 124.687 10.933 124.849 10.529 125.026C10.529 125.026 12.2227 126.735 10.529 128.349C8.85261 129.96 8.64269 131.978 6.62695 133.397C6.62695 133.397 7.43354 136.203 9.65919 136.412C11.8676 136.621 13.6907 135.202 16.4972 133.589C19.3353 131.978 19.1254 132.783 23.5609 133.993C27.9964 135.202 27.5938 130.977 29.3997 130.042C29.8827 129.799 30.2379 129.493 30.4794 129.122C31.1408 128.123 30.8992 126.72 30.0121 125.026C28.803 122.72 23.3682 125.719 20.336 125.026Z" fill="#FAFAFA" stroke="#E2E2E2"/>
<path fill-rule="evenodd" clip-rule="evenodd" d="M66.1085 162.62C62.2697 161.814 63.0763 162.426 61.269 163.62C59.4474 164.846 57.7695 166.2 57.7695 166.2C58.3346 166.459 58.7702 166.684 59.0448 166.846C61.0606 168.071 60.4639 170.071 61.6572 172.297C62.8837 174.522 65.1884 173.555 65.1884 173.555C65.4299 172.216 65.867 170.829 66.1891 169.684C66.56 168.379 68.3026 167.459 70.0753 166.862C70.0753 166.862 69.979 164.717 68.0596 163.427C67.5434 163.072 66.9151 162.797 66.1085 162.62Z" fill="#FAFAFA" stroke="#E2E2E2"/>
<path fill-rule="evenodd" clip-rule="evenodd" d="M85.3815 98.5106C83.1084 98.64 80.9474 99.9958 79.0769 98.3826C78.2373 97.6566 77.1733 96.8183 76.2704 96.1081L76.1094 96.3022V107.382C77.4637 106.979 76.7866 111.317 78.6729 112.914C80.5434 114.51 84.7201 115.493 84.7201 115.493C84.7201 115.493 84.1723 110.881 85.3815 108.592C86.5921 106.3 85.2535 104.43 86.0601 102.334C86.802 100.398 88.3979 101.285 88.6567 101.447C87.8013 100.108 86.8825 98.4301 85.3815 98.5106Z" fill="#FAFAFA" stroke="#E2E2E2"/>
<path fill-rule="evenodd" clip-rule="evenodd" d="M88.3657 205.375C83.7361 208.602 75.2691 202.747 72.8508 199.118C72.5273 198.618 72.3016 198.15 72.2053 197.699H72.1895C72.1895 197.699 71.8185 206.698 74.0916 208.988C76.382 211.279 80.9469 213.826 83.6398 216.117C86.3341 218.39 88.4304 216.761 88.4304 216.761C88.4937 216.133 88.5584 215.553 88.6073 215.035C88.8804 212.343 91.1722 212.89 93.3159 210.471C95.4625 208.052 98.7348 205.214 98.7348 205.214C98.4947 202.859 99.494 201.23 99.655 199.731C99.6881 199.424 99.5256 199.295 99.2194 199.295C97.6393 199.295 92.2362 202.682 88.3657 205.375Z" fill="#FAFAFA" stroke="#E2E2E2"/>
<path fill-rule="evenodd" clip-rule="evenodd" d="M215.082 166.862C214.001 165.282 213.404 164.378 212.921 163.427C212.921 163.427 210.84 162.426 208.422 161.2C206.002 160.007 203.793 158.395 202.179 159.202C200.568 160.007 199.857 161.282 196.986 162.25C195.487 162.766 194.019 162.895 192.906 162.491C192.906 162.491 190.68 162.071 190.89 164.556C191.1 167.056 192.503 170.685 190.68 171.49C188.874 172.297 187.455 176.136 187.455 176.136C187.455 176.136 183.632 174.314 181.617 178.345C179.601 182.377 180.617 182.587 176.376 185.393C172.133 188.231 168.312 187.619 168.312 187.619L162.263 192.457C162.263 192.457 160.247 196.086 154.198 196.086C148.151 196.086 146.748 195.876 142.507 194.07C138.265 192.263 132.442 188.828 132.442 188.828H132.362C132.378 190.425 132.636 191.99 134.04 194.264C136.265 197.909 138.055 196.683 137.555 200.117C137.072 203.552 141.49 205.763 137.555 206.973C133.636 208.182 131.813 206.973 129.604 209.392C127.394 211.811 122.637 215.859 122.637 215.859C122.637 215.859 149.457 219.277 153.28 220.084C156.699 220.81 157.715 229.084 160.473 232.987C160.473 232.987 162.133 229.003 166.294 229.81C170.455 230.632 177.487 231.164 178.617 228.745C179.73 226.326 175.697 224.439 175.972 221.761C176.247 219.069 176.101 216.003 174.229 215.859C172.343 215.714 169.634 216.246 170.649 214.504C171.666 212.747 174.891 209.666 177.31 209.118C179.73 208.584 182.826 209.118 182.826 209.118C182.826 209.118 198.276 199.44 200.696 195.409C203.115 191.376 199.357 190.571 203.261 188.151C207.147 185.731 208.631 185.329 205.938 183.861C203.261 182.377 200.568 184.828 200.696 179.57C200.841 174.314 197.615 171.49 200.841 170.556C204.067 169.604 209.035 172.829 209.035 172.829C209.035 172.829 218.84 176.603 221.663 174.039C222.292 173.474 222.921 173.072 223.582 172.764C223.211 172.619 217.227 170.006 215.082 166.862Z" fill="#FAFAFA" stroke="#E2E2E2"/>
<path fill-rule="evenodd" clip-rule="evenodd" d="M228.582 132.88C223.744 133.397 220.728 130.557 215.889 129.96C211.051 129.364 210.647 130.364 206.616 130.17C202.584 129.96 199.972 127.993 198.149 128.38C197.342 128.541 196.632 129.171 195.762 129.929V129.944C198.359 132.88 195.519 133.783 193.908 137.008C192.294 140.235 199.358 137.815 201.374 140.056C203.391 142.283 196.326 141.25 193.311 141.848C190.294 142.46 186.456 143.461 189.278 145.073C192.102 146.686 195.939 145.283 199.762 146.089C201.536 146.46 202.955 147.314 204.294 148.266C205.423 147.33 209.632 144.04 213.261 143.879C217.503 143.669 221.937 144.073 225.163 141.848C228.388 139.638 231.42 140.444 234.437 140.056C235.549 139.897 235.92 137.589 236.05 134.59C236.05 134.59 233.42 132.364 228.582 132.88Z" fill="#FAFAFA" stroke="#E2E2E2"/>
<path fill-rule="evenodd" clip-rule="evenodd" d="M298.417 245.953C298.142 242.05 300.126 237.89 296.98 239.099C293.836 240.308 293.707 241.374 292.626 239.227C291.562 237.082 300.158 231.696 294.513 231.164C288.869 230.632 288.739 234.519 286.176 231.437C283.627 228.342 284.029 225.924 280.53 225.794C277.047 225.648 274.757 223.633 274.628 225.794C274.482 227.938 276.965 230.23 275.321 231.841C273.676 233.455 272.063 232.905 274.757 235.325C277.45 237.743 278.257 237.89 278.659 241.776C279.047 245.533 278.804 250.243 278.788 250.583C280.127 251.325 281.611 252.114 283.514 251.937C285.434 251.759 287.514 250.76 289.255 249.663C291.432 248.292 294.352 249.228 295.416 251.566L296.417 253.76C296.417 253.76 296.627 253.984 296.98 254.357C296.98 254.357 297.74 252.324 298.174 249.808C298.368 248.581 298.497 247.227 298.417 245.953Z" fill="#FAFAFA" stroke="#E2E2E2"/>
<path fill-rule="evenodd" clip-rule="evenodd" d="M359.524 330.77C359.524 330.77 349.235 326.931 348.025 322.901C346.815 318.868 346.009 318.868 343.799 317.256C341.573 315.643 341.783 312.224 343.591 305.563C343.591 305.545 343.591 305.545 343.606 305.531L340.235 304.611C340.154 304.852 340.058 305.095 339.946 305.353C338.461 308.579 335.817 311.384 335.817 311.384C335.542 313.675 335.269 315.787 335.059 317.303C334.849 318.82 335.332 320.32 336.382 321.417L346.219 331.77C346.219 331.77 350.558 331.56 353.653 332.092C356.735 332.641 354.864 335.866 357.816 335.593C360.767 335.319 362.96 333.028 362.96 333.028C361.072 331.721 359.524 330.77 359.524 330.77Z" fill="#FAFAFA" stroke="#E2E2E2"/>
<path fill-rule="evenodd" clip-rule="evenodd" d="M379.717 282.097L379.766 282.468C375.605 282.935 370.848 282.097 370.848 282.097C366.412 280.757 363.735 285.595 361.445 288.693C359.154 291.773 361.445 297.401 361.445 297.401C361.138 297.321 360.832 297.288 360.526 297.306C356.494 297.498 351.656 297.902 351.462 295.483C351.252 293.064 347.027 292.256 347.027 292.256C347.027 292.256 345.414 298.902 343.608 305.531L340.236 304.611C341.172 301.836 339.818 299.981 339.947 295.402C340.075 290.435 339.141 289.628 337.253 287.483C335.366 285.322 335.769 280.628 336.448 275.79C337.123 270.951 333.351 270.001 331.334 268.129C329.318 266.243 332.819 259.662 332.819 259.662C332.819 259.662 337.657 256.292 342.091 252.662C343.125 251.823 343.963 251.018 344.64 250.275C344.64 250.275 345.994 253.082 347.608 254.357C349.219 255.631 350.962 256.292 351.236 258.453C351.494 260.598 350.027 265.436 351.494 265.307C352.979 265.163 352.042 263.291 355.929 263.694C359.831 264.098 361.977 263.291 365.203 261.13C366.718 260.131 367.526 259.534 368.251 259.534C369.073 259.534 369.817 260.292 371.395 262.082C374.347 265.436 373.944 265.839 374.622 269.193C375.283 272.565 378.105 273.775 378.105 273.775L379.717 282.097Z" fill="#FAFAFA" stroke="#E2E2E2"/>
<path fill-rule="evenodd" clip-rule="evenodd" d="M23.2558 57.595C22.6433 54.3687 13.5782 54.9826 11.9665 57.1924C10.3533 59.4166 17.4012 61.8364 20.2236 62.4331C21.1107 62.6272 21.8367 63.2555 22.3371 64.0462L25.4656 63.7558C24.2709 61.8695 23.7073 60.0147 23.2558 57.595Z" fill="#FAFAFA" stroke="#E2E2E2"/>
<path fill-rule="evenodd" clip-rule="evenodd" d="M71.5418 92.1889L71.4282 92.0279C71.2197 92.1889 71.0098 92.3341 70.8315 92.4793C69.0099 93.8826 58.9297 90.0596 58.9297 90.0596C58.9297 90.0596 49.4621 80.5775 48.2529 76.9486C47.0438 73.3197 37.3662 70.7073 33.7373 70.3033C30.1098 69.9007 29.0919 68.2876 26.8835 65.6593C26.3357 65.0138 25.8512 64.3682 25.4644 63.7557L22.3358 64.0462C23.4487 65.7557 23.4961 68.207 21.8355 68.4816C19.4157 68.8842 11.9653 62.2389 9.73961 61.0297C7.52977 59.8206 3.69238 76.7545 3.69238 76.7545C3.69238 76.7545 7.32129 81.5926 7.12719 85.6255C6.91728 89.657 8.73892 87.2387 11.7553 88.0453C14.7876 88.8504 16.3993 94.6892 19.0132 98.7206C21.6414 102.754 30.3025 100.946 31.9156 102.559C34.7696 101.35 39.1562 105.237 39.1562 105.237C39.1562 105.237 42.6399 106.705 44.5277 108.865C46.414 111.011 46.946 109.672 49.8977 108.865C52.8653 108.059 56.753 111.285 59.5753 112.914C59.8168 113.059 60.0914 113.22 60.4135 113.397C63.7836 115.413 70.8646 119.882 70.8646 119.882C70.8646 119.882 74.0895 117.187 72.7509 114.769C71.4124 112.349 74.7681 107.786 76.1067 107.382V96.3023L76.2677 96.1082C75.1376 95.2211 74.2361 94.5281 74.2361 94.5281L71.5418 92.1889Z" fill="#FAFAFA" stroke="#E2E2E2"/>
<path fill-rule="evenodd" clip-rule="evenodd" d="M83.6396 216.117C80.9466 213.826 76.3817 211.279 74.0914 208.988C71.8183 206.698 72.1892 197.699 72.1892 197.699C72.1892 197.699 70.3345 198.376 69.4144 197.699C68.4956 197.022 69.1239 195.956 68.8507 192.859C68.5919 189.764 69.4144 190.457 69.4144 190.457C68.8177 189.442 68.0111 180.377 65.9954 178.555C64.802 177.474 64.802 175.555 65.1888 173.555C65.1888 173.555 62.884 174.522 61.6576 172.297C60.4643 170.071 61.061 168.071 59.0452 166.846C58.7706 166.684 58.335 166.459 57.7699 166.2C54.2704 164.507 46.1744 160.943 45.1421 157.975C43.9171 154.556 48.1585 152.943 46.1413 149.911C44.127 146.896 39.8195 147.17 36.192 140.718C32.5631 134.25 30.4812 129.122 30.4812 129.122C30.2397 129.493 29.8845 129.799 29.4015 130.042C27.5956 130.977 27.9982 135.202 23.5627 133.993C19.1272 132.783 19.3371 131.977 16.499 133.589C13.6925 135.202 11.8694 136.621 9.66099 136.411C7.43533 136.203 6.62875 133.396 6.62875 133.396C4.72515 134.719 2.93514 135.025 2.74104 135.057C2.03223 136.46 1.30616 137.685 1.08043 139.041C0.677856 141.459 1.88701 153.363 2.48368 159.814C3.09617 166.265 4.09685 172.102 4.30677 175.329C4.49943 178.555 1.08043 185.619 1.08043 185.619C1.08043 185.619 1.88701 193.683 3.69428 195.699C5.51592 197.715 5.11191 212.633 5.11191 212.633C5.11191 212.633 5.11191 217.455 4.17737 221.858C4.37003 221.681 7.54748 218.778 11.29 218.26C15.1446 217.714 23.1601 223.374 28.2728 225.116C33.3682 226.858 29.8845 227.81 31.9175 228.874C33.9649 229.954 38.7555 225.518 41.3032 224.438C43.8524 223.374 59.0452 228.617 63.9149 229.422C66.0112 229.76 69.5121 229.841 72.8175 229.81C75.4472 229.777 78.0107 229.228 80.3816 228.213C82.7525 227.196 84.9134 225.712 86.7365 223.81C87.4295 223.084 87.8651 222.164 87.9787 221.165C88.1067 219.971 88.2835 218.278 88.4302 216.761C88.4302 216.761 86.3339 218.39 83.6396 216.117Z" fill="#FAFAFA" stroke="#E2E2E2"/>
<path fill-rule="evenodd" clip-rule="evenodd" d="M97.5414 104.978C97.5414 104.978 96.4128 103.221 94.1239 104.43C91.8335 105.639 90.7034 102.979 90.7034 102.979H90.2678C90.2204 102.979 90.1715 102.964 90.1226 102.946C89.5906 102.769 89.1392 102.173 88.6877 101.463C88.6877 101.463 88.6719 101.447 88.6561 101.447C88.3973 101.286 86.8014 100.399 86.0595 102.334C85.2529 104.43 86.5915 106.301 85.3809 108.592C84.1717 110.881 84.7195 115.494 84.7195 115.494C84.7195 115.494 87.398 112.124 89.559 112.914C91.7041 113.704 94.2518 115.042 92.2361 116.382C90.2204 117.737 90.3814 121.301 90.3814 121.301C90.3814 121.301 93.2037 120.3 96.6385 121.301C100.058 122.317 100.269 114.655 101.478 111.623C102.687 108.607 99.2509 108.398 97.8491 105.784C97.7039 105.511 97.6061 105.252 97.5414 104.978Z" fill="#FAFAFA" stroke="#E2E2E2"/>
<path fill-rule="evenodd" clip-rule="evenodd" d="M141.699 161.41C139.489 163.233 138.456 162.442 137.554 166.862C136.651 171.297 136.054 174.104 136.457 178.345C136.861 182.587 132.441 182.781 132.441 185.813C132.441 186.926 132.36 187.892 132.36 188.828H132.441C132.441 188.828 138.264 192.263 142.505 194.07C146.747 195.876 148.15 196.086 154.197 196.086C160.246 196.086 162.261 192.457 162.261 192.457L168.31 187.619C168.31 187.619 172.132 188.231 176.375 185.393C180.616 182.587 179.599 182.377 181.615 178.345C183.631 174.314 187.454 176.135 187.454 176.135C187.454 176.135 188.873 172.297 190.679 171.49C192.502 170.685 191.099 167.056 190.889 164.556C190.679 162.071 192.904 162.491 192.904 162.491C191.889 162.153 191.195 161.347 191.099 160.007C190.889 157.169 193.517 154.154 190.679 153.137C187.874 152.136 187.067 153.347 183.421 155.975C179.809 158.589 177.584 157.975 176.583 157.169C176.341 156.976 175.922 156.734 175.374 156.442C174.083 155.781 172.116 154.96 170.519 154.379C170.002 154.201 169.519 154.056 169.117 153.944C166.907 153.347 163.52 152.943 161.182 155.557C158.842 158.185 158.842 158.782 154.601 159.588C150.36 160.395 150.36 161.62 147.133 159.588C144.892 158.201 144.409 157.943 144.311 157.91C144.311 157.928 144.295 157.928 144.295 157.928C143.602 159.329 142.698 160.588 141.699 161.41Z" fill="#FAFAFA" stroke="#E2E2E2"/>
<path fill-rule="evenodd" clip-rule="evenodd" d="M227.067 110.253C223.84 109.413 219.212 109.413 216.986 111.22C214.777 113.042 213.035 112.092 212.292 115.493C211.55 118.881 215.244 121.913 212.292 121.301C209.326 120.703 207.921 117.268 207.921 117.268C207.713 116.671 206.906 115.864 208.922 113.639C210.938 111.43 214.164 108.204 216.986 108.204C219.809 108.204 220.615 109.413 222.631 108.204C224.647 106.995 233.518 105.978 232.307 108.204C231.098 110.414 230.291 111.091 227.067 110.253Z" fill="#FAFAFA" stroke="#E2E2E2"/>
<path fill-rule="evenodd" clip-rule="evenodd" d="M260.643 94.5282C258.499 94.3183 257.547 91.9316 255.273 88.7052C252.982 85.4803 245.725 87.9001 243.306 85.8829C240.887 83.8672 241.016 85.6097 239.145 85.7377C237.258 85.8829 229.323 68.5464 227.178 67.0612C225.032 65.5789 221.807 67.7398 220 68.949C218.21 70.1581 213.195 67.5932 210.646 66.9332C208.098 66.256 209.308 64.2389 209.566 62.0937C209.84 59.9328 204.196 58.4648 201.099 59.2714C198.018 60.078 177.051 61.418 177.051 61.418C177.051 61.418 175.036 59.9328 172.617 60.8846C170.198 61.8205 173.02 63.0297 173.424 64.5135C173.827 65.9814 170.73 67.1906 168.439 67.8678C166.166 68.5464 166.021 68.1424 165.892 70.1581C165.762 72.1753 171.666 72.4327 171.666 74.723C171.666 77.0134 163.876 76.8682 163.876 76.8682C163.876 76.8682 161.456 74.723 160.376 73.1098C159.311 71.4967 147.07 69.8849 147.07 69.8849C147.07 69.8849 144.118 68.2718 144.312 65.852C144.506 63.4323 140.087 61.5459 136.862 59.4008C133.635 57.2571 129.329 59.4008 126.25 59.5302C123.153 59.6754 123.685 62.7551 122.411 63.8363C121.12 64.9175 120.33 61.2886 118.556 59.1262C116.798 56.9825 115.491 61.9499 113.025 65.3201C110.541 68.6744 110.25 67.7398 110.121 70.4169C109.976 73.1098 111.734 72.4327 113.025 73.5139C114.313 74.5936 115.088 77.0134 114.234 79.4317C113.379 81.8514 113.025 83.883 113.025 83.883C114.056 83.2374 115.347 82.3187 117.202 81.3842C121.636 79.1743 124.862 81.3842 128.088 82.9959C131.313 84.6091 130.103 87.8354 131.103 91.6742C132.12 95.4958 132.927 94.6892 132.12 96.3024C131.313 97.9141 129.088 95.8998 127.684 94.5282C126.265 93.1565 124.022 92.3342 123.443 92.0768C120.685 90.8346 120.024 94.5282 120.024 94.5282C120.024 94.5282 118.201 93.48 116.992 91.8669C115.781 90.2537 114.378 92.6735 114.378 92.6735L115.379 96.3024C115.379 96.3024 116.395 98.124 115.589 101.947C114.782 105.784 118.201 106.383 123.653 113.042C125.249 115.011 126.022 116.188 126.265 116.962C126.265 116.962 130.006 119.268 131.62 118.671C133.233 118.074 133.635 112.914 133.635 112.914C133.635 112.914 137.458 101.737 139.49 99.914C141.49 98.1082 148.86 99.3821 148.86 99.3821C150.973 98.5597 154.134 99.5273 155.505 98.9306C157.311 98.124 160.537 96.3024 160.537 96.3024L161.15 99.7372C161.15 99.7372 159.537 101.35 160.746 105.576C161.956 109.817 160.537 109.817 157.925 111.221C157.925 111.221 162.069 114.236 164.278 115.494C166.488 116.752 169.923 116.849 173.956 118.074C177.987 119.268 176.584 126.478 176.584 126.478C176.584 126.478 179.004 131.783 182.019 132.88C185.035 133.976 187.261 134.203 191.1 132.88C193.245 132.139 194.631 130.929 195.761 129.929C196.631 129.171 197.341 128.541 198.148 128.38C199.971 127.993 202.583 129.96 206.615 130.17C210.646 130.364 211.05 129.364 215.888 129.96C220.726 130.557 223.743 133.397 228.581 132.88C233.419 132.364 236.049 134.59 236.049 134.59C236.241 129.509 235.709 122.462 236.854 120.687C238.677 117.864 242.096 120.284 244.708 119.478C247.338 118.671 244.708 111.817 248.354 108.607C251.966 105.398 253.579 107.382 255.999 108.607C258.419 109.817 258.225 107.172 258.419 103.769C258.627 100.35 260.45 100.334 262.45 98.9148C263.885 97.9314 266.74 97.5762 268.837 97.0759C268.014 96.5914 267.498 96.3024 267.498 96.3024C267.498 96.3024 262.789 94.7539 260.643 94.5282Z" fill="#FAFAFA" stroke="#E2E2E2"/>
<path fill-rule="evenodd" clip-rule="evenodd" d="M264.402 218.666C261.322 219.875 261.45 216.649 259.837 213.698C258.225 210.729 254.064 211.94 250.161 209.118C246.257 206.295 245.597 203.876 241.565 202.812C237.533 201.73 232.42 201.925 232.42 201.925C232.581 202.651 232.581 203.52 232.42 204.553C231.888 208.052 232.694 214.633 235.372 215.165C238.065 215.714 242.63 218.939 246.532 219.068C250.436 219.198 251.645 217.455 254.596 220.148C257.548 222.825 266.015 225.245 269.24 223.504C271.499 222.293 272.305 220.729 273.047 219.133C273.047 219.133 273.047 219.133 270.596 217.987C268.127 216.843 267.499 217.455 264.402 218.666Z" fill="#FAFAFA" stroke="#E2E2E2"/>
<path fill-rule="evenodd" clip-rule="evenodd" d="M320.042 355.349C319.381 354.817 317.365 354.511 318.172 355.349C318.445 355.64 319.236 356.996 320.446 357.381C321.656 357.769 321.93 356.366 321.93 356.366C321.93 356.366 320.721 355.881 320.042 355.349Z" fill="#FAFAFA" stroke="#E2E2E2"/>
<path fill-rule="evenodd" clip-rule="evenodd" d="M329.463 363.688C328.254 363.688 328.108 364.623 328.108 364.623C328.108 364.623 329.722 367.848 331.076 367.72C332.414 367.575 333.092 366.64 332.14 365.559C331.205 364.494 330.672 363.688 329.463 363.688Z" fill="#FAFAFA" stroke="#E2E2E2"/>
<path fill-rule="evenodd" clip-rule="evenodd" d="M338.334 376.187C337.253 376.187 336.85 376.316 337.253 377.396C337.253 377.396 337.93 379.268 339.14 379.816C340.35 380.348 341.688 379.945 340.608 378.865C339.543 377.799 339.398 376.187 338.334 376.187Z" fill="#FAFAFA" stroke="#E2E2E2"/>
<path fill-rule="evenodd" clip-rule="evenodd" d="M340.074 242.858C337.251 240.712 337.526 239.906 337.251 235.47C336.978 231.035 331.332 233.18 329.864 231.437C328.382 229.68 333.22 224.986 333.09 221.488C332.945 217.987 329.059 211.537 326.413 210.327C326.413 210.327 326.235 214.633 324.221 215.714C322.204 216.778 320.043 215.971 317.366 219.746C314.673 223.504 313.995 224.986 313.463 228.213C312.931 231.437 312.785 231.294 309.028 236.406C305.27 241.518 304.06 245.276 301.77 247.97C299.593 250.518 298.286 249.888 298.173 249.808C297.739 252.324 296.979 254.357 296.979 254.357C298.932 256.42 305.415 263.146 308.318 264.839C311.737 266.855 309.721 279.161 309.721 279.161C309.721 279.161 312.753 283.999 316.979 284.402C321.22 284.806 326.655 275.725 326.655 275.725C326.655 275.725 332.3 281.177 332.509 284.806C332.704 288.435 335.928 294.273 336.735 297.306C337.186 298.999 336.509 305.739 335.816 311.384C335.816 311.384 338.46 308.579 339.946 305.353C340.058 305.095 340.154 304.852 340.235 304.611C341.171 301.836 339.816 299.981 339.946 295.402C340.074 290.435 339.139 289.628 337.251 287.483C335.365 285.322 335.767 280.628 336.446 275.789C337.122 270.951 333.349 270.001 331.332 268.129C329.316 266.243 332.817 259.662 332.817 259.662C332.817 259.662 337.655 256.292 342.089 252.662C343.123 251.823 343.961 251.018 344.638 250.275C346.96 247.776 347.606 245.953 347.606 245.953C347.606 245.953 342.896 245.001 340.074 242.858Z" fill="#FAFAFA" stroke="#E2E2E2"/>
<path fill-rule="evenodd" clip-rule="evenodd" d="M376.638 358.445C376.638 358.445 375.025 359.512 375.428 360.591C375.83 361.673 377.975 362.075 378.653 361.123C379.314 360.187 379.185 358.574 378.653 358.445C378.105 358.301 377.347 357.801 376.638 358.445Z" fill="#FAFAFA" stroke="#E2E2E2"/>
<path fill-rule="evenodd" clip-rule="evenodd" d="M381.475 379.671C378.249 379.541 378.249 379.541 376.361 376.719C374.475 373.897 373.539 372.817 371.394 373.09C371.394 373.09 366.96 373.365 367.62 371.608C368.298 369.865 371.394 369.059 370.443 368.123C369.507 367.172 366.41 365.962 365.201 364.35C363.992 362.737 365.879 361.93 363.733 361.124C361.572 360.317 355.67 356.431 354.057 355.624C352.444 354.817 349.879 357.899 348.542 356.156C347.202 354.415 347.461 352.93 346.122 352.254C344.784 351.593 342.089 348.221 339.946 347.818C337.783 347.416 335.913 348.496 334.429 346.755C332.945 344.996 333.22 341.64 330.671 341.108C328.107 340.561 317.898 339.753 316.559 339.753C315.205 339.753 316.011 344.463 317.495 345.14C318.979 345.801 325.687 347.416 326.494 349.301C327.301 351.189 330.8 352.657 331.332 354.415C331.881 356.156 333.897 355.253 335.51 357.381C337.122 359.512 339.946 362.607 340.203 364.623C340.478 366.64 342.364 365.703 343.977 367.72C345.589 369.736 348.009 372.558 348.945 374.574C349.879 376.591 351.364 381.686 354.46 384.106C357.54 386.526 360.638 390.832 364.541 392.846C368.428 394.863 374.071 399.298 376.088 399.976C378.104 400.636 379.46 397.684 381.329 397.96C383.216 398.218 384.959 398.492 385.103 396.75C385.232 394.991 387.781 385.864 386.039 383.847C384.298 381.832 384.7 379.816 381.475 379.671Z" fill="#FAFAFA" stroke="#E2E2E2"/>
<path fill-rule="evenodd" clip-rule="evenodd" d="M388.587 376.719C387.121 375.912 386.46 374.574 385.781 374.026C385.104 373.493 384.25 374.026 384.25 374.026C384.152 374.171 382.136 375.106 383.347 376.187C384.555 377.251 386.862 376.413 386.652 378.122C386.442 379.816 386.846 381.284 388.587 381.284C390.346 381.284 391.41 380.686 390.346 380.042C389.266 379.412 390.071 377.526 388.587 376.719Z" fill="#FAFAFA" stroke="#E2E2E2"/>
<path fill-rule="evenodd" clip-rule="evenodd" d="M398.408 378.736C398.408 378.736 396.926 381.025 398.408 381.832C399.877 382.638 401.634 382.766 401.489 381.284C401.361 379.816 403.907 379.235 402.57 378.122C401.232 376.994 399.069 377.123 398.408 378.736Z" fill="#FAFAFA" stroke="#E2E2E2"/>
<path fill-rule="evenodd" clip-rule="evenodd" d="M376.288 230.458C379.298 229.983 380.869 229.736 381.475 232.373C382.135 235.325 384.554 237.212 384.554 237.212L390.151 238.518C387.781 240.308 385.393 242.728 383.507 245.292C381.925 247.421 381.038 249.888 380.524 252.114C379.798 255.227 380.909 258.453 383.281 260.533L383.281 260.533C383.554 260.759 383.83 260.985 384.135 261.195C390.877 265.807 403.344 274.999 404.07 280.563C405.086 288.226 404.682 295.887 399.038 298.305C393.393 300.725 387.942 309.402 387.942 309.402C387.942 309.402 384.312 314.03 380.684 315.449C378.524 316.284 378.364 315.622 378.038 314.269C377.815 313.349 377.516 312.11 376.459 310.805C374.788 308.755 373.527 308.418 372.264 308.08C371.539 307.886 370.813 307.692 370.008 307.174C369.523 306.868 368.975 306.192 368.395 305.353C369.303 305.499 370.548 305.453 372.06 305.398C373.394 305.349 374.936 305.292 376.637 305.353C379.175 305.443 380.332 303.828 381.991 301.513C382.703 300.519 383.508 299.397 384.554 298.224C385.983 296.638 387.186 295.742 388.293 294.918C389.897 293.723 391.299 292.679 392.893 289.903C394.573 286.966 394.107 284.661 393.584 282.075C393.369 281.011 393.144 279.899 393.055 278.677C393.005 278.097 392.99 277.483 393.022 276.853C393.231 272.869 393.122 272.772 391.803 271.593C391.388 271.222 390.852 270.743 390.168 270.001C388.735 268.454 387.09 267.139 385.485 265.856C383.893 264.583 382.34 263.341 381.071 261.935C380.749 261.582 380.377 261.242 379.958 260.936L379.959 260.936C377.023 258.758 372.202 257.582 372.202 257.582L371.25 251.727C371.25 251.727 369.782 246.485 368.024 244.196C366.876 242.699 365.261 243.061 363.564 243.442C362.684 243.639 361.782 243.842 360.911 243.792C358.379 243.663 355.331 237.631 355.879 237.26C359.217 236.148 368.701 234.389 368.701 234.389C368.701 234.389 371.394 231.164 375.152 230.632C375.552 230.574 375.93 230.514 376.288 230.458Z" fill="#FAFAFA"/>
<path d="M381.475 232.373L381.963 232.264L381.963 232.261L381.475 232.373ZM376.288 230.458L376.366 230.952V230.952L376.288 230.458ZM384.554 237.212L384.246 237.606L384.333 237.673L384.44 237.698L384.554 237.212ZM390.151 238.518L390.452 238.917L391.304 238.274L390.265 238.032L390.151 238.518ZM383.507 245.292L383.908 245.59L383.91 245.588L383.507 245.292ZM380.524 252.114L381.011 252.228L381.011 252.227L380.524 252.114ZM383.281 260.533L383.34 261.03L384.456 260.899L383.611 260.158L383.281 260.533ZM383.281 260.533L383.223 260.037L382.061 260.174L382.963 260.919L383.281 260.533ZM384.135 261.195L383.852 261.607L383.853 261.607L384.135 261.195ZM404.07 280.563L403.574 280.628L403.574 280.629L404.07 280.563ZM399.038 298.305L398.841 297.845L398.841 297.845L399.038 298.305ZM387.942 309.402L388.336 309.71L388.352 309.69L388.366 309.667L387.942 309.402ZM380.684 315.449L380.865 315.915L380.867 315.914L380.684 315.449ZM378.038 314.269L378.524 314.151L378.038 314.269ZM376.459 310.805L376.847 310.49L376.846 310.489L376.459 310.805ZM372.264 308.08L372.393 307.597H372.393L372.264 308.08ZM370.008 307.174L370.278 306.754L370.275 306.752L370.008 307.174ZM368.395 305.353L368.474 304.859L367.316 304.673L367.983 305.637L368.395 305.353ZM372.06 305.398L372.078 305.897L372.06 305.398ZM376.637 305.353L376.655 304.853H376.655L376.637 305.353ZM381.991 301.513L381.585 301.222H381.585L381.991 301.513ZM384.554 298.224L384.182 297.89L384.18 297.892L384.554 298.224ZM388.293 294.918L388.592 295.319L388.293 294.918ZM392.893 289.903L393.326 290.151L393.326 290.151L392.893 289.903ZM393.584 282.075L393.094 282.174L393.584 282.075ZM393.055 278.677L393.554 278.64L393.553 278.633L393.055 278.677ZM393.022 276.853L392.523 276.827L392.523 276.828L393.022 276.853ZM391.803 271.593L391.47 271.966L391.803 271.593ZM390.168 270.001L390.536 269.662L390.535 269.661L390.168 270.001ZM385.485 265.856L385.797 265.465V265.465L385.485 265.856ZM381.071 261.935L381.442 261.6L381.441 261.599L381.071 261.935ZM379.958 260.936L379.897 260.44L378.645 260.594L379.663 261.339L379.958 260.936ZM379.959 260.936L380.02 261.432L381.261 261.28L380.256 260.534L379.959 260.936ZM372.202 257.582L371.708 257.662L371.762 257.989L372.083 258.067L372.202 257.582ZM371.25 251.727L371.744 251.647L371.739 251.619L371.732 251.592L371.25 251.727ZM368.024 244.196L367.627 244.5L367.627 244.501L368.024 244.196ZM363.564 243.442L363.455 242.954V242.954L363.564 243.442ZM360.911 243.792L360.94 243.293L360.937 243.293L360.911 243.792ZM355.879 237.26L355.721 236.786L355.656 236.808L355.599 236.846L355.879 237.26ZM368.701 234.389L368.792 234.881L368.969 234.848L369.085 234.71L368.701 234.389ZM375.152 230.632L375.222 231.127L375.224 231.127L375.152 230.632ZM381.963 232.261C381.801 231.56 381.565 230.999 381.219 230.577C380.863 230.145 380.418 229.89 379.903 229.763C379.403 229.64 378.842 229.637 378.241 229.688C377.64 229.738 376.957 229.846 376.211 229.964L376.366 230.952C377.124 230.832 377.767 230.731 378.325 230.684C378.885 230.637 379.319 230.649 379.663 230.734C379.993 230.815 380.242 230.964 380.446 231.212C380.659 231.471 380.846 231.868 380.988 232.486L381.963 232.261ZM384.554 237.212C384.861 236.817 384.861 236.817 384.861 236.817C384.861 236.817 384.862 236.818 384.862 236.818C384.862 236.818 384.862 236.818 384.862 236.818C384.862 236.818 384.862 236.818 384.861 236.817C384.861 236.817 384.86 236.816 384.858 236.815C384.855 236.812 384.849 236.808 384.842 236.802C384.827 236.789 384.803 236.77 384.772 236.744C384.711 236.691 384.62 236.612 384.508 236.506C384.284 236.296 383.977 235.983 383.649 235.583C382.991 234.778 382.271 233.638 381.963 232.264L380.988 232.483C381.34 234.06 382.159 235.339 382.875 236.216C383.235 236.656 383.573 237 383.823 237.235C383.948 237.353 384.051 237.443 384.125 237.506C384.161 237.537 384.19 237.561 384.211 237.578C384.221 237.586 384.229 237.592 384.235 237.597C384.238 237.6 384.241 237.601 384.242 237.603C384.243 237.604 384.244 237.604 384.245 237.605C384.245 237.605 384.245 237.605 384.246 237.605C384.246 237.605 384.246 237.606 384.246 237.606C384.246 237.606 384.246 237.606 384.554 237.212ZM390.265 238.032L384.667 236.725L384.44 237.698L390.037 239.005L390.265 238.032ZM383.91 245.588C385.768 243.062 388.123 240.677 390.452 238.917L389.85 238.119C387.44 239.94 385.018 242.394 383.104 244.995L383.91 245.588ZM381.011 252.227C381.516 250.04 382.382 247.645 383.908 245.59L383.106 244.994C381.469 247.197 380.56 249.736 380.036 252.001L381.011 252.227ZM383.611 260.158C381.372 258.194 380.328 255.153 381.011 252.228L380.037 252C379.267 255.3 380.446 258.712 382.952 260.909L383.611 260.158ZM383.34 261.03L383.34 261.03L383.223 260.037L383.223 260.037L383.34 261.03ZM384.419 260.783C384.134 260.587 383.873 260.374 383.6 260.148L382.963 260.919C383.235 261.144 383.527 261.383 383.852 261.607L384.419 260.783ZM404.566 280.498C404.366 278.966 403.376 277.258 401.987 275.525C400.585 273.777 398.725 271.941 396.689 270.147C392.616 266.557 387.794 263.092 384.417 260.782L383.853 261.607C387.218 263.91 392 267.347 396.028 270.897C398.042 272.673 399.856 274.466 401.207 276.151C402.569 277.85 403.411 279.378 403.574 280.628L404.566 280.498ZM399.234 298.764C402.258 297.469 403.841 294.774 404.54 291.505C405.238 288.246 405.076 284.348 404.565 280.497L403.574 280.629C404.08 284.441 404.224 288.204 403.563 291.296C402.903 294.378 401.461 296.723 398.841 297.845L399.234 298.764ZM387.942 309.402C388.366 309.667 388.366 309.668 388.366 309.668C388.366 309.667 388.366 309.667 388.366 309.667C388.366 309.667 388.366 309.667 388.366 309.666C388.367 309.666 388.368 309.664 388.369 309.662C388.371 309.659 388.375 309.653 388.38 309.645C388.39 309.629 388.405 309.605 388.425 309.574C388.466 309.512 388.526 309.419 388.605 309.3C388.762 309.061 388.995 308.717 389.291 308.296C389.884 307.453 390.734 306.304 391.757 305.081C393.818 302.618 396.528 299.925 399.235 298.764L398.841 297.845C395.902 299.105 393.065 301.96 390.99 304.44C389.945 305.689 389.078 306.861 388.473 307.72C388.171 308.15 387.933 308.503 387.771 308.748C387.689 308.871 387.627 308.967 387.585 309.033C387.563 309.066 387.547 309.091 387.536 309.108C387.531 309.117 387.527 309.124 387.524 309.128C387.522 309.13 387.521 309.132 387.52 309.133C387.52 309.134 387.52 309.135 387.519 309.135C387.519 309.135 387.519 309.135 387.519 309.135C387.519 309.135 387.519 309.136 387.942 309.402ZM380.867 315.914C382.778 315.167 384.652 313.595 386.024 312.25C386.716 311.572 387.292 310.939 387.696 310.475C387.897 310.243 388.056 310.053 388.165 309.921C388.22 309.854 388.262 309.802 388.291 309.767C388.305 309.749 388.316 309.735 388.324 309.726C388.327 309.721 388.33 309.717 388.332 309.715C388.333 309.713 388.334 309.712 388.335 309.711C388.335 309.711 388.335 309.711 388.335 309.711C388.335 309.71 388.336 309.71 388.336 309.71C388.336 309.71 388.336 309.71 387.942 309.402C387.549 309.093 387.549 309.093 387.549 309.093C387.549 309.093 387.549 309.093 387.549 309.093C387.549 309.093 387.549 309.093 387.549 309.093C387.548 309.094 387.548 309.094 387.547 309.095C387.546 309.097 387.543 309.1 387.54 309.104C387.534 309.112 387.524 309.125 387.511 309.141C387.484 309.174 387.445 309.223 387.393 309.286C387.289 309.412 387.136 309.594 386.941 309.819C386.551 310.267 385.993 310.88 385.324 311.536C383.974 312.86 382.218 314.312 380.502 314.983L380.867 315.914ZM377.551 314.386C377.631 314.713 377.71 315.047 377.82 315.326C377.932 315.609 378.101 315.902 378.399 316.097C378.703 316.297 379.064 316.346 379.458 316.304C379.846 316.263 380.309 316.13 380.865 315.915L380.504 314.982C379.98 315.185 379.613 315.282 379.353 315.31C379.099 315.337 378.995 315.292 378.948 315.261C378.895 315.227 378.827 315.153 378.75 314.958C378.671 314.758 378.608 314.501 378.524 314.151L377.551 314.386ZM376.07 311.119C377.053 312.332 377.332 313.477 377.551 314.386L378.524 314.151C378.299 313.221 377.979 311.887 376.847 310.49L376.07 311.119ZM372.134 308.563C372.768 308.732 373.343 308.888 373.964 309.236C374.581 309.582 375.267 310.134 376.071 311.121L376.846 310.489C375.979 309.425 375.2 308.783 374.453 308.364C373.71 307.947 373.022 307.765 372.393 307.597L372.134 308.563ZM369.737 307.595C370.614 308.159 371.409 308.369 372.134 308.563L372.393 307.597C371.668 307.403 371.011 307.225 370.278 306.754L369.737 307.595ZM367.983 305.637C368.558 306.468 369.158 307.229 369.741 307.597L370.275 306.752C369.888 306.507 369.392 305.916 368.806 305.068L367.983 305.637ZM372.042 304.898C370.508 304.954 369.322 304.995 368.474 304.859L368.315 305.846C369.284 306.002 370.588 305.952 372.078 305.897L372.042 304.898ZM376.655 304.853C374.933 304.792 373.375 304.849 372.042 304.898L372.078 305.897C373.413 305.848 374.938 305.793 376.619 305.852L376.655 304.853ZM381.585 301.222C380.744 302.396 380.078 303.319 379.323 303.952C378.598 304.559 377.793 304.894 376.655 304.853L376.619 305.852C378.02 305.902 379.063 305.474 379.965 304.718C380.838 303.987 381.58 302.946 382.398 301.804L381.585 301.222ZM384.18 297.892C383.115 299.086 382.296 300.229 381.585 301.222L382.398 301.804C383.11 300.81 383.901 299.707 384.927 298.557L384.18 297.892ZM387.995 294.516C386.883 295.344 385.646 296.264 384.182 297.89L384.925 298.559C386.32 297.011 387.49 296.139 388.592 295.319L387.995 294.516ZM392.459 289.654C390.916 292.343 389.578 293.338 387.995 294.516L388.592 295.319C390.217 294.108 391.683 293.016 393.326 290.151L392.459 289.654ZM393.094 282.174C393.616 284.754 394.039 286.892 392.459 289.654L393.326 290.151C395.107 287.04 394.598 284.567 394.074 281.975L393.094 282.174ZM392.556 278.713C392.648 279.972 392.879 281.113 393.094 282.174L394.074 281.975C393.858 280.908 393.64 279.827 393.554 278.64L392.556 278.713ZM392.523 276.828C392.49 277.482 392.505 278.119 392.557 278.72L393.553 278.633C393.505 278.076 393.491 277.485 393.521 276.879L392.523 276.828ZM391.47 271.966C392.143 272.568 392.376 272.792 392.5 273.291C392.569 273.567 392.604 273.943 392.605 274.517C392.606 275.09 392.575 275.83 392.523 276.827L393.521 276.88C393.573 275.884 393.607 275.118 393.605 274.515C393.604 273.914 393.568 273.444 393.471 273.051C393.263 272.211 392.782 271.797 392.137 271.22L391.47 271.966ZM389.8 270.34C390.501 271.1 391.052 271.592 391.47 271.966L392.137 271.22C391.724 270.851 391.203 270.386 390.536 269.662L389.8 270.34ZM385.173 266.246C386.782 267.533 388.397 268.826 389.801 270.341L390.535 269.661C389.072 268.083 387.397 266.745 385.797 265.465L385.173 266.246ZM380.7 262.27C382.001 263.711 383.587 264.978 385.173 266.246L385.797 265.465C384.198 264.187 382.679 262.97 381.442 261.6L380.7 262.27ZM379.663 261.339C380.054 261.625 380.401 261.942 380.702 262.272L381.441 261.599C381.097 261.221 380.7 260.859 380.254 260.533L379.663 261.339ZM379.897 260.44L379.897 260.44L380.019 261.432L380.02 261.432L379.897 260.44ZM372.202 257.582C372.083 258.067 372.083 258.067 372.083 258.067C372.083 258.067 372.083 258.067 372.083 258.067C372.083 258.067 372.084 258.068 372.084 258.068C372.084 258.068 372.085 258.068 372.086 258.068C372.088 258.069 372.091 258.069 372.095 258.07C372.104 258.072 372.116 258.076 372.134 258.08C372.168 258.089 372.22 258.102 372.287 258.12C372.421 258.155 372.617 258.209 372.862 258.28C373.352 258.422 374.036 258.634 374.81 258.912C376.367 259.473 378.252 260.292 379.661 261.338L380.256 260.534C378.729 259.401 376.735 258.543 375.149 257.972C374.351 257.684 373.646 257.466 373.14 257.319C372.887 257.246 372.684 257.19 372.543 257.153C372.472 257.135 372.417 257.12 372.38 257.111C372.361 257.106 372.346 257.102 372.337 257.1C372.332 257.099 372.328 257.098 372.325 257.097C372.324 257.097 372.323 257.097 372.322 257.096C372.321 257.096 372.321 257.096 372.321 257.096C372.321 257.096 372.321 257.096 372.321 257.096C372.32 257.096 372.32 257.096 372.202 257.582ZM370.757 251.807L371.708 257.662L372.695 257.501L371.744 251.647L370.757 251.807ZM367.627 244.501C368.455 245.579 369.24 247.396 369.827 248.992C370.117 249.781 370.353 250.5 370.516 251.022C370.598 251.282 370.661 251.493 370.704 251.639C370.725 251.712 370.742 251.768 370.753 251.806C370.758 251.825 370.762 251.839 370.765 251.848C370.766 251.853 370.767 251.857 370.768 251.859C370.768 251.86 370.768 251.861 370.768 251.861C370.769 251.862 370.769 251.862 370.769 251.862C370.769 251.862 370.769 251.862 370.769 251.862C370.769 251.862 370.769 251.862 371.25 251.727C371.732 251.592 371.732 251.592 371.732 251.592C371.732 251.592 371.731 251.592 371.731 251.592C371.731 251.592 371.731 251.591 371.731 251.591C371.731 251.59 371.731 251.589 371.73 251.588C371.73 251.585 371.728 251.581 371.727 251.576C371.724 251.565 371.72 251.55 371.714 251.53C371.702 251.49 371.685 251.431 371.663 251.356C371.619 251.206 371.554 250.989 371.47 250.723C371.304 250.19 371.063 249.455 370.766 248.648C370.179 247.05 369.35 245.102 368.42 243.892L367.627 244.501ZM363.674 243.93C364.541 243.735 365.294 243.57 365.968 243.613C366.602 243.654 367.152 243.88 367.627 244.5L368.421 243.892C367.749 243.015 366.917 242.673 366.032 242.616C365.188 242.561 364.285 242.768 363.455 242.954L363.674 243.93ZM360.883 244.291C361.836 244.346 362.808 244.124 363.674 243.93L363.455 242.954C362.56 243.155 361.728 243.338 360.94 243.293L360.883 244.291ZM355.599 236.846C355.383 236.992 355.333 237.221 355.32 237.338C355.306 237.471 355.32 237.608 355.342 237.73C355.386 237.979 355.484 238.282 355.614 238.605C355.876 239.259 356.3 240.08 356.82 240.887C357.338 241.694 357.965 242.508 358.639 243.135C359.299 243.749 360.073 244.25 360.886 244.292L360.937 243.293C360.483 243.27 359.927 242.968 359.32 242.403C358.728 241.851 358.152 241.11 357.661 240.346C357.17 239.584 356.777 238.819 356.542 238.233C356.424 237.937 356.354 237.707 356.326 237.554C356.312 237.476 356.315 237.445 356.314 237.448C356.314 237.452 356.311 237.48 356.293 237.52C356.273 237.563 356.233 237.625 356.159 237.674L355.599 236.846ZM368.701 234.389C368.61 233.898 368.61 233.898 368.61 233.898C368.61 233.898 368.609 233.898 368.609 233.898C368.609 233.898 368.609 233.898 368.608 233.898C368.607 233.898 368.605 233.898 368.603 233.899C368.598 233.9 368.591 233.901 368.582 233.903C368.564 233.906 368.537 233.911 368.502 233.918C368.431 233.931 368.327 233.95 368.194 233.976C367.928 234.026 367.543 234.099 367.072 234.19C366.129 234.373 364.837 234.628 363.44 234.918C360.659 235.495 357.423 236.219 355.721 236.786L356.037 237.735C357.673 237.189 360.849 236.477 363.644 235.897C365.035 235.608 366.322 235.354 367.262 235.172C367.732 235.081 368.115 235.008 368.38 234.958C368.512 234.933 368.616 234.914 368.686 234.901C368.721 234.894 368.747 234.889 368.765 234.886C368.774 234.884 368.781 234.883 368.785 234.882C368.788 234.882 368.789 234.881 368.79 234.881C368.791 234.881 368.791 234.881 368.792 234.881C368.792 234.881 368.792 234.881 368.792 234.881C368.792 234.881 368.792 234.881 368.701 234.389ZM375.082 230.137C373.085 230.42 371.393 231.413 370.214 232.313C369.621 232.765 369.151 233.2 368.827 233.523C368.665 233.685 368.54 233.819 368.454 233.914C368.411 233.961 368.378 233.999 368.355 234.025C368.343 234.038 368.334 234.048 368.328 234.056C368.325 234.059 368.322 234.062 368.321 234.065C368.32 234.066 368.319 234.067 368.318 234.067C368.318 234.068 368.318 234.068 368.318 234.068C368.318 234.068 368.317 234.068 368.317 234.068C368.317 234.069 368.317 234.069 368.701 234.389C369.085 234.71 369.085 234.71 369.085 234.71C369.085 234.71 369.084 234.71 369.084 234.71C369.084 234.71 369.084 234.71 369.084 234.71C369.085 234.71 369.085 234.71 369.085 234.709C369.086 234.708 369.087 234.707 369.089 234.704C369.094 234.699 369.1 234.691 369.109 234.681C369.128 234.66 369.156 234.627 369.194 234.586C369.27 234.502 369.384 234.38 369.534 234.231C369.833 233.933 370.27 233.528 370.821 233.108C371.928 232.262 373.461 231.377 375.222 231.127L375.082 230.137ZM376.211 229.964C375.852 230.02 375.476 230.08 375.08 230.138L375.224 231.127C375.627 231.068 376.008 231.008 376.366 230.952L376.211 229.964Z" fill="#E2E2E2"/>
<path fill-rule="evenodd" clip-rule="evenodd" d="M404.991 402.249C402.975 402.249 402.169 400.072 402.169 400.072C401.572 399.056 400.282 400.104 398.54 400.072C396.799 400.039 395.847 398.09 393.702 398.202C391.558 398.314 387.784 400.233 386.654 400.072C385.509 399.896 384.832 399.702 384.703 401.04C384.556 402.396 383.751 402.524 384.703 405.072C385.637 407.636 387.38 405.346 388.46 406.426C389.541 407.491 393.427 407.087 396.525 406.83C399.621 406.555 400.555 408.298 402.975 408.702C405.395 409.104 411.168 406.282 411.168 406.282C411.168 406.282 411.232 406.282 411.33 406.298L411.216 402.298C408.716 402.379 406.023 402.249 404.991 402.249Z" fill="#FAFAFA" stroke="#E2E2E2"/>
<path fill-rule="evenodd" clip-rule="evenodd" d="M433.084 402.331C431.6 402.412 428.907 400.379 427.843 399.17C426.762 397.961 418.423 398.218 418.423 398.218C418.423 398.218 416.811 399.572 416.15 401.17C415.812 401.943 413.616 402.234 411.214 402.298L411.327 406.298C412.085 406.394 415.247 406.797 417.359 407.637C419.777 408.573 426.487 408.443 428.648 407.234C430.795 406.023 442.212 405.75 442.212 405.75C442.212 405.75 443.825 403.863 442.761 402.928C441.68 401.992 434.552 402.249 433.084 402.331Z" fill="#FAFAFA" stroke="#E2E2E2"/>
<path fill-rule="evenodd" clip-rule="evenodd" d="M448.134 402.267C448.134 402.267 444.909 401.992 445.505 403.476C446.118 404.942 446.73 405.75 448.134 405.154C449.537 404.54 451.358 402.218 450.553 402.267C449.745 402.314 448.134 402.267 448.134 402.267Z" fill="#FAFAFA" stroke="#E2E2E2"/>
<path fill-rule="evenodd" clip-rule="evenodd" d="M454.1 98.9146C452.212 98.1569 450.664 97.6407 450.034 97.5113C448.018 97.1087 446.616 95.0915 448.826 90.4634C451.05 85.818 450.438 85.4154 448.826 83.8022C447.213 82.1891 448.632 75.7393 450.438 71.5137C450.664 71.0134 450.858 70.5447 451.05 70.109C451.05 70.109 449.488 70.7876 448.018 71.8674C446.825 72.7229 445.696 73.8673 445.504 75.1254C445.117 77.9477 443.084 77.3352 443.294 79.9634C443.502 82.5931 442.487 84.2063 440.874 86.0121C439.261 87.8179 438.456 90.9637 436.843 94.5279C435.231 98.108 434.423 99.3171 436.246 100.334C438.052 101.334 440.471 103.768 440.471 103.768L440.858 106.172C442.374 107.768 444.503 109.737 445.841 109.591L447.422 109.413L451.05 108.607C451.05 108.607 451.357 104.963 451.148 102.01C450.954 99.044 454.1 98.9146 454.1 98.9146Z" fill="#FAFAFA" stroke="#E2E2E2"/>
<path fill-rule="evenodd" clip-rule="evenodd" d="M461.034 197.424C460.76 191.925 461.839 189.505 460.098 189.232C458.341 188.957 457.131 189.103 456.873 191.78C456.873 191.78 457.001 193.668 456.196 196.763C455.39 199.843 454.583 199.715 455.792 203.069C457.001 206.441 460.632 211.004 461.437 209.392C462.245 207.778 460.357 206.57 461.307 203.069C462.245 199.585 461.307 202.94 461.034 197.424Z" fill="#FAFAFA" stroke="#E2E2E2"/>
<path fill-rule="evenodd" clip-rule="evenodd" d="M467.616 337.884C467.357 336.802 468.696 333.303 467.357 331.431C466.003 329.545 462.922 329.674 463.454 328.335C463.987 326.995 464.39 326.045 465.197 323.77C465.373 323.272 465.697 322.836 466.084 322.433C464.245 323.9 456.696 323.191 456.696 323.191C456.696 323.191 453.472 322.997 451.858 327.125C450.247 331.254 451.762 330.351 449.843 332.771C447.925 335.191 447.423 338.318 447.423 338.318L442.182 347.189C442.182 347.189 437.441 348.398 434.118 347.189C430.797 345.98 428.571 347.189 428.571 347.189C428.571 347.189 427.763 349.512 426.667 351.414C425.555 353.334 417.796 352.431 416.185 352.028C414.57 351.624 413.362 349.495 413.362 349.495C411.62 349.785 410.135 350.301 409.7 351.189C408.749 353.059 408.087 354.833 408.087 354.833C408.087 354.833 406.878 360.058 408.087 362.737C409.296 365.43 412.523 364.898 413.055 367.72C413.587 370.541 414.393 376.446 416.281 376.719C418.167 376.993 423.812 374.301 424.473 375.106C425.151 375.912 425.555 378.978 428.247 378.122C430.925 377.251 436.037 374.574 439.262 374.833C442.488 375.106 443.568 377.235 444.779 377.38C445.988 377.526 447.327 382.412 448.94 379.896C450.553 377.396 453.648 376.187 453.648 376.187C453.648 376.187 457.94 374.43 458.486 372.961C459.018 371.478 457.132 364.203 458.486 361.655C459.826 359.106 463.181 357.801 464.535 354.833C465.874 351.85 466.147 347.157 466.808 345.399C467.487 343.656 467.357 342.447 469.099 341.77C470.841 341.108 475.954 338.011 474.874 337.884C473.81 337.738 467.889 338.947 467.616 337.884Z" fill="#FAFAFA" stroke="#E2E2E2"/>
<path fill-rule="evenodd" clip-rule="evenodd" d="M473.662 398.186C473.662 398.186 467.098 397.896 466.082 398.186C465.067 398.492 466.274 399.427 463.856 400.072C461.436 400.701 458.211 399.702 456.196 401.121C454.179 402.524 451.148 404.734 453.179 405.346C455.179 405.959 464.887 407.572 466.082 405.346C467.275 403.12 467.695 403.024 470.501 402.266C473.338 401.509 477.098 399.992 475.919 399.04C474.743 398.09 473.662 398.186 473.662 398.186Z" fill="#FAFAFA" stroke="#E2E2E2"/>
<path fill-rule="evenodd" clip-rule="evenodd" d="M485.357 374.43C485.227 371.608 486.034 369.188 485.227 367.043C485.082 366.688 484.954 366.317 484.808 365.946L480.438 366.172C480.55 366.333 480.598 366.543 480.615 366.768C480.663 368.655 479.889 374.026 480.615 376.719C481.324 379.412 487.243 378.833 486.97 378.122C486.711 377.396 485.501 377.251 485.357 374.43Z" fill="#FAFAFA" stroke="#E2E2E2"/>
<path fill-rule="evenodd" clip-rule="evenodd" d="M484.292 38.8378L480.355 38.983C480.952 40.6437 480.759 41.9348 481.194 43.1439C481.727 44.6119 485.356 43.4013 486.161 45.821C486.969 48.2408 488.324 48.7886 488.581 45.821C488.856 42.8693 490.194 39.1124 488.452 39.9176C486.71 40.7256 484.292 38.8378 484.292 38.8378Z" fill="#7E5AF6" stroke="#E2E2E2"/>
<path fill-rule="evenodd" clip-rule="evenodd" d="M486.033 403.476C486.033 403.476 483.388 401.217 481.387 402.267C479.371 403.331 475.485 404.137 475.919 405.346C476.355 406.555 479.356 404.346 481.387 405.346C483.403 406.347 483.613 408.765 486.033 407.362C488.451 405.959 491.243 404.266 489.644 403.798C488.048 403.331 486.033 403.476 486.033 403.476Z" fill="#FAFAFA" stroke="#E2E2E2"/>
<path fill-rule="evenodd" clip-rule="evenodd" d="M489.516 117.462C487.371 116.253 486.468 117.736 484.564 116.93C482.678 116.123 480.937 114.914 480.387 116.253C480.162 116.785 480.113 117.591 478.904 119.204C477.694 120.816 479.049 123.638 479.049 123.638H481.726C481.726 123.638 484.177 122.704 484.564 124.59C484.952 126.461 483.742 129.558 486.968 129.96C490.193 130.364 490.999 130.364 490.193 127.945C489.388 125.525 491.661 118.671 489.516 117.462Z" fill="#7E5AF6" stroke="#E2E2E2"/>
<path fill-rule="evenodd" clip-rule="evenodd" d="M490.856 1.33961C490.856 1.33961 491.032 5.37253 490.856 7.98494C490.662 10.6146 489.613 16.0493 490.856 14.0494C492.082 12.0164 494.049 5.56519 493.678 3.35679C493.29 1.14695 491.84 0.533027 490.856 1.33961Z" fill="#7E5AF6" stroke="#E2E2E2"/>
<path fill-rule="evenodd" clip-rule="evenodd" d="M493.678 18.6617C491.952 16.2577 490.259 17.5977 490.259 17.5977C490.259 17.5977 490.743 19.0815 488.581 20.016C486.437 20.9678 485.758 22.1784 485.758 22.1784C485.758 22.1784 485.226 22.4358 482.131 23.113C479.05 23.7901 474.065 22.0332 473.809 23.6449C473.533 25.2581 472.453 25.9353 475.017 27.1444C477.566 28.355 483.743 32.1119 481.872 34.1291C479.984 36.1434 478.549 35.4835 479.808 37.758C480.049 38.1922 480.226 38.5962 480.355 38.983L484.292 38.8378C484.292 38.8378 484.292 36.1434 486.84 35.3382C489.389 34.5317 494.726 34.4023 493.678 31.4505C492.614 28.483 490.42 27.1444 492.259 25.4033C494.097 23.6449 496.517 22.3064 495.581 20.4186C494.629 18.5495 495.403 21.0483 493.678 18.6617Z" fill="#7E5AF6" stroke="#E2E2E2"/>
<path fill-rule="evenodd" clip-rule="evenodd" d="M493.727 68.1423C493.727 68.1423 493.163 70.8195 494.371 71.4966C495.582 72.1753 495.598 70.9647 495.792 69.4809C495.984 67.9971 495.018 66.6586 494.695 66.6586C494.371 66.6586 493.727 68.1423 493.727 68.1423Z" fill="#7E5AF6" stroke="#E2E2E2"/>
<path fill-rule="evenodd" clip-rule="evenodd" d="M493.596 102.01L492.886 104.43C492.886 104.43 493.418 106.3 491.806 107.382C490.403 108.333 489.806 108.447 489.596 109.898C489.565 110.108 489.549 110.333 489.532 110.608C489.388 112.753 491.404 115.978 492.886 115.575C494.37 115.171 493.95 113.156 494.693 110.736C495.435 108.318 497.724 108.592 496.79 106.043C495.838 103.478 493.596 102.01 493.596 102.01Z" fill="#7E5AF6" stroke="#E2E2E2"/>
<path fill-rule="evenodd" clip-rule="evenodd" d="M503.094 341.77C502.158 341.64 502.029 344.382 499.74 344.286C497.449 344.188 494.965 342.722 493.45 345.269C491.95 347.818 493.287 351.593 490.594 351.85C487.917 352.125 484.015 350.237 483.611 347.962C483.401 346.786 483.014 345.35 482.951 344.092L481.24 344.141C481.338 345.705 481.305 347.108 480.612 347.818C479.047 349.43 477.564 349.301 477.966 352.802C478.369 356.284 478.596 359.253 477.128 360.462C475.676 361.673 475.676 362.075 476.353 363.688C476.95 365.09 479.709 364.962 480.435 366.172L484.804 365.946C484.113 364.091 483.499 362.205 484.594 361.655C485.903 360.994 489.224 360.027 489.642 361.655C490.062 363.284 489.53 363.816 491.675 365.027C493.82 366.235 493.014 368.898 494.224 369.913C495.434 370.946 495.304 374.495 496.788 373.8C498.255 373.09 499.336 370.67 500.417 372.01C501.482 373.365 504.819 376.187 504.772 374.703C504.707 373.219 506.159 366.784 504.772 365.703C503.369 364.623 499.465 363.139 499.465 360.994C499.465 358.85 499.74 357.092 497.723 356.027C495.707 354.947 492.547 354.268 493.45 352.125C494.368 349.979 500.078 346.349 502.321 345.673C504.578 344.996 507.932 343.254 506.723 342.851C505.512 342.447 504.013 341.915 503.094 341.77Z" fill="#FAFAFA" stroke="#E2E2E2"/>
<path fill-rule="evenodd" clip-rule="evenodd" d="M504.774 388.008C504.774 388.008 505.322 388.008 502.323 390.428C499.338 392.846 495.645 393.654 493.452 394.057C491.275 394.46 486.581 393.058 484.597 394.057C482.598 395.056 479.018 396.283 480.614 397.088C482.21 397.896 490.92 400.314 492.516 398.186C494.098 396.073 500.274 394.202 502.323 393.525C504.37 392.846 510.435 388.218 509.21 388.008C508.017 387.798 506.339 386.315 504.774 388.008Z" fill="#FAFAFA" stroke="#E2E2E2"/>
<path fill-rule="evenodd" clip-rule="evenodd" d="M509.418 65.3199C506.466 63.4321 503.693 64.7721 504.339 61.1432C504.983 57.5143 506.37 57.6595 504.339 53.756C502.29 49.8539 500.838 39.3697 493.726 45.1596C492.855 45.8526 491.775 46.4982 490.855 49.7245C489.935 52.9494 492.258 56.1757 492.258 56.1757L498.129 64.9173C498.129 64.9173 500.015 72.8351 498.403 75.2548C496.79 77.6746 497.613 81.5767 495.791 80.3675C493.968 79.1569 493.968 75.2548 492.887 77.0132C491.807 78.7543 493.678 82.9152 493.678 82.9152C493.678 82.9152 494.92 86.6893 494.839 89.9142C494.775 93.1406 494.178 92.1413 491.984 93.9155C489.791 95.6897 489.935 96.7695 487.242 98.2374C484.549 99.7212 482.533 97.8334 482.533 102.671C482.533 107.511 481.599 110.204 481.727 112.494C481.872 114.769 484.017 113.301 485.629 112.624C486.308 112.333 486.469 111.075 486.614 109.591C486.822 107.576 487.034 105.14 488.581 104.286C489.921 103.56 490.371 102.72 490.92 101.802C491.435 100.899 492.049 99.9139 493.726 98.9146C497.049 96.8989 498.257 97.3015 498.129 98.9146C498.001 100.528 499.21 102.414 501.628 102.269C504.048 102.14 504.451 102.14 504.307 98.64C504.178 95.1563 502.29 95.4151 502.16 93.1406C502.031 90.8502 504.178 90.173 504.178 90.173C504.178 90.173 508.081 92.8674 508.741 89.1091C509.418 85.335 509.821 81.9965 511.709 80.1101C513.58 78.2224 516.144 76.0614 513.322 73.5137C510.499 70.9645 512.37 67.1904 509.418 65.3199Z" fill="#7E5AF6" stroke="#E2E2E2"/>
<path fill-rule="evenodd" clip-rule="evenodd" d="M513.982 323.223C513.982 323.223 512.353 328.335 507.723 329.545C503.095 330.755 500.822 329.142 496.386 331.56C491.951 333.98 488.579 332.367 487.773 334.383C486.967 336.398 486.967 337.205 485.225 337.334C483.484 337.48 482.273 335.996 481.321 338.545C480.807 339.98 481.129 342.19 481.241 344.141L482.952 344.092C482.887 342.916 483.097 341.883 484.016 341.366C485.904 340.302 490.338 338.545 492.353 336.27C494.369 333.98 501.014 335.996 502.321 334.383C503.644 332.771 510.9 332.9 512.918 330.481C514.933 328.062 517.513 323.497 516.948 322.287C515.997 320.272 513.982 323.223 513.982 323.223Z" fill="#FAFAFA" stroke="#E2E2E2"/>
<path fill-rule="evenodd" clip-rule="evenodd" d="M524.53 378.719C523.127 380.751 522.53 383.284 524.53 382.428C526.562 381.559 529.788 381.041 530.175 379.38C530.594 377.734 529.417 375.51 527.966 376.187C527.966 376.187 525.949 376.687 524.53 378.719Z" fill="#FAFAFA" stroke="#E2E2E2"/>
<path fill-rule="evenodd" clip-rule="evenodd" d="M527.967 347.287C525.755 348.898 521.547 348.786 523.239 350.156C524.95 351.511 527.37 354.544 529.886 353.542C532.402 352.527 531.788 348.496 531.788 348.496C531.788 348.496 530.175 345.673 527.967 347.287Z" fill="#FAFAFA" stroke="#E2E2E2"/>
<path fill-rule="evenodd" clip-rule="evenodd" d="M530.594 382.428C530.594 382.428 526.351 385.38 522.916 385.994C519.497 386.605 517.772 385.186 517.03 388.008C516.273 390.832 516.675 391.588 513.659 393.122C510.628 394.669 512.434 393.654 510.224 396.879C508.016 400.104 508.821 402.652 511.24 401.992C513.659 401.315 517.482 397.088 518.498 394.669C519.497 392.25 523.126 391.235 526.143 388.815C529.174 386.397 535.432 383.284 534.206 382.428C533.012 381.558 530.594 382.428 530.594 382.428Z" fill="#FAFAFA" stroke="#E2E2E2"/>
<path fill-rule="evenodd" clip-rule="evenodd" d="M537.852 387.202C537.852 387.202 537.24 390.218 537.852 391.025C538.449 391.831 539.465 390.638 539.465 389.121C539.465 387.606 538.094 385.17 537.852 387.202Z" fill="#FAFAFA" stroke="#E2E2E2"/>
<path fill-rule="evenodd" clip-rule="evenodd" d="M535.626 315.643C533.609 317.643 534.368 310.385 534.368 310.385C532.513 308.579 531.593 311.61 531.19 314.626C530.786 317.643 530.594 317.045 531.852 318.868C533.124 320.675 532.592 321.48 532.803 324.512C533.012 327.529 536.028 328.738 538.448 328.932C540.866 329.142 536.431 325.11 535.818 322.481C535.222 319.867 537.432 321.078 536.835 318.868C536.237 316.642 539.657 315.433 539.465 313.417C539.253 311.401 537.641 313.611 535.626 315.643Z" fill="#FAFAFA" stroke="#E2E2E2"/>
<path fill-rule="evenodd" clip-rule="evenodd" d="M534.368 332.965C534.368 332.965 530.513 334.188 531.852 335.382C533.206 336.608 533.819 336.802 536.237 335.802C538.657 334.785 541.092 333.383 539.465 332.965C537.851 332.577 534.368 332.965 534.368 332.965Z" fill="#FAFAFA" stroke="#E2E2E2"/>
<path fill-rule="evenodd" clip-rule="evenodd" d="M551.756 318.449C553.063 319.965 555.45 319.819 555.982 318.255C556.902 315.643 554.369 315.643 554.369 315.643C554.369 315.643 549.338 315.643 551.756 318.449Z" fill="#FAFAFA" stroke="#E2E2E2"/>
<path fill-rule="evenodd" clip-rule="evenodd" d="M550.545 336.449C547.319 337.609 545.915 339.835 543.077 341.028C540.271 342.254 534.885 343.301 537.578 344.286C540.271 345.269 547.319 346.076 549.336 343.448C551.35 340.834 555.592 344.06 557.205 342.254C558.819 340.431 558.819 341.446 557.205 338.61C556.9 338.092 553.77 335.27 550.545 336.449Z" fill="#FAFAFA" stroke="#E2E2E2"/>
<path fill-rule="evenodd" clip-rule="evenodd" d="M563.658 359.897C563.658 359.897 562.642 363.559 560.819 365.703C559.013 367.848 561.625 366.171 563.658 365.703C565.657 365.22 566.883 363.123 566.077 361.655C565.27 360.187 564.852 357.172 563.658 359.897Z" fill="#FAFAFA" stroke="#E2E2E2"/>
<path fill-rule="evenodd" clip-rule="evenodd" d="M583.204 342.64C582.429 343.285 582.592 343.464 582.398 346.786C582.204 350.109 581.188 352.737 582.398 354.544C583.608 356.349 584.011 356.366 584.205 353.736C584.413 351.124 588.446 347.189 587.85 345.221C587.236 343.254 585.43 340.834 583.204 342.64Z" fill="#FAFAFA" stroke="#E2E2E2"/>
<path fill-rule="evenodd" clip-rule="evenodd" d="M588.237 305.047C587.962 305.208 586.431 305.852 587.042 306.966C587.639 308.079 588.849 307.272 589.962 307.465C591.075 307.675 592.172 307.062 591.366 305.852C590.559 304.644 589.091 304.546 588.237 305.047Z" fill="#FAFAFA" stroke="#E2E2E2"/>
<path fill-rule="evenodd" clip-rule="evenodd" d="M631.023 345.124C627.96 344.608 626.25 341.544 623.718 340.69C620.912 339.738 615.655 346.076 612.849 349.092C610.009 352.125 608.203 350.706 609.815 346.786C611.428 342.865 614.462 338.416 614.462 338.416C614.462 338.416 611.622 330.545 610.623 328.948C609.624 327.336 599.14 328.932 594.494 331.158C589.85 333.383 582.592 331.158 582.592 331.158C582.592 331.158 579.368 329.35 576.351 331.77C573.335 334.189 575.754 335.593 574.335 336.449C572.915 337.287 572.528 334.383 571.302 332.787C570.108 331.205 565.867 332.367 566.11 330.545C566.222 329.641 566.98 329.593 567.916 329.593C568.868 329.593 569.996 329.658 570.916 328.948C572.721 327.545 572.915 326.32 575.543 326.334C578.173 326.367 577.366 322.691 576.56 321.578C575.754 320.481 572.721 320.481 571.722 324.094C571.27 325.723 569.723 326.351 567.916 326.351C565.69 326.351 563.076 325.417 561.626 324.302C559.013 322.287 557.804 324.899 556.046 323.497C554.287 322.094 559.206 320.675 562.238 319.4C565.27 318.11 563.447 315.837 565.464 314.03C567.48 312.207 573.529 312.803 573.529 312.803C573.529 312.803 575.543 313.223 577.753 313.82C579.979 314.416 578.979 317.045 580.787 319.498C582.592 321.933 583.817 324.302 589.044 324.094C594.3 323.9 590.463 317.853 592.688 315.643C594.897 313.417 599.736 305.965 603.559 302.128C607.397 298.289 608.816 301.127 613.445 301.515C618.074 301.934 619.3 298.709 624.832 298.289C625.282 298.256 625.848 298.305 626.509 298.434C626.509 298.434 626.75 333.786 631.023 345.124Z" fill="#FAFAFA" stroke="#E2E2E2"/>
<path fill-rule="evenodd" clip-rule="evenodd" d="M4.09702 131.187C3.82241 132.704 3.29044 133.929 2.74121 135.057C2.93531 135.026 4.72532 134.719 6.62892 133.397C8.64466 131.977 8.85457 129.96 10.531 128.349C12.2247 126.735 10.531 125.026 10.531 125.026C7.38662 126.38 4.64481 128.139 4.09702 131.187Z" fill="white" stroke="#D9D9D9"/>
<path fill-rule="evenodd" clip-rule="evenodd" d="M70.8662 119.882C70.8662 119.882 63.7852 115.413 60.4151 113.397C60.4151 113.397 57.0278 114.64 54.3348 116.526C51.6577 118.396 49.6405 124.59 47.077 125.929C44.5293 127.267 41.0298 125.799 38.3512 125.026C35.6583 124.268 30.0137 125.026 30.0137 125.026C30.9008 126.72 31.1423 128.123 30.4809 129.122C30.4809 129.122 32.5628 134.251 36.1917 140.718C39.8192 147.17 44.1267 146.896 46.141 149.911C48.1582 152.943 43.9168 154.556 45.1418 157.975C46.1741 160.943 54.2701 164.507 57.7696 166.2C57.7696 166.2 59.4475 164.846 61.2692 163.62C63.0764 162.426 62.2698 161.814 66.1087 162.62C66.9152 162.797 67.5436 163.072 68.0597 163.427C68.0597 163.427 71.9474 153.298 70.7368 151.443C69.5277 149.589 66.98 149.314 66.4307 148.105C66.2539 147.669 65.9462 146.638 65.6572 145.475C64.9311 142.654 65.7694 139.669 67.8656 137.654L70.2854 135.316C71.8338 133.816 72.5757 131.654 72.2695 129.509L70.8662 119.882Z" fill="#FAFAFA" stroke="#E2E2E2"/>
<path fill-rule="evenodd" clip-rule="evenodd" d="M75.4476 82.3833C74.8984 79.9635 69.4795 77.4158 69.4795 77.4158C69.5442 77.8515 69.5916 78.3029 69.6247 78.7702C69.7699 81.4962 72.1897 84.0928 73.7381 85.9964L76.398 85.5291C75.7539 84.9325 75.7855 83.8987 75.4476 82.3833Z" fill="#FAFAFA" stroke="#E2E2E2"/>
<path fill-rule="evenodd" clip-rule="evenodd" d="M84.0437 89.3666C82.5614 86.5443 81.496 86.2855 78.5284 86.1417C77.4156 86.0928 76.7873 85.8829 76.3991 85.5292L73.7393 85.9965C74.2554 86.6248 74.658 87.174 74.8679 87.6413C75.5925 89.2545 73.2217 90.721 71.4316 92.0279L71.5452 92.1889L74.2396 94.5282C74.2396 94.5282 75.1411 95.2212 76.2711 96.1083C77.1741 96.8185 78.238 97.6567 79.0777 98.3828C80.9482 99.996 83.1091 98.6402 85.3822 98.5108C86.8833 98.4303 87.802 100.108 88.6575 101.447C88.6733 101.447 88.6891 101.463 88.6891 101.463C89.1405 102.173 89.592 102.769 90.124 102.946C90.1729 102.964 90.2217 102.979 90.2692 102.979C91.5272 102.979 89.7861 95.6252 88.6086 93.9473C87.3994 92.1889 85.5275 92.1889 84.0437 89.3666Z" fill="#FAFAFA" stroke="#E2E2E2"/>
<path fill-rule="evenodd" clip-rule="evenodd" d="M99.0582 206.778C98.8814 206.215 98.7836 205.699 98.7347 205.214C98.7347 205.214 95.4624 208.052 93.3158 210.47C91.1721 212.89 88.8803 212.342 88.6072 215.035C88.5583 215.553 88.4936 216.132 88.4303 216.761C88.2837 218.278 88.1068 219.971 87.9788 221.165C87.8653 222.164 87.4296 223.084 86.7366 223.81C84.9135 225.712 82.7526 227.196 80.3817 228.212C78.0108 229.228 75.4473 229.777 72.8177 229.81C69.5122 229.841 66.0113 229.759 63.915 229.422V245.598C67.0278 245.598 71.2059 246.308 74.0599 246.905C77.8829 247.711 83.1235 243.678 87.559 242.663C91.9945 241.664 94.6227 238.84 95.8319 235.406C97.0425 231.987 100.461 233.598 103.09 234.599C105.704 235.615 107.929 227.551 110.752 223.52C113.574 219.487 106.719 217.664 104.09 216.664C101.478 215.649 100.057 210.003 99.0582 206.778Z" fill="#FAFAFA" stroke="#E2E2E2"/>
<path fill-rule="evenodd" clip-rule="evenodd" d="M158.845 138.831C156.619 133.589 157.345 128.832 152.749 126.478C148.152 124.107 148.959 123.413 146.329 119.929C144.475 117.462 143.943 115.721 142.62 115.721C142.088 115.721 141.427 116.01 140.492 116.655C137.266 118.881 136.863 119.784 135.25 119.929C133.637 120.074 131.621 118.671 131.621 118.671C130.008 119.268 126.267 116.961 126.267 116.961C126.848 118.816 124.508 118.461 123.654 121.301C122.444 125.332 119.009 117.478 115.38 119.897C111.751 122.317 116.589 129.364 117.203 132.396C117.8 135.412 117.203 134.413 113.767 134.816C113.429 134.847 113.154 134.929 112.929 135.057C112.929 135.057 114.073 137.428 116.106 137.008C118.106 136.621 122.75 134.59 125.364 134.59C125.847 134.59 128.267 135.057 130.202 137.008C131.589 138.396 134.653 139.428 138.879 142.864C143.104 146.299 145.733 150.024 145.733 152.798C145.733 154.314 145.185 156.201 144.314 157.91C144.411 157.943 144.894 158.201 147.136 159.588C150.362 161.62 150.362 160.395 154.604 159.588C158.845 158.782 158.845 158.185 161.184 155.557C163.522 152.943 166.909 153.347 169.119 153.944C169.522 154.056 170.005 154.201 170.521 154.379C170.393 153.991 171.473 148.46 169.119 147.106C166.7 145.685 161.055 144.073 158.845 138.831Z" fill="#FAFAFA" stroke="#E2E2E2"/>
<path fill-rule="evenodd" clip-rule="evenodd" d="M221.664 174.039C218.842 176.603 209.036 172.829 209.036 172.829C209.036 172.829 204.069 169.604 200.843 170.555C197.616 171.49 200.843 174.314 200.697 179.57C200.569 184.828 203.262 182.377 205.94 183.861C208.632 185.328 207.149 185.731 203.262 188.151C199.359 190.571 203.117 191.376 200.697 195.409C198.278 199.44 182.827 209.118 182.827 209.118C182.827 209.118 179.732 208.584 177.312 209.118C174.892 209.665 171.668 212.747 170.651 214.504C169.636 216.246 172.345 215.714 174.231 215.859C176.103 216.003 176.248 219.068 175.974 221.761C175.699 224.438 179.732 226.326 178.619 228.745C177.489 231.164 170.457 230.632 166.296 229.81C162.135 229.003 160.475 232.987 160.475 232.987C160.812 233.455 161.168 233.875 161.554 234.195C165.183 237.229 170.023 235.212 171.635 237.017C172.684 238.196 169.813 239.712 167.684 240.631C166.733 241.05 166.506 242.293 167.281 242.986L171.264 246.567C172.555 247.729 174.539 247.729 175.797 246.534C177.683 244.777 180.344 242.632 181.909 242.873C184.537 243.276 182.119 253.953 180.908 261.615C179.699 269.275 180.698 277.145 184.134 283.999C187.553 290.854 189.569 300.531 192.391 307.578C195.214 314.644 195.214 319.676 197.23 322.901C199.247 326.126 202.682 322.094 206.31 319.078C209.939 316.045 213.971 313.836 216.987 311.821C220.019 309.804 218.809 303.547 220.422 301.127C222.035 298.709 221.019 289.241 221.633 286.209C222.229 283.194 236.341 276.533 236.341 276.533L259.726 264.645C259.726 264.645 263.355 262.824 263.758 260.21C264.162 257.582 270.419 253.146 273.645 250.324C275.484 248.711 276.999 249.598 278.789 250.583C278.805 250.243 279.048 245.533 278.66 241.776C278.257 237.89 277.451 237.744 274.758 235.325C272.064 232.905 273.677 233.455 275.322 231.841C276.966 230.23 274.483 227.938 274.629 225.794C274.758 223.633 277.048 225.648 280.531 225.794C284.03 225.924 283.627 228.342 286.177 231.437C288.74 234.519 288.87 230.632 294.514 231.164C300.159 231.696 291.563 237.082 292.626 239.227C293.708 241.374 293.837 240.308 296.981 239.099C300.127 237.89 298.143 242.05 298.418 245.953C298.498 247.227 298.369 248.581 298.175 249.808C298.288 249.888 299.595 250.518 301.772 247.97C304.062 245.276 305.272 241.518 309.03 236.406C312.787 231.294 312.933 231.437 313.465 228.213C313.997 224.986 314.675 223.504 317.367 219.746C320.045 215.971 322.206 216.778 324.223 215.714C326.237 214.633 326.415 210.327 326.415 210.327C323.754 209.118 322.867 209.924 320.319 207.65C317.771 205.359 317.771 205.763 314.143 205.634C310.514 205.489 309.964 206.295 307.287 209.263C304.594 212.213 299.884 212.89 296.805 214.633C293.708 216.376 297.209 219.471 295.853 221.084C294.514 222.696 284.966 222.696 284.966 222.696C284.966 222.696 280.935 220.003 279.724 216.778C278.516 213.552 275.435 214.762 274.081 217.053C273.677 217.746 273.371 218.439 273.048 219.133C272.307 220.729 271.5 222.293 269.241 223.504C266.016 225.245 257.549 222.825 254.598 220.148C251.646 217.455 250.437 219.198 246.533 219.068C242.631 218.939 238.066 215.714 235.373 215.165C232.695 214.633 231.89 208.052 232.422 204.553C232.583 203.52 232.583 202.651 232.422 201.925C232.082 200.182 230.905 199.134 229.195 198.102C226.777 196.618 223.955 191.248 223.955 191.248C223.955 191.248 226.373 189.36 227.986 189.232C229.599 189.103 227.584 183.861 227.584 183.861C227.584 183.861 228.518 180.232 231.212 179.57C233.905 178.909 234.437 174.991 234.567 173.507C234.712 172.022 233.501 170.813 230.534 171.49C228.245 172.022 225.858 171.733 223.584 172.764C222.922 173.072 222.294 173.474 221.664 174.039Z" fill="#FAFAFA" stroke="#E2E2E2"/>
<path fill-rule="evenodd" clip-rule="evenodd" d="M368.024 244.196C366.281 241.922 363.46 243.937 360.911 243.792C358.379 243.663 355.331 237.631 355.879 237.26C355.638 237.341 355.443 237.406 355.267 237.488C352.702 238.552 351.365 244.067 351.365 244.067L347.606 245.953C347.606 245.953 346.961 247.776 344.639 250.275C344.639 250.275 345.993 253.082 347.606 254.357C349.218 255.631 350.961 256.292 351.235 258.453C351.492 260.598 350.026 265.436 351.492 265.307C352.978 265.163 352.04 263.291 355.928 263.694C359.83 264.098 361.975 263.291 365.202 261.13C366.717 260.131 367.525 259.534 368.25 259.534L372.202 257.582L371.25 251.727C371.25 251.727 369.782 246.485 368.024 244.196Z" fill="#FAFAFA" stroke="#E2E2E2"/>
<path fill-rule="evenodd" clip-rule="evenodd" d="M369.606 339.64C369.849 338.157 365.978 335.14 362.962 333.028C362.962 333.028 360.769 335.319 357.818 335.593C354.866 335.866 356.736 332.641 353.655 332.092C350.56 331.56 346.221 331.77 346.221 331.77C346.221 331.77 347.624 335.205 348.431 340.447C349.237 345.688 356.092 352.945 356.092 352.945C356.092 352.945 370.607 357.575 373.235 357.381C375.849 357.173 372.832 353.946 370.816 352.333C368.799 350.72 369.203 342.06 369.606 339.64Z" fill="#FAFAFA" stroke="#E2E2E2"/>
<path fill-rule="evenodd" clip-rule="evenodd" d="M381.072 261.935C380.75 261.582 380.377 261.242 379.959 260.936C377.023 258.758 372.202 257.582 372.202 257.582L368.25 259.534C369.072 259.534 369.816 260.292 371.394 262.082C374.346 265.436 373.944 265.839 374.621 269.193C375.282 272.565 378.104 273.775 378.104 273.775L379.716 282.097L379.765 282.468C380.75 282.354 381.7 282.162 382.54 281.871C386.974 280.354 393.056 278.677 393.056 278.677C393.005 278.097 392.991 277.483 393.023 276.854C393.297 271.613 393.023 273.097 390.169 270.001C387.313 266.92 383.62 264.758 381.072 261.935Z" fill="#FAFAFA" stroke="#E2E2E2"/>
<path fill-rule="evenodd" clip-rule="evenodd" d="M390.279 71.8517C386.248 73.3039 382.409 79.157 379.183 76.5288C375.958 73.9164 376.152 64.6428 376.152 64.6428L376.135 64.2877C373.65 64.4171 370.2 62.998 368.506 65.0468C366.474 67.4651 363.862 73.7223 361.04 75.3354C358.217 76.9486 354.798 76.3361 351.96 77.5453C349.152 78.7544 343.509 76.5288 338.669 77.1427C333.831 77.7552 331.945 82.7859 327.735 81.5767C323.541 80.3676 323.735 76.5288 320.316 75.3354C316.897 74.1105 309.64 73.9164 308.413 74.5288C307.22 75.1255 307.414 78.9485 307.607 81.7867C307.817 84.5932 309.64 87.867 306.205 88.1416C302.769 88.432 298.737 89.2702 295.511 88.1416C292.286 87.0115 285.448 86.8505 282.013 88.1416C278.577 89.4312 272.449 95.2053 270.932 96.3023C270.481 96.6244 269.723 96.8659 268.836 97.0758C271.707 98.7379 278.367 102.705 280.673 104.978C283.625 107.914 281.206 111.639 283.754 115.494C283.754 115.494 285.028 117.058 288.463 117.058C291.899 117.058 303.785 117.268 305.995 120.687C308.221 124.107 309.64 128.751 312.446 128.349C315.284 127.945 321.317 125.929 321.317 125.929L335.896 124.526C335.896 124.526 347.735 128.945 350.959 125.929C354.184 122.914 361.846 116.349 365.878 115.494C369.911 114.64 376.36 109.06 375.345 105.898C374.345 102.754 369.699 97.9313 372.733 96.3023C375.764 94.6891 379.587 96.9795 382.215 93.4153C384.829 89.8511 382.813 87.0115 387.054 83.1899C391.279 79.3669 395.925 78.1419 394.909 75.5295C393.892 72.9171 394.312 70.401 390.279 71.8517Z" fill="#FAFAFA" stroke="#E2E2E2"/>
<path fill-rule="evenodd" clip-rule="evenodd" d="M454.099 98.9147C454.099 98.9147 450.953 99.0441 451.148 102.01C451.356 104.963 451.05 108.607 451.05 108.607C451.05 108.607 451.244 114.253 453.872 116.461C456.486 118.688 457.291 122.914 459.308 125.138C461.324 127.348 461.324 123.316 462.341 121.301C463.34 119.285 467.775 117.268 468.79 113.639C469.791 110.01 468.582 109.203 465.968 105.784C464.164 103.431 458.259 100.593 454.099 98.9147Z" fill="#FAFAFA" stroke="#E2E2E2"/>
<path fill-rule="evenodd" clip-rule="evenodd" d="M472.729 313.69C473.81 314.352 468.567 316.513 469.228 318.53C469.76 320.094 467.503 321.013 466.115 322.416C466.099 322.416 466.099 322.433 466.084 322.433C464.245 323.9 456.696 323.191 456.696 323.191C456.696 323.191 453.472 322.997 451.858 327.125C450.247 331.254 451.762 330.351 449.843 332.771C447.925 335.191 447.423 338.318 447.423 338.318L442.182 347.189C442.182 347.189 437.44 348.398 434.118 347.189C430.797 345.98 428.571 347.189 428.571 347.189C428.571 347.189 427.763 349.512 426.667 351.414C425.555 353.334 417.796 352.431 416.185 352.028C414.57 351.624 413.362 349.495 413.362 349.495C415.282 349.141 417.555 349.044 419.103 348.898C422.055 348.624 422.86 347.56 423.007 343.527C423.135 339.497 425.682 341.915 430.521 339.753C430.521 339.753 436.972 332.642 438.73 329.27C440.473 325.916 441.279 328.465 443.568 325.916C445.843 323.368 446.247 324.981 446.649 322.819C447.052 320.675 448.665 319.191 449.874 317.981C451.085 316.772 452.439 316.513 452.439 314.497C452.439 312.481 455.262 309.916 457.536 308.303C459.826 306.691 463.326 311.127 466.084 312.077C468.857 313.015 471.648 313.015 472.729 313.69Z" fill="#FAFAFA" stroke="#E2E2E2"/>
</svg>
