<?xml version="1.0" encoding="utf-8"?>
<!-- Generator: Adobe Illustrator 25.0.1, SVG Export Plug-In . SVG Version: 6.00 Build 0)  -->
<svg version="1.1" id="Layer_1" xmlns="http://www.w3.org/2000/svg" xmlns:xlink="http://www.w3.org/1999/xlink" x="0px" y="0px"
	 viewBox="0 0 695 410" style="enable-background:new 0 0 695 410;" xml:space="preserve">
<style type="text/css">
	.st0{fill-rule:evenodd;clip-rule:evenodd;fill:#FAFAFA;stroke:#E2E2E2;}
	.st1{fill-rule:evenodd;clip-rule:evenodd;fill:#FAFAFA;}
	.st2{fill:#E2E2E2;}
	.st3{fill-rule:evenodd;clip-rule:evenodd;fill:#F2F2F2;stroke:#7E5AF6;}
	.st4{fill-rule:evenodd;clip-rule:evenodd;fill:#FFFFFF;stroke:#D9D9D9;}
</style>
<path class="st0" d="M49.9,108.9c-3,0.8-3.5,2.1-5.4,0c-1.9-2.2-5.4-3.6-5.4-3.6s-4.4-3.9-7.2-2.7c1.6,1.6-2.8,3.4-3,7
	c-0.1,1.2-0.9,2.3-2,3.3c0,0,1,2.1,0,3.7c-0.9,1.6-2.7,2.6-4.6,4c-1.8,1.4-5,3.6-2,4.3c3,0.7,8.5-2.3,9.7,0c0,0,5.6-0.8,8.3,0
	c2.7,0.8,6.2,2.2,8.7,0.9c2.6-1.3,4.6-7.5,7.3-9.4c2.7-1.9,6.1-3.1,6.1-3.1c-0.3-0.2-0.6-0.3-0.8-0.5
	C56.8,111.3,52.9,108.1,49.9,108.9z"/>
<path class="st0" d="M41.3,224.4c-2.5,1.1-7.3,5.5-9.4,4.4c-2-1.1,1.5-2-3.6-3.8c-5.1-1.7-13.1-7.4-17-6.9c-3.7,0.5-6.9,3.4-7.1,3.6
	c0,0,0,0,0,0c-0.2,1.1-0.5,2.1-0.9,3c-1.8,4.8-2.6,15.7-2,19.2c0.6,3.4,12.1,3.8,15.9,1.6c3.8-2.2,11.9,3.4,15.1,2.2
	c3.2-1.2,20.6,1,20.6,1s5.5-2.2,8.3-3c0.7-0.2,1.7-0.3,2.8-0.3v-16.2C59,228.6,43.9,223.4,41.3,224.4z"/>
<path class="st0" d="M68.9,192.9c0.3,3.1-0.4,4.2,0.6,4.8c0.9,0.7,2.8,0,2.8,0h0c-0.7-2.9,2.3-5,2.7-7c0.4-2.4-4.8,0.8-5.5-0.2
	C69.4,190.5,68.6,189.8,68.9,192.9z"/>
<path class="st0" d="M138.9,142.9c-4.2-3.4-7.3-4.5-8.7-5.9c-1.9-2-4.4-2.4-4.8-2.4c-2.6,0-7.3,2-9.3,2.4c-2,0.4-3.2-2-3.2-2
	c-2.1,1.1-0.2,5-0.2,5l-8.7-1.4c0,0-5.6-1-8.5-4.4c-2.8-3.4-0.8-4.4-3.6-5.4c-2.8-1-1.6-7.5-1.6-7.5s-0.2-3.6,1.9-4.9
	c2-1.3-0.5-2.7-2.7-3.5c-2.2-0.8-4.8,2.6-4.8,2.6s-4.2-1-6-2.6c-1.9-1.6-1.2-5.9-2.6-5.5c-1.3,0.4-4.7,5-3.4,7.4
	c1.3,2.4-1.9,5.1-1.9,5.1l1.4,9.6c0.3,2.1-0.4,4.3-2,5.8l-2.4,2.3c-2.1,2-2.9,5-2.2,7.8c0.3,1.2,0.6,2.2,0.8,2.6
	c0.5,1.2,3.1,1.5,4.3,3.3c1.2,1.9-2.7,12-2.7,12c1.9,1.3,2,3.4,2,3.4c2.1-0.7,4.2-1,4.2-1s3.5,4.4,4.4,11.7
	c0.9,7.2,2.6,8.5,8.1,12.3c4.5,3.1,8.3,5,12.6,5.2c0.5,0,1,0,1.5,0c4.8-0.2,3.2,5.5,3.8,8.7c0.6,3.2,17.9,12.1,17.9,12.1
	s4.8-4,7-6.5c2.2-2.4,4-1.2,8-2.4c3.9-1.2-0.5-3.4,0-6.9c0.5-3.4-1.3-2.2-3.5-5.9c-1.4-2.3-1.7-3.8-1.7-5.4c0-0.9,0.1-1.9,0.1-3
	c0-3,4.4-3.2,4-7.5c-0.4-4.2,0.2-7,1.1-11.5c0.9-4.4,1.9-3.6,4.1-5.5c1-0.8,1.9-2.1,2.6-3.5c0,0,0,0,0,0c0.9-1.7,1.4-3.6,1.4-5.1
	C145.7,150,143.1,146.3,138.9,142.9z"/>
<path class="st0" d="M139.5,99.9c-2,1.8-5.9,13-5.9,13s-0.4,5.2-2,5.8c0,0,2,1.4,3.6,1.3c1.6-0.1,2-1,5.2-3.3
	c0.9-0.6,1.6-0.9,2.1-0.9l3.7-2.5c-0.6-1-1.1-2.1-1.7-3c-1.4-2.2,2.6-9.3,2.6-9.3c0.4-0.8,0.9-1.3,1.6-1.6
	C148.9,99.4,141.5,98.1,139.5,99.9z"/>
<path class="st0" d="M195.8,129.9c-1.1,1-2.5,2.2-4.7,3c-3.8,1.3-6.1,1.1-9.1,0c-3-1.1-5.4-6.4-5.4-6.4s1.4-7.2-2.6-8.4
	c-4-1.2-7.5-1.3-9.7-2.6c-2.2-1.3-6.4-4.3-6.4-4.3c-2.6,1.4-5.6,3.8-8.3,4.2c-1.5,0.2-2.5-0.9-3.4-2.2l-3.7,2.5
	c1.3,0,1.9,1.7,3.7,4.2c2.6,3.5,1.8,4.2,6.4,6.5c4.6,2.4,3.9,7.1,6.1,12.4c2.2,5.2,7.9,6.9,10.3,8.3c2.4,1.4,1.3,6.9,1.4,7.3
	c1.6,0.6,3.6,1.4,4.9,2.1c0.3-0.4,5.6-6.6,5.6-7.9c0-1.4-2.8-3.8,0-5.4c2.8-1.6,5.1-1.4,7.3-3c2.2-1.6,5.6-3,5.6-3
	C195.5,133.8,198.4,132.9,195.8,129.9L195.8,129.9z"/>
<path class="st0" d="M222.5,318.1c-2.3-2.4-4.3-3.9-4.6-3.1c-0.3,0.8,0.8,2.2,0,3.1c0,0-0.2,0.2-0.4,0.4c-0.7,0.8-2.1,2.3-2.4,3.3
	c-0.4,1.3,0.4,5.4,0,7.3c-0.4,1.9,1.3,1.9,1.4,4.4c0.1,2.5-1.3,4.4,1.4,4.7c2.7,0.3,8.7-1,9.1-4c0.4-3.1-0.7-3.4-1.2-7.8
	C225.3,322,224.8,320.5,222.5,318.1z"/>
<path class="st0" d="M382.5,281.9c-0.8,0.3-1.8,0.5-2.8,0.6c-4.2,0.5-8.9-0.4-8.9-0.4c-4.4-1.3-7.1,3.5-9.4,6.6
	c-2.3,3.1,0,8.7,0,8.7c2.7,0.7,5.1,5.3,7,8c1.7,0.3,4.6-0.1,8.2,0c3.6,0.1,4.4-3.2,7.9-7.1c3.5-3.9,5.6-3.6,8.3-8.3
	c2.4-4.1,0.5-7,0.2-11.2C393.1,278.7,387,280.4,382.5,281.9z"/>
<path class="st0" d="M398.7,244.9c-0.2,0.6-2,2.8-1,6c1,3.2,2.2,7.9,4.6,6.4c2.4-1.5,5.5-3.3,5.2-8.2c-0.3-4.8,2.6-9.3,0-8.9
	C405,240.6,399.9,242.2,398.7,244.9z"/>
<path class="st0" d="M368.7,234.4c0,0,2.7-3.2,6.5-3.8c3.8-0.5,5.6-1.2,6.3,1.7c0.7,3,3.1,4.8,3.1,4.8l5.6,1.3
	c2.7-2,5.4-3.2,7.3-2.9c3.6,0.6,4.8,4.5,6.6,1.2c1.8-3.2,6.5-5.5,10.1-8.3c3.6-2.8,25-18.1,25-18.1s6.9-19,6.7-26
	c-0.2-7.1,6-12.9,4.8-17.1c-1.2-4.2-1.6-4.2-3-2.2c-1.4,2-3.8,0.6-4.3-4.8c-0.5-5.5,1.1-2.4,0-4.4c-1.1-2-0.3-2.4,2.5-2.8
	c2.8-0.4-4.2-3.8-8.1-6.3c-3.8-2.4-2.6-4-6.9-4.6c-4.2-0.6-4.4-6-4.2-9.7c0.2-3.6,5.6-9.9,6.3-13.1c0.6-3.2-2.2,0.4-4.2,2
	c-2,1.6-3.2,1.4-4.4,4.5c-1.2,3.1-6.6,4.6-6.6,4.6s-5.9-4.2-7.1-7.7c-1.2-3.4,3.8-4.4,3.8-4.4l3.8-5.2c0,0,0.8-7.5,2.4-10.1
	c1.6-2.6,3.2,0.4,5,2.8c1.8,2.4,0,5-0.8,7c-0.8,2,0.4,3,3.2,0.6s1.6-5.5,3-8.9c1.4-3.4,5.6-2.4,8.1-0.2c0.3,0.3,0.9,1,1.7,1.8
	l-0.4-2.4c0,0-2.4-2.4-4.2-3.4c-1.8-1-1-2.2,0.6-5.8c1.6-3.6,2.4-6.7,4-8.5c1.6-1.8,2.6-3.4,2.4-6c-0.2-2.6,1.8-2,2.2-4.8
	c0.2-1.3,1.3-2.4,2.5-3.3l0,0c0,0,1.7-7,0.1-8.6c-1.6-1.6-4.8-3.2-5-6c-0.2-2.8-0.6-4.1,1-5.1c1.6-1,3.2-2.1,2.6-4.3
	c-0.6-2.2,1.6-3.2-1.4-8.6c-3-5.5-3.8-9.1-5.5-7.9c-1.6,1.2-2,7.1-3.6,9.3c-1.6,2.2-2.2,4.8-4.5,2.8c-2.2-2-5.4-3.6-10.3-2
	c-4.8,1.6-7.9,2-7.9,2s-12.3-12.3-15.5-12.3c-3.2,0-2.8,3.7-5.9,3.3c-3-0.4-3.8-2.6-7.5,0.6c-3.6,3.2-7.5,4-5.2,6.5
	c2.2,2.4,4.6,4.8,3.8,7.3c-0.8,2.4,0,0.8,0.8,5.2c0.8,4.5,4.2,4.5-0.6,7.1c0,0-3.8,2-6.2,3c-0.4,0.2-0.8,0.2-1.2,0.2l0,0.4
	c0,0-0.2,9.3,3,11.9c3.2,2.6,7.1-3.2,11.1-4.7c4-1.5,3.6,1.1,4.6,3.7c1,2.6-3.6,3.8-7.9,7.7c-4.2,3.8-2.2,6.7-4.8,10.2
	c-2.6,3.6-6.5,1.3-9.5,2.9c-3,1.6,1.6,6.5,2.6,9.6c1,3.2-5.4,8.7-9.5,9.6c-4,0.9-11.7,7.4-14.9,10.4c-3.2,3-15.1-1.4-15.1-1.4
	l-14.6,1.4c0,0-6,2-8.9,2.4c-2.8,0.4-4.2-4.2-6.5-7.7c-2.2-3.4-14.1-3.6-17.5-3.6c-3.4,0-4.7-1.6-4.7-1.6c-2.5-3.9-0.1-7.6-3.1-10.5
	c-2.3-2.3-9-6.2-11.8-7.9c-2.1,0.5-5,0.9-6.4,1.8c-2,1.4-3.8,1.4-4,4.9c-0.2,3.4,0,6-2.4,4.8c-2.4-1.2-4-3.2-7.6,0
	c-3.6,3.2-1,10.1-3.6,10.9c-2.6,0.8-6-1.6-7.9,1.2c-1.1,1.8-0.6,8.8-0.8,13.9c-0.1,3-0.5,5.3-1.6,5.5c-3,0.4-6-0.4-9.3,1.8
	c-3.2,2.2-7.7,1.8-11.9,2c-3.6,0.2-7.8,3.5-9,4.4c1.6,1.1,3,2.4,4.7,3.2c3.2,1.5,1.2,4.1,2.4,8c0.6,2,1,3,1.5,4
	c0.5,1,1.1,1.9,2.2,3.4c2.1,3.1,8.1,5.8,8.5,5.9c2.3-1,4.7-0.7,6.9-1.3c3-0.7,4.2,0.5,4,2c-0.1,1.5-0.7,5.4-3.4,6.1
	c-2.7,0.7-3.6,4.3-3.6,4.3s2,5.2,0.4,5.4c-1.6,0.1-4,2-4,2s2.8,5.4,5.2,6.9c1.7,1,2.9,2.1,3.2,3.8c0,0,5.1-0.2,9.1,0.9
	c4,1.1,4.7,3.5,8.6,6.3c3.9,2.8,8.1,1.6,9.7,4.6c1.6,3,1.5,6.2,4.6,5c3.1-1.2,3.7-1.8,6.2-0.7c2.5,1.1,2.5,1.1,2.5,1.1
	c0.3-0.7,0.6-1.4,1-2.1c1.4-2.3,4.4-3.5,5.6-0.3c1.2,3.2,5.2,5.9,5.2,5.9s9.5,0,10.9-1.6c1.4-1.6-2.1-4.7,1-6.5
	c3.1-1.7,7.8-2.4,10.5-5.4c2.7-3,3.2-3.8,6.9-3.6c3.6,0.1,3.6-0.3,6.2,2c2.5,2.3,3.4,1.5,6.1,2.7c2.6,1.2,6.5,7.7,6.7,11.2
	c0.1,3.5-4.7,8.2-3.2,9.9c1.5,1.7,7.1-0.4,7.4,4c0.3,4.4,0,5.2,2.8,7.4c2.8,2.1,7.5,3.1,7.5,3.1l3.8-1.9c0,0,1.3-5.5,3.9-6.6
	c0.2-0.1,0.4-0.1,0.6-0.2C359.2,236.1,368.7,234.4,368.7,234.4z"/>
<path class="st0" d="M468.7,278.1l-5,10.9c0,0-6.2,5.9-5.2,7c1,1.1,9-4.2,9.3-6.4c0.2-2.2,0-1.8,1-4.6c1-2.8,2.2-2.2,2.2-5.3
	C470.9,276.7,470.1,275.1,468.7,278.1z"/>
<path class="st0" d="M479.8,261.3c-1.3-1.1-0.6-1.8-1.8-2.2c-0.4-0.1-1-0.2-1.6-0.1c-0.9,0-1.9,0.1-2.2,0.1c-0.5-0.1-0.5,1-0.5,1
	s0,0.9,0.7,1.1c0.7,0.2,1.9,1.1,2.1,1.8c0.3,0.7-0.1,1.9,0.7,2.3c0.8,0.4,3.4,1.1,3.4-0.2c0,0,0-0.1,0-0.1
	C480.4,263.3,481.1,262.3,479.8,261.3z"/>
<path class="st0" d="M492.9,253.5c-1.5-0.5-0.1-1.5,0.5-2.4c0.6-0.8-1.8-1.1-3.4-0.5c-1.5,0.6-4.2-0.7-5.7-0.4
	c-1.6,0.3-0.7,2.9-2,2.6c-1.3-0.3-4.4-3.2-4.4-3.2s-1.4-1.6-1.5-2.7c-0.5-3-2-3.5,0.1-5.4c2.2-1.9,4.2-2.6,3.3-5.5
	c-0.9-2.9-2.9-2.3-2.9-4.8c0-2.5,1.8-4.6-1.3-4.3c-3.1,0.3-4.8,1.6-6.5,2c-1.6,0.4-2.8,4.2-1.9,7.3c0,0,3.1,5.9,1.5,6.4
	c-1.6,0.5-3.5-3-2.1,2c1.3,5,1.6,9.5,3.4,8.5c1.7-1.1,5,1.9,5.2,3.5c0.1,0.5,0.6,0.7,1.2,0.7c1.3,0,3.2-1,3.4-2.6
	c0.6-0.3,1.5-0.6,2.6-0.3c1.8,0.5,1.5,0.8,2.9,1.9c1.3,1.1,1.1-0.5,0.4-2c-0.7-1.5,0.4-1.3,2.1-1.5c1.8-0.3,1.8,1.8,3.6,3.1
	c1.7,1.3,3.5,0.6,5,0.3c0.3-0.1,0.4-0.2,0.4-0.3C496.7,255.2,494.2,253.9,492.9,253.5z"/>
<path class="st0" d="M499.6,272.5c0,0-1.4-1.1-1.5-2.1c-0.1-1.1-0.3-2-0.7-2.2c-0.4-0.2-0.2,2.7-0.7,3.3c-0.5,0.6-2.1-0.4-2.1-0.4
	s-0.8-1.8-1.4-3.1c-0.6-1.3-2.3-1.4-2.3-1.4s-2-0.3-2-0.7c-0.1-0.5-1.7-1.4-1.7-1.4c-1-0.3-1.7,0.1-2.2,0.8
	c-0.2,0.3-0.3,0.7-0.4,1.1c-0.2,1.3,0.6,0.4,1.3,1c0.7,0.6-0.1,2.5-0.3,4.2c-0.2,1.6,0.3,1.1,1.5,1c1.1-0.1,1.1,0.1,1.6-0.7
	c0.5-0.8,1.8,0.1,2.6,0.7c0.8,0.6-0.5,3.2-0.5,3.2s-0.1,2.2,0.9,3c1.1,0.7,1.2,1.8,1.6,2.5c0,0.1,0.1,0.2,0.2,0.2
	c0.6,0,1.7-1.5,1.7-1.5l-0.7-2.1c0,0,0.2-1,1.4-1.3c1.1-0.3,1.3-0.3,1.7-1.3c0.3-1,4.1,0.2,4.1,0.2s0.8-1.5,0.6-2.8
	C502.1,271.2,499.6,272.5,499.6,272.5z"/>
<path class="st0" d="M505,255.9c-0.8-0.8-3.6-0.7-3.6-0.7s-2.2-0.8-2.8,0c-0.2,0.3-0.2,0.5-0.2,0.7c0.1,0.4,0.7,0.8,1.3,1.9
	c1,1.6,0.5,1.1,1.7,1.3c1.2,0.1,1.5,0.8,1.8,1.8c0.2,0.9-1.8,1-2.4,1.2c-0.6,0.2-1,1.3-0.4,2.5c0.6,1.3,1.3,1.1,2.9,2.4
	c1.6,1.3,0.3,1.7,2,1.9c0.1,0,0.3,0,0.4,0c1.2,0,0.1-0.7-0.7-2.2c-0.9-1.6-1.2-2-0.8-3c0.4-1,2.2-0.7,3.1-0.9c0.9-0.3,0-2.1-0.9-3.8
	C505.6,257.3,505.9,256.7,505,255.9z"/>
<path class="st0" d="M518.4,280c0,0-1.6-1.4-2.1-2.4c-0.5-1-0.5-2-0.5-2s-1.3-2.1-2-3.5c-0.7-1.4-2.5-1.4-2.5-1.4s-3.3-0.4-4.2,0.4
	c-0.1,0.1-0.1,0.1-0.2,0.2c-0.6,1,2.2,1.5,2.2,1.5s0.1,1.6-0.5,2.6c-0.6,1-3,0.7-3,0.7s0.2,2.3-0.3,3.4c-0.5,1-2.5,0.5-3.5,1.1
	c-0.9,0.7-0.3,1.3-0.7,2.1c-0.4,0.8-0.9-0.3-1.4-1c-0.5-0.7-2.7,0.1-2.7,0.1s-1.1,0.5-2,1.2c-0.6,0.4-1.1,0.8-1.2,1.2
	c-0.5,0.9-0.3,1.8-0.3,2.5c0,0.7-2.9,0.5-3.4,0.6c-0.5,0.1-0.4,5.8-0.4,5.8s0.6,2,1,1.7c0.4-0.3,1-4.2,1.1-5
	c0.1-0.9,0.6-0.5,1.6-0.6c1-0.1,0.9,0.9,1.6,1.2c0.7,0.3,3.4-1.5,3.4-2c0.1-0.5,0.1-2.5,1-2.5c0.9,0,3.8,0.5,4.4,1.5
	c0.6,1,0.2,5,0.2,5s1.3,1.3,3.1,1.8c1.8,0.5,1.7,0.6,2.7,1.2c1,0.6,3.4-0.4,3.4-0.4s1.5,0.5,2.2,0.8c0.7,0.3-0.3-3.8-0.3-5
	c-0.1-1.2-2.3-1.2-2.3-1.2s-1.2-0.9-0.5-1.7c0.7-0.8,0.8-0.2,0.8-1.9c0-1.7,0.5-0.7,1.9-0.5c1.5,0.1,1.5,0.7,2.9,1.3
	c1.4,0.7,0.7,1.7,1.5,1.8c0.8,0.1,0.1-2.9,0.1-5.5C519.5,280.7,518.4,280,518.4,280z"/>
<path class="st0" d="M690.6,350.7c-2.6,2-5.8-0.2-9.5-2.5c-3.6-2.2-5.9-0.6-9.1-0.4c-3.2,0.2-6.8-7.1-8.3-9.9
	c-1.4-2.8-4.4-4.2-4.4-4.2s-6.2-4.4-9.9-3.4c-3.6,1-7.6,12.1-7.6,12.1s-5.9,2.6-9.7,2.8c-0.4,0-0.8,0-1.2-0.1
	c-4.3-11.3-4.5-46.7-4.5-46.7c7.4,1.3,26.5,11.5,29.7,13.4c3.4,2,1.2,2.8,4.2,5.8c3,2.9,7,0.1,9.9,1.9c2.8,1.8-2.8,4.4-2.8,7.6
	c0,3.2,6.2,3.4,8.5,5.7c2.2,2.2-0.6,3.8,3,6.2c3.6,2.4,4.2,1.6,5.6,5.3c1.4,3.7,3.6,2.4,7.4,2.5
	C695.9,346.9,693.3,348.7,690.6,350.7z"/>
<path class="st0" d="M20.3,125c-3-0.7,0.2-2.9,2-4.3c1.8-1.4,3.6-2.4,4.6-4c1-1.6,0-3.7,0-3.7c-2.3,2.2-5.9,3.8-5.9,3.8
	s-5.6,6.5-9.3,7.9c-0.4,0.2-0.8,0.3-1.2,0.5c0,0,1.7,1.7,0,3.3c-1.7,1.6-1.9,3.6-3.9,5c0,0,0.8,2.8,3,3c2.2,0.2,4-1.2,6.8-2.8
	c2.8-1.6,2.6-0.8,7.1,0.4c4.4,1.2,4-3,5.8-4c0.5-0.2,0.8-0.5,1.1-0.9c0.7-1,0.4-2.4-0.5-4.1C28.8,122.7,23.4,125.7,20.3,125z"/>
<path class="st0" d="M66.1,162.6c-3.8-0.8-3-0.2-4.8,1c-1.8,1.2-3.5,2.6-3.5,2.6c0.6,0.3,1,0.5,1.3,0.6c2,1.2,1.4,3.2,2.6,5.5
	c1.2,2.2,3.5,1.3,3.5,1.3c0.2-1.3,0.7-2.7,1-3.9c0.4-1.3,2.1-2.2,3.9-2.8c0,0-0.1-2.1-2-3.4C67.5,163.1,66.9,162.8,66.1,162.6z"/>
<path class="st0" d="M85.4,98.5c-2.3,0.1-4.4,1.5-6.3-0.1c-0.8-0.7-1.9-1.6-2.8-2.3l-0.2,0.2v11.1c1.4-0.4,0.7,3.9,2.6,5.5
	c1.9,1.6,6,2.6,6,2.6s-0.5-4.6,0.7-6.9c1.2-2.3-0.1-4.2,0.7-6.3c0.7-1.9,2.3-1,2.6-0.9C87.8,100.1,86.9,98.4,85.4,98.5z"/>
<path class="st0" d="M88.4,205.4c-4.6,3.2-13.1-2.6-15.5-6.3c-0.3-0.5-0.5-1-0.6-1.4h0c0,0-0.4,9,1.9,11.3c2.3,2.3,6.9,4.8,9.5,7.1
	c2.7,2.3,4.8,0.6,4.8,0.6c0.1-0.6,0.1-1.2,0.2-1.7c0.3-2.7,2.6-2.1,4.7-4.6c2.1-2.4,5.4-5.3,5.4-5.3c-0.2-2.4,0.8-4,0.9-5.5
	c0-0.3-0.1-0.4-0.4-0.4C97.6,199.3,92.2,202.7,88.4,205.4z"/>
<path class="st0" d="M215.1,166.9c-1.1-1.6-1.7-2.5-2.2-3.4c0,0-2.1-1-4.5-2.2c-2.4-1.2-4.6-2.8-6.2-2c-1.6,0.8-2.3,2.1-5.2,3
	c-1.5,0.5-3,0.6-4.1,0.2c0,0-2.2-0.4-2,2.1c0.2,2.5,1.6,6.1-0.2,6.9c-1.8,0.8-3.2,4.6-3.2,4.6s-3.8-1.8-5.8,2.2c-2,4-1,4.2-5.2,7
	c-4.2,2.8-8.1,2.2-8.1,2.2l-6,4.8c0,0-2,3.6-8.1,3.6c-6,0-7.4-0.2-11.7-2c-4.2-1.8-10.1-5.2-10.1-5.2h-0.1c0,1.6,0.3,3.2,1.7,5.4
	c2.2,3.6,4,2.4,3.5,5.9c-0.5,3.4,3.9,5.6,0,6.9c-3.9,1.2-5.7,0-8,2.4c-2.2,2.4-7,6.5-7,6.5s26.8,3.4,30.6,4.2
	c3.4,0.7,4.4,9,7.2,12.9c0,0,1.7-4,5.8-3.2c4.2,0.8,11.2,1.4,12.3-1.1c1.1-2.4-2.9-4.3-2.6-7c0.3-2.7,0.1-5.8-1.7-5.9
	c-1.9-0.1-4.6,0.4-3.6-1.4c1-1.8,4.2-4.8,6.7-5.4c2.4-0.5,5.5,0,5.5,0s15.4-9.7,17.9-13.7c2.4-4-1.3-4.8,2.6-7.3
	c3.9-2.4,5.4-2.8,2.7-4.3c-2.7-1.5-5.4,1-5.2-4.3c0.1-5.3-3.1-8.1,0.1-9c3.2-1,8.2,2.3,8.2,2.3s9.8,3.8,12.6,1.2
	c0.6-0.6,1.3-1,1.9-1.3C223.2,172.6,217.2,170,215.1,166.9z"/>
<path class="st0" d="M228.6,132.9c-4.8,0.5-7.9-2.3-12.7-2.9c-4.8-0.6-5.2,0.4-9.3,0.2c-4-0.2-6.6-2.2-8.5-1.8
	c-0.8,0.2-1.5,0.8-2.4,1.5v0c2.6,2.9-0.2,3.8-1.9,7.1c-1.6,3.2,5.4,0.8,7.5,3c2,2.2-5,1.2-8.1,1.8c-3,0.6-6.9,1.6-4,3.2
	c2.8,1.6,6.7,0.2,10.5,1c1.8,0.4,3.2,1.2,4.5,2.2c1.1-0.9,5.3-4.2,9-4.4c4.2-0.2,8.7,0.2,11.9-2c3.2-2.2,6.3-1.4,9.3-1.8
	c1.1-0.2,1.5-2.5,1.6-5.5C236.1,134.6,233.4,132.4,228.6,132.9z"/>
<path class="st0" d="M298.4,246c-0.3-3.9,1.7-8.1-1.4-6.9c-3.1,1.2-3.3,2.3-4.4,0.1c-1.1-2.1,7.5-7.5,1.9-8.1
	c-5.6-0.5-5.8,3.4-8.3,0.3c-2.5-3.1-2.1-5.5-5.6-5.6c-3.5-0.1-5.8-2.2-5.9,0c-0.1,2.1,2.3,4.4,0.7,6c-1.6,1.6-3.3,1.1-0.6,3.5
	c2.7,2.4,3.5,2.6,3.9,6.5c0.4,3.8,0.1,8.5,0.1,8.8c1.3,0.7,2.8,1.5,4.7,1.4c1.9-0.2,4-1.2,5.7-2.3c2.2-1.4,5.1-0.4,6.2,1.9l1,2.2
	c0,0,0.2,0.2,0.6,0.6c0,0,0.8-2,1.2-4.5C298.4,248.6,298.5,247.2,298.4,246z"/>
<path class="st0" d="M359.5,330.8c0,0-10.3-3.8-11.5-7.9c-1.2-4-2-4-4.2-5.6c-2.2-1.6-2-5-0.2-11.7c0,0,0,0,0,0l-3.4-0.9
	c-0.1,0.2-0.2,0.5-0.3,0.7c-1.5,3.2-4.1,6-4.1,6c-0.3,2.3-0.5,4.4-0.8,5.9c-0.2,1.5,0.3,3,1.3,4.1l9.8,10.4c0,0,4.3-0.2,7.4,0.3
	c3.1,0.5,1.2,3.8,4.2,3.5c3-0.3,5.1-2.6,5.1-2.6C361.1,331.7,359.5,330.8,359.5,330.8z"/>
<path class="st0" d="M379.7,282.1l0,0.4c-4.2,0.5-8.9-0.4-8.9-0.4c-4.4-1.3-7.1,3.5-9.4,6.6c-2.3,3.1,0,8.7,0,8.7
	c-0.3-0.1-0.6-0.1-0.9-0.1c-4,0.2-8.9,0.6-9.1-1.8c-0.2-2.4-4.4-3.2-4.4-3.2s-1.6,6.6-3.4,13.3l-3.4-0.9c0.9-2.8-0.4-4.6-0.3-9.2
	c0.1-5-0.8-5.8-2.7-7.9c-1.9-2.2-1.5-6.9-0.8-11.7c0.7-4.8-3.1-5.8-5.1-7.7c-2-1.9,1.5-8.5,1.5-8.5s4.8-3.4,9.3-7
	c1-0.8,1.9-1.6,2.5-2.4c0,0,1.4,2.8,3,4.1c1.6,1.3,3.4,1.9,3.6,4.1c0.3,2.1-1.2,7,0.3,6.9c1.5-0.1,0.5-2,4.4-1.6
	c3.9,0.4,6-0.4,9.3-2.6c1.5-1,2.3-1.6,3-1.6c0.8,0,1.6,0.8,3.1,2.5c3,3.4,2.5,3.8,3.2,7.1c0.7,3.4,3.5,4.6,3.5,4.6L379.7,282.1z"/>
<path class="st0" d="M23.3,57.6c-0.6-3.2-9.7-2.6-11.3-0.4c-1.6,2.2,5.4,4.6,8.3,5.2c0.9,0.2,1.6,0.8,2.1,1.6l3.1-0.3
	C24.3,61.9,23.7,60,23.3,57.6z"/>
<path class="st0" d="M71.5,92.2L71.4,92c-0.2,0.2-0.4,0.3-0.6,0.5c-1.8,1.4-11.9-2.4-11.9-2.4s-9.5-9.5-10.7-13.1
	c-1.2-3.6-10.9-6.2-14.5-6.6c-3.6-0.4-4.6-2-6.9-4.6c-0.5-0.6-1-1.3-1.4-1.9L22.3,64c1.1,1.7,1.2,4.2-0.5,4.4
	C19.4,68.9,12,62.2,9.7,61c-2.2-1.2-6,15.7-6,15.7s3.6,4.8,3.4,8.9c-0.2,4,1.6,1.6,4.6,2.4c3,0.8,4.6,6.6,7.3,10.7
	c2.6,4,11.3,2.2,12.9,3.8c2.9-1.2,7.2,2.7,7.2,2.7s3.5,1.5,5.4,3.6c1.9,2.1,2.4,0.8,5.4,0c3-0.8,6.9,2.4,9.7,4
	c0.2,0.1,0.5,0.3,0.8,0.5c3.4,2,10.5,6.5,10.5,6.5s3.2-2.7,1.9-5.1c-1.3-2.4,2-7,3.4-7.4V96.3l0.2-0.2c-1.1-0.9-2-1.6-2-1.6
	L71.5,92.2z"/>
<path class="st0" d="M83.6,216.1c-2.7-2.3-7.3-4.8-9.5-7.1c-2.3-2.3-1.9-11.3-1.9-11.3s-1.9,0.7-2.8,0c-0.9-0.7-0.3-1.7-0.6-4.8
	c-0.3-3.1,0.6-2.4,0.6-2.4c-0.6-1-1.4-10.1-3.4-11.9c-1.2-1.1-1.2-3-0.8-5c0,0-2.3,1-3.5-1.3c-1.2-2.2-0.6-4.2-2.6-5.5
	c-0.3-0.2-0.7-0.4-1.3-0.6c-3.5-1.7-11.6-5.3-12.6-8.2c-1.2-3.4,3-5,1-8.1c-2-3-6.3-2.7-9.9-9.2c-3.6-6.5-5.7-11.6-5.7-11.6
	c-0.2,0.4-0.6,0.7-1.1,0.9c-1.8,0.9-1.4,5.2-5.8,4c-4.4-1.2-4.2-2-7.1-0.4c-2.8,1.6-4.6,3-6.8,2.8c-2.2-0.2-3-3-3-3
	c-1.9,1.3-3.7,1.6-3.9,1.7c-0.7,1.4-1.4,2.6-1.7,4c-0.4,2.4,0.8,14.3,1.4,20.8c0.6,6.5,1.6,12.3,1.8,15.5c0.2,3.2-3.2,10.3-3.2,10.3
	s0.8,8.1,2.6,10.1c1.8,2,1.4,16.9,1.4,16.9s0,4.8-0.9,9.2c0.2-0.2,3.4-3.1,7.1-3.6c3.9-0.5,11.9,5.1,17,6.9c5.1,1.7,1.6,2.7,3.6,3.8
	c2,1.1,6.8-3.4,9.4-4.4c2.5-1.1,17.7,4.2,22.6,5c2.1,0.3,5.6,0.4,8.9,0.4c2.6,0,5.2-0.6,7.6-1.6c2.4-1,4.5-2.5,6.4-4.4
	c0.7-0.7,1.1-1.6,1.2-2.6c0.1-1.2,0.3-2.9,0.5-4.4C88.4,216.8,86.3,218.4,83.6,216.1z"/>
<path class="st0" d="M97.5,105c0,0-1.1-1.8-3.4-0.5c-2.3,1.2-3.4-1.5-3.4-1.5h-0.4c0,0-0.1,0-0.1,0c-0.5-0.2-1-0.8-1.4-1.5
	c0,0,0,0,0,0c-0.3-0.2-1.9-1-2.6,0.9c-0.8,2.1,0.5,4-0.7,6.3c-1.2,2.3-0.7,6.9-0.7,6.9s2.7-3.4,4.8-2.6c2.1,0.8,4.7,2.1,2.7,3.5
	c-2,1.4-1.9,4.9-1.9,4.9s2.8-1,6.3,0c3.4,1,3.6-6.6,4.8-9.7c1.2-3-2.2-3.2-3.6-5.8C97.7,105.5,97.6,105.3,97.5,105z"/>
<path class="st0" d="M141.7,161.4c-2.2,1.8-3.2,1-4.1,5.5c-0.9,4.4-1.5,7.2-1.1,11.5c0.4,4.2-4,4.4-4,7.5c0,1.1-0.1,2.1-0.1,3h0.1
	c0,0,5.8,3.4,10.1,5.2c4.2,1.8,5.6,2,11.7,2c6,0,8.1-3.6,8.1-3.6l6-4.8c0,0,3.8,0.6,8.1-2.2c4.2-2.8,3.2-3,5.2-7
	c2-4,5.8-2.2,5.8-2.2s1.4-3.8,3.2-4.6c1.8-0.8,0.4-4.4,0.2-6.9c-0.2-2.5,2-2.1,2-2.1c-1-0.3-1.7-1.1-1.8-2.5
	c-0.2-2.8,2.4-5.9-0.4-6.9c-2.8-1-3.6,0.2-7.3,2.8c-3.6,2.6-5.8,2-6.8,1.2c-0.2-0.2-0.7-0.4-1.2-0.7c-1.3-0.7-3.3-1.5-4.9-2.1
	c-0.5-0.2-1-0.3-1.4-0.4c-2.2-0.6-5.6-1-7.9,1.6c-2.3,2.6-2.3,3.2-6.6,4c-4.2,0.8-4.2,2-7.5,0c-2.2-1.4-2.7-1.6-2.8-1.7c0,0,0,0,0,0
	C143.6,159.3,142.7,160.6,141.7,161.4z"/>
<path class="st0" d="M227.1,110.3c-3.2-0.8-7.9-0.8-10.1,1c-2.2,1.8-4,0.9-4.7,4.3c-0.7,3.4,3,6.4,0,5.8c-3-0.6-4.4-4-4.4-4
	c-0.2-0.6-1-1.4,1-3.6c2-2.2,5.2-5.4,8.1-5.4c2.8,0,3.6,1.2,5.6,0c2-1.2,10.9-2.2,9.7,0C231.1,110.4,230.3,111.1,227.1,110.3z"/>
<path class="st0" d="M260.6,94.5c-2.1-0.2-3.1-2.6-5.4-5.8c-2.3-3.2-9.5-0.8-12-2.8c-2.4-2-2.3-0.3-4.2-0.1
	c-1.9,0.1-9.8-17.2-12-18.7c-2.1-1.5-5.4,0.7-7.2,1.9c-1.8,1.2-6.8-1.4-9.4-2c-2.5-0.7-1.3-2.7-1.1-4.8c0.3-2.2-5.4-3.6-8.5-2.8
	c-3.1,0.8-24,2.1-24,2.1s-2-1.5-4.4-0.5c-2.4,0.9,0.4,2.1,0.8,3.6c0.4,1.5-2.7,2.7-5,3.4c-2.3,0.7-2.4,0.3-2.5,2.3
	c-0.1,2,5.8,2.3,5.8,4.6c0,2.3-7.8,2.1-7.8,2.1s-2.4-2.1-3.5-3.8c-1.1-1.6-13.3-3.2-13.3-3.2s-3-1.6-2.8-4c0.2-2.4-4.2-4.3-7.4-6.5
	c-3.2-2.1-7.5,0-10.6,0.1c-3.1,0.1-2.6,3.2-3.8,4.3c-1.3,1.1-2.1-2.5-3.9-4.7c-1.8-2.1-3.1,2.8-5.5,6.2c-2.5,3.4-2.8,2.4-2.9,5.1
	c-0.1,2.7,1.6,2,2.9,3.1c1.3,1.1,2.1,3.5,1.2,5.9c-0.9,2.4-1.2,4.5-1.2,4.5c1-0.6,2.3-1.6,4.2-2.5c4.4-2.2,7.7,0,10.9,1.6
	c3.2,1.6,2,4.8,3,8.7c1,3.8,1.8,3,1,4.6c-0.8,1.6-3-0.4-4.4-1.8c-1.4-1.4-3.7-2.2-4.2-2.5c-2.8-1.2-3.4,2.5-3.4,2.5s-1.8-1-3-2.7
	c-1.2-1.6-2.6,0.8-2.6,0.8l1,3.6c0,0,1,1.8,0.2,5.6c-0.8,3.8,2.6,4.4,8.1,11.1c1.6,2,2.4,3.1,2.6,3.9c0,0,3.7,2.3,5.4,1.7
	c1.6-0.6,2-5.8,2-5.8s3.8-11.2,5.9-13c2-1.8,9.4-0.5,9.4-0.5c2.1-0.8,5.3,0.1,6.6-0.5c1.8-0.8,5-2.6,5-2.6l0.6,3.4
	c0,0-1.6,1.6-0.4,5.8c1.2,4.2-0.2,4.2-2.8,5.6c0,0,4.1,3,6.4,4.3c2.2,1.3,5.6,1.4,9.7,2.6c4,1.2,2.6,8.4,2.6,8.4s2.4,5.3,5.4,6.4
	c3,1.1,5.2,1.3,9.1,0c2.1-0.7,3.5-2,4.7-3c0.9-0.8,1.6-1.4,2.4-1.5c1.8-0.4,4.4,1.6,8.5,1.8c4,0.2,4.4-0.8,9.3-0.2
	c4.8,0.6,7.9,3.4,12.7,2.9c4.8-0.5,7.5,1.7,7.5,1.7c0.2-5.1-0.3-12.1,0.8-13.9c1.8-2.8,5.2-0.4,7.9-1.2c2.6-0.8,0-7.7,3.6-10.9
	c3.6-3.2,5.2-1.2,7.6,0c2.4,1.2,2.2-1.4,2.4-4.8c0.2-3.4,2-3.4,4-4.9c1.4-1,4.3-1.3,6.4-1.8c-0.8-0.5-1.3-0.8-1.3-0.8
	S262.8,94.8,260.6,94.5z"/>
<path class="st0" d="M264.4,218.7c-3.1,1.2-3-2-4.6-5c-1.6-3-5.8-1.8-9.7-4.6c-3.9-2.8-4.6-5.2-8.6-6.3c-4-1.1-9.1-0.9-9.1-0.9
	c0.2,0.7,0.2,1.6,0,2.6c-0.5,3.5,0.3,10.1,3,10.6c2.7,0.5,7.3,3.8,11.2,3.9c3.9,0.1,5.1-1.6,8.1,1.1c3,2.7,11.4,5.1,14.6,3.4
	c2.3-1.2,3.1-2.8,3.8-4.4c0,0,0,0-2.5-1.1C268.1,216.8,267.5,217.5,264.4,218.7z"/>
<path class="st0" d="M320,355.3c-0.7-0.5-2.7-0.8-1.9,0c0.3,0.3,1.1,1.6,2.3,2c1.2,0.4,1.5-1,1.5-1S320.7,355.9,320,355.3z"/>
<path class="st0" d="M329.5,363.7c-1.2,0-1.4,0.9-1.4,0.9s1.6,3.2,3,3.1c1.3-0.1,2-1.1,1.1-2.2C331.2,364.5,330.7,363.7,329.5,363.7
	z"/>
<path class="st0" d="M338.3,376.2c-1.1,0-1.5,0.1-1.1,1.2c0,0,0.7,1.9,1.9,2.4c1.2,0.5,2.5,0.1,1.5-1
	C339.5,377.8,339.4,376.2,338.3,376.2z"/>
<path class="st0" d="M340.1,242.9c-2.8-2.1-2.5-3-2.8-7.4c-0.3-4.4-5.9-2.3-7.4-4c-1.5-1.8,3.4-6.5,3.2-9.9c-0.1-3.5-4-10-6.7-11.2
	c0,0-0.2,4.3-2.2,5.4c-2,1.1-4.2,0.3-6.9,4c-2.7,3.8-3.4,5.2-3.9,8.5c-0.5,3.2-0.7,3.1-4.4,8.2c-3.8,5.1-5,8.9-7.3,11.6
	c-2.2,2.5-3.5,1.9-3.6,1.8c-0.4,2.5-1.2,4.5-1.2,4.5c2,2.1,8.4,8.8,11.3,10.5c3.4,2,1.4,14.3,1.4,14.3s3,4.8,7.3,5.2
	c4.2,0.4,9.7-8.7,9.7-8.7s5.6,5.5,5.9,9.1c0.2,3.6,3.4,9.5,4.2,12.5c0.5,1.7-0.2,8.4-0.9,14.1c0,0,2.6-2.8,4.1-6
	c0.1-0.3,0.2-0.5,0.3-0.7c0.9-2.8-0.4-4.6-0.3-9.2c0.1-5-0.8-5.8-2.7-7.9c-1.9-2.2-1.5-6.9-0.8-11.7c0.7-4.8-3.1-5.8-5.1-7.7
	c-2-1.9,1.5-8.5,1.5-8.5s4.8-3.4,9.3-7c1-0.8,1.9-1.6,2.5-2.4c2.3-2.5,3-4.3,3-4.3S342.9,245,340.1,242.9z"/>
<path class="st0" d="M376.6,358.4c0,0-1.6,1.1-1.2,2.1c0.4,1.1,2.5,1.5,3.2,0.5c0.7-0.9,0.5-2.5,0-2.7
	C378.1,358.3,377.3,357.8,376.6,358.4z"/>
<path class="st0" d="M381.5,379.7c-3.2-0.1-3.2-0.1-5.1-3c-1.9-2.8-2.8-3.9-5-3.6c0,0-4.4,0.3-3.8-1.5c0.7-1.7,3.8-2.5,2.8-3.5
	c-0.9-1-4-2.2-5.2-3.8c-1.2-1.6,0.7-2.4-1.5-3.2c-2.2-0.8-8.1-4.7-9.7-5.5s-4.2,2.3-5.5,0.5c-1.3-1.7-1.1-3.2-2.4-3.9
	c-1.3-0.7-4-4-6.2-4.4c-2.2-0.4-4,0.7-5.5-1.1c-1.5-1.8-1.2-5.1-3.8-5.6c-2.6-0.5-12.8-1.4-14.1-1.4c-1.4,0-0.5,4.7,0.9,5.4
	c1.5,0.7,8.2,2.3,9,4.2c0.8,1.9,4.3,3.4,4.8,5.1c0.5,1.7,2.6,0.8,4.2,3c1.6,2.1,4.4,5.2,4.7,7.2c0.3,2,2.2,1.1,3.8,3.1
	c1.6,2,4,4.8,5,6.9c0.9,2,2.4,7.1,5.5,9.5c3.1,2.4,6.2,6.7,10.1,8.7c3.9,2,9.5,6.5,11.5,7.1c2,0.7,3.4-2.3,5.2-2
	c1.9,0.3,3.6,0.5,3.8-1.2c0.1-1.8,2.7-10.9,0.9-12.9C384.3,381.8,384.7,379.8,381.5,379.7z"/>
<path class="st0" d="M388.6,376.7c-1.5-0.8-2.1-2.1-2.8-2.7c-0.7-0.5-1.5,0-1.5,0c-0.1,0.1-2.1,1.1-0.9,2.2c1.2,1.1,3.5,0.2,3.3,1.9
	c-0.2,1.7,0.2,3.2,1.9,3.2c1.8,0,2.8-0.6,1.8-1.2C389.3,379.4,390.1,377.5,388.6,376.7z"/>
<path class="st0" d="M398.4,378.7c0,0-1.5,2.3,0,3.1c1.5,0.8,3.2,0.9,3.1-0.5c-0.1-1.5,2.4-2,1.1-3.2
	C401.2,377,399.1,377.1,398.4,378.7z"/>
<path class="st1" d="M376.3,230.5c3-0.5,4.6-0.7,5.2,1.9c0.7,3,3.1,4.8,3.1,4.8l5.6,1.3c-2.4,1.8-4.8,4.2-6.6,6.8
	c-1.6,2.1-2.5,4.6-3,6.8c-0.7,3.1,0.4,6.3,2.8,8.4l0,0c0.3,0.2,0.5,0.5,0.9,0.7c6.7,4.6,19.2,13.8,19.9,19.4c1,7.7,0.6,15.3-5,17.7
	c-5.6,2.4-11.1,11.1-11.1,11.1s-3.6,4.6-7.3,6c-2.2,0.8-2.3,0.2-2.6-1.2c-0.2-0.9-0.5-2.2-1.6-3.5c-1.7-2-2.9-2.4-4.2-2.7
	c-0.7-0.2-1.5-0.4-2.3-0.9c-0.5-0.3-1-1-1.6-1.8c0.9,0.1,2.2,0.1,3.7,0c1.3,0,2.9-0.1,4.6,0c2.5,0.1,3.7-1.5,5.4-3.8
	c0.7-1,1.5-2.1,2.6-3.3c1.4-1.6,2.6-2.5,3.7-3.3c1.6-1.2,3-2.2,4.6-5c1.7-2.9,1.2-5.2,0.7-7.8c-0.2-1.1-0.4-2.2-0.5-3.4
	c0-0.6-0.1-1.2,0-1.8c0.2-4,0.1-4.1-1.2-5.3c-0.4-0.4-1-0.8-1.6-1.6c-1.4-1.5-3.1-2.9-4.7-4.1c-1.6-1.3-3.1-2.5-4.4-3.9
	c-0.3-0.4-0.7-0.7-1.1-1h0c-2.9-2.2-7.8-3.4-7.8-3.4l-1-5.9c0,0-1.5-5.2-3.2-7.5c-1.1-1.5-2.8-1.1-4.5-0.8c-0.9,0.2-1.8,0.4-2.7,0.4
	c-2.5-0.1-5.6-6.2-5-6.5c3.3-1.1,12.8-2.9,12.8-2.9s2.7-3.2,6.5-3.8C375.6,230.6,375.9,230.5,376.3,230.5z"/>
<path class="st2" d="M381.5,232.4l0.5-0.1v0L381.5,232.4z M376.3,230.5l0.1,0.5l0,0L376.3,230.5z M384.6,237.2l-0.3,0.4l0.1,0.1
	l0.1,0L384.6,237.2z M390.2,238.5l0.3,0.4l0.9-0.6l-1-0.2L390.2,238.5z M383.5,245.3l0.4,0.3l0,0L383.5,245.3z M380.5,252.1l0.5,0.1
	v0L380.5,252.1z M383.3,260.5l0.1,0.5l1.1-0.1l-0.8-0.7L383.3,260.5z M383.3,260.5l-0.1-0.5l-1.2,0.1l0.9,0.7L383.3,260.5z
	 M384.1,261.2l-0.3,0.4h0L384.1,261.2z M404.1,280.6l-0.5,0.1v0L404.1,280.6z M399,298.3l-0.2-0.5l0,0L399,298.3z M387.9,309.4
	l0.4,0.3l0,0l0,0L387.9,309.4z M380.7,315.4l0.2,0.5l0,0L380.7,315.4z M378,314.3l0.5-0.1L378,314.3z M376.5,310.8l0.4-0.3l0,0
	L376.5,310.8z M372.3,308.1l0.1-0.5l0,0L372.3,308.1z M370,307.2l0.3-0.4l0,0L370,307.2z M368.4,305.4l0.1-0.5l-1.2-0.2l0.7,1
	L368.4,305.4z M372.1,305.4l0,0.5L372.1,305.4z M376.6,305.4l0-0.5l0,0L376.6,305.4z M382,301.5l-0.4-0.3l0,0L382,301.5z
	 M384.6,298.2l-0.4-0.3l0,0L384.6,298.2z M388.3,294.9l0.3,0.4L388.3,294.9z M392.9,289.9l0.4,0.2l0,0L392.9,289.9z M393.6,282.1
	l-0.5,0.1L393.6,282.1z M393.1,278.7l0.5,0l0,0L393.1,278.7z M393,276.9l-0.5,0v0L393,276.9z M391.8,271.6l-0.3,0.4L391.8,271.6z
	 M390.2,270l0.4-0.3l0,0L390.2,270z M385.5,265.9l0.3-0.4l0,0L385.5,265.9z M381.1,261.9l0.4-0.3l0,0L381.1,261.9z M380,260.9
	l-0.1-0.5l-1.3,0.2l1,0.7L380,260.9z M380,260.9l0.1,0.5l1.2-0.2l-1-0.7L380,260.9z M372.2,257.6l-0.5,0.1l0.1,0.3l0.3,0.1
	L372.2,257.6z M371.2,251.7l0.5-0.1l0,0l0,0L371.2,251.7z M368,244.2l-0.4,0.3v0L368,244.2z M363.6,243.4l-0.1-0.5l0,0L363.6,243.4z
	 M360.9,243.8l0-0.5h0L360.9,243.8z M355.9,237.3l-0.2-0.5l-0.1,0l-0.1,0L355.9,237.3z M368.7,234.4l0.1,0.5l0.2,0l0.1-0.1
	L368.7,234.4z M375.2,230.6l0.1,0.5h0L375.2,230.6z M382,232.3c-0.2-0.7-0.4-1.3-0.7-1.7c-0.4-0.4-0.8-0.7-1.3-0.8
	c-0.5-0.1-1.1-0.1-1.7-0.1c-0.6,0.1-1.3,0.2-2,0.3l0.2,1c0.8-0.1,1.4-0.2,2-0.3c0.6,0,1,0,1.3,0c0.3,0.1,0.6,0.2,0.8,0.5
	c0.2,0.3,0.4,0.7,0.5,1.3L382,232.3z M384.6,237.2c0.3-0.4,0.3-0.4,0.3-0.4l0,0l0,0c0,0,0,0,0,0c0,0,0,0,0,0c0,0,0,0,0,0
	c0,0,0,0-0.1-0.1c-0.1-0.1-0.2-0.1-0.3-0.2c-0.2-0.2-0.5-0.5-0.9-0.9c-0.7-0.8-1.4-1.9-1.7-3.3l-1,0.2c0.4,1.6,1.2,2.9,1.9,3.7
	c0.4,0.4,0.7,0.8,0.9,1c0.1,0.1,0.2,0.2,0.3,0.3c0,0,0.1,0.1,0.1,0.1c0,0,0,0,0,0c0,0,0,0,0,0c0,0,0,0,0,0c0,0,0,0,0,0v0
	C384.2,237.6,384.2,237.6,384.6,237.2z M390.3,238l-5.6-1.3l-0.2,1l5.6,1.3L390.3,238z M383.9,245.6c1.9-2.5,4.2-4.9,6.5-6.7
	l-0.6-0.8c-2.4,1.8-4.8,4.3-6.7,6.9L383.9,245.6z M381,252.2c0.5-2.2,1.4-4.6,2.9-6.6l-0.8-0.6c-1.6,2.2-2.5,4.7-3.1,7L381,252.2z
	 M383.6,260.2c-2.2-2-3.3-5-2.6-7.9l-1-0.2c-0.8,3.3,0.4,6.7,2.9,8.9L383.6,260.2z M383.3,261L383.3,261l-0.1-1l0,0L383.3,261z
	 M384.4,260.8c-0.3-0.2-0.5-0.4-0.8-0.6l-0.6,0.8c0.3,0.2,0.6,0.5,0.9,0.7L384.4,260.8z M404.6,280.5c-0.2-1.5-1.2-3.2-2.6-5
	c-1.4-1.7-3.3-3.6-5.3-5.4c-4.1-3.6-8.9-7.1-12.3-9.4l-0.6,0.8c3.4,2.3,8.1,5.7,12.2,9.3c2,1.8,3.8,3.6,5.2,5.3
	c1.4,1.7,2.2,3.2,2.4,4.5L404.6,280.5z M399.2,298.8c3-1.3,4.6-4,5.3-7.3c0.7-3.3,0.5-7.2,0-11l-1,0.1c0.5,3.8,0.6,7.6,0,10.7
	c-0.7,3.1-2.1,5.4-4.7,6.5L399.2,298.8z M387.9,309.4c0.4,0.3,0.4,0.3,0.4,0.3c0,0,0,0,0,0s0,0,0,0c0,0,0,0,0,0c0,0,0,0,0,0
	c0,0,0,0,0-0.1c0-0.1,0.1-0.2,0.2-0.3c0.2-0.2,0.4-0.6,0.7-1c0.6-0.8,1.4-2,2.5-3.2c2.1-2.5,4.8-5.2,7.5-6.3l-0.4-0.9
	c-2.9,1.3-5.8,4.1-7.9,6.6c-1,1.2-1.9,2.4-2.5,3.3c-0.3,0.4-0.5,0.8-0.7,1c-0.1,0.1-0.1,0.2-0.2,0.3c0,0,0,0.1,0,0.1c0,0,0,0,0,0
	c0,0,0,0,0,0c0,0,0,0,0,0l0,0C387.5,309.1,387.5,309.1,387.9,309.4z M380.9,315.9c1.9-0.7,3.8-2.3,5.2-3.7c0.7-0.7,1.3-1.3,1.7-1.8
	c0.2-0.2,0.4-0.4,0.5-0.6c0.1-0.1,0.1-0.1,0.1-0.2c0,0,0,0,0,0c0,0,0,0,0,0c0,0,0,0,0,0l0,0c0,0,0,0,0,0s0,0-0.4-0.3
	c-0.4-0.3-0.4-0.3-0.4-0.3l0,0l0,0c0,0,0,0,0,0c0,0,0,0,0,0c0,0,0,0,0,0c0,0-0.1,0.1-0.1,0.1c-0.1,0.1-0.3,0.3-0.5,0.5
	c-0.4,0.4-0.9,1.1-1.6,1.7c-1.4,1.3-3.1,2.8-4.8,3.4L380.9,315.9z M377.6,314.4c0.1,0.3,0.2,0.7,0.3,0.9c0.1,0.3,0.3,0.6,0.6,0.8
	c0.3,0.2,0.7,0.2,1.1,0.2c0.4,0,0.9-0.2,1.4-0.4l-0.4-0.9c-0.5,0.2-0.9,0.3-1.2,0.3c-0.3,0-0.4,0-0.4,0c-0.1,0-0.1-0.1-0.2-0.3
	c-0.1-0.2-0.1-0.5-0.2-0.8L377.6,314.4z M376.1,311.1c1,1.2,1.3,2.4,1.5,3.3l1-0.2c-0.2-0.9-0.5-2.3-1.7-3.7L376.1,311.1z
	 M372.1,308.6c0.6,0.2,1.2,0.3,1.8,0.7c0.6,0.3,1.3,0.9,2.1,1.9l0.8-0.6c-0.9-1.1-1.6-1.7-2.4-2.1c-0.7-0.4-1.4-0.6-2.1-0.8
	L372.1,308.6z M369.7,307.6c0.9,0.6,1.7,0.8,2.4,1l0.3-1c-0.7-0.2-1.4-0.4-2.1-0.8L369.7,307.6z M368,305.6c0.6,0.8,1.2,1.6,1.8,2
	l0.5-0.8c-0.4-0.2-0.9-0.8-1.5-1.7L368,305.6z M372,304.9c-1.5,0.1-2.7,0.1-3.6,0l-0.2,1c1,0.2,2.3,0.1,3.8,0.1L372,304.9z
	 M376.7,304.9c-1.7-0.1-3.3,0-4.6,0l0,1c1.3,0,2.9-0.1,4.5,0L376.7,304.9z M381.6,301.2c-0.8,1.2-1.5,2.1-2.3,2.7
	c-0.7,0.6-1.5,0.9-2.7,0.9l0,1c1.4,0.1,2.4-0.4,3.3-1.1c0.9-0.7,1.6-1.8,2.4-2.9L381.6,301.2z M384.2,297.9
	c-1.1,1.2-1.9,2.3-2.6,3.3l0.8,0.6c0.7-1,1.5-2.1,2.5-3.2L384.2,297.9z M388,294.5c-1.1,0.8-2.3,1.7-3.8,3.4l0.7,0.7
	c1.4-1.5,2.6-2.4,3.7-3.2L388,294.5z M392.5,289.7c-1.5,2.7-2.9,3.7-4.5,4.9l0.6,0.8c1.6-1.2,3.1-2.3,4.7-5.2L392.5,289.7z
	 M393.1,282.2c0.5,2.6,0.9,4.7-0.6,7.5l0.9,0.5c1.8-3.1,1.3-5.6,0.7-8.2L393.1,282.2z M392.6,278.7c0.1,1.3,0.3,2.4,0.5,3.5l1-0.2
	c-0.2-1.1-0.4-2.1-0.5-3.3L392.6,278.7z M392.5,276.8c0,0.7,0,1.3,0,1.9l1-0.1c0-0.6-0.1-1.1,0-1.8L392.5,276.8z M391.5,272
	c0.7,0.6,0.9,0.8,1,1.3c0.1,0.3,0.1,0.7,0.1,1.2c0,0.6,0,1.3-0.1,2.3l1,0.1c0.1-1,0.1-1.8,0.1-2.4c0-0.6,0-1.1-0.1-1.5
	c-0.2-0.8-0.7-1.3-1.3-1.8L391.5,272z M389.8,270.3c0.7,0.8,1.3,1.3,1.7,1.6l0.7-0.7c-0.4-0.4-0.9-0.8-1.6-1.6L389.8,270.3z
	 M385.2,266.2c1.6,1.3,3.2,2.6,4.6,4.1l0.7-0.7c-1.5-1.6-3.1-2.9-4.7-4.2L385.2,266.2z M380.7,262.3c1.3,1.4,2.9,2.7,4.5,4l0.6-0.8
	c-1.6-1.3-3.1-2.5-4.4-3.9L380.7,262.3z M379.7,261.3c0.4,0.3,0.7,0.6,1,0.9l0.7-0.7c-0.3-0.4-0.7-0.7-1.2-1.1L379.7,261.3z
	 M379.9,260.4L379.9,260.4l0.1,1h0L379.9,260.4z M372.2,257.6c-0.1,0.5-0.1,0.5-0.1,0.5l0,0l0,0c0,0,0,0,0,0c0,0,0,0,0,0
	c0,0,0,0,0,0c0,0,0.1,0,0.2,0c0.1,0,0.3,0.1,0.6,0.2c0.5,0.1,1.2,0.4,1.9,0.6c1.6,0.6,3.4,1.4,4.9,2.4l0.6-0.8
	c-1.5-1.1-3.5-2-5.1-2.6c-0.8-0.3-1.5-0.5-2-0.7c-0.3-0.1-0.5-0.1-0.6-0.2c-0.1,0-0.1,0-0.2,0c0,0,0,0,0,0c0,0,0,0,0,0c0,0,0,0,0,0
	c0,0,0,0,0,0l0,0C372.3,257.1,372.3,257.1,372.2,257.6z M370.8,251.8l1,5.9l1-0.2l-1-5.9L370.8,251.8z M367.6,244.5
	c0.8,1.1,1.6,2.9,2.2,4.5c0.3,0.8,0.5,1.5,0.7,2c0.1,0.3,0.1,0.5,0.2,0.6c0,0.1,0,0.1,0,0.2c0,0,0,0,0,0c0,0,0,0,0,0c0,0,0,0,0,0
	c0,0,0,0,0,0l0,0c0,0,0,0,0.5-0.1c0.5-0.1,0.5-0.1,0.5-0.1h0v0c0,0,0,0,0,0c0,0,0,0,0,0c0,0,0,0,0,0c0,0,0-0.1-0.1-0.2
	c0-0.2-0.1-0.4-0.2-0.6c-0.2-0.5-0.4-1.3-0.7-2.1c-0.6-1.6-1.4-3.5-2.3-4.8L367.6,244.5z M363.7,243.9c0.9-0.2,1.6-0.4,2.3-0.3
	c0.6,0,1.2,0.3,1.7,0.9l0.8-0.6c-0.7-0.9-1.5-1.2-2.4-1.3c-0.8-0.1-1.7,0.2-2.6,0.3L363.7,243.9z M360.9,244.3
	c1,0.1,1.9-0.2,2.8-0.4l-0.2-1c-0.9,0.2-1.7,0.4-2.5,0.3L360.9,244.3z M355.6,236.8c-0.2,0.1-0.3,0.4-0.3,0.5c0,0.1,0,0.3,0,0.4
	c0,0.2,0.1,0.6,0.3,0.9c0.3,0.7,0.7,1.5,1.2,2.3c0.5,0.8,1.1,1.6,1.8,2.2c0.7,0.6,1.4,1.1,2.2,1.2l0.1-1c-0.5,0-1-0.3-1.6-0.9
	c-0.6-0.6-1.2-1.3-1.7-2.1c-0.5-0.8-0.9-1.5-1.1-2.1c-0.1-0.3-0.2-0.5-0.2-0.7c0-0.1,0-0.1,0-0.1c0,0,0,0,0,0.1c0,0-0.1,0.1-0.1,0.2
	L355.6,236.8z M368.7,234.4c-0.1-0.5-0.1-0.5-0.1-0.5h0c0,0,0,0,0,0s0,0,0,0c0,0,0,0,0,0c0,0,0,0-0.1,0c-0.1,0-0.2,0-0.3,0.1
	c-0.3,0.1-0.7,0.1-1.1,0.2c-0.9,0.2-2.2,0.4-3.6,0.7c-2.8,0.6-6,1.3-7.7,1.9l0.3,0.9c1.6-0.5,4.8-1.3,7.6-1.8
	c1.4-0.3,2.7-0.5,3.6-0.7c0.5-0.1,0.9-0.2,1.1-0.2c0.1,0,0.2,0,0.3-0.1c0,0,0.1,0,0.1,0c0,0,0,0,0,0c0,0,0,0,0,0c0,0,0,0,0,0l0,0
	C368.8,234.9,368.8,234.9,368.7,234.4z M375.1,230.1c-2,0.3-3.7,1.3-4.9,2.2c-0.6,0.5-1.1,0.9-1.4,1.2c-0.2,0.2-0.3,0.3-0.4,0.4
	c0,0-0.1,0.1-0.1,0.1c0,0,0,0,0,0c0,0,0,0,0,0c0,0,0,0,0,0c0,0,0,0,0,0h0c0,0,0,0,0.4,0.3c0.4,0.3,0.4,0.3,0.4,0.3h0l0,0
	c0,0,0,0,0,0c0,0,0,0,0,0c0,0,0,0,0,0c0,0,0-0.1,0.1-0.1c0.1-0.1,0.2-0.2,0.3-0.4c0.3-0.3,0.7-0.7,1.3-1.1c1.1-0.8,2.6-1.7,4.4-2
	L375.1,230.1z M376.2,230c-0.4,0.1-0.7,0.1-1.1,0.2l0.1,1c0.4-0.1,0.8-0.1,1.1-0.2L376.2,230z"/>
<path class="st0" d="M405,402.2c-2,0-2.8-2.2-2.8-2.2c-0.6-1-1.9,0-3.6,0c-1.7,0-2.7-2-4.8-1.9c-2.1,0.1-5.9,2-7,1.9
	c-1.1-0.2-1.8-0.4-2,1c-0.1,1.4-1,1.5,0,4c0.9,2.6,2.7,0.3,3.8,1.4c1.1,1.1,5,0.7,8.1,0.4c3.1-0.3,4,1.5,6.5,1.9
	c2.4,0.4,8.2-2.4,8.2-2.4s0.1,0,0.2,0l-0.1-4C408.7,402.4,406,402.2,405,402.2z"/>
<path class="st0" d="M433.1,402.3c-1.5,0.1-4.2-2-5.2-3.2c-1.1-1.2-9.4-1-9.4-1s-1.6,1.4-2.3,3c-0.3,0.8-2.5,1.1-4.9,1.1l0.1,4
	c0.8,0.1,3.9,0.5,6,1.3c2.4,0.9,9.1,0.8,11.3-0.4c2.1-1.2,13.6-1.5,13.6-1.5s1.6-1.9,0.5-2.8C441.7,402,434.6,402.2,433.1,402.3z"/>
<path class="st0" d="M448.1,402.3c0,0-3.2-0.3-2.6,1.2c0.6,1.5,1.2,2.3,2.6,1.7c1.4-0.6,3.2-2.9,2.4-2.9
	C449.7,402.3,448.1,402.3,448.1,402.3z"/>
<path class="st0" d="M454.1,98.9c-1.9-0.8-3.4-1.3-4.1-1.4c-2-0.4-3.4-2.4-1.2-7c2.2-4.6,1.6-5,0-6.7c-1.6-1.6-0.2-8.1,1.6-12.3
	c0.2-0.5,0.4-1,0.6-1.4c0,0-1.6,0.7-3,1.8c-1.2,0.9-2.3,2-2.5,3.3c-0.4,2.8-2.4,2.2-2.2,4.8c0.2,2.6-0.8,4.2-2.4,6s-2.4,5-4,8.5
	c-1.6,3.6-2.4,4.8-0.6,5.8c1.8,1,4.2,3.4,4.2,3.4l0.4,2.4c1.5,1.6,3.6,3.6,5,3.4l1.6-0.2l3.6-0.8c0,0,0.3-3.6,0.1-6.6
	C451,99,454.1,98.9,454.1,98.9z"/>
<path class="st0" d="M461,197.4c-0.3-5.5,0.8-7.9-0.9-8.2c-1.8-0.3-3-0.1-3.2,2.5c0,0,0.1,1.9-0.7,5c-0.8,3.1-1.6,3-0.4,6.3
	c1.2,3.4,4.8,7.9,5.6,6.3c0.8-1.6-1.1-2.8-0.1-6.3C462.2,199.6,461.3,202.9,461,197.4z"/>
<path class="st0" d="M467.6,337.9c-0.3-1.1,1.1-4.6-0.3-6.5c-1.4-1.9-4.4-1.8-3.9-3.1c0.5-1.3,0.9-2.3,1.7-4.6
	c0.2-0.5,0.5-0.9,0.9-1.3c-1.8,1.5-9.4,0.8-9.4,0.8s-3.2-0.2-4.8,3.9c-1.6,4.1-0.1,3.2-2,5.6c-1.9,2.4-2.4,5.5-2.4,5.5l-5.2,8.9
	c0,0-4.7,1.2-8.1,0c-3.3-1.2-5.5,0-5.5,0s-0.8,2.3-1.9,4.2c-1.1,1.9-8.9,1-10.5,0.6c-1.6-0.4-2.8-2.5-2.8-2.5
	c-1.7,0.3-3.2,0.8-3.7,1.7c-1,1.9-1.6,3.6-1.6,3.6s-1.2,5.2,0,7.9c1.2,2.7,4.4,2.2,5,5c0.5,2.8,1.3,8.7,3.2,9
	c1.9,0.3,7.5-2.4,8.2-1.6c0.7,0.8,1.1,3.9,3.8,3c2.7-0.9,7.8-3.5,11-3.3c3.2,0.3,4.3,2.4,5.5,2.5c1.2,0.1,2.5,5,4.2,2.5
	c1.6-2.5,4.7-3.7,4.7-3.7s4.3-1.8,4.8-3.2c0.5-1.5-1.4-8.8,0-11.3c1.3-2.5,4.7-3.9,6-6.8c1.3-3,1.6-7.7,2.3-9.4
	c0.7-1.7,0.5-3,2.3-3.6c1.7-0.7,6.9-3.8,5.8-3.9C473.8,337.7,467.9,338.9,467.6,337.9z"/>
<path class="st0" d="M473.7,398.2c0,0-6.6-0.3-7.6,0c-1,0.3,0.2,1.2-2.2,1.9c-2.4,0.6-5.6-0.4-7.7,1c-2,1.4-5,3.6-3,4.2
	c2,0.6,11.7,2.2,12.9,0c1.2-2.2,1.6-2.3,4.4-3.1c2.8-0.8,6.6-2.3,5.4-3.2C474.7,398.1,473.7,398.2,473.7,398.2z"/>
<path class="st0" d="M485.4,374.4c-0.1-2.8,0.7-5.2-0.1-7.4c-0.1-0.4-0.3-0.7-0.4-1.1l-4.4,0.2c0.1,0.2,0.2,0.4,0.2,0.6
	c0,1.9-0.7,7.3,0,10c0.7,2.7,6.6,2.1,6.4,1.4C486.7,377.4,485.5,377.3,485.4,374.4z"/>
<path class="st3" d="M484.3,38.8l-3.9,0.1c0.6,1.7,0.4,3,0.8,4.2c0.5,1.5,4.2,0.3,5,2.7c0.8,2.4,2.2,3,2.4,0c0.3-3,1.6-6.7-0.1-5.9
	C486.7,40.7,484.3,38.8,484.3,38.8z"/>
<path class="st0" d="M486,403.5c0,0-2.6-2.3-4.6-1.2c-2,1.1-5.9,1.9-5.5,3.1c0.4,1.2,3.4-1,5.5,0c2,1,2.2,3.4,4.6,2
	c2.4-1.4,5.2-3.1,3.6-3.6C488,403.3,486,403.5,486,403.5z"/>
<path class="st3" d="M489.5,117.5c-2.1-1.2-3,0.3-5-0.5c-1.9-0.8-3.6-2-4.2-0.7c-0.2,0.5-0.3,1.3-1.5,3c-1.2,1.6,0.1,4.4,0.1,4.4
	h2.7c0,0,2.5-0.9,2.8,1c0.4,1.9-0.8,5,2.4,5.4c3.2,0.4,4,0.4,3.2-2C489.4,125.5,491.7,118.7,489.5,117.5z"/>
<path class="st3" d="M490.9,1.3c0,0,0.2,4,0,6.6c-0.2,2.6-1.2,8.1,0,6.1c1.2-2,3.2-8.5,2.8-10.7C493.3,1.1,491.8,0.5,490.9,1.3z"/>
<path class="st3" d="M493.7,18.7c-1.7-2.4-3.4-1.1-3.4-1.1s0.5,1.5-1.7,2.4c-2.1,1-2.8,2.2-2.8,2.2s-0.5,0.3-3.6,0.9
	c-3.1,0.7-8.1-1.1-8.3,0.5c-0.3,1.6-1.4,2.3,1.2,3.5c2.5,1.2,8.7,5,6.9,7c-1.9,2-3.3,1.4-2.1,3.6c0.2,0.4,0.4,0.8,0.5,1.2l3.9-0.1
	c0,0,0-2.7,2.5-3.5c2.5-0.8,7.9-0.9,6.8-3.9c-1.1-3-3.3-4.3-1.4-6c1.8-1.8,4.3-3.1,3.3-5C494.6,18.5,495.4,21,493.7,18.7z"/>
<path class="st3" d="M493.7,68.1c0,0-0.6,2.7,0.6,3.4c1.2,0.7,1.2-0.5,1.4-2c0.2-1.5-0.8-2.8-1.1-2.8
	C494.4,66.7,493.7,68.1,493.7,68.1z"/>
<path class="st3" d="M493.6,102l-0.7,2.4c0,0,0.5,1.9-1.1,3c-1.4,1-2,1.1-2.2,2.5c0,0.2,0,0.4-0.1,0.7c-0.1,2.1,1.9,5.4,3.4,5
	c1.5-0.4,1.1-2.4,1.8-4.8c0.7-2.4,3-2.1,2.1-4.7C495.8,103.5,493.6,102,493.6,102z"/>
<path class="st0" d="M503.1,341.8c-0.9-0.1-1.1,2.6-3.4,2.5c-2.3-0.1-4.8-1.6-6.3,1c-1.5,2.5-0.2,6.3-2.9,6.6
	c-2.7,0.3-6.6-1.6-7-3.9c-0.2-1.2-0.6-2.6-0.7-3.9l-1.7,0c0.1,1.6,0.1,3-0.6,3.7c-1.6,1.6-3,1.5-2.6,5c0.4,3.5,0.6,6.5-0.8,7.7
	c-1.5,1.2-1.5,1.6-0.8,3.2c0.6,1.4,3.4,1.3,4.1,2.5l4.4-0.2c-0.7-1.9-1.3-3.7-0.2-4.3c1.3-0.7,4.6-1.6,5,0c0.4,1.6-0.1,2.2,2,3.4
	c2.1,1.2,1.3,3.9,2.5,4.9c1.2,1,1.1,4.6,2.6,3.9c1.5-0.7,2.5-3.1,3.6-1.8c1.1,1.4,4.4,4.2,4.4,2.7c-0.1-1.5,1.4-7.9,0-9
	c-1.4-1.1-5.3-2.6-5.3-4.7c0-2.1,0.3-3.9-1.7-5c-2-1.1-5.2-1.8-4.3-3.9c0.9-2.1,6.6-5.8,8.9-6.5c2.3-0.7,5.6-2.4,4.4-2.8
	C505.5,342.4,504,341.9,503.1,341.8z"/>
<path class="st0" d="M504.8,388c0,0,0.5,0-2.5,2.4c-3,2.4-6.7,3.2-8.9,3.6c-2.2,0.4-6.9-1-8.9,0c-2,1-5.6,2.2-4,3
	c1.6,0.8,10.3,3.2,11.9,1.1c1.6-2.1,7.8-4,9.8-4.7c2-0.7,8.1-5.3,6.9-5.5C508,387.8,506.3,386.3,504.8,388z"/>
<path class="st3" d="M509.4,65.3c-3-1.9-5.7-0.5-5.1-4.2c0.6-3.6,2-3.5,0-7.4c-2-3.9-3.5-14.4-10.6-8.6c-0.9,0.7-2,1.3-2.9,4.6
	c-0.9,3.2,1.4,6.5,1.4,6.5l5.9,8.7c0,0,1.9,7.9,0.3,10.3c-1.6,2.4-0.8,6.3-2.6,5.1c-1.8-1.2-1.8-5.1-2.9-3.4
	c-1.1,1.7,0.8,5.9,0.8,5.9s1.2,3.8,1.2,7c-0.1,3.2-0.7,2.2-2.9,4c-2.2,1.8-2,2.9-4.7,4.3c-2.7,1.5-4.7-0.4-4.7,4.4
	c0,4.8-0.9,7.5-0.8,9.8c0.1,2.3,2.3,0.8,3.9,0.1c0.7-0.3,0.8-1.5,1-3c0.2-2,0.4-4.5,2-5.3c1.3-0.7,1.8-1.6,2.3-2.5
	c0.5-0.9,1.1-1.9,2.8-2.9c3.3-2,4.5-1.6,4.4,0c-0.1,1.6,1.1,3.5,3.5,3.4c2.4-0.1,2.8-0.1,2.7-3.6c-0.1-3.5-2-3.2-2.1-5.5
	c-0.1-2.3,2-3,2-3s3.9,2.7,4.6-1.1c0.7-3.8,1.1-7.1,3-9c1.9-1.9,4.4-4,1.6-6.6C510.5,71,512.4,67.2,509.4,65.3z"/>
<path class="st0" d="M514,323.2c0,0-1.6,5.1-6.3,6.3c-4.6,1.2-6.9-0.4-11.3,2c-4.4,2.4-7.8,0.8-8.6,2.8c-0.8,2-0.8,2.8-2.5,3
	c-1.7,0.1-3-1.3-3.9,1.2c-0.5,1.4-0.2,3.6-0.1,5.6l1.7,0c-0.1-1.2,0.1-2.2,1.1-2.7c1.9-1.1,6.3-2.8,8.3-5.1c2-2.3,8.7-0.3,10-1.9
	c1.3-1.6,8.6-1.5,10.6-3.9c2-2.4,4.6-7,4-8.2C516,320.3,514,323.2,514,323.2z"/>
<path class="st0" d="M524.5,378.7c-1.4,2-2,4.6,0,3.7c2-0.9,5.3-1.4,5.6-3c0.4-1.6-0.8-3.9-2.2-3.2
	C528,376.2,525.9,376.7,524.5,378.7z"/>
<path class="st0" d="M528,347.3c-2.2,1.6-6.4,1.5-4.7,2.9c1.7,1.4,4.1,4.4,6.6,3.4c2.5-1,1.9-5,1.9-5S530.2,345.7,528,347.3z"/>
<path class="st0" d="M530.6,382.4c0,0-4.2,3-7.7,3.6c-3.4,0.6-5.1-0.8-5.9,2c-0.8,2.8-0.4,3.6-3.4,5.1c-3,1.5-1.2,0.5-3.4,3.8
	c-2.2,3.2-1.4,5.8,1,5.1c2.4-0.7,6.2-4.9,7.3-7.3c1-2.4,4.6-3.4,7.6-5.9c3-2.4,9.3-5.5,8.1-6.4C533,381.6,530.6,382.4,530.6,382.4z"
	/>
<path class="st0" d="M537.9,387.2c0,0-0.6,3,0,3.8c0.6,0.8,1.6-0.4,1.6-1.9C539.5,387.6,538.1,385.2,537.9,387.2z"/>
<path class="st0" d="M535.6,315.6c-2,2-1.3-5.3-1.3-5.3c-1.9-1.8-2.8,1.2-3.2,4.2c-0.4,3-0.6,2.4,0.7,4.2c1.3,1.8,0.7,2.6,1,5.6
	c0.2,3,3.2,4.2,5.6,4.4c2.4,0.2-2-3.8-2.6-6.5c-0.6-2.6,1.6-1.4,1-3.6c-0.6-2.2,2.8-3.4,2.6-5.5
	C539.3,311.4,537.6,313.6,535.6,315.6z"/>
<path class="st0" d="M534.4,333c0,0-3.9,1.2-2.5,2.4c1.4,1.2,2,1.4,4.4,0.4c2.4-1,4.9-2.4,3.2-2.8C537.9,332.6,534.4,333,534.4,333z
	"/>
<path class="st0" d="M551.8,318.4c1.3,1.5,3.7,1.4,4.2-0.2c0.9-2.6-1.6-2.6-1.6-2.6S549.3,315.6,551.8,318.4z"/>
<path class="st0" d="M550.5,336.4c-3.2,1.2-4.6,3.4-7.5,4.6c-2.8,1.2-8.2,2.3-5.5,3.3c2.7,1,9.7,1.8,11.8-0.8c2-2.6,6.3,0.6,7.9-1.2
	c1.6-1.8,1.6-0.8,0-3.6C556.9,338.1,553.8,335.3,550.5,336.4z"/>
<path class="st0" d="M563.7,359.9c0,0-1,3.7-2.8,5.8c-1.8,2.1,0.8,0.5,2.8,0c2-0.5,3.2-2.6,2.4-4
	C565.3,360.2,564.9,357.2,563.7,359.9z"/>
<path class="st0" d="M583.2,342.6c-0.8,0.6-0.6,0.8-0.8,4.1c-0.2,3.3-1.2,6,0,7.8c1.2,1.8,1.6,1.8,1.8-0.8c0.2-2.6,4.2-6.5,3.6-8.5
	C587.2,343.3,585.4,340.8,583.2,342.6z"/>
<path class="st0" d="M588.2,305c-0.3,0.2-1.8,0.8-1.2,1.9c0.6,1.1,1.8,0.3,2.9,0.5c1.1,0.2,2.2-0.4,1.4-1.6
	C590.6,304.6,589.1,304.5,588.2,305z"/>
<path class="st0" d="M631,345.1c-3.1-0.5-4.8-3.6-7.3-4.4c-2.8-1-8.1,5.4-10.9,8.4c-2.8,3-4.6,1.6-3-2.3c1.6-3.9,4.6-8.4,4.6-8.4
	s-2.8-7.9-3.8-9.5c-1-1.6-11.5,0-16.1,2.2c-4.6,2.2-11.9,0-11.9,0s-3.2-1.8-6.2,0.6c-3,2.4-0.6,3.8-2,4.7c-1.4,0.8-1.8-2.1-3-3.7
	c-1.2-1.6-5.4-0.4-5.2-2.2c0.1-0.9,0.9-1,1.8-1c1,0,2.1,0.1,3-0.6c1.8-1.4,2-2.6,4.6-2.6c2.6,0,1.8-3.6,1-4.8
	c-0.8-1.1-3.8-1.1-4.8,2.5c-0.5,1.6-2,2.3-3.8,2.3c-2.2,0-4.8-0.9-6.3-2c-2.6-2-3.8,0.6-5.6-0.8c-1.8-1.4,3.2-2.8,6.2-4.1
	c3-1.3,1.2-3.6,3.2-5.4c2-1.8,8.1-1.2,8.1-1.2s2,0.4,4.2,1c2.2,0.6,1.2,3.2,3,5.7c1.8,2.4,3,4.8,8.3,4.6c5.3-0.2,1.4-6.2,3.6-8.5
	c2.2-2.2,7-9.7,10.9-13.5c3.8-3.8,5.3-1,9.9-0.6c4.6,0.4,5.9-2.8,11.4-3.2c0.5,0,1,0,1.7,0.1C626.5,298.4,626.8,333.8,631,345.1z"/>
<path class="st4" d="M4.1,131.2c-0.3,1.5-0.8,2.7-1.4,3.9c0.2,0,2-0.3,3.9-1.7c2-1.4,2.2-3.4,3.9-5c1.7-1.6,0-3.3,0-3.3
	C7.4,126.4,4.6,128.1,4.1,131.2z"/>
<path class="st0" d="M70.9,119.9c0,0-7.1-4.5-10.5-6.5c0,0-3.4,1.2-6.1,3.1c-2.7,1.9-4.7,8.1-7.3,9.4c-2.5,1.3-6-0.1-8.7-0.9
	c-2.7-0.8-8.3,0-8.3,0c0.9,1.7,1.1,3.1,0.5,4.1c0,0,2.1,5.1,5.7,11.6c3.6,6.5,7.9,6.2,9.9,9.2c2,3-2.2,4.6-1,8.1
	c1,3,9.1,6.5,12.6,8.2c0,0,1.7-1.4,3.5-2.6c1.8-1.2,1-1.8,4.8-1c0.8,0.2,1.4,0.5,2,0.8c0,0,3.9-10.1,2.7-12
	c-1.2-1.9-3.8-2.1-4.3-3.3c-0.2-0.4-0.5-1.5-0.8-2.6c-0.7-2.8,0.1-5.8,2.2-7.8l2.4-2.3c1.5-1.5,2.3-3.7,2-5.8L70.9,119.9z"/>
<path class="st0" d="M75.4,82.4c-0.5-2.4-6-5-6-5c0.1,0.4,0.1,0.9,0.1,1.4c0.1,2.7,2.6,5.3,4.1,7.2l2.7-0.5
	C75.8,84.9,75.8,83.9,75.4,82.4z"/>
<path class="st0" d="M84,89.4c-1.5-2.8-2.5-3.1-5.5-3.2c-1.1,0-1.7-0.3-2.1-0.6L73.7,86c0.5,0.6,0.9,1.2,1.1,1.6
	c0.7,1.6-1.6,3.1-3.4,4.4l0.1,0.2l2.7,2.3c0,0,0.9,0.7,2,1.6c0.9,0.7,2,1.5,2.8,2.3c1.9,1.6,4,0.3,6.3,0.1c1.5-0.1,2.4,1.6,3.3,2.9
	c0,0,0,0,0,0c0.5,0.7,0.9,1.3,1.4,1.5c0,0,0.1,0,0.1,0c1.3,0-0.5-7.4-1.7-9C87.4,92.2,85.5,92.2,84,89.4z"/>
<path class="st0" d="M99.1,206.8c-0.2-0.6-0.3-1.1-0.3-1.6c0,0-3.3,2.8-5.4,5.3c-2.1,2.4-4.4,1.9-4.7,4.6c0,0.5-0.1,1.1-0.2,1.7
	c-0.1,1.5-0.3,3.2-0.5,4.4c-0.1,1-0.5,1.9-1.2,2.6c-1.8,1.9-4,3.4-6.4,4.4c-2.4,1-4.9,1.6-7.6,1.6c-3.3,0-6.8-0.1-8.9-0.4v16.2
	c3.1,0,7.3,0.7,10.1,1.3c3.8,0.8,9.1-3.2,13.5-4.2c4.4-1,7.1-3.8,8.3-7.3c1.2-3.4,4.6-1.8,7.3-0.8c2.6,1,4.8-7,7.7-11.1
	c2.8-4-4-5.9-6.7-6.9C101.5,215.6,100.1,210,99.1,206.8z"/>
<path class="st0" d="M158.8,138.8c-2.2-5.2-1.5-10-6.1-12.4c-4.6-2.4-3.8-3.1-6.4-6.5c-1.9-2.5-2.4-4.2-3.7-4.2
	c-0.5,0-1.2,0.3-2.1,0.9c-3.2,2.2-3.6,3.1-5.2,3.3c-1.6,0.1-3.6-1.3-3.6-1.3c-1.6,0.6-5.4-1.7-5.4-1.7c0.6,1.9-1.8,1.5-2.6,4.3
	c-1.2,4-4.6-3.8-8.3-1.4c-3.6,2.4,1.2,9.5,1.8,12.5c0.6,3,0,2-3.4,2.4c-0.3,0-0.6,0.1-0.8,0.2c0,0,1.1,2.4,3.2,2
	c2-0.4,6.6-2.4,9.3-2.4c0.5,0,2.9,0.5,4.8,2.4c1.4,1.4,4.5,2.4,8.7,5.9c4.2,3.4,6.9,7.2,6.9,9.9c0,1.5-0.5,3.4-1.4,5.1
	c0.1,0,0.6,0.3,2.8,1.7c3.2,2,3.2,0.8,7.5,0c4.2-0.8,4.2-1.4,6.6-4c2.3-2.6,5.7-2.2,7.9-1.6c0.4,0.1,0.9,0.3,1.4,0.4
	c-0.1-0.4,1-5.9-1.4-7.3C166.7,145.7,161.1,144.1,158.8,138.8z"/>
<path class="st0" d="M221.7,174c-2.8,2.6-12.6-1.2-12.6-1.2s-5-3.2-8.2-2.3c-3.2,0.9,0,3.8-0.1,9c-0.1,5.3,2.6,2.8,5.2,4.3
	c2.7,1.5,1.2,1.9-2.7,4.3c-3.9,2.4-0.1,3.2-2.6,7.3c-2.4,4-17.9,13.7-17.9,13.7s-3.1-0.5-5.5,0c-2.4,0.5-5.6,3.6-6.7,5.4
	c-1,1.7,1.7,1.2,3.6,1.4c1.9,0.1,2,3.2,1.7,5.9c-0.3,2.7,3.8,4.6,2.6,7c-1.1,2.4-8.2,1.9-12.3,1.1c-4.2-0.8-5.8,3.2-5.8,3.2
	c0.3,0.5,0.7,0.9,1.1,1.2c3.6,3,8.5,1,10.1,2.8c1,1.2-1.8,2.7-4,3.6c-1,0.4-1.2,1.7-0.4,2.4l4,3.6c1.3,1.2,3.3,1.2,4.5,0
	c1.9-1.8,4.5-3.9,6.1-3.7c2.6,0.4,0.2,11.1-1,18.7c-1.2,7.7-0.2,15.5,3.2,22.4c3.4,6.9,5.4,16.5,8.3,23.6c2.8,7.1,2.8,12.1,4.8,15.3
	c2,3.2,5.5-0.8,9.1-3.8c3.6-3,7.7-5.2,10.7-7.3c3-2,1.8-8.3,3.4-10.7c1.6-2.4,0.6-11.9,1.2-14.9c0.6-3,14.7-9.7,14.7-9.7l23.4-11.9
	c0,0,3.6-1.8,4-4.4c0.4-2.6,6.7-7.1,9.9-9.9c1.8-1.6,3.4-0.7,5.1,0.3c0-0.3,0.3-5-0.1-8.8c-0.4-3.9-1.2-4-3.9-6.5
	c-2.7-2.4-1.1-1.9,0.6-3.5c1.6-1.6-0.8-3.9-0.7-6c0.1-2.2,2.4-0.1,5.9,0c3.5,0.1,3.1,2.5,5.6,5.6c2.6,3.1,2.7-0.8,8.3-0.3
	c5.6,0.5-3,5.9-1.9,8.1c1.1,2.1,1.2,1.1,4.4-0.1c3.1-1.2,1.2,3,1.4,6.9c0.1,1.3,0,2.6-0.2,3.9c0.1,0.1,1.4,0.7,3.6-1.8
	c2.3-2.7,3.5-6.5,7.3-11.6c3.8-5.1,3.9-5,4.4-8.2c0.5-3.2,1.2-4.7,3.9-8.5c2.7-3.8,4.8-3,6.9-4c2-1.1,2.2-5.4,2.2-5.4
	c-2.7-1.2-3.5-0.4-6.1-2.7c-2.5-2.3-2.5-1.9-6.2-2c-3.6-0.1-4.2,0.7-6.9,3.6c-2.7,2.9-7.4,3.6-10.5,5.4c-3.1,1.7,0.4,4.8-1,6.5
	c-1.3,1.6-10.9,1.6-10.9,1.6s-4-2.7-5.2-5.9c-1.2-3.2-4.3-2-5.6,0.3c-0.4,0.7-0.7,1.4-1,2.1c-0.7,1.6-1.5,3.2-3.8,4.4
	c-3.2,1.7-11.7-0.7-14.6-3.4c-3-2.7-4.2-0.9-8.1-1.1c-3.9-0.1-8.5-3.4-11.2-3.9c-2.7-0.5-3.5-7.1-3-10.6c0.2-1,0.2-1.9,0-2.6
	c-0.3-1.7-1.5-2.8-3.2-3.8c-2.4-1.5-5.2-6.9-5.2-6.9s2.4-1.9,4-2c1.6-0.1-0.4-5.4-0.4-5.4s0.9-3.6,3.6-4.3c2.7-0.7,3.2-4.6,3.4-6.1
	c0.1-1.5-1.1-2.7-4-2c-2.3,0.5-4.7,0.2-6.9,1.3C222.9,173.1,222.3,173.5,221.7,174z"/>
<path class="st0" d="M368,244.2c-1.7-2.3-4.6-0.3-7.1-0.4c-2.5-0.1-5.6-6.2-5-6.5c-0.2,0.1-0.4,0.1-0.6,0.2
	c-2.6,1.1-3.9,6.6-3.9,6.6l-3.8,1.9c0,0-0.6,1.8-3,4.3c0,0,1.4,2.8,3,4.1c1.6,1.3,3.4,1.9,3.6,4.1c0.3,2.1-1.2,7,0.3,6.9
	c1.5-0.1,0.5-2,4.4-1.6c3.9,0.4,6-0.4,9.3-2.6c1.5-1,2.3-1.6,3-1.6l4-2l-1-5.9C371.2,251.7,369.8,246.5,368,244.2z"/>
<path class="st0" d="M369.6,339.6c0.2-1.5-3.6-4.5-6.6-6.6c0,0-2.2,2.3-5.1,2.6c-3,0.3-1.1-3-4.2-3.5c-3.1-0.5-7.4-0.3-7.4-0.3
	s1.4,3.4,2.2,8.7c0.8,5.2,7.7,12.5,7.7,12.5s14.5,4.6,17.1,4.4c2.6-0.2-0.4-3.4-2.4-5C368.8,350.7,369.2,342.1,369.6,339.6z"/>
<path class="st0" d="M381.1,261.9c-0.3-0.4-0.7-0.7-1.1-1c-2.9-2.2-7.8-3.4-7.8-3.4l-4,2c0.8,0,1.6,0.8,3.1,2.5
	c3,3.4,2.5,3.8,3.2,7.1c0.7,3.4,3.5,4.6,3.5,4.6l1.6,8.3l0,0.4c1-0.1,1.9-0.3,2.8-0.6c4.4-1.5,10.5-3.2,10.5-3.2
	c-0.1-0.6-0.1-1.2,0-1.8c0.3-5.2,0-3.8-2.9-6.9C387.3,266.9,383.6,264.8,381.1,261.9z"/>
<path class="st0" d="M390.3,71.9c-4,1.5-7.9,7.3-11.1,4.7c-3.2-2.6-3-11.9-3-11.9l0-0.4c-2.5,0.1-5.9-1.3-7.6,0.8
	c-2,2.4-4.6,8.7-7.5,10.3c-2.8,1.6-6.2,1-9.1,2.2c-2.8,1.2-8.5-1-13.3-0.4c-4.8,0.6-6.7,5.6-10.9,4.4c-4.2-1.2-4-5-7.4-6.2
	c-3.4-1.2-10.7-1.4-11.9-0.8c-1.2,0.6-1,4.4-0.8,7.3c0.2,2.8,2,6.1-1.4,6.4c-3.4,0.3-7.5,1.1-10.7,0c-3.2-1.1-10.1-1.3-13.5,0
	c-3.4,1.3-9.6,7.1-11.1,8.2c-0.5,0.3-1.2,0.6-2.1,0.8c2.9,1.7,9.5,5.6,11.8,7.9c3,2.9,0.5,6.7,3.1,10.5c0,0,1.3,1.6,4.7,1.6
	c3.4,0,15.3,0.2,17.5,3.6c2.2,3.4,3.6,8.1,6.5,7.7c2.8-0.4,8.9-2.4,8.9-2.4l14.6-1.4c0,0,11.8,4.4,15.1,1.4
	c3.2-3,10.9-9.6,14.9-10.4c4-0.9,10.5-6.4,9.5-9.6c-1-3.1-5.6-8-2.6-9.6c3-1.6,6.9,0.7,9.5-2.9c2.6-3.6,0.6-6.4,4.8-10.2
	c4.2-3.8,8.9-5,7.9-7.7C393.9,72.9,394.3,70.4,390.3,71.9z"/>
<path class="st0" d="M454.1,98.9c0,0-3.1,0.1-3,3.1c0.2,3-0.1,6.6-0.1,6.6s0.2,5.6,2.8,7.9c2.6,2.2,3.4,6.5,5.4,8.7
	c2,2.2,2-1.8,3-3.8c1-2,5.4-4,6.4-7.7c1-3.6-0.2-4.4-2.8-7.9C464.2,103.4,458.3,100.6,454.1,98.9z"/>
<path class="st0" d="M472.7,313.7c1.1,0.7-4.2,2.8-3.5,4.8c0.5,1.6-1.7,2.5-3.1,3.9c0,0,0,0,0,0c-1.8,1.5-9.4,0.8-9.4,0.8
	s-3.2-0.2-4.8,3.9c-1.6,4.1-0.1,3.2-2,5.6c-1.9,2.4-2.4,5.5-2.4,5.5l-5.2,8.9c0,0-4.7,1.2-8.1,0c-3.3-1.2-5.5,0-5.5,0
	s-0.8,2.3-1.9,4.2c-1.1,1.9-8.9,1-10.5,0.6c-1.6-0.4-2.8-2.5-2.8-2.5c1.9-0.4,4.2-0.5,5.7-0.6c3-0.3,3.8-1.3,3.9-5.4
	c0.1-4,2.7-1.6,7.5-3.8c0,0,6.5-7.1,8.2-10.5c1.7-3.4,2.5-0.8,4.8-3.4c2.3-2.5,2.7-0.9,3.1-3.1c0.4-2.1,2-3.6,3.2-4.8
	c1.2-1.2,2.6-1.5,2.6-3.5c0-2,2.8-4.6,5.1-6.2c2.3-1.6,5.8,2.8,8.5,3.8C468.9,313,471.6,313,472.7,313.7z"/>
</svg>
