<?xml version="1.0" encoding="utf-8"?>
<!-- Generator: Adobe Illustrator 25.0.1, SVG Export Plug-In . SVG Version: 6.00 Build 0)  -->
<svg version="1.1" id="Layer_1" xmlns="http://www.w3.org/2000/svg" xmlns:xlink="http://www.w3.org/1999/xlink" x="0px" y="0px"
	 viewBox="0 0 542 542" style="enable-background:new 0 0 542 542;" xml:space="preserve">
<style type="text/css">
	.st0{fill-rule:evenodd;clip-rule:evenodd;fill:#FAFAFA;stroke:#E2E2E2;}
	.st1{fill-rule:evenodd;clip-rule:evenodd;fill:#F2F2F2;stroke:#7E5AF6;}
</style>
<path class="st0" d="M81.1,349.4c0.9-0.9,2.5,0.8,3.8,1c1.4,0.2,2.8-0.8,2.8-0.8s-0.3-0.2-2.5-0.3c-2.2-0.2-2.4-2.8-4.3-1.9
	c-1.9,0.9-3.3,1.2-5.8,0.9c0,0.7-0.5,1.7-0.6,2.7c0.6-0.2,1.1-0.3,1.3-0.3C77.3,350.8,80.2,350.3,81.1,349.4z"/>
<path class="st0" d="M82.2,359.9c1-0.7,3-2.5,3.7-2.2c0.7,0.3,1.6-0.3,1.6-0.7c0-0.4-1.4-1.7-0.3-2.1c0.8-0.3,0.9-1.2,1-1.7
	c-0.4-0.2-0.8-0.3-1.1-0.3c-0.9,0.1-6.6,0.5-6.6,0.5s-1.7,1.1-2.6,1c-0.7-0.1,0-1.2-2.3-0.6c1.2,1.4,1.3,2.2,3.6,2.8
	c2.6,0.7-0.2,2.1,2,3.4c0.2,0.1,0.4,0.3,0.5,0.4C81.9,360.2,82.1,360,82.2,359.9z"/>
<path class="st0" d="M313.8,444.2c-0.4-2.1,6.3-11.8,8-11.8c1.4,0,1.9-9.3,1.3-14.1c-5.2-3.6-9.5-4.8-9.5-4.8s-14-0.7-16.3-1.6
	c-2.3-0.9-4.7,3-6.8,1.4c-2.1-1.6-5.1,0.5-4.7,2.8c0.5,2.3,4.9,3.7,4.9,7.2c0,3.5,8.9,8.6,8.6,10.5c-0.2,1.3,5.3,4.9,8.6,9.7
	c1.7,1.1,3.6,2.5,5.4,4C313.7,445.9,313.9,444.7,313.8,444.2z"/>
<path class="st0" d="M299.3,433.8c0.2-1.9-8.6-7-8.6-10.5c0-3.5-4.4-4.9-4.9-7.2c-0.5-2.3,2.6-4.4,4.7-2.8c2.1,1.6,4.4-2.3,6.8-1.4
	c2.3,0.9,16.3,1.6,16.3,1.6s4.3,1.2,9.5,4.8c-0.1-1-0.3-1.8-0.5-2.3c-1.3-3,0-6.3-3.4-7.6c-1.7-0.6-2.5-3.6-2.8-6.4
	c-1.6,0.5-2.9,0.9-3.7,1.1c-2.8,0.7-8.7,0.3-10.8-2.4c-1.6-2.1-6.4-5.1-8.8-6.6c-1,0.9-4.7,4-6.3,4.2c-1.9,0.2-0.7,5.2-2.6,5.2
	c-1.9,0-3.3,3.3-3.8,4.7c-0.5,1.4-4.7-0.9-6.6-0.2c-1.3,0.5-5.3,1.1-7.5,1.4c0.3,2.1,0.2,4.5,1.9,4.5c2.8,0,8-0.3,8.1,3.4
	c0.1,3.8,6.9,12.1,9.4,14.9c2.5,2.8,8.1,2.2,8.4,4.5c0.3,2.3,4.4,4.5,9.1,4.9c1.3,0.1,2.8,0.8,4.4,1.9
	C304.6,438.7,299.2,435.1,299.3,433.8z"/>
<path class="st0" d="M334,478.8c2.3-0.5,0.9-2.3,2.6-4c1.6-1.6,3.5-4.9,3.8-6.1c0-0.1,0.1-0.2,0.2-0.3c-3.2-2.4-5.4-4.1-6.1-6.6
	c-0.7-2.5,0-7.4,1.1-11c-1.8-1.3-7.4-5.2-9.2-5.2c-1.7,0-4.4,3.9-5.1,7.6c4.1,2.2,5.7,3.8,2.9,6.6c-3,3-3.6,13-0.3,15.6
	c3.1,2.5,4,7.6,7,9C331.9,482,332.5,479.2,334,478.8z"/>
<path class="st0" d="M313.9,347.9c-1.8-1-6.6-0.3-7-1.7c-0.3-1.4-0.7-3.8-2.8-3.8c-2.1,0-4.9-1.4-5.9,1c-1.1,2.5-5.2-0.7-5.6-2.5
	c-0.3-1.7-2.1-3.1-7-4.9c-1.9-0.7-4.1-2.1-6.1-3.5c-0.2,0.4-0.4,0.8-0.6,1.1c-0.9,1.4-4.2-1.2-5.6,0.2c-1.4,1.4-6.1,1.6-8.7,4
	c-2.6,2.3-8,3.5-11,4.2c-3.1,0.7-0.5,3.5,0.7,5.6c1.2,2.1,1.2,7.3,3.5,8.9c2.3,1.6,10.1,6.6,11,8.2c0.2,0.3,0.1,0.5-0.1,0.8
	c3.3,0.9,8.3,0.9,9.2-0.6c1-1.7,1.8-4.9,1.8-4.9s7,0,9.8,3.2c2.8,3.1,8,1,8,1s0.3,0.9,0.8,2.1c0.8-1.7,1.7-3.2,2.9-3.4
	c3-0.4,7.1-0.8,10.1-5c1.5-2.2,4-3.9,6.1-5C316,351.2,315.3,348.7,313.9,347.9z"/>
<path class="st0" d="M342.2,355.2c-3.5,0.3-5.2-1.8-8-0.7c-2.8,1-7.3,0-9.1-1c-1.8-1.1-3.8,2.1-6.3,0.7c-0.5-0.3-1-0.8-1.4-1.2
	c-2.1,1.2-4.6,2.9-6.1,5c-2.9,4.2-7.1,4.6-10.1,5c-1.2,0.2-2.2,1.7-2.9,3.4c1,2.5,2.7,6.5,4.8,8.3c3.2,2.8,14.3,2.5,14.3,0
	c0-2.4,9.1-3.5,11.2-3.5c2.1,0,8.7-6.6,9.8-6.3c1.1,0.3,8,1.4,9.8,3.1c0.9,0.9,3.7,1.7,6.7,2.4c-1.2-1.1-2.2-2.5-2.2-3.7
	c0-1.9,3.5-6.8,4.7-7.7c0.1-0.1,0.1-0.2,0.2-0.3c-2.7-0.4-5.6-1-6.2-1.5C350.2,356.3,345.7,354.9,342.2,355.2z"/>
<path class="st0" d="M46,505.3c4.2-0.8-1.1-4.2-2.3-5.3c-1.1-1.1,0.4-5.7,2.7-5.7c2.3,0,0-2.7-3-5.7c-3-3,0-4.2,2.7-4.2
	c2.7,0-0.8-4.6,1.9-7.2c2.7-2.7-0.8-7.6-0.8-9.9c0-2.3,3.8-3,6.9-6.1c3-3-2.7-1.9-2.7-4.2c0-2.3-3.8-3.1-6.5-1.1
	c-2.7,1.9-1.9,0-4.2,0c-2.3,0-6.5,0.8-6.5-1.5c0-2.3-1.9-2.7-3.8-0.4c-0.6,0.7-1.5,1-2.8,1.2c-0.3,3-0.6,5.8,0.3,7.2
	c2,3.3-2.5,20.7-6.6,25.3c-4.1,4.7-0.1,6,4.1,9.2c4.2,3.3,1.4,15.2,1.4,18c0,2.8,3.8,2,8.1,2c2.6,0,5.6-1.2,8.4-1.7
	c-0.9-1.3-1.5-2.6-1.5-3.4C41.8,509.5,41.8,506.1,46,505.3z"/>
<path class="st0" d="M168.9,327.1c1.9-1.9,5.3-1,7.2,1c1.9,1.9,4.8,2.4,7.7,5.3c0.7,0.7,1.5,1.4,2.3,2c0.3-2,0.3-6,1.2-8.1
	c0.9-2.2-0.9-5,0.6-5c1.6,0,5.9,0,5.9-2.8c0-2.8,1.3-1.9,2.2-3.4c0.9-1.6-2.8-4.7-3.4-5.6c-0.6-0.9,2.8-1.2,5.3-5
	c0.9-1.4,0.5-4.2-0.3-7.2c-0.4,1.1-1.3,1.9-2.7,1.1c-2.3-1.4-5.9-0.6-10.6,0.3c-4.7,0.9-6.1,5.5-4.4,7.3c1.7,1.9-4.5,2.8-5,0.3
	c-0.5-2.5-5.2-0.8-4.9,2.5c0.3,3.3-5.2,4.5-4.8,8.6c0.3,4.1-5,7.8-8.4,9.9c-0.5,0.3-1.1,0.6-1.7,1c1.7,0.8,3.1,1.3,3.8,1.3
	C161.8,330.5,167,329,168.9,327.1z"/>
<path class="st0" d="M186.7,345.3c-2.1,1.2-4,3.7-3.7,9c2-0.1,4.9,0.2,7,0.8c-0.5-5.8-2.8-7.6-3.3-8.8
	C186.5,346,186.5,345.7,186.7,345.3z"/>
<path class="st0" d="M149.4,333.6c0.2,1.6,2.8,5.6,3.8,4c0.9-1.6,3.3,2.1,5.4,3.3c2.1,1.2,6.3,2.6,6.6,4c0.2,1.4,0.9,4.5,3.1,3.5
	c2.1-0.9,4.7-4.2,4.7-2.4c0,1.9,0.7,5.4,3,4.9c2.3-0.5,3.1,4,5.4,3.5c0.4-0.1,1-0.1,1.7-0.1c-0.3-5.3,1.6-7.8,3.7-9
	c0.5-0.9,1.9-1.9,2.1-3.1c0.3-1.6-3.1-4.7-2.8-6.6l0-0.3c-0.8-0.6-1.6-1.3-2.3-2c-2.9-2.9-5.7-3.3-7.7-5.3c-1.9-1.9-5.3-2.9-7.2-1
	c-1.9,1.9-7.2,3.3-10,3.3c-0.7,0-2-0.5-3.8-1.3c-2.3,1.3-4.7,2.5-7.1,3C148.5,332.8,149.3,332.5,149.4,333.6z"/>
<path class="st0" d="M424.7,377.6c-1.3-4.1-5.3-5.6-7.5-5.6c-2.2,0-5.9-5-8.4-4.7c-1.4,0.2-4.7,1-7.7,2c2.7,5.1,5.6,10.4,7,11.9
	c2.9,3.3,9.1,12.4,6.7,14.8c-1.9,1.9-1.1,9.6,1.8,11.9c1.4-1.8,6-7.6,6-9.3c0-1.9,0.3-5.6,4.1-4.7c3.8,0.9,7.2,2.5,7.2,1.3
	c0-1.3-0.9-5.3-2.5-6.9C429.7,386.7,425.9,381.7,424.7,377.6z"/>
<path class="st0" d="M404.4,425.8c-2.5-0.3-10.3,0-12.5,2.2c-2.2,2.2-5,3.4-7.5,3.1c-2.5-0.3-9.7-0.6-11.3-0.3
	c-1.6,0.3-10-1.6-11.3-1.3c-1.1,0.3-3.2-3.6-6-4.1c-0.1,0.4-0.4,0.7-0.9,1c-2.1,1.4-2.4,5.2,0,7.3c2.3,2.1,5.4,6.8,3.3,6.8
	c-2.1,0-3.8,2.8-3.5,4.2c0.2,1.4-0.7,4.5,0,5.2c0.7,0.7,5.6,5.4,5.9,6.8c0.2,1.2,2.2,1.9,2.1,3c3.9-0.3,12.3-0.8,14.2,0.2
	c2.5,1.3,11.3,1.9,11.3,1.9c2.5,0,4.7-0.9,4.1-2.5c-0.5-1.3,2.7-2.2,5.1-2.4c-0.4-1.4-0.7-2.6-0.1-2.9c1.2-0.5,8-1.4,10.8,0
	c1.4,0.7,3,0,4.3-0.8c-0.4-1.3-0.7-2.4-1.5-2.5c-1.7-0.3-4.4-7.5-2.2-8c2.2-0.5,5-8,8.4-9.1c1.4-0.4,2-1.3,2.2-2.3
	c-3-1-5.9-2.2-6.4-3C411.9,426.8,406.9,426.1,404.4,425.8z"/>
<path class="st0" d="M340.6,468.5c0.1-0.1,0.2-0.1,0.4-0.2l0.1,0c0.2,0,0.4-0.1,0.6-0.1l0.1,0c0.9-0.1,2.1,0,3.4-0.1l0.3,0
	c0.3,0,0.6,0,0.8-0.1l0.3,0c0.4,0,0.7-0.1,1.1-0.2c2.8-0.7,3.5-3.8,4.9-3c1.4,0.7,8.9-3.1,9.9-4.5c0.1-0.2,0.2-0.3,0.2-0.5
	c0.2-1.1-1.9-1.7-2.1-3c-0.2-1.4-5.2-6.1-5.9-6.8c-0.1-0.1-0.2-0.4-0.2-0.7l0-0.1c0-0.3,0-0.7,0-1.1c-7.3,1.1-18.2,3.3-18.2,3.3
	s-0.3-0.2-0.6-0.4c-1.1,3.6-1.9,8.5-1.1,11C335.2,464.4,337.4,466.1,340.6,468.5z"/>
<path class="st0" d="M537.9,359.6c0-0.9,3.3-2.6,3-4.5c-0.2-1.9-3-2.1-6.1-3.8c-3.1-1.6-6.1-0.9-8.9-2.3c-2.8-1.4-8.7-0.5-8.7-1.4
	c0-0.9-3.8-4-4.7-5.6c-0.9-1.6-4-0.7-5.9,0.5c-1.9,1.2-3.5,1.6-5.4,0.5c-1.9-1.2-3.5-3.1-5.2-2.4c-1.6,0.7-4.7,0.2-4-2.1
	c0.7-2.3-3-7.5-4.7-8.2c-1.6-0.7-6.6,0.5-7.7-1.9c-1.2-2.4-3.3-4.2-2.3-5.9c0.9-1.6-0.2-6.1-1.4-8c-1.2-1.9-7-1.6-8.7-0.9
	c-1.6,0.7-5.4-0.7-7,0.2c-1.6,0.9-2.6,2.6-4.9,2.6c-1.3,0-2.2-0.2-2.9-1.2c-2.5,1.1-6.8,1.4-6.8,1.4s-6.3,5-6.3,6.9
	c0,1.9-0.3,5-1.9,3.4c-1.6-1.6-8.1-1.6-9.7-0.6c-1.6,0.9-4.1-3.8-6.9-2.2c-2.8,1.6-6.6-2.2-6.9-0.6c-0.3,1.6-4.4,0.3-7.2-0.9
	c-2.8-1.3-7.8,0.6-9.7-1.6c-1.9-2.2-14.1-2.2-18.1-2.2c-4.1,0-5,2.2-6.9,4.1c-1.7,1.7-3.7,1.4-5.7,1.3c0.2,1.6,0.5,3,0.9,3.6
	c0.9,1.4,5.4,8.2,4.2,10.3c-1.2,2.1-3.3,2.1-4.7,3.8c-1.4,1.6-9.6,8.9-9.9,10.1c-0.2,1.2,1.4,6.3,0.2,7.3c-1.2,0.9-4.7,5.9-4.7,7.7
	c0,1.9,2.6,4.5,4.7,5.2c0.9,0.3,1.5,0.7,1.7,1.2c1.6-0.2,3.1-0.4,4.1-0.4c1.6,0,8.4,1.9,10.6,1.9c2.2,0,5.3,0.9,6.3,1.9
	c0.9,0.9,3.1,0.3,4.7-1.3c1.6-1.6,3.4-0.6,5.3-0.6c1.9,0,5-1.6,5.9-3.1c0.9-1.6,10.3-4.1,12.8-4.4c2.5-0.3,6.3,4.7,8.4,4.7
	c2.2,0,6.3,1.6,7.5,5.6c1.3,4.1,5,9.1,6.6,10.6c1.6,1.6,2.5,5.6,2.5,6.9c0,1.3-3.4-0.3-7.2-1.3c-3.7-0.9-4.1,2.8-4.1,4.7
	s-5.3,8.4-6.3,9.7c-0.9,1.3,1.9,2.2,4.1,2.5c0.9,0.1,4.7-2.5,5.9-2.5c0.5,0,2.1,1.2,3.7,2.6c-0.4-4.9,0.7-4.6,5-7.9
	c4.5-3.4,5-9.9,9.1-10.6c4.1-0.8,5.8-2.7,11.7-1.7c5.9,0.9-3,4.7,1.1,6.9c2.7,1.4,9,0.7,13.2,1c5.4-0.9,10.9-0.8,16.5,0.2
	c2.7-2.5,8-5.8,11.5-6.2c4.9-0.5,8.8-1.9,13.5-4.1c1.9-0.9,5.2-1.8,8.6-2.4c-0.5-2.2-1.2-4.8,0.2-5c1.6-0.2,6.6-5.6,8.2-5.6
	c1.6,0,8.7,1.4,8.7,0.2c0-1.2,2.4-5.2,1.9-6.3c-0.5-1.2-2.8-2.8-2.3-4c0.5-1.2,3.7-1.2,3.7-2.6C540.5,361.3,537.9,360.6,537.9,359.6
	z"/>
<path class="st0" d="M364.5,253.9c2.9,0,9.6,1.4,13.4,0c3.8-1.4,3.8,2.9,6.2,2.4c2.4-0.5,7.2,2.9,10,5.3c1.5,1.3,3.3,2.3,5.4,3.5
	c0.5-0.8,1.1-1.6,2.1-2.3c2.5-1.9,5-0.9,7.2-0.9c2.2,0,2.5-2.5,4.1-3.8c0.9-0.7,2.2-1.1,3.3-1.3c-0.8-1.7-0.9-5.1-2.3-6.5
	c-1.6-1.6-4-4.5-3.3-6.1c0.7-1.6,0.7-4-1.2-5.9c-0.8-0.8-1.4-1.8-1.8-2.7c-3.8-0.5-8.9-1-10.1-0.7c-1.9,0.6-9.4-5.3-10.6-6.3
	c-0.8-0.6-6.4-0.3-11.4,0.2c-2.9,3.2-0.8,5.6-1,10.5c-0.2,5-5.6,4.1-8.6,4.1c-3,0-7.8-8.9-9.4-11c-1.6-2-6.6,2.5-10.2,4.7
	c-3.6,2.2-1.7,6.4-4.2,8.5c-2.5,2-4.1,5.5-1.6,10c0.1,0.2,0.2,0.4,0.3,0.6c3.1-0.2,6.5-0.8,8.4-2.2
	C352.5,251.5,361.6,253.9,364.5,253.9z"/>
<path class="st0" d="M346.7,271.1c1.2,1.6,4.9,3.1,6.3,2.4c1.4-0.7,5.9,1.6,5.9,3.5c0,1.9-1.2,7.5,0,7.5c1.1,0,7.8,2.1,8.3,4.9
	c3,0.1,6.5,0.2,7.8,0.6c2.5,0.6,4.1-0.9,5.3-2.5c1.3-1.6,5.6-2.2,6.9-2.2c1.3,0,1.3-3.4,1.6-5c0.3-1.6,3.4-4.4,5.3-5
	c1.9-0.6,1.6-2.8,3.4-2.8c1.9,0,1.6-2.5,1.3-4.1c-0.2-0.9,0-2.1,0.8-3.3c-2-1.2-3.8-2.2-5.4-3.5c-2.9-2.4-7.7-5.8-10-5.3
	c-2.4,0.5-2.4-3.8-6.2-2.4c-3.8,1.4-10.5,0-13.4,0c-2.9,0-11.9-2.4-15.3,0c-1.9,1.4-5.3,1.9-8.4,2.2c2.1,4.4,1.4,8.8-1,11.5
	c-1.7,1.9-0.7,2.2,0.5,2.9C342.9,270.3,345.8,269.8,346.7,271.1z"/>
<path class="st0" d="M197.9,305.3c-2.5,3.7-5.9,4.1-5.3,5c0.6,0.9,4.4,4.1,3.4,5.6c-0.9,1.6-2.2,0.6-2.2,3.4c0,2.8-4.4,2.8-5.9,2.8
	c-1.6,0,0.3,2.8-0.6,5c-0.9,2.2-0.9,6.6-1.3,8.5c-0.3,1.9,3.1,5,2.8,6.6c-0.3,1.6-2.8,2.8-2.2,4.1c0.6,1.2,2.8,3,3.3,8.8
	c1.1,0.3,2,0.7,2.4,1.2c1.4,1.9,3.8,3.3,6.8,3.3c3.1,0,4.2,2.1,5.6,1.9c1.4-0.2,5.2,0.9,2.1,3.5c-3.1,2.6-3.5,5.6-4.2,8.7
	c-0.5,2-0.4,4.7-0.9,6.4c3,0.3,7.4,0.5,9-0.3c2.5-1.2,4.1-1.2,7.2-0.3c1.9,0.6,4.4,1.8,6.1,2.7c0.2-0.6,0.5-1.1,1.2-1.2
	c2.1-0.2,4.7,4,6.1,1.6c1.4-2.3,4.7-1.9,6.3-0.9c1.6,0.9,4.2,1.4,6.1-0.5c1.9-1.9,9.1-2.8,10.8-2.1c1.6,0.7,5.9,2.6,4.2-3.1
	c-1.6-5.6,3.5-4.5,4.2-6.6c0.7-2.1,6.8-3,5.9-4.7c-0.9-1.6-8.7-6.6-11-8.2c-2.3-1.6-2.3-6.8-3.5-8.9c-1.2-2.1-3.8-4.9-0.7-5.6
	c3-0.7,8.4-1.9,11-4.2c2.6-2.4,7.3-2.6,8.7-4c1.4-1.4,4.7,1.2,5.6-0.2c0.9-1.4,1.6-4.2,0.2-5.9c-1.4-1.6-2.4-4.5-2.6-8.4
	c-0.2-4-1.4-3.8-1.4-5.6c0-1.9-0.7-4.2-2.3-5.2c-1.6-0.9-2.3-1.6-0.7-4.2c1.6-2.6,0.9-9.2,0.2-11c-0.1-0.4-0.1-0.8,0-1.3
	c-0.4-0.2-0.8-0.6-0.9-1.3c-0.5-2.5-2.2-3.4-6.3-3.4c-4.1,0,2.5-4.1,0.9-6.1c-1.6-2-5.6,3.8-9.4,2.5c-3.8-1.2-8.6,4.4-11.9,6.9
	c-3.3,2.5-8-0.5-5.5-4.1c2.5-3.6,0-3.3-3.8-1.9c-3.8,1.4-8.3-0.3-7.8-3.8c0.1-0.9-0.2-1.7-0.6-2.4c-1.8,0.3-3.2,0.3-3.9,0.1
	c-1.7-0.6-5.5-0.9-9.7-0.9c1.2,1.8,2.6,3.6,1.8,5c-1.4,2.7,0.8,5.2,2.8,9.1c2,3.9-4.4,1.7-4.5,4.2c-0.2,2.5-5.9-0.2-7.8-1.1
	c-1.9-0.9-8.1-0.3-8,1.3c0.1,0.6,0,1.5-0.3,2.2C198.4,301.2,198.8,304,197.9,305.3z"/>
<path class="st0" d="M434.7,169.2c2.5-5.6,13.8-10,15.6-15c0.9-2.5,1.2-3.8-2.8-8.5c-4.1-4.7-13.1-7.8-13.5-10.3
	c-0.3-2.5,6.9-2.8,6.6-6c-0.3-3.1-4.1-3.1-5.6-5.6c-1.6-2.5,1.9-4.1,1.6-5.3c-0.3-1.2-5-1.9-5.3-3.4c-0.3-1.6,3.1-1.2,2.5-3.1
	c-0.6-1.9-3.7-5.3-1.6-8.1c2.2-2.8,6.9,0,3.4-6.3c-3.4-6.3-8.8-14.1-10-16c-1.3-1.9,1.3-5,3.1-6.2c1.9-1.3,6.6-6,6.6-7.8
	c0-1.9-5.9-6.9-7.5-7.8c-1.6-0.9-5-0.6-6.6-3.8c-1.6-3.1-3.1-4.1-1.6-5.9c1.6-1.9,1.6-3.8,1.6-5.6c0-1.9,3.4-0.3,4.1-3.1
	c0.3-1.3,1.2-2.7,2.3-3.9c0-2.1,0.2-4.4,0-5.9c-0.5-3-9-4-11.1-7.5c-2-3.5-7-2-8.5,0c-1.5,2-10.6-0.5-10.6,2.5c0,3-6.5,3.5-6.5,7
	c0,3.5,3,9.6-2,9.1c-5-0.5-1.5,2-4.5,6c-3,4-3-2.5-6-1.5c-3,1-6.5-3-8-0.5c-1.5,2.5-6.5,0.5-11.6-0.5c-5-1-7.5-8-11.6-8.5
	c-2.7-0.3-5.5,1.8-7,5.2c3.9,2.5,6.4,6.1,11.5,8.4c5.5,2.5,15.6,5.5,15.1,9.1c-0.5,3.5-2,8.5,0.5,10.1c2.5,1.5-0.5,8,2.5,9.6
	c3,1.5,2,9-0.5,9c-2.5,0,0.5,4,2,5.5c0.7,0.7,1.2,2.7,1.5,5.2c3.1,0.7,5.8,2.3,8.5,3.5c4.2,1.9,3.6,4.8,3.8,8.1
	c0.2,3.3,0.3,5.2-1.9,3.8c-2.2-1.4-4.5,0-5.8,4.7c-1.3,4.7-7.2,10.3-10.8,10.6c-3.6,0.3-3.3,4.1-6.3,4.8c-3,0.8-5.8,2.5-5.6,5.8
	c0.2,3.3-4.4,3.6-7.4,3.6c-3,0-2.3,5.3-4.7,6.7c-2.3,1.4-1.9,3.3,0.3,6.1c2.2,2.8,0.3,5.3,1.1,7.4c0.8,2,4.2,6.7,1.9,11.9
	c-2.3,5.2-4.8,11.6-2.8,11c2-0.6,6.7,4.2,9.9,3.9c3.1-0.3,3.4,4.4,6.4,3.4c3-0.9,3,2.8,11.6,2.5c8.6-0.3,26-7.5,32.8-7.5
	c3.9,0,7-0.5,9.5-1.1c1.5-2.2,3.3-4.6,5.1-6.4C422.8,177.9,432.2,174.8,434.7,169.2z"/>
<path class="st0" d="M221.5,441.1c-1.7-0.2-2.2,3-6.6,5.6c-4.4,2.7,0,14.7,4.4,14.1C223.9,460.2,223.2,441.3,221.5,441.1z
	 M204.8,361.5c-1.4,0.2-2.6-1.9-5.6-1.9c-3,0-5.4-1.4-6.8-3.3c-1.4-1.9-8.7-2.3-11-1.9c-2.3,0.5-3.1-4-5.4-3.5c-2.3,0.5-3-3.1-3-4.9
	c0-1.9-2.6,1.4-4.7,2.4c-2.1,0.9-2.8-2.1-3.1-3.5c-0.2-1.4-4.5-2.8-6.6-4c-2.1-1.2-4.5-4.9-5.4-3.3c-0.9,1.6-3.5-2.3-3.8-4
	c-0.2-1.1-0.9-0.7-1.4-1.4c-0.8,0.2-1.6,0.3-2.4,0.2c-3.8-0.2-7,2.8-6.4,9.1c0.6,6.3-4.5,6.9-11,7.3c-6.4,0.5-4.2,5.5-6.9,7.5
	c-2.7,2-12-1.1-13.3-4.5c-1.3-3.4-9.7,0-6.1,4.1c3.6,4.1,3.4,9.7,1.4,11.3c-2,1.6-6.4-2.5-9.2-0.5c-2.8,2-3-1.9-6.4-3.1
	c-3.4-1.3-4.9,1.6-10.3,1.1c-5.5-0.5-8.6,2.7-6.6,5c2,2.3-0.3,4.5,1.3,6.6c1.6,2,8.8,1.7,14.1,4.5c5.3,2.8,6.6,0.5,9.2,2.5
	c2.7,2,3.3,0.8,3.4,4.7c0.2,3.9,3.1,7.7,8.3,9.1c5.2,1.4,1.2,4.9,2.8,8.3c1.6,3.4-2.3,8.4-1.6,12.7c0.8,4.2-2.5,17.8-5,19.1
	c-0.2,0.1-0.4,0.1-0.6,0.1c2.3,1.2,4.8,2.2,6,3c2.3,1.5,7.2,3,10.3,5c3,1.9,8.4,1.5,8.4-0.8c0-2.3,3-0.7,4.9,1.1
	c1.9,1.9,9.1,2.3,12.6,3c2.9,0.6,7.1,0.2,10.9,0.3c-0.1-0.9-0.3-1.7-0.6-2.7c-1.9-6.1,3.6-9.7,8.7-10.5c5.2-0.8,16.4,2.3,19.4,4.2
	c3,1.9,7,1.4,12.2-4.1c2.6-2.8,4.7-3.8,6.6-4.3c0.1-1.2,0.8-2.5,1.2-3.6c0.7-1.9-2.6-1.4-4.9-1.7c-2.3-0.2-4-2.6-2.3-5.2
	c1.6-2.6-1.4-2.8-3-5.4c-1.6-2.6,0.7-1.9,2.1-2.6c1.4-0.7,3.3-3.5,2.1-4.2c-1.2-0.7-2.1-2.3-1.2-5.2c0.9-2.8-1.9-3.1-1.9-5.2
	c0-2.1-2.6-3.1-4.7-0.5c-2.1,2.6-2.8,0.7-1.4-3.5c1.4-4.2,6.3-6.1,6.8-8.4c0.5-2.4,3.3-4.5,5.4-4.5c2.1,0,1.6-4.9,2.3-8
	c0.7-3,1.2-6.1,4.2-8.7C209.9,362.4,206.2,361.3,204.8,361.5z"/>
<path class="st0" d="M155.8,448.9c-3.8-0.1-8,0.3-10.9-0.3c-3.4-0.8-10.7-1.1-12.6-3c-1.9-1.9-4.9-3.4-4.9-1.1
	c0,2.3-5.3,2.7-8.4,0.8c-3.1-1.9-8-3.4-10.3-5c-1.2-0.8-3.7-1.8-6-3c-3.2,0.6-12.3-2.7-18.3-2c-6.4,0.8-26.9-0.9-34.9-0.3
	c-8,0.6-8.4-3.3-12.8-3.3c-4.4,0-2.5,5.3-8.8,5.5c-6.3,0.2-6.9,4.1-2.3,7.7c2.6,2.1,2.3,6.4,1.9,10.3c1.3-0.2,2.3-0.5,2.8-1.2
	c1.9-2.3,3.8-1.9,3.8,0.4c0,2.3,4.2,1.5,6.5,1.5c2.3,0,1.5,1.9,4.2,0c2.7-1.9,6.5-1.1,6.5,1.1c0,2.3,5.7,1.1,2.7,4.2
	c-3,3-6.9,3.8-6.9,6.1c0,2.3,3.4,7.2,0.8,9.9c-2.7,2.7,0.8,7.2-1.9,7.2c-2.7,0-5.7,1.1-2.7,4.2c3,3.1,5.3,5.7,3,5.7
	c-2.3,0-3.8,4.6-2.7,5.7c1.1,1.1,6.5,4.6,2.3,5.3c-4.2,0.8-4.2,4.2-4.2,6.5c0,0.8,0.7,2.1,1.5,3.4c1.9-0.3,3.9-0.4,5.6,0.4
	c4.4,2,6.9,12.9,12.8,12.2c2.5-0.3,1.3-2.2,2.5-3.4c1.3-1.2,3.6-0.3,6.1-0.3c2.5,0,3.8-3.6,9.7-3.8c5.9-0.2,9.7-0.6,13.5-0.5
	c3.8,0.2,6.7-1.1,7.7-3.8c0.9-2.7,4.1-5,8.3-5.6c4.2-0.6,3.6-5,3.9-7.5c0.3-2.5,7.4-6.3,7.8-8.1c0.5-1.9-4.1-9.1,0.2-15.5
	c4.2-6.4,8.8-6.7,8.8-10.3c0-3.3,4.4-4.5,9.7-5.2c5.3-0.6,7-4.2,11.6-6.1C155.3,456.2,156.6,453.3,155.8,448.9z"/>
<path class="st0" d="M257.9,407.1c2.5-1,5.4-1.4,6.8-0.9c1.2,0.5,1.6,1.8,1.8,3.2c2.2-0.3,6.1-0.9,7.5-1.4c1.9-0.7,6.1,1.6,6.6,0.2
	c0.5-1.4,1.9-4.7,3.8-4.7c1.9,0,0.7-4.9,2.6-5.2c1.9-0.2,6.6-4.5,6.6-4.5s-1.9-3.8-2.6-4c-0.7-0.2-3.1,2.3-7.3,2.3
	c-4.2,0-7.3,3.3-9.1,3.3c-1.9,0-7.7-1.9-11.7-2.1c-1.4-0.1-2.9-0.2-4.2-0.3C258.1,396.6,257.7,402.1,257.9,407.1z"/>
<path class="st0" d="M388.4,535.8c-2.5-1.4-13.8,0.9-16.7-1.9c-3-2.8-9,2.2-6.4,2.7c3.7,0.6,9.4,3.9,15.5,4.1
	c6.1,0.2,14.4-2.8,14.2-4.4C394.8,534.7,390.9,537.2,388.4,535.8z M397.2,456.9c-2.4,0.2-5.6,1.1-5.1,2.4c0.6,1.6-1.6,2.5-4.1,2.5
	c0,0-8.8-0.6-11.3-1.9c-1.9-0.9-10.3-0.5-14.2-0.2c0,0.2-0.1,0.3-0.2,0.5c-0.9,1.4-8.4,5.2-9.9,4.5c-1.4-0.7-2.1,2.4-4.9,3
	c-2.8,0.7-7-0.2-7.3,0.9c-0.2,1.2-2.1,4.5-3.8,6.1c-1.6,1.6-0.2,3.5-2.6,4c-1.5,0.3-2.2,3.2-3,5.7c0.2,0.1,0.3,0.2,0.5,0.2
	c3.4,1.1,6.1,5.2,5.6,9.1c-0.5,3.9,5,5.3,7.5,2.5c2.5-2.8,9.5,1.6,9.5,3.4c0,1.9-7.2-2-11.3,0.9c-4.1,3,3.1,5.8,2.2,8.9
	c-0.9,3.1,1.9,7.5,5.5,7.4c3.6-0.2,7.7,5.8,9.8,4.7c2.2-1.1-2.7-9.4-1.9-10.6c0.8-1.3,5.2,2.2,7.3-0.3c2.2-2.5-1.6-4.4-4.8-4.2
	c-3.3,0.2-0.2-4.4,3.8-2c3.9,2.3,5.8-0.6,7.7-0.9c1.9-0.3,2.3-7-3.4-8.6c-5.8-1.6-5,4.2-8.8,0.3c-3.8-3.9,3.4-2.3,3.4-5.6
	c0-3.3-5.8-8-8.6-11.9c-2.8-3.9,3.9-5.8,5.5-3c1.6,2.8,5.8,2.3,8.4,1.2c2.7-1.1-2.8-6.1,2-8c4.9-1.9,4.9,1.4,6.4,2
	c1.6,0.6,3-3.9,8-3.9c2.6,0,4.9,1.7,7.1,3.4c1.4-1.5,2.5-2.4,2.5-3.6c0-1.6,3.1-2.3,3.1-4.9C398.1,459.8,397.6,458.2,397.2,456.9z"
	/>
<path class="st0" d="M52.7,289.6c-1.3-1-2.5-2.1-3.5-3.2c-4-4.7-5.7-0.9-6.1,1.9c-0.5,2.8-4.3-0.9-6.6-1.4c-2.4-0.5,0.7-5,2.4-6.2
	c1.1-0.8,2.2-3,2.9-6c-0.4,0-0.9-0.1-1.3-0.2c-4.4-1.7-10.5-1.7-10.6,2.2c-0.2,3.9,4.8,2.5,5,5c0.2,2.5-5,1.9-8.6,4.4
	c-3.6,2.5-7.5-1.7-11.3,0.2c-3.8,1.9,4.1,4.1,1.2,8c-2.8,3.9,0.2,3.8,4.8,7.5c4.7,3.8-2.8,4.7-2.8,8.9c0,4.2-5.8,4.1-7,6.9
	c-1.2,2.8,5,8.4,10.5,8.4c3.9,0,13-2.5,18.3-7.5c5.3-5,8.1-0.2,13-2.7c4.9-2.5,1.9-20.8,0-24.6C52.6,290.6,52.6,290.1,52.7,289.6z"
	/>
<path class="st0" d="M107,198.9c2.7-2.7,5.8-12.8,1.7-11.7C104.7,188.3,105.9,200.1,107,198.9z M46.5,232.9c4.2-0.2,9.1-7.4,7-9.4
	C51.5,221.4,43.4,233,46.5,232.9z M140.5,311.4c0.3-4.7-10-8-11.1-5.5c-1.1,2.5-3.4,2.2-5.2-0.6c-1.7-2.8,1.6-5.5-0.1-5.8
	c-1.7-0.3-3.9-4.2-3.4-5.8c0.5-1.6-2.7-11.6-8-12.8c-5.3-1.3-6.1-8.8-7-12.8c-0.9-4.1-4.4-1.9-7-5.3c-2.7-3.4-7.2-1.7-9.5-1.6
	c-2.3,0.2,0-4.4,3.8-6.9c3.8-2.5,8.1-15.8,8.1-18.5c0-2.7-16.4-2.5-19.6-0.9c-3.1,1.6-6.3-2.3-3.6-3.4c2.7-1.1,8.3-6.6,8-8.8
	c-0.3-2.2,3.9-4.2,1.6-6.3c-2.3-2-2.7,2.7-4.7,4.2c-2,1.6-6.6,1.1-11.4,0.2c-4.8-0.9-6.7,5.9-6.6,8.9c0.2,3-5.6,4.7-4.7,7.2
	c0.9,2.5-1.1,4.4-2.6,3c-1.6-1.4-3.3-4.8-6.4-2.3c-3.1,2.5,3.6,5.8,7.7,6.3c4.1,0.5-3.1,3.4-3.9,7.8c-0.8,4.4,5.3,2.5,5.6,5.6
	c0.3,3.1-8.8,3.6-8.8,6.6c0,3,5.2-1.4,7.5-2.7c2.3-1.3-1.2,7.3,4.4,6.4c5.6-0.9,4.1-8.6,6.1-8.3c2,0.3-0.9,4.1,0.8,7.4
	c1.7,3.3-4.1,8.3-3.8,10.6c0.3,2.3,11.6,2.3,15.2-1.4c3.6-3.8,5.3,0.3,2.8,3.1c-2.5,2.8-1.4,5.5,1.7,6.6c3.1,1.1,4.2,1.4,2.8,3.9
	c-1.4,2.5-0.2,7.2-0.9,9.5c-0.8,2.3-10.5,2-10.8,0.5c-0.3-1.6-4.4-0.5-3.3,1.7c1.1,2.2-3.4,4.5-3.1,6.6c0.3,2,6.1,1.6,6.3,4.1
	c0.2,2.5-4.2,5.5-10.2,7.2c-6,1.7,1.2,6.4,4.1,4.4c2.8-2,2.2,1.4,6.3,1.4c4.1,0,6.6,3.3,11.1,1.6c4.5-1.7,4.4,0,0.9,2.7
	c-3.4,2.7-8.6-0.2-11.7,1.6c-3.1,1.7-15.9,13.7-13.4,16.6c1.4,1.7,3.3-2.5,7.8-4.4c4.5-1.9,5.3,1.2,7.8,1.6c2.5,0.3,2.7-5.2,4.7-4.7
	c2,0.5,3.9-1.7,7.7-1.1c3.8,0.6,6.4-0.8,8.3-2.3c1.9-1.6,6.9,3.1,8.4,2c1.6-1.1,8.4-2.4,11.9-2.2c3.4,0.2,12.4-3.9,14.7-6.1
	c2.3-2.2-1.4-2.7-4.5-2.2c-3.1,0.5-2.5-3.1,0.8-6.3C135,318.5,140.2,316.1,140.5,311.4z M54.9,272.6c-4-3.8-9.1,2.2-13.2,2.1
	c-0.7,3.1-1.8,5.2-2.9,6c-1.7,1.2-4.7,5.7-2.4,6.2c2.4,0.5,6.1,4.3,6.6,1.4c0.5-2.8,2.1-6.6,6.1-1.9c1,1.1,2.2,2.2,3.5,3.2
	c0.6-2.1,5.6-2.5,8.2-5.1C64,281.4,59.3,276.8,54.9,272.6z"/>
<path class="st0" d="M107,198.9c2.7-2.7,5.8-12.8,1.7-11.7C104.7,188.3,105.9,200.1,107,198.9z M46.5,232.9c4.2-0.2,9.1-7.4,7-9.4
	C51.5,221.4,43.4,233,46.5,232.9z M140.5,311.4c0.3-4.7-10-8-11.1-5.5c-1.1,2.5-3.4,2.2-5.2-0.6c-1.7-2.8,1.6-5.5-0.1-5.8
	c-1.7-0.3-3.9-4.2-3.4-5.8c0.5-1.6-2.7-11.6-8-12.8c-5.3-1.3-6.1-8.8-7-12.8c-0.9-4.1-4.4-1.9-7-5.3c-2.7-3.4-7.2-1.7-9.5-1.6
	c-2.3,0.2,0-4.4,3.8-6.9c3.8-2.5,8.1-15.8,8.1-18.5c0-2.7-16.4-2.5-19.6-0.9c-3.1,1.6-6.3-2.3-3.6-3.4c2.7-1.1,8.3-6.6,8-8.8
	c-0.3-2.2,3.9-4.2,1.6-6.3c-2.3-2-2.7,2.7-4.7,4.2c-2,1.6-6.6,1.1-11.4,0.2c-4.8-0.9-6.7,5.9-6.6,8.9c0.2,3-5.6,4.7-4.7,7.2
	c0.9,2.5-1.1,4.4-2.6,3c-1.6-1.4-3.3-4.8-6.4-2.3c-3.1,2.5,3.6,5.8,7.7,6.3c4.1,0.5-3.1,3.4-3.9,7.8c-0.8,4.4,5.3,2.5,5.6,5.6
	c0.3,3.1-8.8,3.6-8.8,6.6c0,3,5.2-1.4,7.5-2.7c2.3-1.3-1.2,7.3,4.4,6.4c5.6-0.9,4.1-8.6,6.1-8.3c2,0.3-0.9,4.1,0.8,7.4
	c1.7,3.3-4.1,8.3-3.8,10.6c0.3,2.3,11.6,2.3,15.2-1.4c3.6-3.8,5.3,0.3,2.8,3.1c-2.5,2.8-1.4,5.5,1.7,6.6c3.1,1.1,4.2,1.4,2.8,3.9
	c-1.4,2.5-0.2,7.2-0.9,9.5c-0.8,2.3-10.5,2-10.8,0.5c-0.3-1.6-4.4-0.5-3.3,1.7c1.1,2.2-3.4,4.5-3.1,6.6c0.3,2,6.1,1.6,6.3,4.1
	c0.2,2.5-4.2,5.5-10.2,7.2c-6,1.7,1.2,6.4,4.1,4.4c2.8-2,2.2,1.4,6.3,1.4c4.1,0,6.6,3.3,11.1,1.6c4.5-1.7,4.4,0,0.9,2.7
	c-3.4,2.7-8.6-0.2-11.7,1.6c-3.1,1.7-15.9,13.7-13.4,16.6c1.4,1.7,3.3-2.5,7.8-4.4c4.5-1.9,5.3,1.2,7.8,1.6c2.5,0.3,2.7-5.2,4.7-4.7
	c2,0.5,3.9-1.7,7.7-1.1c3.8,0.6,6.4-0.8,8.3-2.3c1.9-1.6,6.9,3.1,8.4,2c1.6-1.1,8.4-2.4,11.9-2.2c3.4,0.2,12.4-3.9,14.7-6.1
	c2.3-2.2-1.4-2.7-4.5-2.2c-3.1,0.5-2.5-3.1,0.8-6.3C135,318.5,140.2,316.1,140.5,311.4z M54.9,272.6c-4-3.8-9.1,2.2-13.2,2.1
	c-0.7,3.1-1.8,5.2-2.9,6c-1.7,1.2-4.7,5.7-2.4,6.2c2.4,0.5,6.1,4.3,6.6,1.4c0.5-2.8,2.1-6.6,6.1-1.9c1,1.1,2.2,2.2,3.5,3.2
	c0.6-2.1,5.6-2.5,8.2-5.1C64,281.4,59.3,276.8,54.9,272.6z"/>
<path class="st0" d="M255.6,260.7c-1.3-0.8-2.2,2.2-3.6,2.5c-1.4,0.3-3-6-3.6-2.5c-0.6,3.4-3.8-1.4-6.9,3c-3.1,4.4,1.9,8.3,4.1,9.7
	c2.2,1.4-0.2,3.4-3,2.8c-2.8-0.6-1.1,4.1,2.8,4.7c3.9,0.6,8.1-6.9,7.7-8.8C252.6,270.3,257.1,261.7,255.6,260.7z M232,251.2
	c-1.6-0.8-2.2-5.8-0.3-7.3c1.9-1.6,2.7-7.5,1.1-9.1c-1.6-1.6-7.2,0-7.7,4.2c-0.5,4.2-5,2.3-6.3,3.3c-1.3,0.9,2.5,2.8,0.5,4.7
	c-2,1.9-2.8-2.8-6.1-3.1c-3.3-0.3-3.6,5-5.3,7.7c-1.7,2.7-0.6,8.3,0,12c0.6,3.8,5.2,6.1,4.1,9.2c-0.5,1.5,0.5,3.1,1.6,4.7
	c4.2,0.1,8,0.4,9.7,0.9c0.7,0.2,2.1,0.2,3.9-0.1c-1.4-2.2-4.5-4.1-4.2-5.7c0.3-2.2,3.3-0.8,5.5,1.1c2.2,1.9,7,2.2,7.5-0.2
	c0.3-1.4-0.8-8.1-3.8-6.6c-3,1.6-3.8,0.9-4.9-0.6c-1.1-1.6,2.2-4.1,3-6.6c0.8-2.5,5.9-1.6,6.7-3.6C237.8,254.2,233.6,252,232,251.2z
	"/>
<path class="st0" d="M318.5,231.9c-5.9,0.2-8.7,11.9-7.2,13.8C312.5,247.3,324.4,231.8,318.5,231.9z M371.4,94.3
	c-1.5-1.5-4.5-5.5-2-5.5c2.5,0,3.5-7.5,0.5-9c-3-1.5,0-8.1-2.5-9.6c-2.5-1.5-1-6.5-0.5-10.1c0.5-3.5-9.6-6.5-15.1-9.1
	c-5.5-2.5-8-6.5-12.6-9.1c-4.5-2.5-6,4-6,8c0,4-4,4.5-7,2c-3-2.5-6.5,0-11.1-2c-4.5-2-2.5,4.5-2.5,7.5c0,3-5,3-8,3c-3,0-8,2.5-8,6
	c0,3.5-4.5,5.5-3,7.5c1.5,2-0.5,4-2.5,5.5c-2,1.5-4,6.5-5.5,8c-1.5,1.5,1,4-2,6c-3,2-6.5,0.5-8,2c-1.5,1.5,0,5-0.5,9.6
	c-0.5,4.5-4,9.5-7,13.6c-3,4,1,5,2.5,5.5c1.5,0.5,1.5,3,0,6c-1.5,3-5,1-7,0.5c-2-0.5-7.5,2-10.6,7c-3,5-2,8-1,10.6
	c1,2.5-2.5,5.5,0,10.6c2.5,5-1,6-0.5,10.1c0.5,4,6.5,3.5,7,7.5c0.5,4-2,5.5-4,5.5c-2,0-1.5,4,0.5,5c2,1,1.5,8,0.5,10.1
	c-1,2-7.5,0-7,2.5c0.5,2.5-1.5,6.5-1.5,8.6c0,2-0.5,8.5-2.5,7c-0.8-0.6-2.1-0.6-3.3-0.5c0,0.3,0,0.6,0,1c-0.2,3.9,1.3,7.8,4.7,10.6
	c3.4,2.8,0.8,7,3.8,11c3,3.9,2,6.7,5.3,9.5c3.3,2.8,3.6,4.4,2.2,8c-1.4,3.6,2.8,2.7,3,4.8c0.2,2.2-0.9,6.7,0.2,8.9
	c1.1,2.2,3.3,0,8.3-0.2c5-0.2,3.8-3.3,3.9-6.3c0.2-3,2.7-1.6,3.3-3.4c0.6-1.9,5.2-2.3,8.8-0.8c3.6,1.6,5.5-1.1,6.1-4.8
	c0.6-3.8,2.7,0.8,3.8,1.6c1.1,0.8,4.4-5.8,5.9-10c1.6-4.2-0.2-3.4-3.7,0.6c-3.6,4.1-1.6-4.1-0.2-7.4c1.4-3.3,1.3-12.8,1.7-15
	c0.5-2.2,1.4-5.5,5.9-6.4c4.5-0.9,10.5-6.6,9.5-8.9c-0.9-2.4,6.3-6.3,6.3-8.6c0-2.4-7.5-9.6-10-11.1c-2.5-1.6-8-0.3-7.5-2
	c0.5-1.7-0.6-8.5-1.3-11.9c-0.6-3.4,3.9-7,3.9-10.3c0-3.3-0.2-7,2.8-8.1c3-1.1,1.1-3.9,5-4.8c3.9-0.9,3.1-6.6,7.4-8.3
	c4.2-1.7,4.5-3.1,10-5.8c5.5-2.7,14.7-8.9,16.3-12.2c1.6-3.3-5.6-6.7-1.1-10.2c4.5-3.4,0.8-7.4,4.1-8.6c3.3-1.3,4.5-3,6.9-5.5
	c2.3-2.5,5.5-0.2,11.1-1.1c2.1-0.3,3.9-0.2,5.7,0.3C372.6,97,372,95,371.4,94.3z"/>
<path class="st0" d="M360.6,215c1.3-2.3-9-1.3-6.7,0.8C355.6,217.4,359.3,217.4,360.6,215z M355.9,219.6c-5.6,1.6-6.5,9.4-4.2,9.2
	c2.8-0.2,9.2-5.5,10.9-7.2C364.3,219.9,361.5,218,355.9,219.6z M411.2,212c1.3-2.8,4.7-3.3,2.2-6.9c-0.5,0.4-1.2,0.8-2.3,1.1
	c-4.5,1.3-14.4-3.1-20-2c-5.6,1.1-17,1.1-19.7,3.9c-2.7,2.8-9.4,3.6-6.4,6.1c3,2.5,0,3.8,2.2,6.7c2.2,3,3.3,4.2,6.3,3.6
	c3-0.6,5.3,0.9,2.2,4.2l-0.1,0.2c5-0.5,10.6-0.8,11.4-0.2c1.3,0.9,8.8,6.9,10.6,6.3c1.1-0.4,6.3,0.2,10.1,0.7
	c-0.4-1.2-0.4-2.3,0.4-2.9c1.4-1.2,4.5-1.2,2.8-3.5c-1.6-2.3-2.1-2.8-2.3-5.6c-0.2-2.8-0.9-4.2-0.7-6.1
	C407.9,215.5,409.8,215,411.2,212z"/>
<path class="st0" d="M438.8,27.4c-0.6,2.4-4.8,1.9-4.7-0.5c0.2-2.3-6.6-4.2-6.9-5.3c-0.3-1.1,2.8-0.9,5.3,0.5c2.5,1.4,4.2,0.5,7-2.2
	c2.8-2.7,6.7-0.5,7.2-2.8c0.5-2.3-4.5-3.9-5.5-5.3c-0.9-1.4-4.5-3.3-8-2.7c-3.4,0.6-3.6-0.8-5.6-2.7c-2-1.9-8.3,1.3-8.3,5.6
	c0,4.4-3.9,3.3-2.5,0.9c1.4-2.3-1.9-5.2,1.3-5.9c3.1-0.8,1.4-5.5-4.4-5.9c-5.8-0.5-8,4.4-6.6,5.9c1.4,1.6-3.9,8.3-6.3,8.3
	c-2.3,0,0.3-5.8,0.2-8.9c-0.2-3.1-2.3-1.4-6.7,3.6c-4.4,5-7.7,9.5-10.2,10c-2.5,0.5-2.2-4.5,1.9-6.7c4.1-2.2,4.2-8.1,6.9-8.1
	c2.7,0,2.7-3.1-1.2-4.1c-3.9-0.9-4.5,3.4-5.8,4.7c-1.3,1.2-7.7-2.2-7.5-0.9c0.2,1.3-3.4,1.7-1.9,4.1c1.6,2.3-0.8,4.4-2.3,1.6
	c-1.6-2.8-5.5-0.6-7.3,2.5c-1.9,3.1-4.4,3-2.5,4.1c1.9,1.1,1.7,5.3-1.1,6.1c-2.8,0.8-1.7-7.7-3.9-6.9c-2.2,0.8-0.8-4.1,2.2-4.1
	c3,0,5.9-4.4,5.6-5.5c-0.5-1.8-3.7-1.4-3.7,0.9c0,2.3-4.7,1.9-8.6,1.7c-3.9-0.2-3.8,4.5,0.6,7c4.4,2.5-0.8,4.1-3,2.2
	c-2.2-1.9-5.6-0.9-8,0.2c-2.3,1.1,5.6,3.9,5.9,5.3c0.3,1.4-4.1-1.7-5-0.6c-0.9,1.1-5.3-0.8-5.6-3.4c-0.3-2.7-7.4,1.1-3.4,2
	c3.9,0.9,2.5,3.5,2.5,6.9c0,3.4-4.5,0.8-3.6-2.2c0.9-3-2.8-2.3-5.9-0.5c-3.1,1.9,0.5-3.4-0.8-6.1c-1.3-2.7-4.1,0-7.4,0.6
	c-3.3,0.6-5,0.8-3,3c2,2.2,1.7,5.3-0.9,4.8c-2.7-0.5-3.7,0-3.4,2.5c0.3,2.5-3.4,2.7-3.7,0.5c-0.3-2.2-5.6-1.6-7.2,0.9
	c-1.6,2.5-5.9,4.4-5.5,7.2c0.5,2.8,3.9-1.4,6.7-0.5c2.8,0.9-0.2,2.4,1.4,3.8c1.6,1.4,1.2,4.9-0.9,2.8c-2.2-2-5-2.7-5.5,0.6
	c-0.5,3.3-2.8-0.5-4.7-2.8c-1.9-2.3-3.8,4.4-5.8,2.8c-2-1.6,4.1-6.4,2.5-8.8c-1.6-2.3-2.7,1.4-6.3,5c-3.6,3.6-8.4,3.4-6.7,5.2
	c1.7,1.7-3.6,2.7-4.5,5.6c-0.9,3-8.3,4.1-13,7.2c-4.7,3.1,0.9,3.3,3.6,0.3c2.7-3,3.6-1.2,7.8-3.9c4.2-2.7,8.8-4.9,10.3-3.8
	c1.6,1.1,4.2,1.9,6.3-0.9c2-2.8,4.5-2.2,6.6-0.5c2,1.7-3.4,3.1-0.9,5.6c2.5,2.5-3,3.9-3,1.7c0-2.2-3.1-4.1-4.2-2c-1.1,2-3,4.2-5,4.4
	c-2,0.2-4.2,3.9-4.2,7.7c0,3.8-3.6,0-3.9,3.3c-0.3,3.3-5.3,9.1-9.7,13.3c-4.4,4.2-0.3,5.2-1.7,7.8c-1.4,2.7-6.6,0.3-8.3,1.4
	c-1.7,1.1,0.9,7.7-1.4,9.7c-2.4,2,0,4.8,0,7.2c0,2.3-6.1-1.4-6.6,0.9c-0.5,2.3-5.8,1.7-7.4,2.3c-1.6,0.6,3.1,4.4,6,6.6
	c2.8,2.2-2.7,3.9-3.3,1.4c-0.6-2.5-4.5,1.6-9.4,3.8c-4.9,2.2-2.8,6.6-6.6,6.7c-3.8,0.2-2.7,6.1-5.2,8c-2.5,1.9-1.9-4.4-5.8-4.5
	c-3.9-0.2-3.6,2.7-1.3,5.9c2.3,3.3-3.6,0.8-5.8,3.6c-2.2,2.8-8.4,1.4-10.2,3.8c-1.7,2.3,4.7,2.3,5.6,4.2c0.9,1.9-5.6,0.9-9.1,0.2
	c-3.4-0.8-2.5,4.4-5.6,3.8c-3.1-0.6-7,2.7-4.8,4.9c2.2,2.2-1.7,2.5-3.9,1.1c-2.2-1.4-4.1,2-4.8,4.7c-0.8,2.7,4.2,4.1,4.1,5.3
	c-0.2,1.3-4.1,3.3-1.3,3.9c2.8,0.6,0.8,3.1-1.1,3.9c-1.9,0.8-1.9,2.7,0,5c1.9,2.4-3.3,2.8-0.8,6.4c2.5,3.6,4.4-0.9,5.5,1.7
	c1.1,2.7,4.1,0.3,7.5-2.8c3.4-3.1,4.7,3.4,1.9,3.3c-2.8-0.2-6.1,1.6-5.5,4.4c0.6,2.8-4.4,2.3-4.2-1.1c0.1-3.4-5.8,0.6-3.6,3.1
	c2.2,2.5-0.8,3.9-0.8,6.3c0,2.3,4.2,1.9,5.9-0.8c1.7-2.7,4.5-2,5.6,0.6c1.1,2.7-2.7,0.6-2.7,4.2c0,3.6-2.3,0.5-4.4,3.3
	c-2,2.8,8,8,11.1,8.8c3.1,0.8,6.1,4.2,12.4,3.3c6.3-0.9,18.1-12.5,19.7-14.6c1.6-2,5,0.3,7.4-1.6c2.3-1.9,0.9-6.7,2.7-7.7
	c1.7-1,2.7,5.2,4.2,5.8c1.4,0.6,2.4,1.7,2.5,4.8c1.2-0.2,2.5-0.1,3.3,0.5c2,1.5,2.5-5,2.5-7c0-2,2-6,1.5-8.6c-0.5-2.5,6-0.5,7-2.5
	c1-2,1.5-9.1-0.5-10.1c-2-1-2.5-5-0.5-5c2,0,4.5-1.5,4-5.5c-0.5-4-6.5-3.5-7-7.5c-0.5-4,3-5,0.5-10.1c-2.5-5,1-8,0-10.6
	c-1-2.5-2-5.5,1-10.6c3-5,8.5-7.5,10.6-7c2,0.5,5.5,2.5,7-0.5c1.5-3,1.5-5.5,0-6c-1.5-0.5-5.5-1.5-2.5-5.5c3-4,6.5-9.1,7-13.6
	c0.5-4.5-1-8.1,0.5-9.6c1.5-1.5,5,0,8-2c3-2,0.5-4.5,2-6c1.5-1.5,3.5-6.5,5.5-8c2-1.5,4-3.5,2.5-5.5c-1.5-2,3-4,3-7.5c0-3.5,5-6,8-6
	c3,0,8,0,8-3c0-3-2-9.6,2.5-7.5c4.5,2,8-0.5,11.1,2c3,2.5,7,2,7-2c0-4,1.5-10.6,6-8c0.4,0.2,0.7,0.4,1,0.6c1.5-3.4,4.3-5.5,7-5.2
	c4,0.5,6.5,7.5,11.6,8.5c5,1,10.1,3,11.6,0.5c1.5-2.5,5,1.5,8,0.5c3-1,3,5.5,6,1.5c3-4-0.5-6.5,4.5-6c5,0.5,2-5.5,2-9.1
	c0-3.5,6.5-4,6.5-7c0-3,9.1-0.5,10.6-2.5c1.5-2,6.5-3.5,8.5,0c2,3.5,10.5,4.5,11.1,7.5c0.2,1.5,0,3.8,0,5.9c1.4-1.4,3.2-2.4,4.9-2.4
	c3.1,0,5.9-4.7,8.8-4.1c2.3,0.5,4.7,0.1,5.4-3.8C444.1,25.5,439.3,25.3,438.8,27.4z"/>
<path class="st0" d="M317.8,436.4c-2.2,2.9-4.3,6.6-4,7.9c0.1,0.5-0.1,1.7-0.4,3.3c2.8,2.3,5.5,4.5,7.5,5.6c0.2,0.1,0.4,0.2,0.6,0.3
	c0.6-3.5,3-7.1,4.8-7.5C323.7,442.9,320.1,438.7,317.8,436.4z"/>
<path class="st0" d="M354.9,433.8c-2.4-2.1-2.1-5.9,0-7.3c2.1-1.4,0.2-3.3,0.2-5.6c0-2.4-10.1-3.1-11.7-3.5
	c-1.6-0.5,1.2-6.6-1.4-6.6c-2.6,0-3.5-1.9-3.5-3.8c0-1.9-4-4.9-3.8-6.1c0-0.2,0.1-0.3,0.3-0.5c-1.4-0.2-2.6-0.4-3-0.5
	c-1.7-0.3-4.5-1.4-4.5-1.4s-6.5,2.1-11,3.5c0.3,2.8,1,5.8,2.8,6.4c3.4,1.3,2.1,4.6,3.4,7.6c1.3,2.9,0.8,16.4-0.8,16.4
	c-0.7,0-2.3,1.7-3.9,3.9c2.3,2.3,5.9,6.5,8.3,9.5l0.3-0.1c2.1,0,9.8,5.6,9.8,5.6s10.9-2.3,18.2-3.3c0.1-1.1,0.3-2.4,0.2-3.2
	c-0.2-1.4,1.4-4.2,3.5-4.2C360.3,440.6,357.3,435.9,354.9,433.8z"/>
<path class="st0" d="M82,166.1c5.2-0.3,5.1-6,7.2-5.7c2.1,0.3,5.6-4,6.9-6.7c1.3-2.7-1.5-7.5-4.7-7.5c-3.2,0-5.6-2.5-4.9-4.4
	c0.7-1.9-1.7-4.3-1.6-5.6c0.1-1.3-4-0.1-6.1,0.4c-2.1,0.5-6.7-5.2-8.7-4.1c-2,1.1-0.5,3.9-1.1,5.5c-0.5,1.6-5.3-1.5-5.3,0.4
	c0,1.9-2,2.1-3.6,0.1c-1.6-2-5.3-0.8-5.2,0.8c0.1,1.6-1.6,0.3-4.7-1.6c-3.1-1.9-6.3,2.1-6,4.1c0.3,2-1.1,2.5-3.6-1.9
	c-2.5-4.4-5.5,0.4-4.1,2.8c1.3,2.4,0.8,5.3-1.2,4.1c-2-1.2-4.7,0.8-5.9,2.7c-1.2,1.9-5.5-5.5-2.4-7.2c3.1-1.7-9.7-9.1-13.7-9.1
	c-4,0-1.3,2.9,1.3,5.1c2.7,2.1-1.9,1.6-3.3-0.3c-1.5-1.9-4.3-0.4-5.9,2.3c-1.6,2.7-4.3,4.1-4.5,6c-0.3,1.9,4.5,3.9,8.7,2.1
	c4.1-1.7,8.8-2,10.9,0c2.1,2-3.9,2.8-1.7,4.4c2.1,1.6,0.4,2.9-4.7,2.5c-5.1-0.4-11.2,1.1-10.3,2.8c0.9,1.7,12.9-1.5,13.1,0.3
	c0.1,1.7,0,4.7,3.2,3.3c3.2-1.3,1.1,2.4,2.7,3.1c1.6,0.7,1.2,3.9-3.1,4.1c-4.3,0.3-6.3,1.1-4.5,2.9c2.3,2.3,6.9,0.7,11.5-0.4
	c4.5-1.1,11.1,4.4,16.4,6.5c5.3,2.1,14.5-0.8,15.6-3.6c1.1-2.8,8.3-1.7,11.2-3.7C72.8,168.8,76.8,166.4,82,166.1z"/>
<path class="st0" d="M232.9,389.4c0,0,0.1-3.1-3.2-3.7c-3.3-0.6-3.1-1.7-3.4-2.8c-0.2-0.5-1.1-1.9-1.1-1.9s-1.8,0.2-1.4,3.2
	c0.1,1,0.2,1.6,0.3,2.1c0.1,0.7,0.4,1.4,0.9,1.9c0.8,0.8,2.1,1.6,3.3,1.4C230.4,389.3,231.2,389.1,232.9,389.4z"/>
<path class="st0" d="M122.5,446.4c0,0-1,3.8,4.9,3.6c0,0,3.9-2,7.4-0.7c3.5,1.3,2.2-1.9,2.2-1.9s-3.5-0.7-4.9-2
	c-1.4-1.3-2.4-2.3-3.8-2.1c-1.4,0.2-0.9,1.4-0.9,1.4S127.7,446.3,122.5,446.4z"/>
<path class="st0" d="M200.6,432.1c0,0-2.6-0.4-5.4,0.8c-1.3,0.6-4.1,0-4.5,2.5c-1.3,7.7,3.8,1.3,3.8,1.3l4.9-4.2L200.6,432.1
	L200.6,432.1z"/>
<path class="st0" d="M456.3,291.8c-1.9-0.5-3.1-4.7-6.1-5.9c-3-1.2-2.3-4.9-4.9-6.6c-2.6-1.6-0.9-4.9-1.2-7.5
	c-0.2-2.6,0.5-6.6-0.9-7.3c-1.4-0.7-7.3-4-9.9-2.8c-2.6,1.2-4.5,2.1-5.6,0c-1.2-2.1-2.8-3.3-5.4-2.6c-2.6,0.7-4.2-0.5-5.6-1.6
	c-0.2-0.2-0.4-0.5-0.5-0.8c-1,0.2-2.4,0.6-3.3,1.3c-1.6,1.3-1.9,3.8-4.1,3.8c-2.2,0-4.7-0.9-7.2,0.9c-2.5,1.9-3.1,4.1-2.8,5.6
	c0.3,1.6,0.6,4.1-1.2,4.1c-1.9,0-1.6,2.2-3.4,2.8c-1.9,0.6-5,3.4-5.3,5c-0.3,1.6-0.3,5-1.6,5c-1.3,0-5.6,0.6-6.9,2.2
	c-1.2,1.6-2.8,3.1-5.3,2.5c-1.3-0.3-4.7-0.5-7.8-0.6c0,0.3,0,0.6-0.1,0.9c-1.2,3.3-0.2,6.3,1.6,8c1.9,1.6,2.6,8.2,0.5,9.2
	c-2.1,0.9-6.1,3.8-6.1,5.4c0,1.6,4.2,3,3.5,5.4c-0.4,1.3-0.4,3.7-0.2,5.8c2,0.1,4,0.4,5.7-1.3c1.9-1.9,2.8-4.1,6.9-4.1
	c4.1,0,16.3,0,18.1,2.2c1.9,2.2,6.9,0.3,9.7,1.6c2.8,1.3,6.9,2.5,7.2,0.9c0.3-1.6,4.1,2.2,6.9,0.6c2.8-1.6,5.3,3.1,6.9,2.2
	c1.6-0.9,8.1-0.9,9.7,0.6c1.6,1.6,1.9-1.6,1.9-3.4c0-1.9,6.3-6.9,6.3-6.9s4.3-0.2,6.8-1.4c-0.6-0.8-1-2.1-1.6-4.4
	c-1.2-5.2-3-8.2-1.6-9.9c1.4-1.6,5.4,2.1,7.5,1.2c2.1-0.9,5.9-2.8,5.4-4.9C461.7,295.1,458.2,292.3,456.3,291.8z"/>
<path class="st0" d="M272.3,293.2c0.7,1.9,1.4,8.4-0.2,11c-1.6,2.6-0.9,3.3,0.7,4.2c1.6,0.9,2.3,3.3,2.3,5.2c0,1.9,1.2,1.6,1.4,5.6
	c0.2,4,1.2,6.8,2.6,8.4c1.1,1.3,0.9,3.3,0.3,4.7c2,1.5,4.2,2.9,6.1,3.5c4.9,1.8,6.6,3.1,7,4.9c0.4,1.8,4.5,4.9,5.6,2.5
	c1-2.4,3.8-1,5.9-1c2.1,0,2.4,2.4,2.8,3.8c0.4,1.4,5.2,0.7,7,1.7c1.7,1.1,2.4,4.9,4.9,6.3c2.5,1.4,4.5-1.7,6.3-0.7
	c1.7,1,6.3,2.1,9.1,1c2.8-1,4.5,1,8,0.7c3.5-0.4,8,1,9.1,2.1c0.6,0.5,3.5,1.1,6.2,1.5c0.7-1.4-0.7-5.9-0.4-6.9
	c0.2-1.2,8.4-8.4,9.9-10.1c1.4-1.6,3.5-1.6,4.7-3.8c1.2-2.1-3.3-8.9-4.2-10.3c-0.9-1.4-1.4-7-0.7-9.4c0.7-2.3-3.5-3.8-3.5-5.4
	c0-1.6,4-4.5,6.1-5.4c2.1-0.9,1.4-7.5-0.5-9.2c-1.9-1.6-2.8-4.7-1.6-8c1.2-3.3-7-5.9-8.2-5.9c-0.2,0-0.3-0.2-0.4-0.5
	c-7.3,1.4-26.1-0.6-27.5-1.2c-0.9-0.4-3.3-1.2-5.3-2c-0.9,1.6-2.9,3-5.8,3c-4.5,0-4.8-4.5-5-6.6c-0.1-2-18.3,1.7-23.1,6.6
	c-4.8,4.9-16.1,3-16.4,5.6c-0.2,1.9-1.9,2.9-3,2.4C272.2,292.4,272.2,292.8,272.3,293.2z"/>
<path class="st0" d="M289.4,363.3c-2.8-3.2-9.8-3.2-9.8-3.2s-0.7,3.2-1.8,4.9c-0.9,1.5-6,1.4-9.2,0.6c-0.9,1.2-5.1,2.2-5.7,3.9
	c-0.7,2.1-5.9,0.9-4.2,6.6c1.6,5.6-2.6,3.8-4.2,3.1c-1.6-0.7-8.9,0.2-10.8,2.1c-1.9,1.9-4.5,1.4-6.1,0.5c-1.6-0.9-4.9-1.4-6.3,0.9
	c-1.4,2.4-4-1.9-6.1-1.6c-2.1,0.2-1.2,4.7-1.2,5.6c0,0.9,3.3,3.8,5.4,2.8c2.1-0.9,4.7,0.2,6.6,1.4c1.9,1.2,5.4-0.9,6.6-2.1
	c1.2-1.2,7.7-1.2,8.4-1.2c0.7,0,0.9,3.8,2.1,4.5c1.2,0.7,5.6,1.2,9.6,1.4c4,0.2,9.8,2.1,11.7,2.1c1.9,0,4.9-3.3,9.1-3.3
	c4.2,0,6.6-2.6,7.3-2.3l0,0c0.3-1.3,0.8-2.4,1.7-2.5c1.7-0.2,0.5-3.2,1.7-4.7c1.2-1.5-1-4.4,1.2-4.2c2.2,0.3,4.6,0.5,4.6-2.7
	c0-1.1,0.6-2,1.4-2.8c-2.4-3.4-4.2-8.8-4.2-8.8S292.2,366.4,289.4,363.3z"/>
<path class="st0" d="M357.3,372.1c-0.8-0.3-1.7-0.8-2.5-1.5c-2.9-0.7-5.8-1.5-6.7-2.4c-1.7-1.7-8.7-2.8-9.8-3.1
	c-1-0.4-7.7,6.3-9.8,6.3c-2.1,0-11.2,1.1-11.2,3.5c0,2.5-11.2,2.8-14.3,0c-0.5-0.4-1-1-1.4-1.7c-0.8,0.8-1.4,1.7-1.4,2.8
	c0,3.2-2.4,2.9-4.6,2.7c-2.2-0.2,0,2.7-1.2,4.2c-1.2,1.5,0,4.4-1.7,4.7c-0.9,0.1-1.4,1.2-1.7,2.5c0.7,0.4,2.5,4,2.5,4
	s-0.1,0.1-0.2,0.2c2.4,1.4,7.2,4.5,8.8,6.6c2.1,2.8,8,3.1,10.8,2.4c2.8-0.7,14.7-4.5,14.7-4.5s2.8,1,4.5,1.4c0.4,0.1,1.5,0.3,3,0.5
	c0.9-0.9,3.5-1.6,6.3-4.4c3.3-3.3,8.2-15,9.6-16c1.4-0.9,5.2-3.1,7-4.5C359.9,374.2,359.4,372.8,357.3,372.1z"/>
<path class="st0" d="M420.3,410.8c-2.2-0.3-5-1.2-4.1-2.5c0.1-0.1,0.2-0.2,0.3-0.4c-2.9-2.4-3.7-10-1.8-11.9
	c2.4-2.4-3.8-11.5-6.7-14.8c-1.3-1.6-4.3-6.8-7-11.9c-2.5,0.8-4.7,1.7-5.1,2.4c-0.9,1.6-4.1,3.1-5.9,3.1c-1.9,0-3.8-0.9-5.3,0.6
	c-1.6,1.6-3.8,2.2-4.7,1.3c-0.9-0.9-4.1-1.9-6.3-1.9c-2.2,0-9.1-1.9-10.6-1.9c-0.9,0-2.4,0.1-4.1,0.4c0.4,0.7,0.1,1.5-1,2.3
	c-1.9,1.4-5.6,3.5-7,4.5c-1.4,0.9-6.3,12.7-9.6,16c-3.3,3.3-6.3,3.8-6.6,4.9c-0.2,1.2,3.8,4.2,3.8,6.1c0,1.9,0.9,3.8,3.5,3.8
	c2.6,0-0.2,6.1,1.4,6.6c1.7,0.5,11.7,1.2,11.7,3.5c0,1.8,1.1,3.4,0.6,4.6c2.8,0.5,4.9,4.3,6,4.1c1.3-0.3,9.7,1.6,11.3,1.3
	c1.6-0.3,8.8,0,11.3,0.3c2.5,0.3,5.3-0.9,7.5-3.1c2.2-2.2,10-2.5,12.5-2.2c2.5,0.3,7.5,0.9,8.4,2.5c0.5,0.8,3.4,2,6.4,3
	c0.4-1.6-0.1-3.6,0-5.6c0.2-3.3,2-8.3,5.3-8.6c3.3-0.3,5.9-0.3,5.5-5.8c0-0.2,0-0.3,0-0.5c-1.7-1.4-3.2-2.6-3.7-2.6
	C425,408.3,421.2,410.9,420.3,410.8z"/>
<path class="st0" d="M292.2,462.1c-4.1-2.5-1.4-6.6-7.8-6.3c-6.4,0.3-14.1-7.7-16.4-16.9c-2.3-9.2-12.3-9.7-14.9-15.2
	c-2.5-5.5,2.3-6.1,0.2-10.6c-1.2-2.5,1.5-4.8,4.7-6c-0.3-5,0.2-10.5,0.6-14c-2.5-0.3-4.6-0.6-5.4-1.1c-1.2-0.7-1.4-4.5-2.1-4.5
	c-0.7,0-7.3,0-8.4,1.2c-1.2,1.2-4.7,3.3-6.6,2.1c-0.4-0.2-0.9-0.5-1.3-0.7l-2,1.9c0,0-0.3,2.5-1.6,2.5c-1.2,0-3.1-0.9-3.1,1.2
	c0,2.2-3.4,1.6-5,1.3c-1.6-0.3-3.8,0.3-3.8,2.2c0,1.9-0.3,6-2.8,3.8c-2.5-2.2-5-7.8-6-7.2c-0.9,0.6-3.1,7.5-5.3,7.5
	c-1.4,0-5.8,0.4-9,0.6c-0.8,2.7,0.1,4.3,1.2,5c1.2,0.7-0.7,3.5-2.1,4.2c-1.4,0.7-3.8,0-2.1,2.6c1.6,2.6,4.7,2.8,3,5.4
	c-1.6,2.6,0,4.9,2.3,5.2c2.3,0.2,5.6-0.2,4.9,1.7c-0.4,1.1-1.1,2.4-1.2,3.6c1.8-0.5,3.5-0.6,5.1-1.5c3.3-1.7,1.9-4.7,7.3-6.3
	c5.5-1.6,12.7,3,14.9,6.3c2.2,3.3,2.8,3.6,3.3,6.3c0.5,2.7,2.5,8,10,12.8c7.5,4.9,10.5,10.3,14.4,12.4c3.9,2,7.8,1.6,10.2,4.4
	c2.3,2.8,5.5,4.4,9.2,6.1c3.8,1.7,3.9,5.8,7.5,6.3c3.6,0.5,1.3,3.6,3.4,6.3c2.2,2.7,2.8,8.3,0.5,11.4c-2.3,3.1-1.1,8.4,0.5,8.4
	c1.6,0,4.8-5.6,5.3-8.8c0.5-3.1,3.6-3,6.1-6.3c2.5-3.3-3.7-4.1-4.8-8.3c-1.1-4.2,4.7-8,10.2-4.5c5.5,3.4,7.7,5.8,8,0.5
	C313.5,471.7,296.3,464.6,292.2,462.1z M215.6,467.1c-3.4,3-6.3-0.5-7.7,1.9c-1.7,3,5.3,7.5,3.9,13.6c-1.4,6.1,0.8,13.8,4.4,10.2
	c3.6-3.6,5.3-1.9,7.4-4.5c2-2.7,0.3-12.5,1.7-17.2C226.7,466.3,219,464.1,215.6,467.1z M276.1,502.6c-6.4,1.4-9.1,1.9-12.8,0
	c-3.8-1.9-9.8,1.7-8.9,4.2c0.6,1.7,3.1,3.9,10.9,6c7.8,2,8.8,7.3,12,7.5c3.3,0.2,3.6-3,2.8-7.2c-0.8-4.2,3.9-9.1,4.4-9.9
	C285,502.5,282.5,501.2,276.1,502.6z"/>
<path class="st0" d="M514.8,418.5l2.1,1.6l1.2-5.3l-0.1-1.7l3.3-3.8l3.6-0.2l0.1,1.8l3.3-0.2l3.6-0.2l3.3-2l-0.1-1.8l-1.8-1.7
	l-0.1-1.6l1.7-0.1l-0.1-1.9l-1.7,0.1l-3.7,0.3l-3.4,2.2l-1.3,1.7l-1.7,1.9l-6.9,0.5l-0.1-1.8l-2.1-1.5l-3.4,1.9l-1.7-1.5l-0.1-1.9
	l-1.8,0.1l-1.7,0.1l-0.2-3.1l-1.9-1.8l-2.1-1.5l-1.3,3.7l-1.5,1.7l-0.1-1.5l-1.8-1.8l-2,0.1l-0.1-1.7l-1.5,0.1l0.4,5.1l-1.7,1.7
	l-3.3,2.2l0.1,1.6l-3.7,0.3l-1.7,1.9l0.1,1.8l-3.2,2l0.1,1.8l3.2-2l1.8-0.1l1.8-0.1l2,1.6l3.5,1.4l1.7-1.8l0.1,1.7l1.8,3.3l-1.4,1.9
	l1.8,3.3l-1.4,2l0.1,1.7l5.2-0.4l1.8,1.7l5.2-2.2l1.3-5.3l1.6-1.9l1.4-1.9l3.4-1.9L514.8,418.5z"/>
<path class="st1" d="M229.4,389.4c-2.1,0.9-5.4-1.9-5.4-2.8c0-0.7-0.4-3,0-4.5c-1.7-0.9-4.2-2.1-6.1-2.7c-3.1-0.9-4.7-0.9-7.2,0.3
	c-1.6,0.8-6,0.6-9,0.3c-0.3,0.9-0.7,1.6-1.4,1.6c-2.1,0-4.9,2.1-5.4,4.5c-0.5,2.3-5.4,4.2-6.8,8.4c-1.4,4.2-0.7,6.1,1.4,3.5
	c2.1-2.6,4.7-1.6,4.7,0.5c0,2.1,2.8,2.3,1.9,5.2l0,0.2c3.2-0.3,7.7-0.6,9-0.6c2.2,0,4.4-6.9,5.3-7.5c0.9-0.6,3.4,5,6,7.2
	c2.5,2.2,2.8-1.9,2.8-3.8c0-1.9,2.2-2.5,3.8-2.2c1.6,0.3,5,0.9,5-1.3c0-2.2,1.9-1.2,3.1-1.2c1.3,0,1.6-2.5,1.6-2.5l2-1.9
	C233,389.3,231.1,388.7,229.4,389.4z"/>
</svg>
