<svg width="542" height="542" viewBox="0 0 542 542" fill="none" xmlns="http://www.w3.org/2000/svg">
<path fill-rule="evenodd" clip-rule="evenodd" d="M81.1334 349.403C82.0681 348.55 83.6026 350.253 84.9626 350.426C86.3238 350.595 87.7717 349.662 87.7717 349.662C87.7717 349.662 87.5157 349.489 85.3026 349.322C83.0932 349.149 82.9188 346.508 80.9603 347.447C79.0106 348.379 77.6493 348.635 75.2003 348.388C75.1652 349.135 74.7399 350.135 74.6094 351.129C75.2379 350.971 75.7172 350.863 75.9405 350.851C77.3043 350.767 80.1962 350.253 81.1334 349.403Z" fill="#FAFAFA" stroke="#E2E2E2"/>
<path fill-rule="evenodd" clip-rule="evenodd" d="M82.1942 359.946C83.2055 359.242 85.2241 357.419 85.9318 357.725C86.6369 358.029 87.5452 357.419 87.5452 357.019C87.5452 356.613 86.1338 355.3 87.2428 354.899C88.0057 354.624 88.1913 353.734 88.239 353.2C87.8388 353.01 87.421 352.864 87.0898 352.893C86.1551 352.978 80.4528 353.404 80.4528 353.404C80.4528 353.404 78.7465 354.513 77.8984 354.429C77.1832 354.354 77.8933 353.213 75.5898 353.798C76.7441 355.235 76.8934 355.956 79.2371 356.613C81.8617 357.354 79.0363 358.703 81.188 360.048C81.3887 360.176 81.5456 360.305 81.7074 360.432C81.9069 360.208 82.0826 360.03 82.1942 359.946Z" fill="#FAFAFA" stroke="#E2E2E2"/>
<path fill-rule="evenodd" clip-rule="evenodd" d="M313.793 444.208C313.375 442.1 320.105 432.427 321.784 432.427C323.181 432.427 323.707 423.126 323.114 418.294C317.901 414.69 313.567 413.462 313.567 413.462C313.567 413.462 299.559 412.771 297.223 411.833C294.887 410.898 292.55 414.872 290.451 413.238C288.349 411.607 285.307 413.698 285.777 416.041C286.244 418.373 290.68 419.782 290.68 423.283C290.68 426.785 299.559 431.93 299.323 433.797C299.162 435.107 304.649 438.672 307.923 443.475C309.665 444.574 311.521 446.009 313.355 447.488C313.719 445.945 313.901 444.741 313.793 444.208Z" fill="#FAFAFA" stroke="#E2E2E2"/>
<path fill-rule="evenodd" clip-rule="evenodd" d="M299.322 433.797C299.558 431.93 290.679 426.785 290.679 423.283C290.679 419.782 286.243 418.373 285.776 416.04C285.306 413.698 288.348 411.607 290.45 413.238C292.549 414.872 294.886 410.898 297.222 411.833C299.558 412.771 313.566 413.462 313.566 413.462C313.566 413.462 317.9 414.69 323.113 418.294C323 417.322 322.838 416.511 322.622 416.025C321.365 413.074 322.622 409.715 319.258 408.454C317.527 407.806 316.806 404.81 316.501 402.051C314.916 402.532 313.576 402.93 312.845 403.115C310.052 403.813 304.112 403.461 302.012 400.665C300.451 398.584 295.597 395.529 293.217 394.104C292.24 394.959 288.515 398.151 286.89 398.343C285.011 398.584 286.189 403.515 284.308 403.515C282.434 403.515 281.025 406.795 280.554 408.208C280.088 409.613 275.871 407.265 273.986 407.967C272.646 408.479 268.692 409.093 266.531 409.407C266.861 411.547 266.732 413.914 268.441 413.914C271.259 413.914 276.421 413.61 276.573 417.361C276.72 421.113 283.454 429.411 285.948 432.23C288.451 435.05 294.085 434.421 294.395 436.768C294.714 439.115 298.778 441.304 303.474 441.619C304.746 441.702 306.278 442.439 307.922 443.475C304.648 438.672 299.16 435.107 299.322 433.797Z" fill="#FAFAFA" stroke="#E2E2E2"/>
<path fill-rule="evenodd" clip-rule="evenodd" d="M334.049 478.849C336.396 478.389 334.987 476.508 336.63 474.863C338.271 473.223 340.146 469.938 340.385 468.763C340.41 468.635 340.498 468.548 340.611 468.47C337.426 466.077 335.199 464.359 334.491 461.899C333.78 459.394 334.516 454.494 335.639 450.919C333.819 449.623 328.228 445.759 326.471 445.759C324.734 445.759 322.059 449.623 321.396 453.336C325.499 455.525 327.114 457.086 324.272 459.925C321.307 462.9 320.679 472.913 323.958 475.571C327.085 478.104 327.983 483.132 331.006 484.565C331.86 482.041 332.502 479.174 334.049 478.849Z" fill="#FAFAFA" stroke="#E2E2E2"/>
<path fill-rule="evenodd" clip-rule="evenodd" d="M313.899 347.878C312.143 346.838 307.254 347.529 306.9 346.131C306.561 344.735 306.214 342.29 304.112 342.29C302.012 342.29 299.219 340.895 298.174 343.336C297.124 345.786 292.932 342.635 292.573 340.885C292.234 339.137 290.483 337.742 285.59 335.99C283.652 335.298 281.442 333.894 279.474 332.44C279.312 332.862 279.12 333.255 278.914 333.56C277.977 334.973 274.693 332.39 273.285 333.8C271.876 335.209 267.185 335.44 264.608 337.793C262.024 340.14 256.627 341.308 253.578 342.015C250.526 342.722 253.113 345.536 254.279 347.652C255.459 349.754 255.459 354.925 257.804 356.569C260.15 358.21 267.89 363.14 268.828 364.785C268.99 365.065 268.892 365.331 268.696 365.576C271.948 366.454 277.025 366.474 277.904 365.011C278.953 363.267 279.656 360.114 279.656 360.114C279.656 360.114 286.639 360.114 289.433 363.267C292.234 366.41 297.476 364.308 297.476 364.308C297.476 364.308 297.767 365.202 298.238 366.444C298.993 364.716 299.979 363.198 301.177 363.022C304.127 362.605 308.324 362.183 311.268 357.974C312.795 355.809 315.308 354.085 317.399 352.927C315.986 351.198 315.254 348.699 313.899 347.878Z" fill="#FAFAFA" stroke="#E2E2E2"/>
<path fill-rule="evenodd" clip-rule="evenodd" d="M342.2 355.225C338.705 355.568 336.954 353.475 334.166 354.522C331.373 355.568 326.824 354.522 325.08 353.475C323.323 352.425 321.238 355.568 318.788 354.173C318.248 353.864 317.797 353.423 317.399 352.927C315.309 354.085 312.796 355.809 311.269 357.974C308.324 362.183 304.128 362.605 301.178 363.022C299.98 363.198 298.994 364.716 298.238 366.444C299.199 368.925 300.961 372.926 303.062 374.793C306.214 377.602 317.384 377.243 317.384 374.793C317.384 372.351 326.47 371.301 328.565 371.301C330.665 371.301 337.311 364.653 338.353 365.011C339.408 365.36 346.391 366.41 348.134 368.159C349.002 369.022 351.845 369.887 354.789 370.545C353.552 369.456 352.575 368.051 352.575 366.892C352.575 365.021 356.106 360.09 357.267 359.153C357.366 359.074 357.415 358.937 357.478 358.819C354.789 358.416 351.835 357.866 351.28 357.316C350.235 356.266 345.685 354.871 342.2 355.225Z" fill="#FAFAFA" stroke="#E2E2E2"/>
<path fill-rule="evenodd" clip-rule="evenodd" d="M46.0297 505.302C50.2101 504.542 44.8829 501.113 43.7375 499.975C42.5957 498.83 44.1176 494.26 46.4048 494.26C48.6845 494.26 46.4048 491.597 43.356 488.543C40.3136 485.499 43.356 484.36 46.0297 484.36C48.6845 484.36 45.2631 479.788 47.9191 477.122C50.5852 474.45 47.1576 469.51 47.1576 467.221C47.1576 464.944 50.9666 464.178 54.0141 461.133C57.0554 458.083 51.3518 459.228 51.3518 456.949C51.3518 454.662 47.5377 453.894 44.8829 455.806C42.2106 457.715 42.9759 455.806 40.6937 455.806C38.4065 455.806 34.2198 456.567 34.2198 454.278C34.2198 451.985 32.3178 451.617 30.4158 453.894C29.8562 454.572 28.8964 454.931 27.6017 455.093C27.3231 458.078 27.0145 460.863 27.889 462.272C29.9177 465.558 25.381 482.926 21.316 487.619C17.2472 492.315 21.1692 493.572 25.381 496.857C29.6066 500.142 26.7937 512.035 26.7937 514.849C26.7937 517.667 30.5463 516.886 34.9249 516.886C37.5321 516.886 40.4779 515.728 43.3711 515.217C42.5142 513.911 41.8342 512.624 41.8342 511.775C41.8342 509.485 41.8342 506.064 46.0297 505.302Z" fill="#FAFAFA" stroke="#E2E2E2"/>
<path fill-rule="evenodd" clip-rule="evenodd" d="M168.92 327.122C170.832 325.212 174.177 326.164 176.094 328.08C178.006 329.994 180.876 330.466 183.746 333.333C184.483 334.08 185.277 334.747 186.054 335.342C186.325 333.324 186.377 329.306 187.266 327.23C188.2 325.045 186.325 322.222 187.893 322.222C189.45 322.222 193.832 322.222 193.832 319.407C193.832 316.593 195.087 317.532 196.027 315.961C196.969 314.398 193.211 311.266 192.579 310.323C191.963 309.389 195.396 309.076 197.904 305.329C198.807 303.959 198.432 301.17 197.595 298.155C197.18 299.265 196.34 300.069 194.928 299.221C192.579 297.811 188.993 298.598 184.296 299.536C179.604 300.474 178.197 305.01 179.908 306.885C181.634 308.772 175.38 309.705 174.914 307.205C174.441 304.691 169.753 306.42 170.057 309.705C170.376 312.989 164.894 314.241 165.21 318.308C165.529 322.384 160.207 326.134 156.763 328.168C156.229 328.493 155.674 328.817 155.109 329.14C156.84 329.935 158.223 330.466 158.881 330.466C161.753 330.466 167.01 329.041 168.92 327.122Z" fill="#FAFAFA" stroke="#E2E2E2"/>
<path fill-rule="evenodd" clip-rule="evenodd" d="M186.71 345.315C184.624 346.484 182.722 348.988 183.012 354.301C185.046 354.244 187.912 354.477 189.989 355.087C189.486 349.302 187.225 347.509 186.644 346.317C186.475 345.992 186.531 345.654 186.71 345.315Z" fill="#FAFAFA" stroke="#E2E2E2"/>
<path fill-rule="evenodd" clip-rule="evenodd" d="M149.415 333.56C149.646 335.209 152.231 339.196 153.165 337.557C154.105 335.911 156.454 339.668 158.561 340.842C160.673 342.015 164.893 343.424 165.128 344.834C165.364 346.239 166.069 349.292 168.182 348.354C170.292 347.411 172.872 344.126 172.872 346.003C172.872 347.878 173.576 351.404 175.919 350.934C178.268 350.462 178.973 354.925 181.32 354.449C181.748 354.374 182.332 354.321 183.012 354.301C182.722 348.988 184.624 346.484 186.71 345.315C187.193 344.381 188.602 343.4 188.828 342.251C189.142 340.69 185.704 337.557 186.01 335.681L186.053 335.342C185.276 334.747 184.482 334.08 183.746 333.333C180.875 330.466 178.006 329.994 176.094 328.08C174.176 326.164 170.832 325.212 168.92 327.122C167.009 329.041 161.752 330.466 158.88 330.466C158.223 330.466 156.839 329.935 155.109 329.14C152.849 330.442 150.444 331.683 148.049 332.165C148.524 332.818 149.261 332.474 149.415 333.56Z" fill="#FAFAFA" stroke="#E2E2E2"/>
<path fill-rule="evenodd" clip-rule="evenodd" d="M424.688 377.617C423.431 373.55 419.376 371.98 417.178 371.98C414.989 371.98 411.233 366.98 408.73 367.284C407.372 367.456 403.989 368.276 401.02 369.248C403.738 374.376 406.65 379.605 407.994 381.182C410.856 384.526 417.074 393.615 414.689 396.006C412.819 397.881 413.59 405.557 416.52 407.928C417.879 406.156 422.494 400.341 422.494 398.584C422.494 396.709 422.812 392.947 426.558 393.89C430.316 394.827 433.752 396.394 433.752 395.142C433.752 393.89 432.814 389.823 431.254 388.251C429.694 386.696 425.944 381.688 424.688 377.617Z" fill="#FAFAFA" stroke="#E2E2E2"/>
<path fill-rule="evenodd" clip-rule="evenodd" d="M404.359 425.807C401.86 425.497 394.032 425.807 391.838 428.002C389.648 430.192 386.837 431.446 384.339 431.131C381.835 430.82 374.634 430.506 373.073 430.82C371.513 431.131 363.067 429.254 361.814 429.568C360.705 429.843 358.624 425.984 355.787 425.512C355.644 425.866 355.399 426.2 354.928 426.514C352.819 427.929 352.577 431.671 354.928 433.792C357.269 435.903 360.323 440.598 358.211 440.598C356.107 440.598 354.457 443.412 354.693 444.82C354.928 446.235 353.986 449.28 354.693 449.987C355.399 450.688 360.323 455.388 360.553 456.793C360.764 458.03 362.782 458.673 362.63 459.757C366.569 459.464 374.93 458.982 376.824 459.926C379.327 461.182 388.093 461.801 388.093 461.801C390.586 461.801 392.78 460.863 392.156 459.302C391.627 457.98 394.886 457.106 397.238 456.862C396.83 455.417 396.55 454.229 397.159 453.973C398.327 453.508 405.139 452.57 407.946 453.973C409.375 454.695 410.985 454.013 412.22 453.178C411.848 451.862 411.484 450.821 410.764 450.688C409.036 450.378 406.391 443.181 408.574 442.709C410.764 442.242 413.58 434.725 417.021 433.635C418.391 433.203 418.975 432.377 419.22 431.366C416.24 430.364 413.297 429.138 412.805 428.322C411.863 426.75 406.852 426.126 404.359 425.807Z" fill="#FAFAFA" stroke="#E2E2E2"/>
<path fill-rule="evenodd" clip-rule="evenodd" d="M340.61 468.47C340.707 468.396 340.847 468.342 341.012 468.293L341.101 468.264C341.267 468.224 341.474 468.199 341.689 468.18L341.779 468.17C342.691 468.092 343.913 468.146 345.17 468.107L345.425 468.102C345.706 468.087 345.979 468.067 346.264 468.048L346.593 468.017C346.957 467.968 347.314 467.909 347.652 467.821C350.466 467.123 351.172 464.07 352.575 464.772C353.984 465.475 361.495 461.644 362.433 460.239C362.554 460.072 362.608 459.915 362.628 459.757C362.78 458.673 360.763 458.03 360.552 456.792C360.321 455.388 355.398 450.688 354.692 449.987C354.543 449.84 354.486 449.574 354.456 449.26L354.441 449.172C354.422 448.837 354.441 448.449 354.486 448.026C347.147 449.092 336.261 451.361 336.261 451.361C336.261 451.361 335.996 451.164 335.637 450.919C334.515 454.494 333.778 459.395 334.489 461.899C335.197 464.359 337.424 466.077 340.61 468.47Z" fill="#FAFAFA" stroke="#E2E2E2"/>
<path fill-rule="evenodd" clip-rule="evenodd" d="M537.924 359.615C537.924 358.682 541.207 357.036 540.971 355.161C540.736 353.284 537.924 353.045 534.875 351.404C531.823 349.754 528.77 350.461 525.953 349.057C523.144 347.652 517.275 348.586 517.275 347.652C517.275 346.715 513.525 343.661 512.583 342.015C511.646 340.376 508.598 341.308 506.721 342.482C504.838 343.661 503.193 344.126 501.324 342.958C499.449 341.779 497.803 339.904 496.165 340.605C494.516 341.308 491.467 340.841 492.175 338.489C492.876 336.142 489.126 330.987 487.483 330.285C485.838 329.572 480.91 330.746 479.743 328.404C478.564 326.051 476.453 324.176 477.396 322.535C478.329 320.89 477.161 316.427 475.987 314.552C474.81 312.676 468.949 312.91 467.31 313.612C465.666 314.315 461.907 312.91 460.266 313.849C458.623 314.792 457.689 316.427 455.338 316.427C454.033 316.427 453.16 316.255 452.448 315.219C449.91 316.363 445.651 316.593 445.651 316.593C445.651 316.593 439.383 321.598 439.383 323.473C439.383 325.35 439.083 328.481 437.507 326.921C435.946 325.353 429.38 325.35 427.819 326.292C426.248 327.23 423.751 322.535 420.933 324.102C418.121 325.663 414.365 321.913 414.047 323.473C413.737 325.045 409.673 323.788 406.851 322.535C404.045 321.284 399.033 323.164 397.158 320.969C395.283 318.78 383.081 318.78 379.018 318.78C374.954 318.78 374.01 320.969 372.131 322.85C370.437 324.554 368.47 324.2 366.471 324.112C366.648 325.693 366.958 327.098 367.359 327.697C368.298 329.105 372.759 335.911 371.583 338.029C370.413 340.14 368.298 340.14 366.889 341.779C365.48 343.423 357.268 350.701 357.039 351.871C356.803 353.045 358.448 358.21 357.269 359.153C356.107 360.09 352.576 365.021 352.576 366.892C352.576 368.773 355.159 371.355 357.269 372.058C358.157 372.361 358.731 372.779 358.991 373.275C360.632 373.049 362.138 372.921 363.065 372.921C364.632 372.921 371.512 374.806 373.692 374.806C375.886 374.806 379.018 375.74 379.955 376.683C380.897 377.617 383.081 376.988 384.647 375.427C386.213 373.864 388.092 374.806 389.968 374.806C391.837 374.806 394.974 373.231 395.911 371.675C396.848 370.112 406.238 367.598 408.731 367.284C411.234 366.98 414.989 371.98 417.178 371.98C419.376 371.98 423.431 373.55 424.689 377.617C425.944 381.688 429.695 386.696 431.254 388.251C432.815 389.823 433.752 393.89 433.752 395.142C433.752 396.394 430.317 394.827 426.558 393.89C422.813 392.947 422.494 396.709 422.494 398.584C422.494 400.459 417.178 407.029 416.24 408.286C415.298 409.543 418.121 410.476 420.309 410.786C421.242 410.918 425.002 408.286 426.248 408.286C426.759 408.286 428.314 409.489 429.979 410.914C429.619 406.019 430.637 406.292 435.004 402.974C439.545 399.532 440.011 393.113 444.075 392.327C448.149 391.541 449.861 389.661 455.81 390.598C461.754 391.541 452.841 395.294 456.895 397.485C459.572 398.928 465.872 398.215 470.07 398.436C475.427 397.527 481.014 397.629 486.536 398.657C489.277 396.189 494.57 392.815 498.035 392.484C502.89 392.013 506.797 390.598 511.488 388.418C513.378 387.536 516.701 386.641 520.092 385.994C519.581 383.784 518.924 381.182 520.328 380.976C521.967 380.749 526.896 375.342 528.539 375.342C530.183 375.342 537.216 376.751 537.216 375.583C537.216 374.405 539.567 370.417 539.091 369.238C538.625 368.07 536.279 366.43 536.751 365.252C537.216 364.082 540.5 364.082 540.5 362.669C540.5 361.264 537.924 360.557 537.924 359.615Z" fill="#FAFAFA" stroke="#E2E2E2"/>
<path fill-rule="evenodd" clip-rule="evenodd" d="M364.479 253.931C367.345 253.931 374.05 255.365 377.873 253.931C381.692 252.498 381.692 256.81 384.087 256.317C386.474 255.842 391.257 259.196 394.129 261.592C395.655 262.863 397.472 263.88 399.484 265.049C399.941 264.268 400.558 263.497 401.54 262.761C404.045 260.885 406.543 261.818 408.731 261.818C410.925 261.818 411.234 259.319 412.804 258.066C413.683 257.359 415.053 256.956 416.093 256.74C415.254 255.012 415.21 251.634 413.816 250.238C412.172 248.599 409.826 245.776 410.532 244.134C411.234 242.49 411.234 240.143 409.354 238.267C408.535 237.447 407.906 236.485 407.568 235.566C403.754 235.075 398.62 234.526 397.472 234.908C395.591 235.536 388.092 229.585 386.836 228.642C386.016 228.034 380.45 228.352 375.439 228.819C372.553 232.021 374.634 234.374 374.482 239.289C374.325 244.297 368.847 243.36 365.884 243.36C362.904 243.36 358.054 234.436 356.498 232.399C354.927 230.371 349.916 234.908 346.324 237.094C342.727 239.289 344.607 243.512 342.102 245.544C339.604 247.577 338.039 251.024 340.533 255.562C340.636 255.749 340.703 255.94 340.803 256.122C343.929 255.876 347.261 255.297 349.181 253.931C352.528 251.535 361.618 253.931 364.479 253.931Z" fill="#FAFAFA" stroke="#E2E2E2"/>
<path fill-rule="evenodd" clip-rule="evenodd" d="M346.715 271.128C347.889 272.777 351.644 274.182 353.052 273.48C354.456 272.777 358.912 275.119 358.912 276.997C358.912 278.878 357.744 284.514 358.912 284.514C359.979 284.514 366.736 286.611 367.197 289.439C370.227 289.512 373.667 289.665 374.953 289.989C377.461 290.613 379.017 289.051 380.264 287.485C381.518 285.918 385.893 285.294 387.144 285.294C388.401 285.294 388.401 281.852 388.71 280.281C389.025 278.724 392.155 275.905 394.031 275.281C395.91 274.657 395.59 272.463 397.471 272.463C399.35 272.463 399.032 269.954 398.722 268.388C398.536 267.44 398.757 266.251 399.483 265.049C397.471 263.88 395.654 262.863 394.129 261.592C391.257 259.196 386.473 255.842 384.086 256.317C381.691 256.81 381.691 252.498 377.872 253.931C374.049 255.365 367.345 253.931 364.478 253.931C361.617 253.931 352.528 251.535 349.18 253.931C347.261 255.297 343.928 255.876 340.802 256.122C342.937 260.491 342.156 264.912 339.755 267.612C338.053 269.536 339.044 269.791 340.291 270.548C342.863 270.307 345.773 269.811 346.715 271.128Z" fill="#FAFAFA" stroke="#E2E2E2"/>
<path fill-rule="evenodd" clip-rule="evenodd" d="M229.413 389.431C227.306 390.364 224.018 387.544 224.018 386.613C224.018 385.959 223.586 383.622 224.028 382.163C222.28 381.27 219.782 380.052 217.918 379.497C214.787 378.56 213.228 378.56 210.73 379.806C209.131 380.602 204.726 380.381 201.752 380.12C201.49 381.054 201.069 381.681 200.324 381.681C198.211 381.681 195.396 383.794 194.928 386.146C194.461 388.488 189.533 390.364 188.12 394.591C186.716 398.819 187.42 400.694 189.533 398.112C191.643 395.529 194.225 396.472 194.225 398.584C194.225 400.694 197.041 400.925 196.1 403.749L196.073 403.916C199.281 403.631 203.74 403.277 205.097 403.277C207.286 403.277 209.475 396.394 210.41 395.765C211.345 395.142 213.858 400.774 216.361 402.974C218.86 405.164 219.176 401.088 219.176 399.212C219.176 397.331 221.365 396.709 222.927 397.023C224.489 397.331 227.931 397.96 227.931 395.765C227.931 393.585 229.814 394.518 231.056 394.518C232.31 394.518 232.629 392.013 232.629 392.013L234.676 390.109C233.01 389.264 231.069 388.694 229.413 389.431Z" fill="#7E5AF6" stroke="#E2E2E2"/>
<path fill-rule="evenodd" clip-rule="evenodd" d="M197.904 305.329C195.396 309.076 191.963 309.389 192.579 310.323C193.212 311.266 196.969 314.398 196.027 315.961C195.088 317.532 193.833 316.593 193.833 319.407C193.833 322.222 189.45 322.222 187.893 322.222C186.325 322.222 188.201 325.045 187.266 327.23C186.325 329.419 186.325 333.8 186.012 335.681C185.705 337.557 189.143 340.69 188.829 342.251C188.52 343.823 186.012 345.069 186.645 346.317C187.226 347.509 189.487 349.302 189.99 355.087C191.07 355.401 191.953 355.809 192.344 356.335C193.756 358.21 196.1 359.615 199.146 359.615C202.199 359.615 203.372 361.735 204.778 361.495C206.186 361.264 209.944 362.443 206.896 365.021C203.844 367.598 203.372 370.653 202.673 373.703C202.215 375.681 202.24 378.422 201.752 380.12C204.727 380.381 209.132 380.602 210.73 379.806C213.228 378.56 214.788 378.56 217.918 379.497C219.782 380.052 222.28 381.27 224.028 382.163C224.22 381.534 224.554 381.054 225.189 380.976C227.306 380.749 229.886 384.966 231.295 382.614C232.704 380.273 235.983 380.749 237.623 381.681C239.268 382.614 241.849 383.091 243.729 381.211C245.604 379.335 252.877 378.398 254.523 379.098C256.165 379.806 260.383 381.681 258.744 376.045C257.1 370.417 262.258 371.592 262.964 369.474C263.666 367.363 269.767 366.43 268.83 364.785C267.891 363.14 260.151 358.21 257.805 356.569C255.46 354.925 255.46 349.754 254.281 347.652C253.114 345.536 250.527 342.722 253.58 342.015C256.628 341.308 262.026 340.14 264.609 337.793C267.186 335.44 271.877 335.209 273.286 333.8C274.695 332.39 277.978 334.973 278.916 333.56C279.858 332.155 280.555 329.336 279.156 327.697C277.749 326.051 276.805 323.237 276.574 319.25C276.339 315.263 275.165 315.49 275.165 313.613C275.165 311.737 274.463 309.389 272.819 308.447C271.18 307.514 270.474 306.807 272.113 304.229C273.758 301.641 273.05 295.071 272.344 293.196C272.207 292.822 272.221 292.38 272.3 291.908C271.877 291.712 271.543 291.3 271.412 290.613C270.94 288.108 269.227 287.171 265.157 287.171C261.089 287.171 267.657 283.1 266.091 281.067C264.535 279.039 260.461 284.818 256.716 283.566C252.956 282.324 248.112 287.955 244.829 290.454C241.54 292.964 236.848 289.989 239.351 286.384C241.849 282.79 239.351 283.1 235.594 284.513C231.839 285.918 227.306 284.2 227.773 280.753C227.892 279.888 227.616 279.078 227.157 278.316C225.323 278.571 223.915 278.63 223.243 278.406C221.561 277.849 217.747 277.546 213.586 277.463C214.83 279.284 216.178 281.067 215.416 282.476C214.012 285.142 216.207 287.646 218.232 291.55C220.267 295.469 213.858 293.274 213.699 295.778C213.539 298.283 207.759 295.621 205.877 294.68C204.008 293.744 197.745 294.368 197.904 295.935C197.966 296.56 197.868 297.418 197.596 298.155C198.432 301.17 198.807 303.959 197.904 305.329Z" fill="#FAFAFA" stroke="#E2E2E2"/>
<path fill-rule="evenodd" clip-rule="evenodd" d="M434.695 169.191C437.202 163.559 448.447 159.209 450.341 154.171C451.274 151.657 451.589 150.408 447.525 145.715C443.456 141.02 434.39 137.892 434.071 135.393C433.752 132.879 440.957 132.574 440.639 129.441C440.325 126.309 436.579 126.318 435.004 123.814C433.443 121.31 436.888 119.733 436.574 118.492C436.26 117.244 431.568 116.615 431.254 115.044C430.94 113.483 434.39 113.797 433.752 111.921C433.129 110.045 430.008 106.594 432.196 103.779C434.39 100.965 439.082 103.779 435.632 97.5246C432.196 91.2635 426.876 83.4397 425.625 81.5544C424.368 79.6791 426.876 76.5461 428.757 75.3084C430.636 74.0519 435.322 69.3574 435.322 67.4771C435.322 65.6005 429.379 60.5872 427.818 59.6546C426.248 58.7119 422.812 59.0307 421.25 55.8927C419.676 52.7697 418.12 51.832 419.676 49.9505C421.25 48.0752 421.25 46.1986 421.25 44.3133C421.25 42.438 424.688 43.9995 425.305 41.1865C425.59 39.9049 426.494 38.5003 427.647 37.3305C427.657 35.1953 427.887 32.897 427.647 31.4385C427.142 28.4134 418.601 27.4117 416.594 23.8908C414.576 20.3812 409.556 21.88 408.044 23.8908C406.542 25.9029 397.491 23.3925 397.491 26.4101C397.491 29.4251 390.964 29.931 390.964 33.4468C390.964 36.9677 393.976 42.9978 388.95 42.502C383.924 41.9961 387.439 44.5103 384.426 48.5321C381.407 52.5538 381.407 46.0128 378.393 47.0195C375.385 48.0262 371.866 43.9995 370.354 46.5137C368.847 49.0379 363.821 47.0195 358.795 46.0128C353.764 45.0112 351.261 37.9794 347.236 37.4685C344.566 37.1397 341.714 39.266 340.223 42.63C344.115 45.1492 346.668 48.7241 351.758 51.0463C357.283 53.5605 367.336 56.5705 366.845 60.0964C366.334 63.6123 364.823 68.6394 367.336 70.152C369.853 71.6557 366.845 78.1967 369.853 79.708C372.867 81.2205 371.866 88.7531 369.348 88.7531C366.845 88.7531 369.853 92.7748 371.365 94.2723C372.048 94.9702 372.602 97.0124 372.852 99.4978C375.939 100.245 378.683 101.805 381.362 103.004C385.589 104.879 384.956 107.845 385.118 111.135C385.27 114.415 385.422 116.291 383.244 114.887C381.053 113.483 378.702 114.887 377.451 119.586C376.194 124.276 370.256 129.913 366.659 130.227C363.056 130.537 363.376 134.294 360.4 135.073C357.435 135.854 354.618 137.579 354.775 140.862C354.927 144.148 350.398 144.462 347.419 144.462C344.449 144.462 345.078 149.781 342.727 151.185C340.384 152.6 340.847 154.475 343.041 157.293C345.23 160.112 343.355 162.617 344.131 164.65C344.92 166.682 348.361 171.377 346.01 176.537C343.669 181.703 341.165 188.121 343.197 187.497C345.225 186.875 349.921 191.725 353.052 191.411C356.179 191.087 356.498 195.782 359.462 194.848C362.433 193.917 362.433 197.657 371.041 197.359C379.644 197.043 397 189.85 403.886 189.85C407.788 189.85 410.91 189.378 413.369 188.77C414.847 186.546 416.638 184.13 418.429 182.337C422.812 177.947 432.196 174.824 434.695 169.191Z" fill="#FAFAFA" stroke="#E2E2E2"/>
<path fill-rule="evenodd" clip-rule="evenodd" d="M221.52 441.147C219.795 440.99 219.326 444.114 214.952 446.785C210.575 449.446 214.985 461.457 219.326 460.863C223.864 460.239 223.238 441.304 221.52 441.147ZM204.779 361.495C203.372 361.735 202.199 359.615 199.147 359.615C196.1 359.615 193.757 358.21 192.344 356.335C190.935 354.449 183.671 353.987 181.322 354.449C178.975 354.925 178.269 350.462 175.921 350.933C173.577 351.404 172.873 347.878 172.873 346.003C172.873 344.126 170.294 347.411 168.184 348.354C166.071 349.292 165.366 346.239 165.13 344.834C164.895 343.423 160.675 342.015 158.563 340.842C156.455 339.668 154.107 335.911 153.167 337.557C152.232 339.196 149.648 335.209 149.417 333.56C149.262 332.474 148.526 332.818 148.05 332.165C147.247 332.332 146.452 332.43 145.659 332.39C141.905 332.233 138.621 335.209 139.252 341.475C139.873 347.726 134.71 348.354 128.298 348.821C121.885 349.292 124.08 354.301 121.421 356.335C118.761 358.377 109.376 355.244 108.122 351.807C106.868 348.364 98.4311 351.807 102.024 355.863C105.626 359.938 105.462 365.571 103.433 367.132C101.401 368.699 97.0121 364.633 94.198 366.66C91.3864 368.699 91.2283 364.785 87.7956 363.543C84.3529 362.281 82.9389 365.095 77.4713 364.633C71.9885 364.156 68.8645 367.284 70.8983 369.636C72.9283 371.98 70.5846 374.169 72.1491 376.212C73.7162 378.245 80.909 377.926 86.2223 380.749C91.5457 383.558 92.789 381.211 95.4526 383.253C98.1124 385.286 98.741 384.029 98.8941 387.947C99.0547 391.856 102.024 395.608 107.187 397.023C112.346 398.431 108.437 401.874 110.005 405.316C111.561 408.758 107.656 413.762 108.437 417.99C109.222 422.212 105.934 435.825 103.433 437.077C103.273 437.16 103.016 437.16 102.809 437.198C105.152 438.368 107.619 439.39 108.822 440.185C111.109 441.717 116.046 443.229 119.099 445.135C122.14 447.044 127.471 446.667 127.471 444.368C127.471 442.095 130.511 443.623 132.418 445.517C134.32 447.424 141.554 447.806 144.978 448.562C147.864 449.201 152.078 448.798 155.844 448.876C155.697 448.022 155.505 447.134 155.208 446.161C153.331 440.053 158.799 436.454 163.957 435.667C169.118 434.891 180.382 438.014 183.362 439.891C186.325 441.771 190.397 441.304 195.561 435.825C198.16 433.055 200.297 432.053 202.185 431.509C202.322 430.281 202.961 429.028 203.372 427.929C204.081 426.043 200.793 426.514 198.449 426.278C196.1 426.043 194.462 423.696 196.1 421.113C197.745 418.53 194.698 418.294 193.053 415.715C191.409 413.138 193.757 413.84 195.161 413.138C196.567 412.43 198.449 409.613 197.272 408.915C196.1 408.208 195.161 406.567 196.1 403.749C197.041 400.925 194.226 400.694 194.226 398.584C194.226 396.472 191.644 395.529 189.534 398.112C187.421 400.694 186.717 398.819 188.121 394.591C189.534 390.364 194.462 388.488 194.928 386.146C195.396 383.794 198.212 381.681 200.325 381.681C202.437 381.681 201.964 376.751 202.673 373.703C203.372 370.653 203.844 367.598 206.896 365.021C209.944 362.443 206.186 361.264 204.779 361.495Z" fill="#FAFAFA" stroke="#E2E2E2"/>
<path fill-rule="evenodd" clip-rule="evenodd" d="M155.843 448.876C152.077 448.798 147.862 449.201 144.977 448.562C141.553 447.806 134.319 447.423 132.417 445.517C130.51 443.623 127.47 442.095 127.47 444.368C127.47 446.667 122.139 447.044 119.098 445.135C116.045 443.229 111.108 441.717 108.821 440.185C107.618 439.39 105.151 438.368 102.807 437.198C99.6332 437.819 90.5183 434.465 84.5061 435.201C78.0937 435.982 57.5993 434.259 49.6237 434.891C41.6505 435.51 41.1763 431.606 36.7988 431.606C32.4202 431.606 34.2996 436.915 28.0428 437.077C21.7847 437.239 21.1687 441.147 25.6941 444.752C28.2774 446.805 27.9663 451.125 27.6012 455.093C28.8959 454.931 29.8557 454.572 30.4153 453.894C32.3173 451.617 34.2193 451.985 34.2193 454.278C34.2193 456.567 38.406 455.806 40.6932 455.806C42.9754 455.806 42.2101 457.715 44.8824 455.806C47.5372 453.894 51.3513 454.662 51.3513 456.949C51.3513 459.228 57.0548 458.083 54.0136 461.133C50.9661 464.178 47.1571 464.944 47.1571 467.221C47.1571 469.51 50.5847 474.45 47.9186 477.122C45.2626 479.788 48.684 484.36 46.0292 484.36C43.3555 484.36 40.3131 485.499 43.3555 488.543C46.4043 491.597 48.684 494.26 46.4043 494.26C44.1171 494.26 42.5952 498.83 43.7369 499.975C44.8824 501.113 50.2096 504.542 46.0292 505.302C41.8337 506.064 41.8337 509.485 41.8337 511.775C41.8337 512.623 42.5137 513.911 43.3706 515.217C45.314 514.873 47.2311 514.814 48.9976 515.64C53.3763 517.667 55.9144 528.572 61.8237 527.837C64.3317 527.523 63.0771 525.646 64.3317 524.389C65.5851 523.142 67.9237 524.085 70.4317 524.085C72.9272 524.085 74.1868 520.481 80.1225 520.328C86.0669 520.176 89.8233 519.695 93.5734 519.857C97.331 520.009 100.301 518.756 101.235 516.1C102.173 513.439 105.307 511.097 109.53 510.469C113.754 509.844 113.128 505.454 113.434 502.959C113.754 500.457 120.794 496.695 121.256 494.819C121.73 492.939 117.187 485.744 121.41 479.326C125.633 472.913 130.176 472.604 130.176 468.999C130.176 465.701 134.55 464.467 139.872 463.828C145.193 463.215 146.913 459.61 151.451 457.735C155.252 456.154 156.608 453.346 155.843 448.876Z" fill="#FAFAFA" stroke="#E2E2E2"/>
<path fill-rule="evenodd" clip-rule="evenodd" d="M257.937 407.118C260.461 406.102 263.302 405.694 264.691 406.254C265.913 406.746 266.311 408.031 266.532 409.407C268.692 409.093 272.647 408.479 273.987 407.967C275.871 407.265 280.088 409.613 280.555 408.208C281.025 406.795 282.434 403.515 284.309 403.515C286.189 403.515 285.011 398.584 286.891 398.343C288.766 398.112 293.457 393.89 293.457 393.89C293.457 393.89 291.583 390.138 290.88 389.897C290.174 389.661 287.828 392.239 283.602 392.239C279.385 392.239 276.338 395.529 274.462 395.529C272.583 395.529 266.719 393.654 262.734 393.419C261.325 393.339 259.857 393.221 258.492 393.079C258.104 396.629 257.677 402.1 257.937 407.118Z" fill="#FAFAFA" stroke="#E2E2E2"/>
<path fill-rule="evenodd" clip-rule="evenodd" d="M388.401 535.821C385.893 534.417 374.632 536.759 371.669 533.946C368.694 531.128 362.628 536.164 365.249 536.602C368.998 537.226 374.632 540.516 380.734 540.668C386.835 540.83 395.119 537.855 394.972 536.288C394.811 534.722 390.904 537.226 388.401 535.821ZM397.236 456.862C394.885 457.106 391.625 457.98 392.155 459.302C392.778 460.863 390.584 461.801 388.091 461.801C388.091 461.801 379.325 461.182 376.822 459.926C374.929 458.982 366.568 459.464 362.628 459.757C362.608 459.916 362.554 460.072 362.432 460.239C361.495 461.644 353.984 465.475 352.575 464.772C351.172 464.07 350.466 467.123 347.652 467.821C344.835 468.528 340.614 467.586 340.384 468.764C340.144 469.938 338.269 473.223 336.628 474.863C334.985 476.508 336.394 478.389 334.048 478.849C332.501 479.174 331.858 482.041 331.004 484.566C331.157 484.645 331.299 484.751 331.466 484.807C334.901 485.896 337.561 489.972 337.095 493.877C336.628 497.794 342.101 499.209 344.605 496.381C347.103 493.572 354.146 497.951 354.146 499.828C354.146 501.703 346.951 497.794 342.878 500.77C338.818 503.735 346.009 506.554 345.077 509.688C344.13 512.822 346.952 517.191 350.549 517.043C354.151 516.891 358.209 522.833 360.399 521.733C362.593 520.643 357.744 512.35 358.524 511.097C359.31 509.844 363.683 513.288 365.873 510.778C368.066 508.278 364.312 506.403 361.027 506.554C357.744 506.711 360.87 502.175 364.782 504.522C368.689 506.863 370.569 503.898 372.439 503.578C374.314 503.265 374.785 496.543 368.998 494.976C363.22 493.415 363.997 499.209 360.238 495.28C356.488 491.383 363.683 492.939 363.683 489.653C363.683 486.367 357.896 481.674 355.079 477.76C352.266 473.856 358.995 471.976 360.552 474.795C362.122 477.608 366.338 477.141 368.998 476.041C371.669 474.952 366.186 469.938 371.03 468.062C375.885 466.18 375.884 469.47 377.45 470.099C379.01 470.719 380.42 466.18 385.421 466.18C388.027 466.18 390.334 467.909 392.567 469.578C393.927 468.082 395.041 467.217 395.041 465.946C395.041 464.305 398.094 463.598 398.094 461.015C398.094 459.777 397.608 458.217 397.236 456.862Z" fill="#FAFAFA" stroke="#E2E2E2"/>
<path fill-rule="evenodd" clip-rule="evenodd" d="M52.7278 289.61C51.4129 288.628 50.1809 287.559 49.2286 286.429C45.2113 281.701 43.5502 285.485 43.0884 288.324C42.6054 291.162 38.8327 287.377 36.4653 286.91C34.1066 286.429 37.1741 281.94 38.8327 280.753C39.9381 279.967 41.0321 277.777 41.7121 274.723C41.2705 274.723 40.8289 274.664 40.401 274.496C36.0236 272.777 29.9173 272.777 29.7655 276.687C29.6062 280.6 34.6097 279.191 34.769 281.69C34.9246 284.2 29.7655 283.566 26.1622 286.075C22.5702 288.579 18.6558 284.357 14.9032 286.233C11.1456 288.108 18.9669 290.308 16.1528 294.216C13.3362 298.131 16.3071 297.969 21.0019 301.725C25.6943 305.482 18.1866 306.42 18.1866 310.647C18.1866 314.866 12.4002 314.713 11.1456 317.532C9.90474 320.35 16.1528 325.977 21.6305 325.977C25.5399 325.977 34.6097 323.473 39.9331 318.47C45.2452 313.46 48.0631 318.308 52.9072 315.812C57.7639 313.308 54.7854 295.002 52.9072 291.241C52.5785 290.574 52.586 290.063 52.7278 289.61Z" fill="#FAFAFA" stroke="#E2E2E2"/>
<path fill-rule="evenodd" clip-rule="evenodd" d="M107.032 198.915C109.689 196.263 112.814 186.089 108.754 187.184C104.683 188.283 105.871 200.079 107.032 198.915ZM46.4995 232.871C50.7251 232.718 55.5692 225.519 53.5405 223.477C51.5054 221.449 43.3554 232.983 46.4995 232.871ZM140.495 311.423C140.814 306.728 130.489 303.448 129.39 305.943C128.296 308.447 125.953 308.143 124.225 305.329C122.51 302.506 125.798 299.845 124.078 299.536C122.349 299.221 120.166 295.307 120.639 293.744C121.109 292.184 117.977 282.167 112.659 280.915C107.34 279.662 106.56 272.15 105.625 268.084C104.683 264.018 101.235 266.197 98.5842 262.761C95.9218 259.319 91.3851 261.042 89.0377 261.199C86.6953 261.356 89.0377 256.81 92.7878 254.314C96.5454 251.81 100.928 238.503 100.928 235.851C100.928 233.185 84.506 233.337 81.3769 234.908C78.2454 236.47 75.1213 232.561 77.7736 231.462C80.4347 230.371 86.0667 224.891 85.7543 222.701C85.4457 220.511 89.6688 218.478 87.3201 216.44C84.9765 214.412 84.6603 219.106 82.629 220.668C80.5991 222.235 76.056 221.769 71.2069 220.826C66.3603 219.882 64.4846 226.767 64.6402 229.743C64.7995 232.718 59.0081 234.436 59.9428 236.941C60.8825 239.446 58.8526 241.321 57.2931 239.908C55.7285 238.503 54.0084 235.06 50.8769 237.566C47.7441 240.075 54.4752 243.36 58.5339 243.836C62.6052 244.297 55.4149 247.272 54.6295 251.643C53.8491 256.033 59.9428 254.157 60.2615 257.282C60.5814 260.413 51.5004 260.885 51.5004 263.85C51.5004 266.836 56.6645 262.447 59.0081 261.199C61.3568 259.943 57.7635 268.545 63.3956 267.612C69.0226 266.669 67.4543 259.01 69.4881 259.319C71.5256 259.629 68.5546 263.384 70.2772 266.669C71.9873 269.954 66.2059 274.968 66.5196 277.315C66.8282 279.662 78.0936 279.662 81.6881 275.905C85.2914 272.15 87.0014 276.22 84.506 279.039C82.0067 281.852 83.097 284.514 86.2311 285.614C89.3551 286.704 90.4567 287.018 89.0477 289.512C87.64 292.026 88.8834 296.712 88.1005 299.059C87.3201 301.406 77.6243 301.096 77.3107 299.536C76.9983 297.969 72.927 299.059 74.0311 301.249C75.1213 303.449 70.5833 305.791 70.897 307.829C71.2169 309.871 76.9983 309.389 77.1513 311.899C77.3056 314.398 72.927 317.37 66.9938 319.094C61.0419 320.812 68.2372 325.512 71.0526 323.473C73.8667 321.441 73.2469 324.878 77.3107 324.878C81.3769 324.878 83.8899 328.168 88.4154 326.449C92.9534 324.726 92.7978 326.449 89.3551 329.105C85.9112 331.771 80.7534 328.953 77.6243 330.672C74.4953 332.39 61.7708 344.329 64.1759 347.264C65.5849 348.978 67.4543 344.76 71.9873 342.88C76.5303 341.003 77.3057 344.126 79.8187 344.44C82.3166 344.76 82.4722 339.28 84.506 339.747C86.5397 340.219 88.4154 338.029 92.1667 338.656C95.9218 339.28 98.5842 337.872 100.46 336.31C102.337 334.747 107.335 339.432 108.909 338.342C110.466 337.243 117.351 335.99 120.794 336.142C124.225 336.31 133.148 332.233 135.489 330.043C137.838 327.854 134.083 327.392 130.959 327.854C127.827 328.329 128.451 324.726 131.739 321.598C135.022 318.47 140.185 316.117 140.495 311.423ZM54.9494 272.62C50.991 268.801 45.8935 274.792 41.7118 274.723C41.0318 277.777 39.9378 279.967 38.8324 280.753C37.1738 281.94 34.1062 286.429 36.4649 286.91C38.8324 287.377 42.6051 291.162 43.0881 288.324C43.5498 285.485 45.211 281.701 49.2283 286.429C50.1806 287.559 51.4126 288.628 52.7275 289.61C53.3761 287.465 58.3181 287.095 60.8825 284.514C64.0116 281.38 59.3268 276.844 54.9494 272.62Z" fill="#FAFAFA" stroke="#E2E2E2"/>
<path fill-rule="evenodd" clip-rule="evenodd" d="M107.032 198.915C109.689 196.263 112.814 186.089 108.754 187.184C104.683 188.283 105.871 200.079 107.032 198.915ZM46.4995 232.871C50.7251 232.718 55.5692 225.519 53.5405 223.477C51.5054 221.449 43.3554 232.983 46.4995 232.871ZM140.495 311.423C140.814 306.728 130.489 303.448 129.39 305.943C128.296 308.447 125.953 308.143 124.225 305.329C122.51 302.506 125.798 299.845 124.078 299.536C122.349 299.221 120.166 295.307 120.639 293.744C121.109 292.184 117.977 282.167 112.659 280.915C107.34 279.662 106.56 272.15 105.625 268.084C104.683 264.018 101.235 266.197 98.5842 262.761C95.9218 259.319 91.3851 261.042 89.0377 261.199C86.6953 261.356 89.0377 256.81 92.7878 254.314C96.5454 251.81 100.928 238.503 100.928 235.851C100.928 233.185 84.506 233.337 81.3769 234.908C78.2454 236.47 75.1213 232.561 77.7736 231.462C80.4347 230.371 86.0667 224.891 85.7543 222.701C85.4457 220.511 89.6688 218.478 87.3201 216.44C84.9765 214.412 84.6603 219.106 82.629 220.668C80.5991 222.235 76.056 221.769 71.2069 220.826C66.3603 219.882 64.4846 226.767 64.6402 229.743C64.7995 232.718 59.0081 234.436 59.9428 236.941C60.8825 239.446 58.8526 241.321 57.2931 239.908C55.7285 238.503 54.0084 235.06 50.8769 237.566C47.7441 240.075 54.4752 243.36 58.5339 243.836C62.6052 244.297 55.4149 247.272 54.6295 251.643C53.8491 256.033 59.9428 254.157 60.2615 257.282C60.5814 260.413 51.5004 260.885 51.5004 263.85C51.5004 266.836 56.6645 262.447 59.0081 261.199C61.3568 259.943 57.7635 268.545 63.3956 267.612C69.0226 266.669 67.4543 259.01 69.4881 259.319C71.5256 259.629 68.5546 263.384 70.2772 266.669C71.9873 269.954 66.2059 274.968 66.5196 277.315C66.8282 279.662 78.0936 279.662 81.6881 275.905C85.2914 272.15 87.0014 276.22 84.506 279.039C82.0067 281.852 83.097 284.514 86.2311 285.614C89.3551 286.704 90.4567 287.018 89.0477 289.512C87.64 292.026 88.8834 296.712 88.1005 299.059C87.3201 301.406 77.6243 301.096 77.3107 299.536C76.9983 297.969 72.927 299.059 74.0311 301.249C75.1213 303.449 70.5833 305.791 70.897 307.829C71.2169 309.871 76.9983 309.389 77.1513 311.899C77.3056 314.398 72.927 317.37 66.9938 319.094C61.0419 320.812 68.2372 325.512 71.0526 323.473C73.8667 321.441 73.2469 324.878 77.3107 324.878C81.3769 324.878 83.8899 328.168 88.4154 326.449C92.9534 324.726 92.7978 326.449 89.3551 329.105C85.9112 331.771 80.7534 328.953 77.6243 330.672C74.4953 332.39 61.7708 344.329 64.1759 347.264C65.5849 348.978 67.4543 344.76 71.9873 342.88C76.5303 341.003 77.3057 344.126 79.8187 344.44C82.3166 344.76 82.4722 339.28 84.506 339.747C86.5397 340.219 88.4154 338.029 92.1667 338.656C95.9218 339.28 98.5842 337.872 100.46 336.31C102.337 334.747 107.335 339.432 108.909 338.342C110.466 337.243 117.351 335.99 120.794 336.142C124.225 336.31 133.148 332.233 135.489 330.043C137.838 327.854 134.083 327.392 130.959 327.854C127.827 328.329 128.451 324.726 131.739 321.598C135.022 318.47 140.185 316.117 140.495 311.423ZM54.9494 272.62C50.991 268.801 45.8935 274.792 41.7118 274.723C41.0318 277.777 39.9378 279.967 38.8324 280.753C37.1738 281.94 34.1062 286.429 36.4649 286.91C38.8324 287.377 42.6051 291.162 43.0881 288.324C43.5498 285.485 45.211 281.701 49.2283 286.429C50.1806 287.559 51.4126 288.628 52.7275 289.61C53.3761 287.465 58.3181 287.095 60.8825 284.514C64.0116 281.38 59.3268 276.844 54.9494 272.62Z" fill="#FAFAFA" stroke="#E2E2E2"/>
<path fill-rule="evenodd" clip-rule="evenodd" d="M255.621 260.728C254.364 259.943 253.427 262.917 252.018 263.232C250.61 263.546 249.05 257.281 248.421 260.728C247.792 264.17 244.666 259.319 241.539 263.693C238.41 268.084 243.414 271.991 245.603 273.406C247.792 274.811 245.446 276.844 242.633 276.22C239.819 275.595 241.539 280.281 245.446 280.915C249.353 281.539 253.579 274.03 253.113 272.15C252.637 270.273 257.099 261.651 255.621 260.728ZM231.998 251.182C230.43 250.407 229.804 245.387 231.679 243.836C233.554 242.269 234.347 236.312 232.778 234.751C231.223 233.185 225.578 234.752 225.111 238.974C224.642 243.197 220.11 241.321 218.859 242.259C217.605 243.197 221.355 245.073 219.325 246.953C217.295 248.83 216.511 244.134 213.227 243.836C209.943 243.512 209.629 248.83 207.913 251.496C206.185 254.157 207.28 259.791 207.913 263.546C208.535 267.297 213.072 269.644 211.973 272.777C211.47 274.231 212.496 275.866 213.585 277.463C217.747 277.546 221.561 277.849 223.242 278.406C223.914 278.63 225.322 278.571 227.156 278.316C225.78 276.077 222.692 274.256 222.927 272.62C223.242 270.44 226.212 271.829 228.405 273.71C230.585 275.588 235.446 275.905 235.907 273.558C236.195 272.111 235.127 265.422 232.157 266.988C229.181 268.555 228.405 267.926 227.306 266.359C226.212 264.794 229.495 262.295 230.28 259.791C231.056 257.281 236.216 258.214 237.001 256.186C237.789 254.157 233.554 251.967 231.998 251.182Z" fill="#FAFAFA" stroke="#E2E2E2"/>
<path fill-rule="evenodd" clip-rule="evenodd" d="M318.484 231.932C312.546 232.095 309.763 243.79 311.29 245.712C312.546 247.272 324.424 231.775 318.484 231.932ZM371.365 94.2723C369.853 92.7748 366.845 88.7531 369.348 88.7531C371.866 88.7531 372.867 81.2205 369.853 79.7079C366.845 78.1967 369.853 71.6557 367.336 70.1519C364.823 68.6394 366.334 63.6122 366.845 60.0964C367.336 56.5705 357.283 53.5604 351.758 51.0462C346.231 48.532 343.723 44.5103 339.196 41.9961C334.677 39.4819 333.164 46.0128 333.164 50.0446C333.164 54.0663 329.144 54.5671 326.132 52.0479C323.113 49.5337 319.594 52.0479 315.074 50.0446C310.548 48.0262 312.566 54.5671 312.566 57.5822C312.566 60.5922 307.535 60.5922 304.521 60.5922C301.502 60.5922 296.481 63.1114 296.481 66.626C296.481 70.1432 291.962 72.1565 293.463 74.1749C294.969 76.182 292.962 78.1967 290.95 79.7079C288.942 81.2117 286.936 86.2351 285.424 87.7464C283.917 89.2539 286.429 91.7681 283.416 93.7815C280.408 95.7848 276.883 94.2723 275.377 95.7848C273.87 97.2973 275.377 100.823 274.88 105.351C274.37 109.863 270.85 114.897 267.838 118.913C264.829 122.94 268.844 123.952 270.356 124.443C271.857 124.954 271.857 127.468 270.356 130.478C268.844 133.508 265.325 131.485 263.318 130.994C261.31 130.478 255.779 132.997 252.764 138.025C249.746 143.054 250.748 146.069 251.754 148.583C252.755 151.097 249.246 154.117 251.754 159.145C254.267 164.173 250.747 165.18 251.258 169.201C251.754 173.223 257.785 172.717 258.292 176.739C258.792 180.756 256.279 182.268 254.267 182.268C252.259 182.268 252.764 186.29 254.777 187.297C256.78 188.308 256.279 195.34 255.278 197.358C254.267 199.367 247.739 197.358 248.239 199.863C248.74 202.382 246.728 206.397 246.728 208.417C246.728 210.424 246.227 216.96 244.215 215.447C243.425 214.859 242.156 214.815 240.914 214.982C240.919 215.296 240.924 215.609 240.914 215.973C240.759 219.882 242.168 223.801 245.604 226.61C249.045 229.433 246.384 233.651 249.354 237.566C252.328 241.483 251.385 244.297 254.669 247.115C257.958 249.93 258.272 251.496 256.863 255.095C255.46 258.699 259.68 257.752 259.832 259.943C259.999 262.143 258.905 266.669 259.999 268.865C261.088 271.054 263.282 268.865 268.285 268.712C273.286 268.555 272.04 265.422 272.192 262.447C272.343 259.476 274.856 260.885 275.475 259.01C276.102 257.127 280.638 256.661 284.235 258.214C287.828 259.791 289.704 257.127 290.336 253.371C290.955 249.615 292.987 254.157 294.086 254.933C295.18 255.719 298.469 249.149 300.024 244.925C301.59 240.692 299.873 241.483 296.275 245.544C292.678 249.615 294.715 241.483 296.124 238.193C297.521 234.908 297.375 225.352 297.841 223.172C298.317 220.983 299.249 217.692 303.784 216.754C308.32 215.816 314.263 210.184 313.331 207.842C312.389 205.49 319.584 201.586 319.584 199.234C319.584 196.882 312.075 189.683 309.577 188.121C307.069 186.56 301.6 187.806 302.067 186.089C302.532 184.371 301.433 177.638 300.815 174.196C300.187 170.749 304.718 167.154 304.718 163.864C304.718 160.579 304.566 156.822 307.535 155.728C310.504 154.637 308.635 151.823 312.546 150.88C316.447 149.943 315.672 144.31 319.898 142.587C324.119 140.869 324.424 139.45 329.906 136.803C335.379 134.136 344.606 127.881 346.177 124.591C347.733 121.31 340.536 117.858 345.078 114.415C349.612 110.978 345.857 107.06 349.141 105.813C352.425 104.555 353.676 102.842 356.027 100.337C358.368 97.8333 361.496 100.186 367.124 99.2429C369.186 98.899 371.07 99.066 372.852 99.4977C372.602 97.0124 372.048 94.9702 371.365 94.2723Z" fill="#FAFAFA" stroke="#E2E2E2"/>
<path fill-rule="evenodd" clip-rule="evenodd" d="M360.552 215.031C361.813 212.683 351.52 213.715 353.832 215.816C355.555 217.388 359.31 217.378 360.552 215.031ZM355.86 219.573C350.235 221.14 349.401 228.927 351.644 228.809C354.456 228.642 360.871 223.324 362.593 221.602C364.312 219.882 361.496 218.006 355.86 219.573ZM411.233 211.977C412.529 209.183 415.92 208.706 413.388 205.029C412.912 205.427 412.224 205.794 411.081 206.114C406.542 207.37 396.685 202.991 391.056 204.08C385.421 205.171 374.009 205.171 371.349 207.989C368.69 210.808 361.966 211.589 364.935 214.093C367.914 216.602 364.935 217.849 367.124 220.826C369.318 223.801 370.412 225.054 373.387 224.42C376.36 223.801 378.702 225.352 375.566 228.642L375.438 228.819C380.449 228.352 386.015 228.034 386.835 228.642C388.091 229.585 395.59 235.536 397.471 234.908C398.619 234.526 403.753 235.075 407.567 235.566C407.126 234.397 407.159 233.298 407.944 232.635C409.353 231.462 412.407 231.462 410.762 229.114C409.123 226.767 408.651 226.3 408.421 223.477C408.18 220.668 407.479 219.258 407.714 217.378C407.944 215.503 409.825 215.031 411.233 211.977Z" fill="#FAFAFA" stroke="#E2E2E2"/>
<path fill-rule="evenodd" clip-rule="evenodd" d="M438.763 27.4167C438.135 29.769 433.919 29.2983 434.071 26.9498C434.223 24.6063 427.504 22.7247 427.186 21.6226C426.871 20.5344 430.002 20.6875 432.51 22.0908C435.003 23.5055 436.731 22.5653 439.544 19.9067C442.367 17.2469 446.267 19.4398 446.739 17.0938C447.21 14.7453 442.2 13.1737 441.266 11.7679C440.324 10.3583 436.731 8.48048 433.291 9.1106C429.851 9.73444 429.694 8.32734 427.651 6.44953C425.625 4.57047 419.376 7.70224 419.376 12.0817C419.376 16.4662 415.454 15.3666 416.863 13.0194C418.277 10.6721 414.988 7.85663 418.12 7.07338C421.25 6.29639 419.524 1.60061 413.736 1.13116C407.945 0.665475 405.762 5.50937 407.169 7.07338C408.578 8.6424 403.254 15.3666 400.907 15.3666C398.565 15.3666 401.226 9.58256 401.069 6.44953C400.907 3.32403 398.722 5.04243 394.339 10.0495C389.967 15.0516 386.684 19.5917 384.181 20.0611C381.673 20.5344 381.986 15.521 386.055 13.3357C390.119 11.1415 390.281 5.19431 392.931 5.19431C395.59 5.19431 395.59 2.07007 391.685 1.13116C387.773 0.191002 387.144 4.57047 385.893 5.82569C384.636 7.07338 378.236 3.63031 378.388 4.88553C378.545 6.142 374.953 6.60141 376.509 8.94867C378.068 11.2959 375.733 13.3357 374.166 10.5202C372.602 7.70224 368.695 9.88883 366.82 13.0194C364.935 16.1549 362.433 15.993 364.312 17.0938C366.187 18.1858 366.035 22.4109 363.221 23.1917C360.399 23.9799 361.496 15.521 359.31 16.3068C357.116 17.0938 358.525 12.2361 361.496 12.2361C364.464 12.2361 367.439 7.85663 367.124 6.76334C366.605 4.93197 363.375 5.35623 363.375 7.70224C363.375 10.0495 358.682 9.58256 354.775 9.42064C350.869 9.2675 351.016 13.962 355.398 16.4599C359.771 18.9716 354.618 20.5344 352.425 18.654C350.235 16.7762 346.8 17.7139 344.449 18.8072C342.102 19.9067 350.084 22.7247 350.397 24.1318C350.701 25.5414 346.324 22.4109 345.386 23.5055C344.449 24.6063 340.07 22.7247 339.756 20.0611C339.437 17.4001 332.398 21.1557 336.32 22.0908C340.232 23.0322 338.818 25.5414 338.818 28.9832C338.818 32.42 334.279 29.769 335.221 26.7916C336.154 23.8205 332.398 24.4419 329.283 26.3172C326.152 28.1987 329.754 22.8779 328.498 20.2155C327.246 17.5607 324.424 20.2155 321.139 20.8469C317.856 21.4708 316.143 21.6226 318.175 23.8205C320.207 26.0109 319.897 29.1364 317.227 28.6694C314.573 28.1987 313.482 28.6694 313.787 31.1736C314.106 33.6778 310.352 33.8259 310.038 31.6456C309.729 29.4552 304.409 30.074 302.842 32.5882C301.281 35.0824 296.899 36.9677 297.369 39.7819C297.831 42.5949 301.281 38.3673 304.098 39.3049C306.912 40.2476 303.937 41.6572 305.508 43.0618C307.069 44.4764 306.755 47.9183 304.566 45.8848C302.375 43.8526 299.558 43.2137 299.087 46.5036C298.616 49.7935 296.275 46.0379 294.396 43.6856C292.52 41.3384 290.646 48.0752 288.614 46.5036C286.586 44.9421 292.678 40.0957 291.111 37.7434C289.552 35.4012 288.451 39.1581 284.859 42.7518C281.261 46.3467 276.422 46.1986 278.139 47.9182C279.857 49.6366 274.537 50.5793 273.604 53.5454C272.662 56.5253 265.31 57.6211 260.612 60.7541C255.92 63.8721 261.554 64.0353 264.214 61.0579C266.88 58.083 267.818 59.8115 272.039 57.1504C276.264 54.4881 280.794 52.2977 282.36 53.3885C283.917 54.4881 286.586 55.2738 288.614 52.4559C290.646 49.6366 293.154 50.2555 295.18 51.9839C297.217 53.7073 291.745 55.1169 294.238 57.6211C296.742 60.1303 291.274 61.5198 291.274 59.3395C291.274 57.1504 288.148 55.2738 287.049 57.3023C285.948 59.3395 284.078 61.5198 282.045 61.6868C280.019 61.8449 277.826 65.6005 277.826 69.3574C277.826 73.108 274.222 69.3574 273.919 72.6423C273.604 75.9272 268.594 81.7113 264.214 85.9351C259.842 90.1627 263.901 91.1003 262.492 93.7664C261.088 96.4237 255.92 94.0765 254.212 95.1723C252.485 96.2756 255.145 102.842 252.803 104.879C250.452 106.907 252.803 109.722 252.803 112.073C252.803 114.415 246.702 110.664 246.237 113.011C245.765 115.359 240.44 114.74 238.877 115.359C237.315 115.986 242.014 119.733 244.828 121.929C247.639 124.124 242.168 125.842 241.539 123.338C240.913 120.833 237.001 124.905 232.157 127.094C227.306 129.284 229.341 133.665 225.591 133.822C221.833 133.979 222.927 139.921 220.425 141.796C217.917 143.683 218.55 137.426 214.633 137.264C210.729 137.112 211.038 139.921 213.382 143.211C215.727 146.491 209.788 143.997 207.595 146.815C205.405 149.629 199.145 148.219 197.429 150.566C195.714 152.914 202.116 152.914 203.057 154.789C203.997 156.674 197.429 155.728 193.986 154.947C190.549 154.171 191.491 159.327 188.354 158.703C185.225 158.074 181.321 161.36 183.515 163.559C185.705 165.75 181.788 166.06 179.598 164.65C177.409 163.245 175.535 166.682 174.749 169.343C173.966 172.006 178.973 173.42 178.818 174.657C178.664 175.914 174.749 177.947 177.565 178.585C180.381 179.199 178.349 181.703 176.474 182.484C174.595 183.28 174.595 185.155 176.474 187.497C178.349 189.85 173.186 190.312 175.689 193.917C178.192 197.51 180.063 192.968 181.162 195.63C182.262 198.296 185.225 195.949 188.673 192.816C192.112 189.693 193.365 196.258 190.549 196.106C187.733 195.949 184.45 197.657 185.071 200.485C185.7 203.294 180.699 202.829 180.853 199.387C181.002 195.949 175.067 200.01 177.25 202.519C179.444 205.018 176.474 206.427 176.474 208.775C176.474 211.122 180.699 210.651 182.416 207.989C184.131 205.338 186.948 205.956 188.043 208.623C189.142 211.279 185.385 209.245 185.385 212.84C185.385 216.44 183.042 213.312 181.002 216.13C178.973 218.95 188.983 224.111 192.112 224.891C195.241 225.676 198.211 229.114 204.465 228.18C210.729 227.238 222.608 215.665 224.172 213.626C225.742 211.589 229.181 213.941 231.525 212.06C233.872 210.184 232.465 205.338 234.187 204.405C235.907 203.453 236.842 209.561 238.41 210.184C239.824 210.744 240.849 211.859 240.913 214.982C242.155 214.815 243.425 214.859 244.214 215.447C246.227 216.96 246.727 210.424 246.727 208.417C246.727 206.397 248.74 202.382 248.239 199.863C247.739 197.359 254.266 199.367 255.278 197.359C256.279 195.34 256.779 188.308 254.777 187.297C252.763 186.29 252.259 182.268 254.266 182.268C256.279 182.268 258.792 180.756 258.291 176.739C257.784 172.717 251.753 173.223 251.258 169.201C250.747 165.18 254.266 164.173 251.753 159.145C249.245 154.117 252.755 151.097 251.753 148.583C250.747 146.069 249.746 143.054 252.763 138.026C255.778 132.997 261.31 130.478 263.317 130.994C265.325 131.485 268.844 133.508 270.356 130.478C271.856 127.468 271.856 124.954 270.356 124.443C268.844 123.952 264.829 122.94 267.838 118.914C270.85 114.897 274.369 109.863 274.88 105.351C275.377 100.823 273.87 97.2974 275.377 95.7848C276.882 94.2723 280.408 95.7848 283.415 93.7815C286.429 91.7681 283.917 89.2539 285.424 87.7464C286.936 86.2351 288.942 81.2117 290.949 79.708C292.962 78.1967 294.969 76.182 293.462 74.1749C291.962 72.1566 296.481 70.1432 296.481 66.6261C296.481 63.1114 301.502 60.5922 304.521 60.5922C307.534 60.5922 312.565 60.5922 312.565 57.5822C312.565 54.5672 310.548 48.0262 315.073 50.0446C319.594 52.0479 323.113 49.5337 326.132 52.0479C329.144 54.5672 333.164 54.0663 333.164 50.0446C333.164 46.0128 334.677 39.4819 339.196 41.9961C339.55 42.1932 339.879 42.4128 340.222 42.63C341.714 39.266 344.566 37.1397 347.236 37.4685C351.261 37.9794 353.763 45.0112 358.795 46.0128C363.821 47.0195 368.847 49.0379 370.353 46.5137C371.865 43.9995 375.385 48.0262 378.393 47.0195C381.407 46.0128 381.407 52.5538 384.425 48.5321C387.439 44.5103 383.924 41.9961 388.95 42.502C393.976 42.9978 390.963 36.9677 390.963 33.4468C390.963 29.9309 397.491 29.4251 397.491 26.41C397.491 23.3925 406.542 25.9029 408.044 23.8908C409.556 21.88 414.575 20.3812 416.594 23.8908C418.6 27.4117 427.142 28.4134 427.646 31.4385C427.887 32.897 427.656 35.1953 427.646 37.3305C429.036 35.956 430.808 34.9255 432.51 34.9255C435.632 34.9255 438.445 30.236 441.266 30.8598C443.608 31.3795 445.924 30.9866 446.646 27.069C444.123 25.49 439.337 25.2829 438.763 27.4167Z" fill="#FAFAFA" stroke="#E2E2E2"/>
<path fill-rule="evenodd" clip-rule="evenodd" d="M317.843 436.355C315.673 439.282 313.554 442.994 313.793 444.208C313.901 444.741 313.719 445.945 313.355 447.488C316.145 449.741 318.843 452.009 320.831 453.041C321.034 453.15 321.204 453.238 321.396 453.336C322.015 449.859 324.41 446.269 326.148 445.852C323.717 442.871 320.144 438.663 317.843 436.355Z" fill="#FAFAFA" stroke="#E2E2E2"/>
<path fill-rule="evenodd" clip-rule="evenodd" d="M354.927 433.792C352.576 431.671 352.818 427.929 354.927 426.514C357.039 425.101 355.16 423.224 355.16 420.882C355.16 418.53 345.079 417.828 343.428 417.361C341.789 416.89 344.607 410.787 342.025 410.787C339.438 410.787 338.506 408.915 338.506 407.029C338.506 405.154 334.516 402.1 334.751 400.925C334.784 400.763 334.897 400.606 335.042 400.449C333.593 400.234 332.478 400.053 332.066 399.962C330.324 399.62 327.526 398.574 327.526 398.574C327.526 398.574 321.017 400.675 316.502 402.051C316.807 404.81 317.528 407.806 319.26 408.454C322.623 409.715 321.366 413.074 322.623 416.025C323.884 418.971 323.463 432.427 321.784 432.427C321.073 432.427 319.443 434.173 317.843 436.355C320.144 438.663 323.717 442.871 326.148 445.852L326.471 445.759C328.566 445.759 336.262 451.361 336.262 451.361C336.262 451.361 347.149 449.092 354.487 448.026C354.595 446.903 354.825 445.612 354.693 444.82C354.457 443.412 356.107 440.598 358.211 440.598C360.322 440.598 357.269 435.903 354.927 433.792Z" fill="#FAFAFA" stroke="#E2E2E2"/>
<path fill-rule="evenodd" clip-rule="evenodd" d="M82.0373 166.13C87.2314 165.87 87.1035 160.134 89.2326 160.401C91.3742 160.673 94.8332 156.402 96.1669 153.736C97.4993 151.071 94.7015 146.272 91.5047 146.272C88.3004 146.272 85.904 143.737 86.5753 141.87C87.2402 140.004 84.8351 137.602 84.9719 136.272C85.1036 134.938 80.9759 136.13 78.838 136.674C76.7101 137.201 72.1784 131.468 70.181 132.531C68.1837 133.602 69.644 136.397 69.1133 138C68.5789 139.603 63.7849 136.532 63.7849 138.402C63.7849 140.267 61.7838 140.531 60.1854 138.531C58.5857 136.532 54.8469 137.732 54.9875 139.331C55.1192 140.929 53.3853 139.603 50.3202 137.732C47.2564 135.87 44.0546 139.869 44.3231 141.87C44.5928 143.875 43.2542 144.397 40.7223 140.004C38.1917 135.603 35.2584 140.398 36.5946 142.808C37.9308 145.202 37.395 148.13 35.3989 146.933C33.3965 145.736 30.7305 147.732 29.531 149.602C28.3329 151.469 24.0671 144.13 27.1322 142.401C30.1985 140.674 17.4025 133.331 13.4065 133.331C9.40802 133.331 12.0703 136.272 14.7402 138.402C17.4025 140.531 12.867 140.004 11.4041 138.13C9.93748 136.272 7.13965 137.732 5.53749 140.398C3.94411 143.066 1.27175 144.535 1.01079 146.402C0.742296 148.268 5.53749 150.273 9.67149 148.535C13.8042 146.803 18.4664 146.532 20.6043 148.535C22.7372 150.531 16.7376 151.335 18.8667 152.932C21.0033 154.532 19.2682 155.871 14.207 155.468C9.14079 155.071 3.01192 156.531 3.94411 158.268C4.87254 159.996 16.8693 156.807 17.0048 158.536C17.1365 160.272 17.0048 163.2 20.2041 161.871C23.4022 160.539 21.2643 164.272 22.8614 164.932C24.4623 165.603 24.0671 168.8 19.8026 169.071C15.5369 169.336 13.458 170.193 15.2671 172.001C17.5343 174.272 22.2015 172.665 26.7282 171.603C31.2561 170.532 37.794 176 43.1224 178.134C48.4546 180.272 57.6498 177.335 58.7175 174.532C59.7864 171.728 66.9792 172.799 69.9088 170.799C72.8433 168.8 76.8368 166.402 82.0373 166.13Z" fill="#FAFAFA" stroke="#E2E2E2"/>
<path fill-rule="evenodd" clip-rule="evenodd" d="M232.866 389.372C232.866 389.372 232.998 386.309 229.704 385.707C226.411 385.107 226.617 383.965 226.307 382.91C226.149 382.373 225.188 380.976 225.188 380.976C225.188 380.976 223.384 381.153 223.834 384.191C223.979 385.178 224.057 385.84 224.096 386.28C224.159 387.005 224.483 387.67 225.016 388.163C225.834 388.919 227.077 389.799 228.294 389.609C230.358 389.29 231.169 389.055 232.866 389.372Z" fill="#FAFAFA" stroke="#E2E2E2"/>
<path fill-rule="evenodd" clip-rule="evenodd" d="M122.512 446.35C122.512 446.35 121.546 450.181 127.427 449.947C127.427 449.947 131.308 447.985 134.836 449.24C138.366 450.495 137.072 447.318 137.072 447.318C137.072 447.318 133.582 446.652 132.17 445.357C130.759 444.062 129.74 443.082 128.368 443.239C126.995 443.396 127.506 444.651 127.506 444.651C127.506 444.651 127.714 446.324 122.512 446.35Z" fill="#FAFAFA" stroke="#E2E2E2"/>
<path fill-rule="evenodd" clip-rule="evenodd" d="M200.627 432.099C200.627 432.099 197.984 431.676 195.216 432.922C193.934 433.499 191.129 432.958 190.708 435.394C189.374 443.082 194.55 436.728 194.55 436.728L199.49 432.569L200.666 432.099H200.627Z" fill="#FAFAFA" stroke="#E2E2E2"/>
<path fill-rule="evenodd" clip-rule="evenodd" d="M456.281 291.786C454.4 291.314 453.229 287.095 450.175 285.918C447.126 284.744 447.835 280.988 445.252 279.348C442.676 277.698 444.309 274.418 444.075 271.829C443.843 269.253 444.55 265.26 443.143 264.557C441.729 263.85 435.863 260.566 433.291 261.744C430.705 262.917 428.829 263.85 427.652 261.744C426.484 259.629 424.845 258.454 422.263 259.157C419.676 259.863 418.032 258.69 416.629 257.511C416.418 257.33 416.24 257.054 416.093 256.74C415.053 256.956 413.683 257.359 412.804 258.066C411.234 259.319 410.925 261.818 408.731 261.818C406.543 261.818 404.045 260.885 401.54 262.761C399.032 264.636 398.409 266.836 398.722 268.388C399.032 269.954 399.351 272.463 397.472 272.463C395.591 272.463 395.911 274.657 394.031 275.281C392.156 275.905 389.025 278.724 388.711 280.281C388.402 281.852 388.402 285.294 387.145 285.294C385.894 285.294 381.519 285.918 380.264 287.485C379.017 289.051 377.462 290.613 374.954 289.989C373.668 289.665 370.227 289.512 367.197 289.439C367.243 289.749 367.243 290.053 367.125 290.377C365.957 293.667 366.889 296.712 368.768 298.356C370.648 299.997 371.35 306.571 369.24 307.514C367.125 308.447 363.139 311.266 363.139 312.91C363.139 314.552 367.359 315.96 366.659 318.308C366.26 319.653 366.246 322.04 366.471 324.112C368.47 324.2 370.437 324.554 372.131 322.85C374.01 320.969 374.954 318.78 379.017 318.78C383.081 318.78 395.282 318.78 397.158 320.969C399.032 323.164 404.045 321.284 406.851 322.535C409.673 323.788 413.737 325.045 414.046 323.473C414.365 321.913 418.12 325.663 420.933 324.102C423.751 322.535 426.248 327.23 427.819 326.292C429.379 325.35 435.946 325.353 437.507 326.921C439.083 328.481 439.382 325.35 439.382 323.473C439.382 321.598 445.651 316.593 445.651 316.593C445.651 316.593 449.91 316.363 452.448 315.219C451.882 314.408 451.403 313.073 450.877 310.799C449.714 305.629 447.835 302.584 449.243 300.939C450.647 299.294 454.638 303.051 456.743 302.113C458.858 301.174 462.612 299.294 462.14 297.184C461.675 295.071 458.156 292.253 456.281 291.786Z" fill="#FAFAFA" stroke="#E2E2E2"/>
<path fill-rule="evenodd" clip-rule="evenodd" d="M272.344 293.196C273.05 295.071 273.758 301.641 272.113 304.229C270.475 306.808 271.18 307.514 272.82 308.447C274.463 309.389 275.166 311.737 275.166 313.613C275.166 315.49 276.339 315.263 276.575 319.251C276.805 323.237 277.749 326.051 279.157 327.697C280.257 328.983 280.054 330.957 279.475 332.44C281.444 333.894 283.653 335.298 285.592 335.99C290.485 337.742 292.236 339.137 292.575 340.885C292.934 342.635 297.125 345.786 298.176 343.336C299.221 340.896 302.014 342.29 304.114 342.29C306.215 342.29 306.563 344.735 306.902 346.131C307.255 347.529 312.145 346.838 313.901 347.878C315.644 348.929 316.34 352.775 318.789 354.173C321.239 355.568 323.325 352.425 325.081 353.475C326.825 354.522 331.374 355.568 334.167 354.522C336.955 353.475 338.706 355.568 342.202 355.225C345.686 354.871 350.236 356.266 351.282 357.316C351.836 357.866 354.791 358.416 357.479 358.819C358.177 357.385 356.823 352.961 357.039 351.871C357.269 350.701 365.48 343.424 366.889 341.779C368.298 340.14 370.413 340.14 371.583 338.029C372.76 335.911 368.298 329.105 367.36 327.697C366.422 326.292 365.957 320.66 366.66 318.308C367.36 315.961 363.139 314.552 363.139 312.91C363.139 311.266 367.125 308.447 369.24 307.514C371.351 306.572 370.648 299.997 368.769 298.356C366.889 296.712 365.957 293.667 367.125 290.377C368.298 287.096 360.092 284.514 358.913 284.514C358.723 284.514 358.605 284.303 358.526 284.023C351.199 285.382 332.438 283.429 331.021 282.863C330.093 282.491 327.717 281.637 325.676 280.91C324.744 282.461 322.805 283.886 319.888 283.886C315.359 283.886 315.039 279.348 314.887 277.315C314.74 275.281 296.59 279.04 291.737 283.886C286.891 288.736 275.627 286.856 275.323 289.512C275.087 291.447 273.399 292.449 272.3 291.908C272.221 292.38 272.207 292.822 272.344 293.196Z" fill="#FAFAFA" stroke="#E2E2E2"/>
<path fill-rule="evenodd" clip-rule="evenodd" d="M289.434 363.267C286.64 360.114 279.656 360.114 279.656 360.114C279.656 360.114 278.954 363.267 277.905 365.011C277.025 366.474 271.949 366.454 268.697 365.576C267.773 366.783 263.547 367.727 262.964 369.474C262.257 371.592 257.099 370.417 258.743 376.045C260.383 381.681 256.165 379.806 254.522 379.098C252.876 378.398 245.603 379.335 243.729 381.211C241.848 383.091 239.267 382.614 237.623 381.681C235.983 380.749 232.703 380.273 231.294 382.614C229.885 384.966 227.306 380.749 225.188 380.976C223.083 381.211 224.017 385.669 224.017 386.613C224.017 387.545 227.306 390.364 229.412 389.431C231.525 388.488 234.108 389.661 235.983 390.835C237.861 392.013 241.38 389.897 242.551 388.723C243.729 387.545 250.296 387.545 250.997 387.545C251.704 387.545 251.934 391.306 253.113 392.013C254.28 392.716 258.743 393.187 262.734 393.419C266.719 393.654 272.583 395.529 274.462 395.529C276.338 395.529 279.385 392.239 283.602 392.239C287.828 392.239 290.174 389.661 290.88 389.897L290.922 389.931C291.225 388.625 291.715 387.57 292.634 387.437C294.346 387.201 293.119 384.256 294.346 382.787C295.574 381.324 293.364 378.381 295.574 378.622C297.772 378.874 300.217 379.118 300.217 375.936C300.217 374.861 300.796 373.914 301.635 373.123C299.215 369.73 297.477 364.308 297.477 364.308C297.477 364.308 292.235 366.41 289.434 363.267Z" fill="#FAFAFA" stroke="#E2E2E2"/>
<path fill-rule="evenodd" clip-rule="evenodd" d="M357.268 372.058C356.459 371.793 355.57 371.233 354.79 370.545C351.845 369.887 349.002 369.022 348.134 368.159C346.392 366.41 339.408 365.36 338.353 365.011C337.312 364.653 330.666 371.301 328.566 371.301C326.471 371.301 317.385 372.351 317.385 374.793C317.385 377.243 306.215 377.602 303.063 374.793C302.567 374.351 302.092 373.761 301.635 373.123C300.796 373.914 300.217 374.86 300.217 375.936C300.217 379.118 297.772 378.873 295.574 378.622C293.365 378.381 295.574 381.324 294.346 382.787C293.119 384.256 294.346 387.201 292.634 387.437C291.715 387.57 291.225 388.625 290.922 389.931C291.656 390.285 293.457 393.89 293.457 393.89C293.457 393.89 293.365 393.977 293.218 394.104C295.598 395.529 300.452 398.584 302.013 400.665C304.113 403.461 310.052 403.813 312.845 403.115C315.643 402.423 327.526 398.574 327.526 398.574C327.526 398.574 330.324 399.62 332.065 399.962C332.478 400.053 333.592 400.234 335.041 400.449C335.894 399.566 338.52 398.81 341.322 396C344.606 392.716 349.533 380.976 350.937 380.041C352.346 379.098 356.106 376.988 357.981 375.583C359.85 374.169 359.39 372.764 357.268 372.058Z" fill="#FAFAFA" stroke="#E2E2E2"/>
<path fill-rule="evenodd" clip-rule="evenodd" d="M420.308 410.787C418.12 410.476 415.297 409.544 416.24 408.286C416.299 408.208 416.427 408.051 416.521 407.928C413.59 405.557 412.819 397.881 414.689 396.006C417.074 393.615 410.856 384.526 407.994 381.182C406.65 379.605 403.738 374.376 401.02 369.248C398.537 370.054 396.339 370.958 395.911 371.675C394.974 373.231 391.837 374.807 389.968 374.807C388.092 374.807 386.213 373.864 384.647 375.427C383.081 376.988 380.897 377.617 379.954 376.683C379.017 375.74 375.886 374.807 373.691 374.807C371.512 374.807 364.632 372.921 363.066 372.921C362.137 372.921 360.631 373.049 358.991 373.275C359.346 373.953 359.07 374.763 357.981 375.584C356.106 376.988 352.346 379.098 350.937 380.041C349.533 380.976 344.607 392.716 341.322 396C338.039 399.286 334.986 399.757 334.75 400.925C334.516 402.1 338.505 405.154 338.505 407.029C338.505 408.915 339.437 410.787 342.024 410.787C344.607 410.787 341.789 416.89 343.427 417.361C345.078 417.828 355.159 418.53 355.159 420.882C355.159 422.71 356.272 424.246 355.787 425.512C358.623 425.984 360.705 429.843 361.814 429.568C363.066 429.254 371.512 431.131 373.073 430.82C374.634 430.506 381.834 430.82 384.338 431.131C386.836 431.446 389.648 430.192 391.837 428.002C394.031 425.807 401.859 425.497 404.358 425.807C406.851 426.126 411.862 426.75 412.804 428.322C413.296 429.138 416.24 430.364 419.219 431.366C419.573 429.815 419.116 427.791 419.209 425.807C419.366 422.523 421.242 417.518 424.526 417.204C427.809 416.89 430.47 416.89 430.003 411.419C429.993 411.228 429.993 411.086 429.979 410.914C428.314 409.49 426.758 408.286 426.248 408.286C425.002 408.286 421.242 410.918 420.308 410.787Z" fill="#FAFAFA" stroke="#E2E2E2"/>
<path fill-rule="evenodd" clip-rule="evenodd" d="M292.212 462.115C288.148 459.621 290.803 455.545 284.392 455.85C277.978 456.174 270.317 448.189 267.971 438.952C265.624 429.731 255.622 429.254 253.114 423.774C250.611 418.294 255.46 417.676 253.276 413.138C252.054 410.614 254.752 408.381 257.938 407.118C257.677 402.1 258.105 396.629 258.492 393.079C256.008 392.824 253.874 392.465 253.114 392.013C251.934 391.306 251.705 387.545 250.997 387.545C250.296 387.545 243.729 387.545 242.551 388.723C241.381 389.897 237.861 392.013 235.983 390.834C235.579 390.59 235.132 390.335 234.676 390.109L232.63 392.013C232.63 392.013 232.31 394.519 231.056 394.519C229.814 394.519 227.931 393.585 227.931 395.765C227.931 397.96 224.489 397.331 222.927 397.023C221.365 396.709 219.176 397.331 219.176 399.212C219.176 401.088 218.86 405.164 216.361 402.974C213.858 400.775 211.345 395.142 210.41 395.765C209.475 396.394 207.286 403.277 205.097 403.277C203.74 403.277 199.281 403.631 196.073 403.916C195.232 406.613 196.13 408.218 197.272 408.915C198.448 409.613 196.566 412.431 195.16 413.138C193.756 413.84 191.409 413.138 193.052 415.715C194.697 418.294 197.745 418.53 196.1 421.113C194.461 423.696 196.1 426.043 198.448 426.278C200.792 426.514 204.08 426.043 203.372 427.929C202.96 429.028 202.321 430.281 202.185 431.509C204.029 430.974 205.661 430.884 207.286 430.031C210.574 428.322 209.165 425.34 214.633 423.774C220.111 422.212 227.306 426.75 229.495 430.031C231.685 433.321 232.31 433.635 232.779 436.301C233.252 438.952 235.282 444.28 242.786 449.127C250.296 453.985 253.276 459.454 257.178 461.487C261.088 463.529 265 463.059 267.348 465.872C269.694 468.684 272.819 470.252 276.574 471.976C280.324 473.704 280.481 477.76 284.078 478.237C287.671 478.702 285.33 481.835 287.52 484.491C289.704 487.147 290.336 492.786 287.991 495.919C285.644 499.052 286.891 504.364 288.462 504.364C290.023 504.364 293.306 498.732 293.778 495.605C294.238 492.472 297.375 492.638 299.873 489.343C302.376 486.058 296.124 485.272 295.034 481.05C293.934 476.822 299.726 473.065 305.194 476.508C310.661 479.95 312.861 482.301 313.164 476.984C313.483 471.666 296.276 464.619 292.212 462.115ZM215.57 467.123C212.138 470.099 209.301 466.603 207.913 469C206.186 471.976 213.228 476.508 211.819 482.611C210.41 488.71 212.599 496.381 216.196 492.786C219.795 489.191 221.52 490.911 223.55 488.245C225.578 485.591 223.863 475.733 225.271 471.038C226.678 466.342 219.012 464.148 215.57 467.123ZM276.102 502.646C269.684 504.05 267.033 504.522 263.283 502.646C259.524 500.77 253.446 504.354 254.365 506.863C254.988 508.592 257.496 510.778 265.31 512.822C273.134 514.849 274.071 520.166 277.355 520.328C280.638 520.481 280.952 517.348 280.171 513.126C279.386 508.903 284.078 504.05 284.546 503.264C285.012 502.489 282.507 501.237 276.102 502.646Z" fill="#FAFAFA" stroke="#E2E2E2"/>
<path fill-rule="evenodd" clip-rule="evenodd" d="M514.841 418.537L516.976 420.169L518.149 414.867L518.029 413.194L521.333 409.387L524.886 409.137L525.012 410.914L528.331 410.679L531.882 410.429L535.203 408.407L535.079 406.63L533.281 404.975L533.164 403.331L534.838 403.213L534.701 401.302L533.029 401.422L529.375 401.68L525.954 403.841L524.637 405.586L522.986 407.486L516.116 407.971L515.99 406.197L513.861 404.695L510.425 406.592L508.767 405.054L508.633 403.147L506.856 403.271L505.184 403.391L504.966 400.307L503.057 398.554L500.926 397.023L499.638 400.683L498.102 402.344L497.996 400.8L496.189 399.041L494.177 399.182L494.06 397.51L492.516 397.618L492.877 402.712L491.211 404.377L487.924 406.53L488.042 408.172L484.358 408.432L482.705 410.333L482.831 412.11L479.641 414.121L479.767 415.898L482.957 413.886L484.736 413.76L486.509 413.637L488.544 415.277L492.082 416.707L493.737 414.909L493.857 416.583L495.64 419.893L494.224 421.777L496.01 425.119L494.602 427.107L494.718 428.779L499.945 428.412L501.716 430.069L506.918 427.918L508.221 422.573L509.871 420.673L511.285 418.789L514.726 416.889L514.841 418.537Z" fill="#FAFAFA" stroke="#E2E2E2"/>
</svg>
